<svg width="238" height="76" viewBox="0 0 238 76" fill="none" xmlns="http://www.w3.org/2000/svg">
<path d="M73.5105 48.477V45.0844V30.8271H73.4424C73.2589 30.9011 73.1109 30.9366 72.9984 30.9366C72.7941 31.0343 72.2464 31.0817 71.3554 31.0817L71.3198 31.1172H71.2162C70.7603 31.1172 70.3311 31.1054 69.9344 31.0817C69.5347 31.058 69.1647 31.0225 68.8242 30.9721C68.7324 30.9485 68.5903 30.9189 68.395 30.8833C68.1996 30.8478 67.945 30.8034 67.6253 30.756C67.3736 30.7087 67.0894 30.6524 66.7697 30.5932C66.45 30.531 66.0859 30.4659 65.6744 30.3919C64.4665 30.1491 63.4274 30.0278 62.56 30.0278H62.3883C62.2965 30.0515 62.0331 30.0633 61.6008 30.0633C60.5736 30.1847 59.718 30.7412 59.0342 31.7359V31.2623C59.0342 30.7057 59.2384 30.0603 59.6499 29.335C60.8134 27.396 62.6044 26.4131 65.0201 26.3894L65.1918 26.3154C65.9438 26.3658 67.1753 26.5108 68.8864 26.7536L70.7662 27.1177C70.8817 27.1651 71.0445 27.2154 71.2636 27.2628C71.4797 27.3101 71.758 27.3605 72.1014 27.4078L72.8208 27.4818L73.5401 27.5914H74.3957L74.4312 27.5558H74.9108L74.9434 27.5914C75.8789 27.5914 76.6782 27.3605 77.3383 26.9016L77.5456 27.0466C77.4775 27.3634 77.3443 27.6891 77.1518 28.0295C76.9594 28.3699 76.7374 28.6838 76.4857 28.9739C76.2341 29.264 75.9617 29.5245 75.6657 29.7554C75.3697 29.9863 75.0736 30.164 74.7776 30.2824V43.9565V48.474H73.5105V48.477ZM69.3837 46.8162C68.3535 47.8227 67.2671 48.326 66.1243 48.326H65.8727V48.2816H65.4967L65.7898 47.9263V47.7931L65.8727 47.7487C65.8727 47.6895 65.8845 47.6451 65.9141 47.6155L66.0414 47.4823C66.0414 47.3639 66.1095 47.2307 66.2516 47.0826V46.9494L66.2931 46.905V46.8162L66.3345 46.7718V35.7561L65.1237 36.3778V34.5572L70.1357 31.4488H71.012V43.4857C71.012 44.6373 70.4702 45.7475 69.3837 46.8162Z" fill="white"/>
<path d="M87.3593 32.7929L87.3238 42.8375C87.3238 43.249 87.1965 43.6694 86.9419 44.0928C86.6873 44.5161 86.3172 44.9838 85.8317 45.493C84.7897 46.464 83.7713 46.9495 82.7766 46.9495C83.2118 46.4167 83.4309 45.9667 83.4309 45.6026V40.5462L83.3598 35.7799C83.3598 34.6402 83.6884 33.7314 84.3427 33.0505C84.8518 32.5413 85.6393 31.9847 86.708 31.3778C86.9034 31.2801 87.0662 31.1943 87.1994 31.1232C87.3327 31.0492 87.4955 30.99 87.6909 30.9427C87.6849 30.9367 87.4126 31.6443 87.3593 32.7929ZM95.7668 26.3511C97.2234 27.032 98.1914 28.2931 98.6769 30.1345C98.7006 30.2558 98.7213 30.3595 98.7332 30.4423C98.745 30.5282 98.7628 30.617 98.7894 30.7147C98.7894 30.765 98.7953 30.8124 98.8072 30.8598C98.819 30.9101 98.8249 30.9575 98.8249 31.0048V31.514C98.8249 32.7041 98.4608 33.9149 97.7326 35.1523C97.1257 36.2447 96.3145 37.1062 95.2932 37.7368C96.7497 38.4413 97.6822 39.8002 98.0937 41.8132V41.7777L98.1322 41.9228C98.1559 42.0442 98.1796 42.1537 98.2033 42.2514C98.2269 42.3728 98.2447 42.4882 98.2565 42.5978C98.2684 42.7073 98.298 42.8346 98.3483 42.9796C98.3483 43.1513 98.4815 43.6724 98.748 44.5457C98.9907 45.2503 99.1979 45.7091 99.3667 45.9282C99.6598 46.2923 100.071 46.4729 100.604 46.4729C100.651 46.4492 100.702 46.4315 100.749 46.4196C100.797 46.4078 100.847 46.39 100.894 46.3663H100.859C100.956 46.319 101.096 46.2686 101.276 46.2213C101.457 46.1739 101.646 46.1236 101.842 46.0762L99.2216 50.2237H99.1121L99.0736 50.2593H98.9641L98.9286 50.2948H98.7835C98.4194 50.2948 98.0434 50.2208 97.6556 50.0757C97.2678 49.9307 96.88 49.6879 96.4921 49.3475C95.7876 48.7909 95.3494 48.2077 95.1807 47.6008L94.636 45.9637C94.5146 45.6736 94.4169 45.1881 94.3459 44.5072C93.9344 41.3277 93.2298 39.6314 92.2351 39.4124V41.3781C92.2351 42.6392 91.3973 43.6457 89.7247 44.3977L88.28 44.8802C88.1527 44.9217 88.0195 44.9453 87.8833 44.9453H87.5399C87.8063 44.6315 88.0076 44.3444 88.1409 44.0898C88.2741 43.8352 88.3392 43.5747 88.3392 43.3082V32.7189C88.3392 32.4288 88.351 32.2571 88.3747 32.2097C88.3747 31.3127 88.8129 30.5608 89.6862 29.9539L95.7668 26.3511ZM95.4382 34.6491C95.5448 34.0333 95.5507 33.4027 95.4442 32.787C95.3169 32.0646 95.1836 31.7005 95.1836 31.7005C94.7721 30.5371 94.1534 29.7348 93.3275 29.2996C92.5992 29.8088 92.238 30.2085 92.238 30.5016V38.1068H92.3121C92.4068 38.0831 92.4986 38.0535 92.5844 38.0151C92.6703 37.9766 92.9545 37.8404 93.44 37.5976V37.6332C93.9255 37.2927 94.331 36.8753 94.6597 36.3779C94.9823 35.8806 95.2429 35.3033 95.4382 34.6491Z" fill="white"/>
<path d="M106.439 36.6502C106.531 33.8911 107.739 31.2445 110.065 28.7134C111.661 26.9815 113.325 26.1141 115.06 26.1141H115.368C115.368 26.1141 115.495 26.1023 115.572 26.1497L115.607 26.3894C113.28 27.5766 111.777 29.5719 111.093 32.3754C111.093 32.3754 110.51 34.3855 110.581 37.3696C110.581 39.1251 110.877 40.9161 111.472 42.7397C112.567 46.0021 114.494 47.6303 117.253 47.6303C117.733 47.6303 118.233 47.5741 118.76 47.4586C118.781 47.4586 118.81 47.4527 118.846 47.4409C118.882 47.429 118.908 47.4231 118.932 47.4231C118.956 47.4231 118.976 47.4113 119 47.3876C119.068 47.3639 119.139 47.352 119.207 47.352V29.1574V27.1355L122.73 25.7026C125.625 27.4818 127.473 29.933 128.272 33.0563C128.5 33.9444 128.612 34.871 128.612 35.8272C128.612 38.3139 128.008 40.6734 126.801 42.9085C125.593 45.2354 123.882 46.9109 121.67 47.9382C120.279 48.5984 118.751 48.9299 117.088 48.9299C114.876 48.9299 112.893 48.326 111.134 47.1152C109.334 45.9074 108.032 44.3117 107.235 42.3253C106.688 40.9576 106.415 39.4063 106.415 37.6745L106.439 36.6502ZM123.988 33.3316C123.168 31.28 122.073 29.6489 120.705 28.441L120.465 28.5091V33.4352C120.738 33.7076 121.285 33.8467 122.108 33.8467H122.552C122.985 33.8437 123.461 33.672 123.988 33.3316ZM124.672 37.3666C124.672 36.363 124.568 35.4276 124.364 34.5602C124.32 34.5602 124.249 34.5838 124.16 34.6282C123.84 34.7437 123.556 34.8266 123.304 34.8858C123.053 34.942 122.837 34.9716 122.656 34.9716H121.833C121.285 34.9716 120.829 34.9036 120.465 34.7674V40.7207C120.51 40.7207 120.575 40.7148 120.652 40.703C120.732 40.6911 120.898 40.6645 121.149 40.6171C121.561 40.549 121.821 40.5135 121.937 40.5135H122.792C122.905 40.5135 123.192 40.549 123.648 40.6171C123.763 40.6408 123.84 40.6527 123.888 40.6527H124.095C124.163 40.6527 124.228 40.6586 124.281 40.6704C124.338 40.6823 124.391 40.6882 124.435 40.6882C124.435 40.5964 124.447 40.5046 124.468 40.4158C124.491 40.3241 124.512 40.2441 124.536 40.176C124.56 40.1079 124.571 40.0635 124.571 40.0399C124.64 39.1281 124.675 38.6248 124.675 38.536V37.3666H124.672ZM123.645 43.6101C123.849 43.1424 124.009 42.6598 124.124 42.1565C124.033 42.1329 123.959 42.1121 123.902 42.0885C123.846 42.0648 123.784 42.0322 123.716 41.9878C123.372 41.9641 123.112 41.9404 122.928 41.9197C122.745 41.896 122.632 41.8753 122.588 41.8516H121.937C121.525 41.8516 121.208 41.8871 120.98 41.9552C120.865 42.0026 120.717 42.0352 120.536 42.0589C120.513 42.0825 120.489 42.0944 120.468 42.0944V46.9169C121.312 46.5527 122.088 45.9133 122.795 45.0015C123.156 44.5397 123.441 44.0778 123.645 43.6101Z" fill="white"/>
<path d="M145.49 26.4663H137.304L141.36 29.9921H145.309C147.734 29.9921 149.427 31.6677 149.427 33.9443C149.427 36.2208 147.734 37.8964 145.309 37.8964H140.836V37.8786H137.121V49.1074H140.836V41.4222H145.49C149.898 41.4222 153.207 38.2191 153.207 33.9443C153.207 29.6487 149.874 26.4663 145.49 26.4663Z" fill="white"/>
<path d="M165.425 39.2641H173.824L169.907 35.8597H165.425V29.9477H174.854V26.4663H161.71V49.1074H175.212V45.5964H165.425V39.2641Z" fill="white"/>
<path d="M201.465 31.351H194.526V29.9329H201.163V26.4663H184.173V29.9329H190.811V31.351H184.076V32.6683H190.811V49.1074H194.526V32.6683H201.465V31.351Z" fill="white"/>
<path d="M219.218 35.7709C218.931 35.7028 218.65 35.6347 218.375 35.5666H226.232V32.9319H226.226C226.161 28.7459 223.265 26.1318 218.41 26.1318C213.588 26.1318 210.491 28.5446 210.491 32.6299C210.491 37.3014 214.464 38.2576 217.931 39.0984C220.66 39.7408 223.085 40.3092 223.085 42.5621C223.085 44.6462 221.024 45.9073 218.618 45.9073C215.962 45.9073 213.881 44.51 213.881 41.9789H210.112C210.112 46.606 213.573 49.4568 218.65 49.4568C223.236 49.4568 226.889 47.05 226.889 42.5206C226.883 37.6508 222.738 36.6442 219.218 35.7709ZM218.324 29.5955C220.637 29.5955 222.466 30.7678 222.546 32.9319H214.248C214.221 32.7868 214.201 32.6358 214.201 32.4701C214.201 30.6287 216.069 29.5955 218.324 29.5955Z" fill="white"/>
<path d="M28.4414 44.5514C27.8937 44.5514 27.4378 44.2909 27.0737 43.764C27.0056 43.6959 26.8458 43.3199 26.5941 42.636L20.9842 27.7541C20.7621 27.2183 20.3743 26.789 19.8237 26.4634L11.1201 47.3549C11.1468 47.3549 11.1764 47.352 11.203 47.352C11.2948 47.352 11.579 47.3875 12.0586 47.4556C13.2901 47.6391 14.3262 48.1276 15.1729 48.9269L18.7639 44.9244L17.9083 44.2051L17.3606 44.8889C17.0646 44.6846 16.7686 44.5189 16.4725 44.3945C16.1765 44.2702 15.8804 44.1607 15.5844 44.0689C15.2647 44.0245 14.9568 43.9771 14.6608 43.9327C14.3647 43.8883 14.0657 43.8409 13.7697 43.7965L14.8976 41.0256H21.8397C22.2275 42.189 22.5443 43.1364 22.7959 43.8646C23.0476 44.5958 23.2163 45.0843 23.3081 45.3359L23.3436 45.3715C23.3436 45.5757 23.5597 46.0227 23.9949 46.7066C24.6787 47.8908 25.7386 48.6782 27.1773 49.066L30.3598 44.0718C29.1934 44.3916 28.5539 44.5514 28.4414 44.5514ZM16.3659 37.4346L18.5566 32.1325L20.472 37.4346H16.3659Z" fill="white"/>
<path d="M17.186 31.1763L17.2218 31.2121C17.2218 31.1882 17.2099 31.1763 17.186 31.1763Z" fill="white"/>
<path d="M51.0708 33.1245C50.3633 32.8966 49.7238 32.7841 49.1554 32.7841C48.1726 32.7604 47.4325 32.7278 46.9322 32.6834L46.944 32.6686L46.9233 32.6479C47.7581 31.4993 48.5693 30.5312 49.3627 29.7378C49.6587 29.4418 49.9311 29.202 50.1857 29.0214L50.8014 28.4057H50.7659C50.9258 28.3139 51.0738 28.1659 51.21 27.9616L50.3544 27.1741L49.3982 27.9616C48.3709 27.3222 47.2874 26.8455 46.1477 26.5258C45.8043 26.4577 45.5319 26.4015 45.3276 26.3541C45.1204 26.3097 44.9635 26.286 44.8481 26.286H44.78C44.4366 26.286 44.256 26.2742 44.2323 26.2505H43.5484C43.5248 26.2742 43.3649 26.286 43.0689 26.286C43.0008 26.3097 42.9327 26.3186 42.8646 26.3186C42.5005 26.3423 42.1245 26.3985 41.7367 26.4903C41.3489 26.5821 40.9374 26.7182 40.5051 26.9018C37.7461 28.0889 36.3665 29.9125 36.3665 32.3756C36.3665 33.0594 36.4908 33.6752 36.7425 34.2228C37.3819 35.5876 39.3299 36.2922 42.5863 36.3395L39.3536 40.9814C39.3536 40.9814 39.6526 41.2568 40.0966 41.6298L44.1376 36.3455H44.78H44.9517C45.0198 36.3455 45.1115 36.3336 45.227 36.3099H47.4502C49.3212 36.3099 50.5735 36.7658 51.2129 37.6776C51.6007 38.249 51.7961 38.7167 51.7961 39.0809C51.7961 39.9483 51.3965 40.9755 50.5972 42.1597C50.461 42.3876 50.2153 42.7133 49.863 43.1337C49.5107 43.557 49.0459 44.1195 48.4775 44.827C46.9943 44.3267 46.047 44.0632 45.6385 44.0395C45.3424 43.9951 45.0849 43.9596 44.8688 43.9359C44.6527 43.9152 44.4514 43.8915 44.2678 43.8678C44.1553 43.8442 44.0635 43.8293 43.9955 43.8175C43.9274 43.8057 43.8356 43.7997 43.7201 43.7997C43.2406 43.8471 42.7965 43.8797 42.388 43.9034C41.6567 43.9507 40.9403 44.0514 40.2328 44.2112C39.5697 44.3948 38.9273 44.6109 38.2996 44.8596C37.672 45.1112 37.074 45.4309 36.5056 45.8187C35.1379 46.6625 34.2025 47.746 33.7021 49.0693C35.1379 48.1575 36.7129 47.5535 38.424 47.2545C39.1759 47.1183 39.5963 47.0503 39.6881 47.0503C40.7153 47.0503 41.864 47.2101 43.1429 47.5298C44.4188 47.8496 45.8339 48.3173 47.3851 48.9331L47.5213 48.6933C47.5894 48.5571 47.6486 48.4416 47.693 48.3528C47.7167 48.3055 47.7256 48.2611 47.7256 48.2167C47.7256 48.193 47.7492 48.1249 47.7937 48.0124C48.2259 47.4647 48.6196 46.9703 48.9749 46.5233C49.3271 46.0792 49.6202 45.7181 49.8482 45.4457C50.0998 45.1053 50.3455 44.7856 50.5823 44.4895C50.8221 44.1935 51.056 43.9211 51.284 43.6695C51.5356 43.4208 51.7517 43.181 51.9353 42.9531C52.1188 42.7251 52.2875 42.5208 52.4474 42.3373C52.9714 41.6771 53.3977 41.0732 53.7293 40.5255C54.0608 39.9779 54.3154 39.442 54.499 38.918C54.7032 38.3467 54.8068 37.7339 54.8068 37.0708C54.798 35.0991 53.5546 33.7877 51.0708 33.1245ZM45.3572 32.34C45.2655 32.4762 45.1855 32.6035 45.1174 32.716H44.6734C44.5816 32.7397 44.4898 32.7515 44.401 32.7515H42.6899C42.2577 32.7515 41.7189 32.6834 41.0824 32.5473C39.5105 32.2275 38.7111 31.5318 38.6875 30.4602C38.7763 29.3441 39.5637 28.6129 41.0469 28.2724C41.1594 28.2488 41.2512 28.2369 41.3222 28.2369C41.414 28.2369 41.491 28.2251 41.562 28.2044L41.8373 28.1363H41.9735C42.8616 28.1363 43.7349 28.3938 44.5905 28.906C45.4461 29.4181 46.0796 30.0872 46.4881 30.9072L46.3164 31.0789C46.269 31.147 46.2306 31.2032 46.195 31.2506C46.1625 31.298 46.121 31.3424 46.0766 31.3868C46.0352 31.449 45.976 31.5348 45.9049 31.6355L45.8901 31.6207L45.6533 31.9581C45.5378 32.0884 45.4372 32.2187 45.3572 32.34Z" fill="white"/>
<path d="M39.3506 40.9782L50.3514 27.1738L50.7955 28.4054L40.0936 41.6265L39.3506 40.9782Z" fill="white"/>
</svg>
