<svg width="550" height="550" viewBox="0 0 550 550" fill="none" xmlns="http://www.w3.org/2000/svg">
<g clip-path="url(#clip0_3753_3983)">
<path d="M232.068 224.214L232.132 237.365C231.752 237.384 231.499 237.398 231.118 237.417C229.597 237.497 229.11 237.901 229.191 239.415C229.151 241.061 229.245 242.827 229.079 244.48C229.159 245.994 229.573 246.605 231.094 246.525C243.551 246.509 255.887 246.626 268.343 246.61C269.864 246.531 270.224 246.132 270.397 244.606C270.77 242.057 272.591 240.444 274.88 240.451C277.288 240.326 279.037 242.132 279.551 244.635C279.632 246.149 280.032 246.507 281.687 246.548C293.256 246.578 304.825 246.608 316.387 246.512C317.408 246.585 318.295 246.539 319.309 246.486C320.196 246.44 320.803 245.902 320.756 245.019C320.776 242.995 320.922 240.963 320.815 238.945C320.888 237.93 320.227 237.458 319.333 237.378C318.826 237.405 318.319 237.431 317.812 237.457L317.741 224.181C317.794 222.787 317.127 222.189 315.739 222.388C313.584 222.5 311.182 222.751 308.914 223.122C302.596 223.831 296.291 224.791 290.014 226.257C285.504 227.503 280.62 228.896 276.291 231.145C275.551 231.563 274.283 231.629 273.622 231.157C270.226 229.437 266.596 228.108 262.986 227.158C257.308 225.556 251.41 224.598 245.638 223.634C241.929 223.195 237.959 222.643 234.122 222.21L233.615 222.236C232.601 222.289 232.121 222.82 232.068 224.214ZM286.127 236.83C285.012 234.991 283.424 233.809 281.723 232.886C281.329 232.653 281.202 232.66 280.802 232.301C291.769 228.189 303.13 226.712 314.632 225.481L314.786 225.979C314.746 227.625 314.72 229.524 314.821 231.416L296.387 231.363L296.421 234.397L314.729 234.456L314.763 237.49L313.749 237.542C304.849 237.5 296.202 237.444 287.562 237.514C286.921 237.421 286.534 237.315 286.127 236.83ZM235.184 225.443C246.687 226.615 258.09 228.298 269.239 232.397C266.758 233.538 264.804 235.031 263.516 237.122L262.903 237.533C253.749 237.504 244.722 237.468 235.442 237.445L235.315 237.452L235.16 234.551L253.588 234.477L253.547 231.317L235.113 231.265L235.184 225.443ZM265.926 239.4C267.413 236.287 270.001 234.761 273.677 234.569C275.198 234.49 276.726 234.537 278.267 234.836C280.836 235.335 282.831 237.002 284.093 239.213C284.654 240.195 285.308 240.541 286.322 240.488C292.3 240.556 298.398 240.492 304.376 240.56L305.517 240.501L305.551 243.534C305.171 243.554 304.917 243.567 304.664 243.581L283.307 243.554C282.8 243.581 282.413 243.474 282.259 242.976C281.191 239.617 278.408 237.485 274.979 237.537C271.55 237.589 268.601 239.513 267.635 242.852C267.408 243.37 267.415 243.496 266.781 243.529C259.409 243.533 252.17 243.657 244.791 243.536C244.791 243.536 244.664 243.542 244.41 243.555L244.249 240.528L245.524 240.588C251.615 240.398 257.72 240.459 263.698 240.528C264.719 240.601 265.459 240.183 265.926 239.4Z" fill="url(#paint0_linear_3753_3983)"/>
<path d="M273.347 165.942C273.247 166.452 273.153 167.089 272.927 167.607C272.754 169.133 271.794 170.194 270.039 170.664C269.412 170.824 268.652 170.863 268.152 171.016C267.405 171.307 266.671 171.851 266.711 172.607C266.745 173.238 267.292 173.968 268.186 174.048C268.706 174.273 269.22 174.373 269.734 174.473C271.408 174.891 272.729 175.834 272.957 177.718C273.237 178.209 273.264 178.713 273.417 179.211C273.438 179.589 273.845 180.074 273.985 180.319C274.905 180.903 276.159 180.585 276.486 179.557C276.579 178.92 276.799 178.277 276.899 177.766C277.312 175.975 278.272 174.913 279.9 174.449C280.407 174.423 281.034 174.264 281.794 174.224C282.674 174.052 283.141 173.269 283.108 172.639C283.187 171.75 282.647 171.146 281.88 171.06C281.359 170.834 280.592 170.747 280.079 170.648C278.411 170.355 277.337 169.273 276.862 167.528C276.829 166.898 276.662 166.148 276.375 165.531C276.215 164.907 275.681 164.43 275.047 164.463C274.16 164.509 273.553 165.046 273.347 165.942ZM273.042 174.553C271.701 173.233 270.033 172.94 268.486 172.515C270.12 172.177 271.894 172.085 272.961 170.639C274.295 169.432 274.721 167.893 274.881 166.115C275.355 167.86 275.569 169.492 276.91 170.813C278.111 171.888 279.786 172.306 281.58 172.592C277.531 172.929 275.357 175.065 274.938 179.132C274.718 177.374 274.25 175.755 273.042 174.553Z" fill="url(#paint1_linear_3753_3983)"/>
<path d="M263.467 178.666C260.834 181.711 258.721 184.98 257.408 188.967C256.882 191.017 256.616 193.179 256.864 195.441C257.178 198.964 258.873 202.162 261.421 204.684C263.029 206.243 264.643 207.929 266.251 209.488C268.006 211.419 269.654 213.735 270.681 216.336C271.249 217.444 271.449 218.823 271.269 220.223C271.17 220.734 271.196 221.238 271.723 221.59C272.25 221.942 272.757 221.915 273.244 221.511C275.571 219.873 277.504 218.003 279.037 215.774C281.984 211.45 281.735 206.786 278.346 202.792C277.793 201.936 277.125 201.338 276.452 200.615C275.251 199.54 273.783 198.226 272.696 196.892C270.148 194.371 267.726 191.843 266.278 188.505C265.277 186.409 264.649 184.166 265.035 181.871C265.115 180.982 265.448 180.08 265.775 179.052C265.515 178.939 265.368 178.568 264.968 178.209L264.454 178.11C264.201 178.123 263.827 178.269 263.467 178.666ZM269.439 209.701C267.678 207.644 265.67 205.726 263.655 203.683C261.64 201.639 259.866 199.33 259.325 196.324C258.657 193.326 259.129 190.268 260.376 187.422C260.935 186.003 261.762 184.822 262.575 183.389L262.702 183.383C262.735 184.013 262.762 184.517 262.916 185.015C263.49 188.65 265.312 191.842 267.5 194.761C269.809 197.548 272.357 200.07 275.039 202.711C276.233 203.66 277.32 204.994 278.161 206.467C278.895 208.324 278.982 209.963 278.449 211.887C277.696 214.454 275.896 216.443 273.576 218.207C273.142 214.817 271.6 212.117 269.439 209.701Z" fill="url(#paint2_linear_3753_3983)"/>
<path d="M284.051 178.475C283.551 178.628 283.578 179.132 283.605 179.636C283.765 180.26 284.058 181.003 284.212 181.5C284.159 182.894 283.713 184.054 282.873 184.983C281.573 186.82 280.006 188.419 278.172 189.778C276.218 191.27 275.212 193.85 275.96 195.96C276.727 198.448 278.729 200.24 280.823 201.395C281.484 201.866 282.351 201.442 282.437 200.679C282.363 199.292 282.937 198.125 283.903 197.19C285.224 195.731 286.43 194.53 287.891 193.317C290.198 191.301 291.217 188.973 290.409 185.728C289.615 182.736 287.586 180.44 285.318 178.409C285.305 178.157 285.051 178.17 284.798 178.184C284.538 178.071 284.418 178.203 284.051 178.475ZM277.954 195.224C277.76 193.971 278.313 192.425 279.66 191.47C280.993 190.263 282.207 189.189 283.534 187.856C284.974 186.264 285.9 184.573 286.3 182.529C287.641 183.85 288.228 185.336 288.442 186.968C288.93 188.965 288.116 190.398 286.529 191.618C284.576 193.11 282.756 194.722 281.356 197.07C281.116 197.335 280.889 197.852 280.549 198.628C279.482 197.673 278.401 196.465 277.954 195.224Z" fill="url(#paint3_linear_3753_3983)"/>
<path d="M248.116 178.318L251.741 183.192L255.123 178.195L251.524 173.145L248.116 178.318Z" fill="url(#paint4_linear_3753_3983)"/>
<path d="M295.473 200.33L299.097 205.204L302.377 200.283L298.703 195.131L295.473 200.33Z" fill="url(#paint5_linear_3753_3983)"/>
<path d="M251.704 213.943L254.195 217.295L256.603 213.957L254.062 210.327L251.704 213.943Z" fill="url(#paint6_linear_3753_3983)"/>
<path d="M195.874 307.656L196.083 331.343L211.62 331.516L211.74 327.902L199.836 327.846L199.838 307.785L195.874 307.656Z" fill="url(#paint7_linear_3753_3983)"/>
<path d="M223.339 307.403L223.526 331.746L240.055 331.951L240.185 328.009L227.632 327.603L227.519 321.022L238.42 321.374L238.22 317.421L227.627 317.737L227.514 311.155L239.748 311.222L239.868 307.608L223.339 307.403Z" fill="url(#paint8_linear_3753_3983)"/>
<path d="M276.615 306.701L264.157 323.401L252.476 306.578L251.992 331.23L255.956 331.358L256.06 318.206L263.961 329.314L272.623 317.425L272.486 331.563L276.461 331.363L276.615 306.701Z" fill="url(#paint9_linear_3753_3983)"/>
<path d="M289.831 307.296L290.018 331.639L306.547 331.844L306.677 327.902L293.452 327.803L293.67 321.233L304.241 321.574L304.371 317.632L293.789 317.619L293.676 311.038L306.24 311.115L305.699 307.48L289.831 307.296Z" fill="url(#paint10_linear_3753_3983)"/>
<path d="M318.296 306.819L318.473 331.492L322.437 331.62L322.298 315.828L339.616 332.175L339.771 307.513L335.806 307.385L335.593 323.823L318.296 306.819Z" fill="url(#paint11_linear_3753_3983)"/>
<path d="M351.356 307.397L351.225 311.34L357.524 310.886L357.169 331.593L361.145 331.393L361.488 311.014L367.764 311.217L367.895 307.274L351.356 307.397Z" fill="url(#paint12_linear_3753_3983)"/>
<path d="M385.459 306.389L374.37 331.684L378.335 331.812L380.832 326.302L389.763 326.262L391.89 331.921L396.207 331.403L385.459 306.389ZM385.187 314.603L388.561 322.605L382.284 322.402L385.187 314.603Z" fill="url(#paint13_linear_3753_3983)"/>
<path d="M407.26 307.426L407.127 331.43L422.665 331.603L422.784 327.989L410.881 327.933L411.224 307.554L407.26 307.426Z" fill="url(#paint14_linear_3753_3983)"/>
<path d="M138.943 308.697C139.411 294.569 156.158 288.204 156.158 288.204C138.296 288.284 126.53 304.02 127.033 318.836C126.728 328.035 130.719 337.374 140.467 342.622C145.336 345.411 149.268 346.524 153.232 346.652C171.105 346.243 181.414 324.541 181.414 324.541C177.991 328.048 175.261 330.591 172.564 332.148L172.518 303.533C180.49 302.475 184.835 291.104 184.835 291.104C181.753 294.293 179.067 295.522 176.424 295.436C170.146 295.234 167.434 287.252 167.434 287.252L138.943 308.697ZM158.827 297.499C163.619 302.587 167.871 304.04 171.505 304.158L171.385 307.772L158.82 307.694L158.827 297.499ZM138.759 314.282C138.802 312.968 138.846 311.653 139.209 310.679L149.711 303.124L149.281 326.133L145.175 330.276C145.175 330.276 138.763 324.149 138.759 314.282ZM146.431 332.29L158.694 321.504L158.625 313.608L171.52 313.696L171.22 332.762C167.169 335.263 163.183 335.792 159.549 335.674C152.28 335.439 146.431 332.29 146.431 332.29Z" fill="url(#paint15_linear_3753_3983)"/>
<path d="M458.046 319.688L464.131 327.895L469.811 320.059L464.061 311.198L458.046 319.688Z" fill="url(#paint16_linear_3753_3983)"/>
<path d="M80.1722 319.786L86.2555 327.995L91.5438 319.631L85.5302 310.963L80.1722 319.786Z" fill="url(#paint17_linear_3753_3983)"/>
</g>
<defs>
<linearGradient id="paint0_linear_3753_3983" x1="168.192" y1="-82.993" x2="337.79" y2="-92.0169" gradientUnits="userSpaceOnUse">
<stop stop-color="#A4581B"/>
<stop offset="0.26" stop-color="#996222"/>
<stop offset="0.48" stop-color="#FBDD78"/>
<stop offset="0.67" stop-color="#996222"/>
<stop offset="0.92" stop-color="#F8D065"/>
<stop offset="1" stop-color="#FFF290"/>
</linearGradient>
<linearGradient id="paint1_linear_3753_3983" x1="161.596" y1="-206.032" x2="330.313" y2="-215.012" gradientUnits="userSpaceOnUse">
<stop stop-color="#A4581B"/>
<stop offset="0.26" stop-color="#996222"/>
<stop offset="0.48" stop-color="#FBDD78"/>
<stop offset="0.67" stop-color="#996222"/>
<stop offset="0.92" stop-color="#F8D065"/>
<stop offset="1" stop-color="#FFF290"/>
</linearGradient>
<linearGradient id="paint2_linear_3753_3983" x1="164.459" y1="-152.253" x2="333.389" y2="-161.244" gradientUnits="userSpaceOnUse">
<stop stop-color="#A4581B"/>
<stop offset="0.26" stop-color="#996222"/>
<stop offset="0.48" stop-color="#FBDD78"/>
<stop offset="0.67" stop-color="#996222"/>
<stop offset="0.92" stop-color="#F8D065"/>
<stop offset="1" stop-color="#FFF290"/>
</linearGradient>
<linearGradient id="paint3_linear_3753_3983" x1="163.567" y1="-170.689" x2="332.208" y2="-179.665" gradientUnits="userSpaceOnUse">
<stop stop-color="#A4581B"/>
<stop offset="0.26" stop-color="#996222"/>
<stop offset="0.48" stop-color="#FBDD78"/>
<stop offset="0.67" stop-color="#996222"/>
<stop offset="0.92" stop-color="#F8D065"/>
<stop offset="1" stop-color="#FFF290"/>
</linearGradient>
<linearGradient id="paint4_linear_3753_3983" x1="669.094" y1="-165.625" x2="838.648" y2="-174.742" gradientUnits="userSpaceOnUse">
<stop stop-color="#A4581B"/>
<stop offset="0.26" stop-color="#996222"/>
<stop offset="0.48" stop-color="#FBDD78"/>
<stop offset="0.67" stop-color="#996222"/>
<stop offset="0.92" stop-color="#F8D065"/>
<stop offset="1" stop-color="#FFF290"/>
</linearGradient>
<linearGradient id="paint5_linear_3753_3983" x1="669.203" y1="-165.97" x2="840.8" y2="-175.19" gradientUnits="userSpaceOnUse">
<stop stop-color="#A4581B"/>
<stop offset="0.26" stop-color="#996222"/>
<stop offset="0.48" stop-color="#FBDD78"/>
<stop offset="0.67" stop-color="#996222"/>
<stop offset="0.92" stop-color="#F8D065"/>
<stop offset="1" stop-color="#FFF290"/>
</linearGradient>
<linearGradient id="paint6_linear_3753_3983" x1="642.427" y1="-109.203" x2="811.981" y2="-118.319" gradientUnits="userSpaceOnUse">
<stop stop-color="#A4581B"/>
<stop offset="0.26" stop-color="#996222"/>
<stop offset="0.48" stop-color="#FBDD78"/>
<stop offset="0.67" stop-color="#996222"/>
<stop offset="0.92" stop-color="#F8D065"/>
<stop offset="1" stop-color="#FFF290"/>
</linearGradient>
<linearGradient id="paint7_linear_3753_3983" x1="238.869" y1="57.5186" x2="680.87" y2="72.1351" gradientUnits="userSpaceOnUse">
<stop stop-color="#A4581B"/>
<stop offset="0.26" stop-color="#996222"/>
<stop offset="0.48" stop-color="#FBDD78"/>
<stop offset="0.67" stop-color="#996222"/>
<stop offset="0.92" stop-color="#F8D065"/>
<stop offset="1" stop-color="#FFF290"/>
</linearGradient>
<linearGradient id="paint8_linear_3753_3983" x1="238.92" y1="55.2124" x2="680.923" y2="69.829" gradientUnits="userSpaceOnUse">
<stop stop-color="#A4581B"/>
<stop offset="0.26" stop-color="#996222"/>
<stop offset="0.48" stop-color="#FBDD78"/>
<stop offset="0.67" stop-color="#996222"/>
<stop offset="0.92" stop-color="#F8D065"/>
<stop offset="1" stop-color="#FFF290"/>
</linearGradient>
<linearGradient id="paint9_linear_3753_3983" x1="238.981" y1="52.5428" x2="681.015" y2="67.1607" gradientUnits="userSpaceOnUse">
<stop stop-color="#A4581B"/>
<stop offset="0.26" stop-color="#996222"/>
<stop offset="0.48" stop-color="#FBDD78"/>
<stop offset="0.67" stop-color="#996222"/>
<stop offset="0.92" stop-color="#F8D065"/>
<stop offset="1" stop-color="#FFF290"/>
</linearGradient>
<linearGradient id="paint10_linear_3753_3983" x1="239.207" y1="51.0397" x2="675.685" y2="65.4736" gradientUnits="userSpaceOnUse">
<stop stop-color="#A4581B"/>
<stop offset="0.26" stop-color="#996222"/>
<stop offset="0.48" stop-color="#FBDD78"/>
<stop offset="0.67" stop-color="#996222"/>
<stop offset="0.92" stop-color="#F8D065"/>
<stop offset="1" stop-color="#FFF290"/>
</linearGradient>
<linearGradient id="paint11_linear_3753_3983" x1="239.235" y1="49.2912" x2="677.064" y2="63.77" gradientUnits="userSpaceOnUse">
<stop stop-color="#A4581B"/>
<stop offset="0.26" stop-color="#996222"/>
<stop offset="0.48" stop-color="#FBDD78"/>
<stop offset="0.67" stop-color="#996222"/>
<stop offset="0.92" stop-color="#F8D065"/>
<stop offset="1" stop-color="#FFF290"/>
</linearGradient>
<linearGradient id="paint12_linear_3753_3983" x1="239.292" y1="46.9906" x2="681.288" y2="61.6068" gradientUnits="userSpaceOnUse">
<stop stop-color="#A4581B"/>
<stop offset="0.26" stop-color="#996222"/>
<stop offset="0.48" stop-color="#FBDD78"/>
<stop offset="0.67" stop-color="#996222"/>
<stop offset="0.92" stop-color="#F8D065"/>
<stop offset="1" stop-color="#FFF290"/>
</linearGradient>
<linearGradient id="paint13_linear_3753_3983" x1="239.335" y1="44.661" x2="676.981" y2="59.1337" gradientUnits="userSpaceOnUse">
<stop stop-color="#A4581B"/>
<stop offset="0.26" stop-color="#996222"/>
<stop offset="0.48" stop-color="#FBDD78"/>
<stop offset="0.67" stop-color="#996222"/>
<stop offset="0.92" stop-color="#F8D065"/>
<stop offset="1" stop-color="#FFF290"/>
</linearGradient>
<linearGradient id="paint14_linear_3753_3983" x1="239.347" y1="43.8379" x2="681.344" y2="58.4543" gradientUnits="userSpaceOnUse">
<stop stop-color="#A4581B"/>
<stop offset="0.26" stop-color="#996222"/>
<stop offset="0.48" stop-color="#FBDD78"/>
<stop offset="0.67" stop-color="#996222"/>
<stop offset="0.92" stop-color="#F8D065"/>
<stop offset="1" stop-color="#FFF290"/>
</linearGradient>
<linearGradient id="paint15_linear_3753_3983" x1="238.928" y1="54.4748" x2="680.959" y2="69.0927" gradientUnits="userSpaceOnUse">
<stop stop-color="#A4581B"/>
<stop offset="0.26" stop-color="#996222"/>
<stop offset="0.48" stop-color="#FBDD78"/>
<stop offset="0.67" stop-color="#996222"/>
<stop offset="0.92" stop-color="#F8D065"/>
<stop offset="1" stop-color="#FFF290"/>
</linearGradient>
<linearGradient id="paint16_linear_3753_3983" x1="682.237" y1="-92.0034" x2="1124.27" y2="-77.8401" gradientUnits="userSpaceOnUse">
<stop stop-color="#A4581B"/>
<stop offset="0.26" stop-color="#996222"/>
<stop offset="0.48" stop-color="#FBDD78"/>
<stop offset="0.67" stop-color="#996222"/>
<stop offset="0.92" stop-color="#F8D065"/>
<stop offset="1" stop-color="#FFF290"/>
</linearGradient>
<linearGradient id="paint17_linear_3753_3983" x1="518.593" y1="217.85" x2="969.111" y2="232.296" gradientUnits="userSpaceOnUse">
<stop stop-color="#A4581B"/>
<stop offset="0.26" stop-color="#996222"/>
<stop offset="0.48" stop-color="#FBDD78"/>
<stop offset="0.67" stop-color="#996222"/>
<stop offset="0.92" stop-color="#F8D065"/>
<stop offset="1" stop-color="#FFF290"/>
</linearGradient>
<clipPath id="clip0_3753_3983">
<rect width="390" height="252" fill="white" transform="translate(80 130)"/>
</clipPath>
</defs>
</svg>
