<svg width="550" height="550" viewBox="0 0 550 550" fill="none" xmlns="http://www.w3.org/2000/svg">
<path d="M376.224 516.12C378.648 516.12 380.088 514.536 380.088 511.98C380.088 509.436 378.648 507.84 376.224 507.84C373.8 507.84 372.36 509.436 372.36 511.98C372.36 514.536 373.8 516.12 376.224 516.12ZM376.224 514.872C374.508 514.872 373.728 513.984 373.728 511.98C373.728 509.976 374.508 509.088 376.224 509.088C377.94 509.088 378.708 509.976 378.708 511.98C378.708 513.984 377.94 514.872 376.224 514.872ZM389.989 516V514.836H386.545L384.601 514.968C384.601 514.056 384.973 513.672 386.053 513.3L387.745 512.784C389.161 512.352 390.013 511.656 390.013 510.336C390.013 508.92 389.053 507.84 386.773 507.84C384.265 507.84 383.245 509.184 383.245 510.672V510.792H384.517V510.648C384.517 509.592 385.117 509.028 386.725 509.028C388.165 509.028 388.717 509.46 388.717 510.312C388.717 511.02 388.381 511.344 387.421 511.692L385.501 512.352C383.845 512.916 383.257 513.66 383.257 515.148V516H389.989Z" fill="#5FDDF9"/>
<g clip-path="url(#clip0_3785_819)">
<path d="M375.397 475.51C375.241 475.36 375.072 475.262 374.888 475.215C374.705 475.17 374.534 475.16 374.377 475.187C374.111 475.232 373.866 475.354 373.643 475.553C373.421 475.753 373.346 476.078 373.423 476.529L373.603 477.596L375.879 477.211L375.7 476.155C375.654 475.874 375.552 475.66 375.397 475.51ZM372.352 474.78C372.721 474.198 373.298 473.839 374.085 473.707C374.536 473.63 374.973 473.646 375.396 473.753C375.817 473.862 376.189 474.092 376.508 474.441C376.827 474.792 377.039 475.279 377.144 475.9L377.325 476.966L379.714 476.562L379.965 478.049L372.419 479.325L372.032 477.038C371.876 476.115 371.983 475.363 372.352 474.78Z" fill="#50256A"/>
<path d="M376.162 468.337C376.534 468.121 376.827 467.83 377.04 467.463C377.255 467.098 377.359 466.692 377.355 466.248C377.349 465.819 377.236 465.428 377.013 465.077C376.791 464.727 376.493 464.452 376.119 464.255C375.746 464.059 375.335 463.964 374.884 463.968C374.426 463.974 374.012 464.083 373.64 464.295C373.268 464.508 372.975 464.794 372.761 465.152C372.547 465.512 372.442 465.911 372.447 466.347C372.452 466.784 372.566 467.179 372.789 467.534C373.011 467.888 373.31 468.167 373.688 468.371C374.064 468.574 374.482 468.674 374.939 468.668C375.383 468.664 375.79 468.552 376.162 468.337ZM373.006 469.726C372.399 469.383 371.914 468.913 371.55 468.318C371.186 467.722 371 467.074 370.991 466.374C370.984 465.674 371.155 465.022 371.504 464.419C371.855 463.815 372.329 463.331 372.928 462.967C373.527 462.603 374.173 462.417 374.866 462.408C375.572 462.401 376.227 462.572 376.827 462.922C377.427 463.272 377.906 463.745 378.262 464.34C378.619 464.936 378.802 465.583 378.81 466.283C378.819 466.99 378.651 467.644 378.308 468.244C377.965 468.844 377.498 469.323 376.906 469.68C376.314 470.037 375.664 470.219 374.957 470.228C374.264 470.236 373.614 470.069 373.006 469.726Z" fill="#50256A"/>
<path d="M380.221 453.484L375.451 454.535L379.596 457.375L371.243 459.106L371.534 457.362L376.15 456.602L373.46 454.973L371.874 455.32L372.119 453.844L376.596 452.849L372.614 450.869L372.88 449.27L380.221 453.484Z" fill="#50256A"/>
<path d="M375.853 440.096L377.227 440.575L376.004 444.081L377.546 444.618L378.628 441.516L380.003 441.995L378.921 445.098L380.482 445.642L381.752 442L383.127 442.48L381.359 447.545L374.134 445.024L375.853 440.096Z" fill="#50256A"/>
<path d="M381.733 436.246L382.226 435.296C382.414 434.933 382.446 434.613 382.321 434.337C382.194 434.061 382.007 433.858 381.762 433.731C381.516 433.603 381.244 433.552 380.946 433.576C380.648 433.601 380.393 433.817 380.182 434.223L379.684 435.183L381.733 436.246ZM386.392 435.713L383.489 436.021L383.024 436.916L385.184 438.039L384.489 439.376L377.697 435.849L378.766 433.792C379.203 432.948 379.748 432.401 380.398 432.15C381.048 431.897 381.727 431.955 382.434 432.322C382.853 432.54 383.199 432.831 383.474 433.196C383.749 433.562 383.897 433.98 383.918 434.452L387.202 434.154L386.392 435.713Z" fill="#50256A"/>
<path d="M391.238 416.064L397.156 421.394L396.148 422.513L393.435 420.071L394.401 424.299L394.387 424.314L390.315 423.88L392.858 426.169L391.883 427.25L385.964 421.922L385.971 421.913L392.653 422.712L391.223 416.08L391.238 416.064Z" fill="#50256A"/>
<path d="M400.841 414.691L399.107 413.69L399.656 415.626L400.841 414.691ZM402.018 415.376L400.028 416.951L400.467 418.512L399.301 419.435L397.076 411.054L397.141 411.001L404.782 415.101L403.413 416.184L402.018 415.376Z" fill="#50256A"/>
<path d="M406.103 406.835C405.817 407.004 405.627 407.191 405.536 407.398C405.445 407.606 405.466 407.821 405.599 408.049C405.721 408.258 405.945 408.375 406.268 408.398C406.591 408.421 406.985 408.391 407.453 408.31C407.83 408.24 408.172 408.214 408.48 408.23C408.787 408.247 409.089 408.341 409.386 408.511C409.684 408.682 409.948 408.965 410.181 409.359C410.381 409.699 410.478 410.068 410.472 410.461C410.467 410.854 410.343 411.235 410.103 411.606C409.863 411.977 409.506 412.301 409.034 412.579C408.64 412.811 408.214 412.983 407.758 413.095C407.3 413.206 406.834 413.241 406.359 413.199L406.337 411.848C406.662 411.883 407.003 411.867 407.359 411.802C407.715 411.738 408.01 411.637 408.243 411.5C408.517 411.339 408.723 411.14 408.857 410.903C408.992 410.668 408.982 410.419 408.827 410.156C408.627 409.815 408.133 409.707 407.347 409.832C406.882 409.904 406.484 409.944 406.152 409.955C405.82 409.965 405.488 409.895 405.155 409.745C404.821 409.595 404.54 409.327 404.312 408.939C403.978 408.371 403.897 407.804 404.066 407.237C404.235 406.671 404.622 406.189 405.226 405.795C405.717 405.507 406.158 405.322 406.552 405.239C406.946 405.156 407.358 405.126 407.787 405.145L407.88 406.43C407.12 406.451 406.528 406.586 406.103 406.835Z" fill="#50256A"/>
<path d="M415.466 400.851L416.04 402.188L414.328 402.921L416.769 408.618L415.383 409.212L412.943 403.515L411.299 404.219L410.726 402.88L415.466 400.851Z" fill="#50256A"/>
<path d="M424.594 398.038L424.98 399.441L421.402 400.427L421.834 402L425.003 401.129L425.389 402.532L422.221 403.405L422.659 404.998L426.379 403.974L426.765 405.377L421.592 406.802L419.562 399.423L424.594 398.038Z" fill="#50256A"/>
<path d="M431.112 400.694L432.175 400.562C432.581 400.511 432.861 400.356 433.017 400.096C433.174 399.835 433.235 399.567 433.202 399.293C433.166 399.017 433.055 398.764 432.866 398.533C432.676 398.301 432.354 398.213 431.9 398.271L430.826 398.403L431.112 400.694ZM434.191 404.23L432.292 402.015L431.291 402.139L431.591 404.553L430.096 404.74L429.151 397.145L431.452 396.859C432.395 396.741 433.154 396.879 433.73 397.272C434.307 397.666 434.644 398.258 434.742 399.048C434.8 399.517 434.757 399.967 434.612 400.401C434.466 400.835 434.205 401.193 433.829 401.477L435.936 404.015L434.191 404.23Z" fill="#50256A"/>
<path d="M444.884 396.366L441.932 401.592L441.894 403.973L440.388 403.95L440.425 401.569L437.689 396.254L439.55 396.282L441.252 399.844L443.022 396.337L444.884 396.366Z" fill="#50256A"/>
<path d="M445.74 438.81L445.551 439.07L447.916 442.285L452.855 439.187L447.543 433.891L445.74 438.81Z" fill="url(#paint0_linear_3785_819)"/>
<path d="M435.805 433.212L437.409 437.645C437.59 437.563 437.768 437.57 437.768 437.57L444.008 437.555C444.186 437.562 444.36 437.659 444.36 437.659L445.968 433.178L435.805 433.212Z" fill="url(#paint1_linear_3785_819)"/>
<path d="M438.587 465.242L436.888 469.068L446.057 469.046L443.569 465.213L438.587 465.242Z" fill="url(#paint2_linear_3785_819)"/>
<path d="M438.232 439.32L437.854 439.839L434.93 443.821L434.952 458.707L438.591 463.489L443.674 463.427L446.79 459.097L446.787 443.766L443.582 439.269L438.232 439.32Z" fill="url(#paint3_linear_3785_819)"/>
<path d="M428.413 439.679L428.502 439.683L433.83 442.394L436.187 439.192L434.264 433.855L428.413 439.679Z" fill="url(#paint4_linear_3785_819)"/>
<path d="M445.132 464.298L447.634 468.301L453.005 462.947L448.067 460.257L445.132 464.298Z" fill="url(#paint5_linear_3785_819)"/>
<path d="M448.561 443.892V458.498L453.637 461.348V440.775L448.561 443.892Z" fill="url(#paint6_linear_3785_819)"/>
<path d="M428.025 460.852L433.195 458.452L433.256 443.99L428.032 441.408L428.025 460.852Z" fill="url(#paint7_linear_3785_819)"/>
<path d="M452.594 390.588C457.434 392.121 462.075 394.181 466.43 396.674C470.782 399.257 474.942 402.188 478.639 405.547C482.425 408.908 485.655 412.783 488.522 416.82C491.474 420.951 493.882 425.327 495.745 429.948C496.63 432.301 497.512 434.743 498.13 437.086C498.838 439.432 499.363 441.859 499.707 444.369C500.055 446.79 500.221 449.292 500.298 451.791C500.464 454.293 500.456 456.699 500.266 459.187C499.798 464.16 498.803 468.933 497.273 473.684C495.744 478.435 493.695 482.809 491.031 486.979C489.506 489.413 487.811 491.662 485.941 493.815C490.996 485.641 493.973 475.957 493.945 465.617C493.991 435.848 469.83 411.786 440.147 411.833C410.468 411.79 386.32 435.859 386.363 465.631C386.321 495.31 410.39 519.458 440.161 519.415C441.051 519.451 441.856 519.394 442.749 519.341C447.829 519.368 452.851 518.591 457.625 517.358C468.066 514.839 477.48 509.07 484.994 501.798C488.89 498.034 492.092 493.796 494.856 489.362C497.621 484.928 499.783 479.935 501.234 474.914C507.398 454.752 502.881 432.019 490.356 415.558C487.225 411.42 483.817 407.539 479.85 404.259C475.886 400.889 471.545 398.04 467.007 395.628C462.47 393.216 457.644 391.327 452.708 389.969C447.857 388.703 442.725 387.782 437.656 387.488C442.714 388.049 447.754 389.055 452.594 390.588ZM434.738 470.619L426.583 462.891C426.494 462.887 426.498 462.798 426.498 462.798C426.501 462.709 426.412 462.706 426.416 462.617C426.331 462.524 426.331 462.524 426.331 462.524C426.334 462.435 426.338 462.346 426.338 462.346L426.274 439.704C426.281 439.526 426.381 439.263 426.566 439.092L433.994 431.727C433.998 431.638 433.998 431.638 434.087 431.642C434.176 431.646 434.179 431.557 434.179 431.557C434.179 431.557 434.268 431.56 434.272 431.471C434.272 431.471 434.361 431.475 434.45 431.478C434.45 431.478 434.45 431.478 434.539 431.482L447.197 431.459C447.197 431.459 447.197 431.459 447.285 431.463C447.285 431.463 447.374 431.467 447.463 431.47C447.549 431.563 447.549 431.563 447.549 431.563C447.638 431.566 447.638 431.566 447.638 431.566L447.723 431.659L455.092 438.998C455.262 439.184 455.344 439.365 455.333 439.632L455.38 462.719C455.369 462.986 455.273 463.16 455.087 463.331L447.844 470.525C447.659 470.696 447.477 470.778 447.21 470.767L435.354 470.822C435.087 470.811 434.912 470.715 434.738 470.619ZM415.447 436.325L418.201 432.158L421.149 436.377L418.403 440.366L415.447 436.325ZM466.106 450.942L467.812 448.426L469.58 450.994L467.881 453.331L466.106 450.942ZM455.823 473.789L457.917 470.487L460.279 473.791L458.107 476.823L455.823 473.789ZM465.61 476.414C465.614 476.325 465.707 476.239 465.796 476.243C470.841 472.703 473.4 473.342 474.101 473.638C474.45 473.83 474.706 474.108 474.784 474.378C474.948 474.741 474.933 475.097 474.741 475.446L466.521 493.564C466.425 493.738 464.084 498.724 456.633 500.027C455.355 500.777 449.434 503.925 442.927 503.929C441.322 503.953 439.546 503.792 437.877 503.19L412.931 496.298C412.401 496.187 411.974 495.724 411.907 495.186C411.914 495.009 411.691 491.702 412.191 488.157C413.027 482.932 414.932 479.889 417.997 479.033C424.128 477.32 427.449 476.741 436.338 481.736C443.093 484.416 445.691 484.075 445.691 484.075C445.78 484.079 445.869 484.082 445.958 484.086L453.882 484.317C453.971 484.321 453.971 484.321 454.06 484.325C454.238 484.332 456.099 484.585 457.387 485.796L465.61 476.414Z" fill="url(#paint8_linear_3785_819)"/>
<path d="M467.406 478.281L458.435 488.524C458.509 488.884 458.402 489.325 458.295 489.767C458.192 490.119 457.967 491.269 457.038 492.211C456.016 493.24 454.096 494.41 450.64 493.913C444.486 494.021 437.246 494.53 436.064 495.106C435.601 495.533 434.8 495.501 434.284 495.034C433.772 494.479 433.804 493.678 434.36 493.166C435.382 492.137 440.846 491.467 450.745 491.333L450.923 491.34C455.18 491.869 455.629 489.57 455.729 489.306L455.736 489.128C455.947 488.335 455.78 488.06 455.698 487.879C455.274 487.327 454.217 487.017 453.776 486.91L445.942 486.682C445.137 486.739 442.101 486.883 435.257 484.2L435.083 484.103C427.154 479.593 424.645 479.938 418.696 481.569C414.908 482.663 414.424 490.22 414.536 494.057L438.603 500.646L438.688 500.739C446.254 503.184 455.48 497.675 455.48 497.675C455.661 497.593 455.754 497.507 455.932 497.515C462.126 496.428 464.064 492.585 464.16 492.41L471.5 476.218C470.325 476.616 468.691 477.352 467.406 478.281Z" fill="url(#paint9_linear_3785_819)"/>
<path d="M428.705 462.452L435.171 468.575L437.073 464.366L433.805 460.045L428.705 462.452Z" fill="url(#paint10_linear_3785_819)"/>
</g>
<path d="M43.224 174.12C45.648 174.12 47.088 172.536 47.088 169.98C47.088 167.436 45.648 165.84 43.224 165.84C40.8 165.84 39.36 167.436 39.36 169.98C39.36 172.536 40.8 174.12 43.224 174.12ZM43.224 172.872C41.508 172.872 40.728 171.984 40.728 169.98C40.728 167.976 41.508 167.088 43.224 167.088C44.94 167.088 45.708 167.976 45.708 169.98C45.708 171.984 44.94 172.872 43.224 172.872ZM53.2332 174V165.96H52.0932C51.7452 166.728 51.2412 166.956 50.3532 166.956H49.9692V167.88H51.9372V174H53.2332Z" fill="#5FDDF9"/>
<g clip-path="url(#clip1_3785_819)">
<path d="M55.7891 151.611L56.9751 150.715L59.2597 153.741L60.5906 152.737L58.5684 150.058L59.7555 149.162L61.7766 151.841L63.1249 150.823L60.7513 147.678L61.9378 146.783L65.2398 151.156L59.0015 155.866L55.7891 151.611Z" fill="#50256A"/>
<path d="M52.5078 146.311L58.0449 143.243L56.264 140.029L57.5643 139.308L60.0918 143.869L53.2544 147.658L52.5078 146.311Z" fill="#50256A"/>
<path d="M46.9131 133.975L48.3014 133.443L49.6587 136.984L51.2151 136.387L50.0143 133.253L51.4032 132.721L52.604 135.855L54.1804 135.251L52.77 131.571L54.1594 131.04L56.1204 136.157L48.8209 138.954L46.9131 133.975Z" fill="#50256A"/>
<path d="M43.5322 121.507L51.5035 119.88L51.8112 121.389L48.1588 122.134L52.2169 123.908L52.2217 123.929L49.3933 127.01L52.8165 126.311L53.1137 127.768L45.1434 129.395L45.1408 129.385L49.8533 124.379L43.5364 121.528L43.5322 121.507Z" fill="#50256A"/>
<path d="M43.1592 110.993L44.6455 110.938L44.7846 114.727L46.4517 114.667L46.3279 111.312L47.8132 111.257L47.9359 114.611L49.6241 114.549L49.4802 110.612L50.9655 110.558L51.1663 116.034L43.3557 116.321L43.1592 110.993Z" fill="#50256A"/>
<path d="M44.1565 99.1748L52.2326 100.157L52.2274 100.2L46.6634 105.032L51.2542 105.559L51.0656 107.11L43 106.127L43.0074 106.064L48.644 101.251L43.9695 100.714L44.1565 99.1748Z" fill="#50256A"/>
<path d="M46.524 89.6934L47.955 90.0943L47.4434 91.9242L53.5385 93.6303L53.1233 95.1129L47.0288 93.4074L46.5356 95.1667L45.1035 94.7662L46.524 89.6934Z" fill="#50256A"/>
<path d="M53.6712 85.012L51.6274 84.9624L53.069 86.4288L53.6712 85.012ZM55.0633 85.0494L54.049 87.4346L55.2071 88.6196L54.6143 90.0174L48.5156 83.5941L48.5483 83.5156L57.4058 83.4492L56.7071 85.0905L55.0633 85.0494Z" fill="#50256A"/>
<path d="M52.9593 75.4468L58.3762 78.7224L60.2783 75.5785L61.5502 76.3478L58.852 80.8105L52.1621 76.7645L52.9593 75.4468Z" fill="#50256A"/>
<path d="M70.3108 65.6717C70.1264 66.0953 69.8566 66.4889 69.501 66.854C68.933 67.4384 68.3128 67.8219 67.6395 68.0074C66.9661 68.1913 66.3038 68.1897 65.6531 68.0005C65.0019 67.8119 64.4197 67.4684 63.9075 66.97C63.3432 66.4215 62.9523 65.8182 62.7326 65.1606C62.5134 64.5031 62.4802 63.8487 62.634 63.1985C62.7884 62.5478 63.1262 61.9529 63.6499 61.4155C63.9802 61.0751 64.3322 60.8048 64.7047 60.6041C65.0772 60.4039 65.4392 60.2611 65.788 60.1763L66.4087 61.6247C65.7148 61.7301 65.1621 61.9924 64.7521 62.4134C64.476 62.698 64.2958 63.0415 64.2115 63.4435C64.1272 63.845 64.1483 64.2512 64.2764 64.6622C64.4054 65.0737 64.6352 65.4404 64.965 65.7607C65.3249 66.1106 65.7079 66.3498 66.1126 66.4768C66.5172 66.6043 66.9192 66.6148 67.3186 66.5089C67.7175 66.4035 68.0815 66.1807 68.4129 65.8403C68.6801 65.5669 68.8745 65.2771 68.9983 64.9725C69.1221 64.668 69.1838 64.3924 69.1854 64.1469L70.6195 64.6527C70.5974 64.9088 70.4952 65.2481 70.3108 65.6717Z" fill="#50256A"/>
<path d="M73.1886 59.877C73.5901 60.0556 74.0074 60.1241 74.4384 60.0814C74.8694 60.0393 75.2672 59.8833 75.6318 59.613C75.9838 59.3517 76.2388 59.024 76.3958 58.6299C76.5528 58.2347 76.6018 57.8243 76.5402 57.3985C76.4796 56.9712 76.3131 56.5729 76.038 56.203C75.7598 55.8279 75.4216 55.5507 75.0227 55.3695C74.6244 55.1893 74.2124 55.1182 73.7872 55.1561C73.3614 55.1935 72.9694 55.3458 72.6106 55.6119C72.2529 55.8774 71.9926 56.2083 71.8329 56.605C71.6728 57.0013 71.6217 57.4165 71.6786 57.8496C71.7365 58.2837 71.9041 58.6878 72.1823 59.0635C72.4526 59.4271 72.7877 59.6984 73.1886 59.877ZM70.1511 58.0977C70.071 57.3901 70.1685 56.7067 70.443 56.0492C70.7181 55.3922 71.1422 54.85 71.7165 54.4232C72.2908 53.9975 72.9331 53.7488 73.6417 53.6766C74.3504 53.6055 75.0354 53.7082 75.6956 53.9848C76.3552 54.263 76.8958 54.6856 77.3173 55.2552C77.7478 55.8347 77.9981 56.4781 78.0676 57.1846C78.1377 57.8901 78.0339 58.5698 77.7536 59.2216C77.4754 59.8744 77.0491 60.4134 76.4743 60.8386C75.8942 61.2691 75.2535 61.522 74.5512 61.5978C73.8493 61.6732 73.1723 61.5731 72.5232 61.297C71.8735 61.0214 71.3335 60.5925 70.9025 60.0124C70.481 59.4439 70.2296 58.8053 70.1511 58.0977Z" fill="#50256A"/>
<path d="M85.3048 46.5225L88.9514 53.7956L88.9135 53.8141L81.8105 51.8509L83.9102 55.9669L82.5134 56.6661L78.8721 49.4035L78.929 49.375L86.0562 51.4088L83.9186 47.2174L85.3048 46.5225Z" fill="#50256A"/>
<path d="M94.5371 43.2373L94.9955 44.652L93.1877 45.2389L95.1419 51.2597L93.6777 51.7349L91.7235 45.7142L89.9853 46.2785L89.5264 44.8643L94.5371 43.2373Z" fill="#50256A"/>
<path d="M101.027 45.6716L102.103 45.4783C102.514 45.404 102.792 45.2306 102.937 44.9567C103.083 44.6822 103.13 44.4061 103.08 44.1268C103.03 43.8481 102.902 43.5957 102.696 43.3702C102.49 43.1447 102.158 43.073 101.697 43.1558L100.61 43.3507L101.027 45.6716ZM104.362 49.108L102.303 46.953L101.289 47.1353L101.728 49.5812L100.211 49.853L98.8311 42.1594L101.162 41.7405C102.117 41.5693 102.899 41.6684 103.509 42.0377C104.118 42.4065 104.495 42.9919 104.639 43.7938C104.723 44.267 104.704 44.7296 104.58 45.179C104.455 45.63 104.21 46.011 103.84 46.3208L106.129 48.7913L104.362 49.108Z" fill="#50256A"/>
<path d="M110.355 45.817C110.579 46.1943 110.88 46.4904 111.256 46.7043C111.633 46.9187 112.049 47.0204 112.502 47.0104C112.94 47.0004 113.338 46.8797 113.694 46.6479C114.05 46.4166 114.326 46.1094 114.522 45.7259C114.718 45.3423 114.812 44.9208 114.801 44.4603C114.79 43.9929 114.674 43.5704 114.453 43.1936C114.231 42.8164 113.936 42.5197 113.566 42.3058C113.197 42.0919 112.788 41.9886 112.342 41.9992C111.897 42.0092 111.494 42.1309 111.134 42.3612C110.775 42.5935 110.494 42.9028 110.291 43.2901C110.087 43.6773 109.99 44.1046 110.002 44.572C110.012 45.0251 110.129 45.4398 110.355 45.817ZM108.899 42.6104C109.242 41.986 109.716 41.4844 110.319 41.1066C110.923 40.7278 111.582 40.5297 112.298 40.5134C113.013 40.4965 113.681 40.6641 114.301 41.0139C114.921 41.3643 115.422 41.8432 115.801 42.4497C116.179 43.0588 116.377 43.7158 116.393 44.4229C116.41 45.1452 116.244 45.8149 115.893 46.4324C115.542 47.0494 115.065 47.5436 114.461 47.9156C113.857 48.2871 113.198 48.4815 112.482 48.4983C111.76 48.5147 111.091 48.3513 110.474 48.0078C109.857 47.6648 109.364 47.1927 108.992 46.5926C108.62 45.9919 108.425 45.3307 108.408 44.6083C108.392 43.9007 108.556 43.2342 108.899 42.6104Z" fill="#50256A"/>
<path d="M122.429 41.0837L121.593 47.359L125.235 47.8442L125.039 49.3179L119.87 48.6288L120.903 40.8804L122.429 41.0837Z" fill="#50256A"/>
<path d="M111.945 96.7676C110.217 98.4825 107.857 98.81 105.678 99.3136C107.875 99.8852 110.14 100.241 111.855 101.968C113.712 103.621 114.039 105.981 114.617 108.302C115.059 102.737 118.093 99.8883 123.497 99.3291C121.266 98.8656 118.894 98.4763 117.179 96.7491C115.464 95.0219 115.102 92.7694 114.525 90.449C114.027 92.788 113.672 95.0528 111.945 96.7676Z" fill="url(#paint11_linear_3785_819)"/>
<path d="M89.7694 102.297C89.6705 109.039 89.6798 115.814 89.6891 122.59C89.7076 123.666 90.0846 124.735 90.7118 125.764C93.9097 130.333 96.9655 134.977 100.163 139.547C100.825 140.468 101.161 141.287 100.788 142.476C100.55 143.233 100.528 144.058 100.398 144.849L112.875 144.849L112.943 144.633C112.896 139.865 112.992 135.024 112.946 130.256C112.946 130.256 112.832 129.864 112.649 129.688C109.841 126.904 107.066 124.012 104.257 121.228C103.346 120.347 102.054 120.298 101.316 121.135C100.469 121.938 100.528 123.264 101.331 124.111L106.989 129.929C106.25 130.766 105.512 131.603 104.773 132.441C104.591 132.265 104.409 132.088 104.227 131.912C100.831 128.35 97.327 124.753 93.9313 121.191C93.6749 120.872 93.5266 120.588 93.5204 120.23C93.5544 115.963 93.5544 111.804 93.5544 107.645C93.5081 107.036 93.4617 106.428 93.2732 105.893C92.8098 103.965 91.6418 102.766 89.7292 102.046L89.7694 102.297Z" fill="url(#paint12_linear_3785_819)"/>
<path d="M126.44 34.7689C131.414 36.3323 136.111 38.4025 140.637 41.0134C145.056 43.5903 149.338 46.5997 153.126 50.0479C156.914 53.4961 160.208 57.3831 163.183 61.5265C166.125 65.778 168.64 70.2521 170.478 74.9887C171.415 77.303 172.283 79.8335 172.969 82.1879C173.729 84.6845 174.239 87.2212 174.532 89.6899C174.934 92.1926 175.085 94.7355 175.237 97.2784C175.388 99.8213 175.323 102.296 175.116 104.845C174.702 109.943 173.747 114.872 172.144 119.596C170.614 124.462 168.47 129.017 165.711 133.259C164.138 135.617 162.457 137.94 160.56 140.196C165.686 131.825 168.779 121.984 168.776 111.408C168.717 80.9705 144.129 56.3696 113.799 56.4623C83.3958 56.4128 58.7949 81.0013 58.7455 111.405C58.8381 141.734 83.4266 166.335 113.722 166.351C114.655 166.406 115.514 166.32 116.373 166.233C121.573 166.323 126.721 165.445 131.612 164.25C142.287 161.663 151.865 155.762 159.661 148.35C163.576 144.589 166.835 140.267 169.588 135.666C172.45 131.099 174.656 125.97 176.145 120.854C182.495 100.272 177.9 77.0836 165.025 60.2041C161.833 55.9927 158.323 52.0378 154.285 48.6297C150.246 45.2217 145.93 42.3204 141.227 39.8918C136.633 37.4972 131.686 35.4672 126.644 34.12C121.601 32.7729 116.423 31.8583 111.256 31.6606C116.463 32.1086 121.465 33.2055 126.44 34.7689ZM111.096 72.248L113.713 68.0799L116.688 72.2233L113.923 76.1072L111.096 72.248ZM124.468 78.4709L127.194 74.3367L130.061 78.4461L127.404 82.364L124.468 78.4709ZM97.9734 78.4616L100.699 74.3274L103.566 78.4369L100.909 82.3547L97.9734 78.4616ZM136.009 88.6332L138.734 84.499L141.601 88.6085L138.944 92.5263L136.009 88.6332ZM89.7948 88.6053L92.4118 84.4372L95.3873 88.5806L92.6961 92.6066L89.7948 88.6053ZM113.327 110.141C112.854 109.755 112.591 109.078 112.329 108.402C112.174 107.759 112.054 107.008 111.899 106.365C111.355 103.937 109.897 102.528 107.45 101.996C106.659 101.867 106.01 101.663 105.327 101.567C104.104 101.301 103.408 100.489 103.39 99.4134C103.371 98.3382 104.11 97.5008 105.287 97.1579C106.18 96.9632 107.039 96.8767 107.824 96.6481C110.036 96.0363 111.411 94.686 111.874 92.4552C112.112 91.6982 112.208 91.0154 112.338 90.2244C112.638 88.8927 113.45 88.1975 114.525 88.179C115.459 88.2346 116.256 88.7228 116.558 89.6497C116.895 90.4685 117.056 91.4696 117.251 92.3625C117.794 94.7911 119.253 96.2001 121.592 96.6975C122.349 96.9354 123.14 97.0652 123.823 97.161C125.046 97.4267 125.741 98.2393 125.76 99.3146C125.778 100.39 125.04 101.227 123.863 101.57C122.97 101.765 122.111 101.851 121.326 102.08C119.114 102.692 117.739 104.042 117.275 106.273C117.003 107.138 116.948 108.071 116.642 109.044C116.336 110.018 115.449 110.571 114.624 110.549C114.158 110.521 113.725 110.385 113.327 110.141ZM132.403 118.632C132.301 114.797 132.273 111.105 132.353 107.447C132.347 102.93 135.227 99.4382 139.516 98.6472C140.625 98.5205 141.7 98.502 142.775 98.4834L142.701 123.294C142.503 124.302 142.306 125.309 141.892 126.248C141.444 127.296 140.705 128.133 140.149 129.146C137.35 133.138 134.658 137.164 131.967 141.19C131.757 141.481 131.655 141.805 131.695 142.056C132.017 144.058 132.338 146.06 132.767 148.096L96.413 148.078C96.7406 146.279 97.0681 144.481 97.3956 142.683C97.5254 141.892 97.445 141.391 96.9321 140.755C93.9165 136.361 90.9009 131.967 87.9192 127.466C87.0355 126.118 86.4701 124.515 86.4052 122.831C86.4454 114.763 86.4516 106.804 86.3836 98.7028L86.4516 98.4865C88.4939 98.4154 90.5765 98.5946 92.3871 99.639C95.2853 101.382 96.8364 104.008 96.824 107.45C96.8518 111.142 96.9136 114.726 96.8333 118.385C96.7777 119.318 97.0743 119.886 97.7633 120.341C98.1835 119.76 98.6037 119.179 99.0981 118.74C101.286 116.695 104.477 116.747 106.523 118.935C109.075 121.4 111.593 123.974 114.145 126.44C114.328 126.616 114.402 126.758 114.584 126.934C114.76 126.752 114.902 126.678 115.078 126.495C117.51 124.051 120.084 121.533 122.407 119.055C125.083 116.213 129.613 116.923 131.284 120.3L131.359 120.443C131.887 119.896 132.381 119.457 132.403 118.632Z" fill="url(#paint13_linear_3785_819)"/>
<path d="M138.977 102.249C136.737 103.328 135.619 104.996 135.662 107.505C135.628 111.772 135.628 115.931 135.594 120.198C135.6 120.556 135.498 120.881 135.322 121.063C131.8 124.709 128.277 128.355 124.755 132.001C124.755 132.001 124.545 132.291 124.261 132.439C123.565 131.627 122.87 130.814 122.067 129.968C122.703 129.455 123.266 128.8 123.97 128.071C125.237 126.686 126.578 125.444 127.845 124.06C128.935 122.858 128.438 121.038 127.032 120.596C126.133 120.433 125.456 120.695 124.786 121.316C122.144 124.051 119.36 126.859 116.61 129.56C116.292 129.816 116.19 130.141 116.196 130.499C116.202 135.016 116.283 139.676 116.255 144.301L116.193 144.876L128.812 144.802C128.577 143.659 128.342 142.515 128.249 141.298C128.209 141.048 128.311 140.723 128.413 140.399C131.701 135.61 134.988 130.82 138.276 126.031C139.008 124.836 139.416 123.538 139.391 122.104C139.388 115.687 139.419 109.161 139.416 102.744L139.404 102.027L138.977 102.249Z" fill="url(#paint14_linear_3785_819)"/>
</g>
<defs>
<linearGradient id="paint0_linear_3785_819" x1="394.427" y1="435.931" x2="483.413" y2="439.532" gradientUnits="userSpaceOnUse">
<stop stop-color="#50256A"/>
<stop offset="0.47" stop-color="#1E274C"/>
<stop offset="1" stop-color="#1575BA"/>
</linearGradient>
<linearGradient id="paint1_linear_3785_819" x1="394.526" y1="433.503" x2="483.511" y2="437.104" gradientUnits="userSpaceOnUse">
<stop stop-color="#50256A"/>
<stop offset="0.47" stop-color="#1E274C"/>
<stop offset="1" stop-color="#1575BA"/>
</linearGradient>
<linearGradient id="paint2_linear_3785_819" x1="393.242" y1="465.234" x2="482.227" y2="468.834" gradientUnits="userSpaceOnUse">
<stop stop-color="#50256A"/>
<stop offset="0.47" stop-color="#1E274C"/>
<stop offset="1" stop-color="#1575BA"/>
</linearGradient>
<linearGradient id="paint3_linear_3785_819" x1="393.879" y1="449.469" x2="482.865" y2="453.069" gradientUnits="userSpaceOnUse">
<stop stop-color="#50256A"/>
<stop offset="0.47" stop-color="#1E274C"/>
<stop offset="1" stop-color="#1575BA"/>
</linearGradient>
<linearGradient id="paint4_linear_3785_819" x1="394.404" y1="436.52" x2="483.39" y2="440.121" gradientUnits="userSpaceOnUse">
<stop stop-color="#50256A"/>
<stop offset="0.47" stop-color="#1E274C"/>
<stop offset="1" stop-color="#1575BA"/>
</linearGradient>
<linearGradient id="paint5_linear_3785_819" x1="393.37" y1="462.083" x2="482.355" y2="465.684" gradientUnits="userSpaceOnUse">
<stop stop-color="#50256A"/>
<stop offset="0.47" stop-color="#1E274C"/>
<stop offset="1" stop-color="#1575BA"/>
</linearGradient>
<linearGradient id="paint6_linear_3785_819" x1="393.914" y1="448.624" x2="482.899" y2="452.225" gradientUnits="userSpaceOnUse">
<stop stop-color="#50256A"/>
<stop offset="0.47" stop-color="#1E274C"/>
<stop offset="1" stop-color="#1575BA"/>
</linearGradient>
<linearGradient id="paint7_linear_3785_819" x1="393.87" y1="449.739" x2="482.855" y2="453.34" gradientUnits="userSpaceOnUse">
<stop stop-color="#50256A"/>
<stop offset="0.47" stop-color="#1E274C"/>
<stop offset="1" stop-color="#1575BA"/>
</linearGradient>
<linearGradient id="paint8_linear_3785_819" x1="393.791" y1="451.672" x2="482.777" y2="455.272" gradientUnits="userSpaceOnUse">
<stop stop-color="#50256A"/>
<stop offset="0.47" stop-color="#1E274C"/>
<stop offset="1" stop-color="#1575BA"/>
</linearGradient>
<linearGradient id="paint9_linear_3785_819" x1="392.395" y1="486.151" x2="481.381" y2="489.752" gradientUnits="userSpaceOnUse">
<stop stop-color="#50256A"/>
<stop offset="0.47" stop-color="#1E274C"/>
<stop offset="1" stop-color="#1575BA"/>
</linearGradient>
<linearGradient id="paint10_linear_3785_819" x1="393.346" y1="462.681" x2="482.331" y2="466.282" gradientUnits="userSpaceOnUse">
<stop stop-color="#50256A"/>
<stop offset="0.47" stop-color="#1E274C"/>
<stop offset="1" stop-color="#1575BA"/>
</linearGradient>
<linearGradient id="paint11_linear_3785_819" x1="84.2911" y1="89.8585" x2="192.434" y2="123.846" gradientUnits="userSpaceOnUse">
<stop stop-color="#50256A"/>
<stop offset="0.4" stop-color="#1E274C"/>
<stop offset="0.87" stop-color="#1575BA"/>
<stop offset="0.99" stop-color="#06070E"/>
<stop offset="1" stop-color="#06070E"/>
</linearGradient>
<linearGradient id="paint12_linear_3785_819" x1="75.6522" y1="117.347" x2="183.795" y2="151.335" gradientUnits="userSpaceOnUse">
<stop stop-color="#50256A"/>
<stop offset="0.4" stop-color="#1E274C"/>
<stop offset="0.87" stop-color="#1575BA"/>
<stop offset="0.99" stop-color="#06070E"/>
<stop offset="1" stop-color="#06070E"/>
</linearGradient>
<linearGradient id="paint13_linear_3785_819" x1="84.1747" y1="90.2301" x2="192.317" y2="124.218" gradientUnits="userSpaceOnUse">
<stop stop-color="#50256A"/>
<stop offset="0.4" stop-color="#1E274C"/>
<stop offset="0.87" stop-color="#1575BA"/>
<stop offset="0.99" stop-color="#06070E"/>
<stop offset="1" stop-color="#06070E"/>
</linearGradient>
<linearGradient id="paint14_linear_3785_819" x1="78.5935" y1="107.987" x2="186.736" y2="141.975" gradientUnits="userSpaceOnUse">
<stop stop-color="#50256A"/>
<stop offset="0.4" stop-color="#1E274C"/>
<stop offset="0.87" stop-color="#1575BA"/>
<stop offset="0.99" stop-color="#06070E"/>
<stop offset="1" stop-color="#06070E"/>
</linearGradient>
<clipPath id="clip0_3785_819">
<rect width="133" height="133" fill="white" transform="translate(371 387)"/>
</clipPath>
<clipPath id="clip1_3785_819">
<rect width="136" height="136" fill="white" transform="translate(43 31)"/>
</clipPath>
</defs>
</svg>
