<svg width="550" height="550" viewBox="0 0 550 550" fill="none" xmlns="http://www.w3.org/2000/svg">
<mask id="mask0_3753_1022" style="mask-type:luminance" maskUnits="userSpaceOnUse" x="263" y="241" width="41" height="64">
<path d="M284.235 242.044C283.238 251.097 280.812 268.309 269.804 273.922C266.674 275.519 264.278 278.297 263.523 281.714C260.608 294.919 278.026 294.35 280.072 304.065C283.399 304.199 286.066 300.951 287.519 298.304C289.116 295.395 290.167 292.123 292.408 289.671C294.955 286.884 298.786 285.449 301.128 282.49C304.481 278.251 303.817 271.966 301.271 267.204C298.724 262.442 294.635 258.718 291.098 254.628C287.958 250.996 285.124 246.732 284.538 242.045C284.527 241.955 284.455 241.909 284.384 241.909C284.314 241.909 284.245 241.954 284.235 242.044Z" fill="white"/>
</mask>
<g mask="url(#mask0_3753_1022)">
<path d="M304.481 241.909H260.607V304.199H304.481V241.909Z" fill="url(#paint0_linear_3753_1022)"/>
</g>
<path d="M301.182 292.38L295.961 300.366L301.584 307.952L306.805 300.366L301.182 292.38Z" fill="#F2BE43"/>
<path d="M276.109 284.526C276.038 282.727 277.576 281.339 278.791 280.004C282.791 275.607 284.153 269.506 285.369 263.702C286.626 266.247 287.585 268.954 287.999 271.758C288.753 276.869 287.554 282.21 284.829 286.593C283.64 288.506 282.052 291.59 279.885 289.86C278.494 288.75 276.182 286.397 276.109 284.526Z" fill="#F2BE43"/>
<path d="M217.157 354.786L213.111 360.974L217.468 366.853L221.514 360.974L217.157 354.786Z" fill="#F2BE43"/>
<path d="M352.532 354.786L348.486 360.974L352.843 366.853L356.889 360.974L352.532 354.786Z" fill="#F2BE43"/>
<path d="M279.258 356.528H276.434V374.492H279.258V356.528Z" fill="#CF6112"/>
<path d="M305.385 374.492H302.195L297.642 368.415H295.572V374.492H292.747V356.528H295.134H298.104C300.49 356.528 301.878 357.497 302.609 358.32C303.558 359.361 304.07 360.813 304.07 362.484C304.07 364.13 303.559 365.582 302.609 366.623C302.17 367.108 301.489 367.664 300.515 368.003L305.385 374.492ZM298.104 365.897C299.273 365.897 300.149 365.558 300.71 364.929C301.392 364.202 301.513 363.186 301.513 362.484C301.513 361.757 301.392 360.74 300.71 360.014C300.149 359.385 299.273 359.07 298.104 359.07H295.572V365.897L298.104 365.897Z" fill="#CF6112"/>
<path d="M320.166 363.839H326.765V366.381H320.166V371.949H328.177V374.492H320.142H317.342V356.528H320.142H328.177V359.046H320.166V363.839Z" fill="#CF6112"/>
<path d="M263.541 354.204V376.684H262.71V366.063H249.714V377.45C251.257 378.512 252.681 378.866 253.868 378.866C256.242 378.866 257.844 377.45 258.378 376.92L251.019 385.061C245.916 381.463 240.219 380.105 235.59 380.105C230.071 380.105 226.807 381.935 226.807 384.236C226.807 387.776 231.317 389.605 231.317 389.605C227.282 389.605 224.434 387.067 224.434 383.764C224.434 374.972 240.991 374.795 241.524 374.795V356.917L258.794 343.996C261.227 348.244 263.481 349.601 265.321 349.601C268.407 349.601 270.365 346.061 270.365 346.061C268.466 350.959 266.033 353.319 263.541 354.204ZM262.71 354.439C262.117 354.558 261.523 354.616 260.93 354.616C256.242 354.616 252.087 350.663 252.087 350.663L249.595 352.611V360.34H262.71V354.439ZM258.556 376.743C258.556 376.743 258.497 376.802 258.378 376.92L258.556 376.743Z" fill="#CF6112"/>
<defs>
<linearGradient id="paint0_linear_3753_1022" x1="263.199" y1="273.099" x2="303.42" y2="273.099" gradientUnits="userSpaceOnUse">
<stop stop-color="#FFE826"/>
<stop offset="0.0094" stop-color="#FEE321"/>
<stop offset="0.0544" stop-color="#F9D00F"/>
<stop offset="0.1006" stop-color="#F7C504"/>
<stop offset="0.1498" stop-color="#F6C100"/>
<stop offset="0.4717" stop-color="#EA8834"/>
<stop offset="1" stop-color="#DC312D"/>
</linearGradient>
</defs>
</svg>
