<svg width="550" height="550" viewBox="0 0 550 550" fill="none" xmlns="http://www.w3.org/2000/svg">
<mask id="mask0_3753_1138" style="mask-type:luminance" maskUnits="userSpaceOnUse" x="77" y="400" width="113" height="127">
<path d="M140.327 403.106C144.955 404.555 149.401 406.514 153.577 408.929C157.746 411.349 161.712 414.145 165.267 417.366C168.832 420.577 171.937 424.267 174.715 428.184C177.467 432.111 179.826 436.288 181.562 440.725C182.429 442.929 183.236 445.247 183.882 447.492C184.511 449.775 185 452.1 185.333 454.451C185.673 456.801 185.876 459.173 185.964 461.554C186.059 463.984 186.082 466.288 185.875 468.648C185.492 473.375 184.536 477.978 183.028 482.49C181.592 487.01 179.633 491.232 177.07 495.184C175.599 497.466 173.993 499.66 172.252 501.714C177.086 493.876 179.881 484.647 179.881 474.762C179.881 446.361 156.857 423.338 128.457 423.338C100.056 423.338 77.0322 446.361 77.0322 474.762C77.0322 503.163 100.056 526.186 128.457 526.186C129.283 526.186 130.103 526.163 130.92 526.124C135.761 526.13 140.558 525.382 145.139 524.233C155.106 521.797 164.108 516.294 171.348 509.354C175.028 505.781 178.083 501.732 180.706 497.459C183.34 493.181 185.443 488.462 186.787 483.652C192.699 464.372 188.43 442.695 176.434 426.931C173.463 423.002 170.145 419.299 166.373 416.106C162.607 412.91 158.494 410.178 154.162 407.867C149.813 405.587 145.217 403.79 140.498 402.524C135.785 401.235 130.948 400.417 126.087 400.147C130.933 400.619 135.709 401.633 140.327 403.106Z" fill="white"/>
</mask>
<g mask="url(#mask0_3753_1138)">
<path d="M192.698 400.148H77.0312V526.187H192.698V400.148Z" fill="url(#paint0_linear_3753_1138)"/>
</g>
<path d="M138.192 482.875L135.32 487.292L138.413 491.489L141.284 487.292L138.192 482.875Z" fill="white"/>
<path d="M138.241 468.95C136.84 466.315 134.591 464.256 132.647 461.993C130.919 459.984 129.361 457.626 129.038 455.033C129.026 454.934 128.883 454.933 128.872 455.032C128.323 460.04 126.989 469.561 120.936 472.666C119.213 473.549 117.896 475.085 117.481 476.975C115.878 484.28 125.457 483.965 126.582 489.339C128.412 489.413 129.879 487.616 130.678 486.152C131.556 484.543 132.134 482.733 133.367 481.377C134.767 479.835 136.874 479.042 138.162 477.405C140.007 475.06 139.641 471.584 138.241 468.95ZM129.198 479.675C128.545 480.733 127.671 482.439 126.479 481.482C125.715 480.868 124.443 479.566 124.403 478.532C124.364 477.536 125.21 476.769 125.878 476.03C128.077 473.598 128.827 470.223 129.495 467.013C130.187 468.42 130.714 469.918 130.942 471.469C131.356 474.296 130.697 477.25 129.198 479.675Z" fill="white"/>
<path d="M72.3891 451.463L71.2547 454.167L72.6124 455.496L72.0622 456.808L65.502 450.163L74.8346 450.2L74.2887 451.502L72.3891 451.463ZM71.1434 451.447L68.4416 451.397L70.3698 453.291L71.1434 451.447Z" fill="#CF6112"/>
<path d="M76.9317 442.958C77.5126 443.555 77.7075 444.495 77.4187 445.365C77.3657 445.527 77.2931 445.677 77.2111 445.822C77.047 446.112 76.8342 446.375 76.5747 446.585C76.1336 446.935 75.6095 447.162 74.9832 447.254L74.791 445.97C75.1766 445.921 75.5069 445.789 75.7511 445.582C75.9584 445.419 76.1094 445.198 76.1816 444.958C76.322 444.553 76.2501 444.116 76.0091 443.865C75.7354 443.582 75.3197 443.64 75.0113 443.733C74.5313 443.883 73.7233 444.114 73.6629 444.131L72.3335 444.54C71.9191 444.663 71.5253 444.682 71.1613 444.604C70.8068 444.53 70.4825 444.359 70.2419 444.108C69.9819 443.846 69.8153 443.509 69.7409 443.122C69.6746 442.766 69.6995 442.384 69.822 442.032C69.942 441.64 70.1792 441.29 70.5017 441.013C70.8545 440.728 71.2824 440.536 71.7795 440.447L71.9868 441.727C71.3342 441.842 71.1207 442.219 71.0443 442.443C70.9501 442.722 70.9943 443.028 71.1642 443.201C71.2776 443.316 71.5055 443.433 71.9651 443.297L73.794 442.75C74.0665 442.675 74.39 442.577 74.6225 442.505C75.0779 442.354 75.5172 442.322 75.9157 442.408C76.3046 442.488 76.6578 442.675 76.9317 442.958Z" fill="#CF6112"/>
<path d="M77.5375 432.582L76.1976 434.409L81.913 438.6L81.1443 439.648L75.4288 435.457L74.0888 437.285L73.1572 436.602L76.6061 431.898L77.5375 432.582Z" fill="#CF6112"/>
<path d="M89.3435 430.275L88.3216 431.311L84.8778 430.832L84.2147 431.504L86.2 433.462L85.295 434.38L79.4268 428.592L80.1913 427.817L81.1428 426.852C81.9071 426.077 82.6682 425.938 83.1711 425.966C83.8154 425.993 84.4536 426.295 84.9994 426.833C85.5371 427.364 85.8478 427.998 85.8838 428.642C85.9016 428.94 85.8653 429.341 85.6638 429.766L89.3435 430.275ZM84.2034 429.871C84.5779 429.491 84.7481 429.097 84.7217 428.712C84.7029 428.257 84.4099 427.89 84.1805 427.664C83.9432 427.43 83.5719 427.142 83.1163 427.129C82.7312 427.108 82.3475 427.291 81.9732 427.671L81.1621 428.493L83.3923 430.693L84.2034 429.871Z" fill="#CF6112"/>
<path d="M93.0293 426.886C92.4989 427 91.9716 427.004 91.4451 426.912C90.9186 426.82 90.4241 426.638 89.964 426.35C89.5036 426.062 89.0997 425.68 88.7804 425.225C88.4608 424.771 88.2388 424.262 88.1174 423.722C88.0091 423.2 88.0057 422.673 88.0914 422.138C88.1832 421.611 88.372 421.126 88.6598 420.665C88.9477 420.205 89.3292 419.801 89.7839 419.482C90.2389 419.162 90.7482 418.94 91.2879 418.819C91.8094 418.711 92.3304 418.698 92.8657 418.784C93.3985 418.884 93.8841 419.073 94.3379 419.352C94.8047 419.649 95.2086 420.031 95.528 420.485C95.8473 420.94 96.0695 421.449 96.1842 421.98C96.2992 422.511 96.3116 423.032 96.2198 423.558C96.1187 424.091 95.9363 424.585 95.6577 425.039C95.3606 425.506 94.9789 425.91 94.5243 426.23C94.0696 426.549 93.5601 426.771 93.0293 426.886ZM89.3674 422.369C89.2376 423.112 89.4011 423.866 89.8353 424.485C90.2696 425.103 90.924 425.513 91.6674 425.642C92.4105 425.772 93.165 425.609 93.7833 425.174C94.4017 424.74 94.8112 424.086 94.9413 423.343C95.0708 422.6 94.9076 421.845 94.4732 421.227C94.039 420.608 93.3844 420.199 92.6412 420.069C91.8981 419.938 91.1436 420.102 90.5253 420.537C89.9066 420.971 89.4974 421.625 89.3674 422.369Z" fill="#CF6112"/>
<path d="M105.528 415.19L108.397 414.273L108.752 415.385L105.883 416.302L107.016 419.849L105.788 420.241L103.277 412.386L104.495 411.996L107.999 410.876L108.351 411.977L104.857 413.094L105.528 415.19Z" fill="#CF6112"/>
<path d="M115.202 417.775L113.712 409.664L112.444 409.897L113.934 418.007L115.202 417.775Z" fill="#CF6112"/>
<path d="M124.639 416.877L123.185 416.963L120.947 414.3L120.004 414.356L120.168 417.14L118.881 417.215L118.397 408.984L119.484 408.92L120.838 408.841C121.925 408.777 122.584 409.183 122.939 409.541C123.399 409.993 123.671 410.645 123.716 411.41C123.761 412.164 123.567 412.844 123.162 413.346C122.975 413.58 122.68 413.853 122.245 414.035L124.639 416.877ZM121.09 413.134C121.623 413.102 122.013 412.924 122.251 412.621C122.542 412.269 122.57 411.8 122.551 411.479C122.532 411.146 122.449 410.683 122.119 410.368C121.847 410.095 121.439 409.974 120.906 410.005L119.753 410.073L119.936 413.201L121.09 413.134Z" fill="#CF6112"/>
<path d="M129.241 412.162L132.245 412.367L132.165 413.531L129.162 413.326L128.987 415.875L132.634 416.125L132.554 417.289L128.896 417.038L127.621 416.951L128.185 408.726L129.459 408.813L133.118 409.064L133.039 410.217L129.392 409.967L129.241 412.162Z" fill="#CF6112"/>
<path d="M116.897 498.417C118.423 496.5 120.313 495.678 122.637 496.368C124.888 497.036 126.031 498.699 126.309 500.991C139.532 503.004 155.046 492.218 155.652 475.628H158.124C158.038 478.101 157.709 480.468 156.96 482.739C153.162 494.258 145.286 501.203 133.363 503.397C131.122 503.81 128.767 503.624 126.463 503.653C125.934 503.659 125.622 503.75 125.302 504.208C124.047 506.006 121.821 506.745 119.738 506.131C117.676 505.524 116.198 503.666 116.107 501.488C116.088 501.022 115.933 500.8 115.531 500.584C106.418 495.696 101.072 488.117 99.7257 477.876C97.7991 463.217 107.755 449.177 122.244 445.893C136.907 442.569 151.587 450.674 156.536 464.84C156.706 465.327 156.914 465.516 157.448 465.592C159.231 465.846 160.541 467.278 160.699 469.019C160.854 470.721 159.802 472.364 158.179 472.95C156.583 473.527 154.789 472.968 153.786 471.581C152.752 470.153 152.816 468.258 154.014 466.876C154.333 466.507 154.338 466.222 154.185 465.813C150.626 456.278 143.912 450.202 133.946 448.222C120.539 445.559 107.754 453.195 103.404 466.087C99.272 478.332 104.871 492.2 116.35 498.15C116.513 498.235 116.679 498.311 116.897 498.417ZM121.21 498.692C119.834 498.675 118.657 499.821 118.64 501.196C118.623 502.592 119.735 503.751 121.124 503.784C122.545 503.818 123.73 502.664 123.732 501.243C123.734 499.853 122.604 498.71 121.21 498.692ZM158.157 469.35C158.152 468.664 157.587 468.095 156.9 468.086C156.186 468.077 155.592 468.686 155.618 469.402C155.644 470.086 156.231 470.64 156.913 470.626C157.599 470.611 158.163 470.033 158.157 469.35Z" fill="white"/>
<path d="M99.8086 453.564C92.4566 464.587 91.1712 476.202 95.9615 488.546C97.9332 488.304 99.4823 488.861 100.372 490.626C101.165 492.198 100.821 493.665 99.6492 495.074C105.836 503.443 113.996 508.551 124.368 509.855C134.71 511.155 143.885 508.242 152.008 501.675C152.547 502.306 153.072 502.92 153.632 503.574C151.423 505.485 149.071 507.06 146.546 508.37C129.547 517.188 108.899 512.25 97.7275 496.697C97.4602 496.325 97.1926 496.145 96.7073 496.111C93.9438 495.919 92.3189 493.033 93.5838 490.571C93.8008 490.148 93.8047 489.829 93.6326 489.395C88.4888 476.413 89.7969 464.106 97.5373 452.486C97.7712 452.135 97.8946 451.894 97.643 451.443C96.3953 449.209 96.9197 446.538 98.8487 444.977C100.765 443.426 103.501 443.452 105.379 445.04C107.248 446.619 107.726 449.34 106.51 451.474C105.28 453.633 102.763 454.555 100.323 453.739C100.198 453.697 100.073 453.654 99.8086 453.564ZM104.606 448.942C104.602 447.552 103.468 446.415 102.073 446.403C100.698 446.391 99.5255 447.544 99.5142 448.919C99.5028 450.346 100.666 451.51 102.089 451.496C103.478 451.481 104.61 450.332 104.606 448.942ZM96.998 491.04C96.3155 491.019 95.7228 491.57 95.6918 492.253C95.6594 492.967 96.2468 493.581 96.963 493.581C97.6462 493.582 98.2195 493.015 98.2298 492.329C98.2401 491.646 97.6809 491.061 96.998 491.04Z" fill="white"/>
<path d="M109.156 444.53C108.728 443.885 108.281 443.211 107.812 442.504C110.833 440.504 114.004 438.981 117.399 437.958C127.74 434.843 137.687 435.832 147.217 440.917C147.603 441.123 147.835 441.111 148.191 440.838C149.575 439.776 151.344 439.754 152.713 440.722C154.076 441.687 154.664 443.37 154.13 445.022C153.977 445.496 154.09 445.728 154.419 446.033C163.182 454.129 167.402 464.166 167.042 476.074C166.852 482.394 165.044 488.296 161.943 493.628C162.377 494.64 162.897 495.519 163.132 496.467C163.661 498.598 162.552 500.847 160.593 501.909C158.633 502.972 156.219 502.654 154.618 501.121C152.992 499.565 152.575 497.129 153.59 495.115C154.584 493.14 156.82 491.972 158.958 492.394C159.522 492.505 159.745 492.35 160.004 491.889C168.125 477.442 165.081 458.987 152.754 447.938C152.301 447.532 151.926 447.395 151.294 447.558C149.115 448.121 146.902 446.482 146.721 444.195C146.679 443.67 146.51 443.404 146.055 443.17C133.863 436.903 121.85 437.227 110.008 444.121C109.802 444.241 109.602 444.371 109.395 444.49C109.353 444.514 109.295 444.508 109.156 444.53ZM160.709 497.455C160.728 496.061 159.615 494.903 158.224 494.869C156.803 494.834 155.619 495.99 155.617 497.412C155.616 498.801 156.749 499.945 158.141 499.961C159.519 499.976 160.691 498.832 160.709 497.455ZM150.521 445.119C151.205 445.115 151.775 444.546 151.782 443.86C151.788 443.177 151.226 442.595 150.543 442.578C149.828 442.559 149.226 443.161 149.244 443.876C149.26 444.562 149.836 445.122 150.521 445.119Z" fill="white"/>
<path d="M121.21 498.693C122.604 498.71 123.734 499.853 123.732 501.243C123.73 502.664 122.545 503.819 121.123 503.785C119.735 503.751 118.623 502.592 118.64 501.197C118.657 499.821 119.833 498.675 121.21 498.693Z" fill="white"/>
<path d="M158.156 469.351C158.162 470.033 157.598 470.612 156.912 470.626C156.23 470.641 155.643 470.086 155.617 469.402C155.591 468.687 156.185 468.078 156.9 468.087C157.586 468.096 158.151 468.664 158.156 469.351Z" fill="white"/>
<path d="M96.9979 491.041C97.6808 491.062 98.24 491.647 98.2297 492.329C98.2194 493.015 97.6461 493.582 96.9629 493.582C96.2466 493.581 95.6593 492.968 95.6917 492.254C95.7226 491.57 96.3154 491.02 96.9979 491.041Z" fill="white"/>
<path d="M150.521 445.119C149.836 445.122 149.26 444.562 149.244 443.876C149.226 443.161 149.828 442.559 150.543 442.578C151.226 442.595 151.788 443.177 151.781 443.86C151.775 444.546 151.205 445.115 150.521 445.119Z" fill="white"/>
<g clip-path="url(#clip0_3753_1138)">
<mask id="mask1_3753_1138" style="mask-type:luminance" maskUnits="userSpaceOnUse" x="234" y="33" width="113" height="127">
<path d="M297.591 36.1104C302.219 37.5595 306.664 39.5187 310.841 41.9335C315.01 44.3543 318.976 47.1498 322.531 50.3708C326.096 53.5823 329.201 57.2719 331.978 61.189C334.731 65.1157 337.089 69.2927 338.826 73.7296C339.693 75.9341 340.5 78.2517 341.146 80.4973C341.775 82.7803 342.264 85.1053 342.597 87.4556C342.937 89.8056 343.14 92.1775 343.228 94.5594C343.323 96.9892 343.346 99.2932 343.139 101.653C342.756 106.38 341.8 110.983 340.292 115.495C338.856 120.015 336.897 124.236 334.334 128.189C332.863 130.471 331.257 132.665 329.516 134.719C334.35 126.881 337.145 117.652 337.145 107.767C337.145 79.3658 314.121 56.3426 285.721 56.3426C257.319 56.3426 234.296 79.366 234.296 107.767C234.296 136.168 257.319 159.191 285.721 159.191C286.547 159.191 287.368 159.167 288.184 159.129C293.025 159.135 297.822 158.387 302.403 157.237C312.37 154.802 321.372 149.299 328.612 142.359C332.292 138.786 335.347 134.737 337.97 130.464C340.604 126.186 342.707 121.466 344.051 116.657C349.963 97.3764 345.693 75.6998 333.698 59.9359C330.727 56.0067 327.409 52.3042 323.637 49.1112C319.871 45.9146 315.758 43.1829 311.426 40.8722C307.077 38.5923 302.481 36.7945 297.762 35.5288C293.049 34.2398 288.212 33.4221 283.351 33.1523C288.197 33.6237 292.973 34.6382 297.591 36.1104Z" fill="white"/>
</mask>
<g mask="url(#mask1_3753_1138)">
<path d="M349.963 33.1533H234.296V159.192H349.963V33.1533Z" fill="url(#paint1_linear_3753_1138)"/>
</g>
<path d="M231.264 83.4219C231.306 83.6679 231.333 83.9205 231.336 84.1741C231.334 84.7273 231.226 85.2722 231.012 85.7846C230.798 86.2972 230.486 86.7571 230.098 87.1369C229.711 87.5168 229.267 87.8013 228.773 88.0045C228.279 88.2072 227.764 88.3172 227.221 88.3196C226.679 88.3218 226.133 88.2148 225.621 88.0004C225.108 87.7861 224.649 87.4741 224.258 87.0825C223.888 86.6991 223.594 86.2515 223.391 85.7575C223.188 85.2629 223.078 84.748 223.086 84.2093C223.073 83.6622 223.191 83.1212 223.405 82.6086C223.619 82.096 223.921 81.6324 224.323 81.2466C224.365 81.2038 224.421 81.1552 224.463 81.1123L225.868 81.699C225.296 82.0018 224.851 82.49 224.594 83.1056C224.303 83.8023 224.296 84.5704 224.593 85.2716C224.879 85.9693 225.42 86.52 226.117 86.8109C226.814 87.1021 227.586 87.0993 228.283 86.8127C228.981 86.5261 229.532 85.9857 229.823 85.2882C230.114 84.591 230.111 83.8191 229.824 83.1218C229.771 82.9909 229.713 82.8705 229.644 82.7454L231.264 83.4219Z" fill="#CF6112"/>
<path d="M234.109 75.9274L232.635 78.4645L233.811 79.9575L233.096 81.1875L227.442 73.751L236.697 74.9893L235.988 76.2101L234.109 75.9274ZM232.875 75.7502L230.2 75.3535L231.87 77.48L232.875 75.7502Z" fill="#CF6112"/>
<path d="M235.391 64.8488L234.027 66.6597L239.69 70.9261L238.908 71.9647L233.244 67.6982L231.88 69.509L230.957 68.8135L234.468 64.1533L235.391 64.8488Z" fill="#CF6112"/>
<path d="M244.256 63.1473L242.195 65.2351L242.96 66.9753L241.96 67.9877L238.346 59.373L246.997 62.8861L246.006 63.8908L244.256 63.1473ZM243.106 62.667L240.615 61.6141L241.7 64.0905L243.106 62.667Z" fill="#CF6112"/>
<path d="M253.137 58.2312L250.351 60.2772L249.321 61.0337L244.439 54.3864L245.478 53.623L249.669 59.3298L252.446 57.2907L253.137 58.2312Z" fill="#CF6112"/>
<path d="M255.817 51.7797L257.825 55.5962L256.684 56.1968L254.676 52.3803L250.276 50.2492L251.604 49.5506L254.729 51.0964L255.224 47.6458L256.542 46.9521L255.817 51.7797Z" fill="#CF6112"/>
<path d="M266.391 50.4153C266.422 51.2482 265.937 52.0775 265.14 52.5304C264.992 52.6148 264.837 52.6781 264.679 52.7306C264.363 52.8362 264.029 52.8888 263.695 52.871C263.133 52.8355 262.592 52.6526 262.065 52.301L262.782 51.2193C263.102 51.4405 263.436 51.5638 263.755 51.5743C264.019 51.5921 264.279 51.5291 264.493 51.3987C264.869 51.1915 265.108 50.8191 265.098 50.4716C265.084 50.0778 264.736 49.8426 264.445 49.7053C263.988 49.4946 263.232 49.125 263.176 49.0972L261.915 48.51C261.525 48.3235 261.219 48.0739 261.002 47.7717C260.787 47.4805 260.661 47.1358 260.65 46.7876C260.633 46.4187 260.735 46.0568 260.939 45.7198C261.129 45.4106 261.403 45.1436 261.73 44.9646C262.081 44.7539 262.492 44.6518 262.917 44.6629C263.371 44.6871 263.817 44.8314 264.245 45.0989L263.542 46.1877C262.98 45.8363 262.569 45.9735 262.362 46.0894C262.105 46.233 261.933 46.4895 261.943 46.732C261.95 46.8938 262.042 47.133 262.474 47.3403L264.199 48.1591C264.452 48.2859 264.758 48.43 264.979 48.532C265.418 48.7255 265.766 48.9959 266.005 49.3261C266.24 49.6464 266.377 50.0222 266.391 50.4153Z" fill="#CF6112"/>
<path d="M274.004 43.3228L271.77 43.7102L272.982 50.6955L271.701 50.918L270.489 43.9327L268.255 44.3201L268.058 43.1814L273.806 42.1836L274.004 43.3228Z" fill="#CF6112"/>
<path d="M283.439 80.6412C282.799 80.5419 282.406 80.964 282.348 81.8198C282.029 86.5114 281.721 91.2035 281.407 95.8951C281.321 97.1722 281.228 98.4488 281.128 99.8795C280.766 99.5603 280.543 99.3733 280.331 99.1742C274.72 93.8967 269.111 88.617 263.498 83.341C262.539 82.4394 262.13 82.4765 261.367 83.5101C261.297 83.4234 261.224 83.3439 261.164 83.2551C260.787 82.6947 260.275 82.5042 259.713 82.8986C259.133 83.3065 259.226 83.8616 259.589 84.3957C259.695 84.5521 259.8 84.7093 259.905 84.8659C264.67 91.9167 269.434 98.9668 274.196 106.019C274.366 106.27 274.506 106.54 274.693 106.859C274.424 106.904 274.293 106.931 274.161 106.948C269.259 107.578 264.356 108.194 259.458 108.857C259.035 108.914 258.449 109.189 258.309 109.52C258.159 109.871 258.451 110.41 258.532 110.779C258.407 111.226 258.092 111.732 258.223 112.06C258.361 112.405 258.898 112.73 259.308 112.805C262.122 113.316 264.95 113.759 267.773 114.226C269.659 114.537 271.546 114.85 273.631 115.195C272.858 116.055 272.237 116.76 271.602 117.452C265.785 123.792 259.965 130.128 254.146 136.465C254.647 136.922 255.133 137.391 255.61 137.868C257.926 135.36 260.241 132.852 262.548 130.335C266.84 125.653 271.08 120.924 275.338 116.211C276.38 115.058 275.936 113.705 274.415 113.358C274.231 113.316 274.045 113.285 273.858 113.254C269.146 112.478 264.432 111.703 259.56 110.902C259.845 110.795 259.982 110.711 260.128 110.692C262.807 110.351 265.487 110.021 268.166 109.68C270.604 109.37 273.042 109.068 275.475 108.723C276.52 108.576 277.127 107.772 276.901 106.852C276.796 106.422 276.538 106.015 276.285 105.641C271.877 99.0993 267.459 92.5647 263.044 86.0276C262.902 85.8173 262.773 85.5982 262.638 85.3831C262.941 85.4992 263.156 85.6864 263.363 85.8816C268.934 91.1227 274.508 96.3619 280.071 101.612C280.654 102.162 281.281 102.443 282.049 102.119C282.785 101.809 283.003 101.173 283.053 100.414C283.454 94.2652 283.87 88.1178 284.285 81.9702C284.329 81.3115 284.202 80.7595 283.439 80.6412Z" fill="white"/>
<path d="M289.641 113.453C290.111 115.026 290.568 116.55 291.024 118.075C291.086 118.281 291.2 118.486 291.203 118.693C291.207 118.954 291.12 119.216 291.073 119.478C290.843 119.385 290.557 119.35 290.391 119.19C289.319 118.161 288.281 117.096 287.211 116.065C287.016 115.877 286.724 115.789 286.477 115.655C286.35 115.901 286.156 116.134 286.106 116.395C285.67 118.647 285.271 120.906 284.827 123.156C284.775 123.419 284.515 123.641 284.351 123.882C284.201 123.631 283.944 123.391 283.918 123.127C283.67 120.601 283.466 118.07 283.231 115.542C283.205 115.269 283.056 115.007 282.965 114.739C282.687 114.863 282.358 114.928 282.139 115.118C277.446 119.191 272.765 123.278 268.082 127.362C267.94 127.486 267.813 127.656 267.647 127.717C267.474 127.78 267.262 127.736 267.067 127.739C267.066 127.542 266.998 127.311 267.078 127.157C267.2 126.926 267.422 126.745 267.606 126.548C271.723 122.149 275.843 117.753 279.952 113.346C280.158 113.126 280.27 112.818 280.425 112.551C280.125 112.409 279.839 112.203 279.523 112.137C278.493 111.922 277.449 111.779 276.42 111.56C276.174 111.508 275.969 111.267 275.744 111.113C275.952 110.947 276.136 110.693 276.371 110.631C277.544 110.32 278.731 110.064 279.912 109.781C280.927 109.537 280.978 109.392 280.373 108.501C278.901 106.335 277.416 104.177 275.966 101.996C275.808 101.758 275.843 101.391 275.789 101.084C276.074 101.156 276.412 101.152 276.636 101.311C278.683 102.766 280.705 104.256 282.748 105.717C283.015 105.908 283.358 105.994 283.665 106.129C283.781 105.819 283.962 105.518 284.003 105.199C284.358 102.441 284.687 99.6787 285.028 96.9186C285.061 96.6519 285.098 96.3764 285.198 96.1317C285.242 96.024 285.526 95.8922 285.57 95.9288C285.736 96.0677 285.928 96.2546 285.969 96.4525C286.305 98.0911 286.611 99.7363 286.925 101.38C287.118 102.387 287.293 103.398 287.507 104.4C287.66 105.123 287.94 105.217 288.48 104.727C289.381 103.911 290.258 103.069 291.144 102.237C294.255 99.3131 297.365 96.389 300.476 93.4651C300.574 93.3727 300.658 93.2318 300.773 93.1976C300.999 93.1309 301.243 93.1235 301.479 93.0918C301.444 93.3326 301.493 93.6402 301.362 93.8033C300.483 94.898 299.565 95.962 298.659 97.0361C296.187 99.9696 293.71 102.899 291.251 105.843C291.044 106.091 290.952 106.435 290.807 106.734C291.121 106.84 291.429 107.014 291.749 107.039C292.934 107.129 294.123 107.154 295.308 107.245C295.531 107.262 295.74 107.465 295.955 107.583C295.794 107.769 295.67 108.04 295.467 108.127C294.328 108.618 293.168 109.056 292.021 109.528C291.284 109.831 291.238 110.091 291.841 110.602C292.994 111.58 294.177 112.525 295.314 113.522C295.557 113.734 295.656 114.111 295.821 114.411C295.499 114.418 295.152 114.508 294.86 114.418C293.392 113.964 291.94 113.46 290.48 112.981C290.011 112.827 289.603 112.803 289.641 113.453Z" fill="white"/>
<path d="M283.777 138.636C283.476 135.328 283.173 132.019 282.868 128.711C282.601 125.806 282.336 122.901 282.06 119.997C281.997 119.324 281.643 118.842 281.008 118.583C280.388 118.33 279.843 118.494 279.356 118.908C279.048 119.171 278.75 119.447 278.451 119.72C271.306 126.258 264.162 132.796 257.017 139.333C257.457 139.81 257.889 140.294 258.314 140.785C265.359 134.341 272.404 127.896 279.449 121.452C279.64 121.277 279.838 121.109 280.13 120.852C280.193 121.194 280.247 121.394 280.266 121.597C280.715 126.546 281.16 131.496 281.607 136.446C281.709 137.575 281.803 138.706 281.925 139.834C281.991 140.444 282.311 140.866 282.978 140.816C283.589 140.769 283.876 140.373 283.856 139.768C283.843 139.39 283.812 139.013 283.777 138.636Z" fill="white"/>
<path d="M312.475 79.0558C312.379 79.0175 312.288 78.9748 312.2 78.9297C305.26 85.0157 298.32 91.1018 291.379 97.1875C290.982 97.536 290.572 97.871 290.053 98.31C289.642 95.96 289.258 93.765 288.875 91.5696C288.292 88.2203 287.716 84.8694 287.122 81.5218C286.986 80.7502 286.511 80.3511 285.941 80.5135C285.281 80.7023 285.097 81.1802 285.212 81.8382C286.196 87.4733 287.175 93.1094 288.142 98.7476C288.277 99.5334 288.493 100.224 289.339 100.508C290.156 100.783 290.729 100.351 291.296 99.8542C298.89 93.1905 306.486 86.5292 314.081 79.867C313.569 79.5564 313.036 79.2801 312.475 79.0558Z" fill="white"/>
<path d="M311.66 102.673C308.528 102.762 305.397 102.878 302.264 102.952C300.655 102.99 299.045 102.959 297.325 102.959C297.552 102.7 297.723 102.497 297.904 102.301C304.173 95.5105 310.444 88.7202 316.714 81.9297C316.241 81.4759 315.75 81.0505 315.238 80.6602C308.634 87.8091 302.032 94.9591 295.423 102.103C294.89 102.68 294.562 103.293 294.89 104.077C295.199 104.816 295.81 105.116 296.577 105.093C301.626 104.939 306.674 104.776 311.723 104.613C312.387 104.592 312.906 104.365 312.913 103.59C312.919 102.972 312.483 102.649 311.66 102.673Z" fill="white"/>
<path d="M297.785 110.797C299.859 112.428 301.767 113.926 303.674 115.425C307.686 118.58 311.699 121.735 315.711 124.892C315.88 125.025 316.154 125.149 316.184 125.313C316.258 125.723 316.385 126.292 316.179 126.535C315.974 126.778 315.351 126.838 314.985 126.729C314.575 126.606 314.246 126.206 313.886 125.923C308.066 121.351 302.25 116.774 296.423 112.212C295.782 111.71 295.326 111.161 295.496 110.3C295.661 109.459 296.291 109.166 297.046 108.971C302.007 107.686 306.96 106.374 311.922 105.099C312.277 105.008 312.751 105.033 313.054 105.206C313.278 105.334 313.488 105.866 313.394 106.085C313.246 106.424 312.879 106.804 312.531 106.9C309.438 107.755 306.328 108.549 303.224 109.363C301.484 109.82 299.744 110.281 297.785 110.797Z" fill="white"/>
<path d="M294.811 118.01C295.264 119.511 295.647 120.792 296.038 122.071C296.692 124.212 297.351 126.352 298.008 128.493C298.056 128.647 298.102 128.802 298.143 128.959C298.312 129.59 298.079 130.055 297.467 130.222C296.878 130.383 296.476 130.06 296.299 129.496C295.807 127.926 295.329 126.351 294.845 124.779C294.161 122.562 293.485 120.342 292.787 118.13C292.529 117.311 292.551 116.569 293.273 116.006C293.974 115.459 294.674 115.662 295.382 116.066C301.522 119.574 307.668 123.072 313.811 126.575C314.021 126.695 314.33 126.794 314.4 126.977C314.539 127.344 314.726 127.889 314.56 128.124C314.363 128.402 313.817 128.523 313.416 128.537C313.137 128.546 312.844 128.267 312.562 128.107C307.052 124.966 301.542 121.822 296.032 118.681C295.693 118.488 295.348 118.305 294.811 118.01Z" fill="white"/>
<path d="M288.289 122.083C288.105 123.765 287.919 125.446 287.737 127.128C287.302 131.152 286.87 135.177 286.433 139.201C286.361 139.861 286.02 140.278 285.316 140.188C284.596 140.095 284.433 139.567 284.5 138.932C284.839 135.766 285.179 132.6 285.523 129.434C285.823 126.671 286.135 123.909 286.429 121.145C286.54 120.092 286.941 119.449 287.692 119.281C288.587 119.08 289.162 119.528 289.648 120.237C291.688 123.223 293.748 126.195 295.809 129.166C296.163 129.677 296.364 130.177 295.854 130.691C295.387 131.163 294.716 131.013 294.234 130.317C292.482 127.789 290.741 125.253 288.993 122.721C288.829 122.482 288.65 122.254 288.477 122.021C288.415 122.042 288.352 122.063 288.289 122.083Z" fill="white"/>
<path d="M263.532 141.198C263.756 140.831 263.878 140.525 264.087 140.303C268.454 135.666 272.831 131.04 277.203 126.41C277.647 125.94 278.13 125.741 278.69 126.192C279.156 126.567 279.133 127.195 278.609 127.752C274.239 132.385 269.869 137.018 265.467 141.621C265.209 141.891 264.664 142.027 264.279 141.985C264.019 141.956 263.805 141.504 263.532 141.198Z" fill="white"/>
<path d="M302.436 83.0832C302.228 83.4345 302.12 83.72 301.928 83.9251C299.287 86.7366 296.633 89.536 293.986 92.3413C293.537 92.8164 293.05 92.9926 292.501 92.5314C292.021 92.128 292.053 91.5648 292.605 90.9777C295.23 88.1878 297.851 85.3946 300.514 82.6423C300.772 82.3761 301.328 82.2538 301.712 82.3056C301.976 82.3415 302.184 82.7946 302.436 83.0832Z" fill="white"/>
<path d="M276.422 66.001L273.66 70.2496L276.634 74.2858L279.396 70.2496L276.422 66.001Z" fill="white"/>
<path d="M304.808 138.806L301.897 143.284L305.032 147.539L307.943 143.284L304.808 138.806Z" fill="white"/>
<path d="M220.224 165.12C222.648 165.12 224.088 163.536 224.088 160.98C224.088 158.436 222.648 156.84 220.224 156.84C217.8 156.84 216.36 158.436 216.36 160.98C216.36 163.536 217.8 165.12 220.224 165.12ZM220.224 163.872C218.508 163.872 217.728 162.984 217.728 160.98C217.728 158.976 218.508 158.088 220.224 158.088C221.94 158.088 222.708 158.976 222.708 160.98C222.708 162.984 221.94 163.872 220.224 163.872ZM230.833 165.12C233.029 165.12 234.361 164.28 234.361 162.756C234.361 161.64 233.665 160.992 232.501 160.788V160.692C233.533 160.524 234.073 159.876 234.073 158.964C234.073 157.596 232.909 156.84 230.857 156.84C228.361 156.84 227.209 158.016 227.209 159.588V159.696H228.577V159.612C228.577 158.556 229.105 158.064 230.749 158.064C232.309 158.064 232.789 158.436 232.789 159.216C232.789 159.936 232.285 160.296 231.313 160.296H229.249V161.376H231.493C232.501 161.376 233.053 161.748 233.053 162.564C233.053 163.512 232.453 163.896 230.785 163.896C229.009 163.896 228.577 163.404 228.577 162.348V162.18H227.209V162.372C227.209 164.004 228.313 165.12 230.833 165.12Z" fill="#5FDDF9"/>
</g>
<path d="M66.224 528.12C68.648 528.12 70.088 526.536 70.088 523.98C70.088 521.436 68.648 519.84 66.224 519.84C63.8 519.84 62.36 521.436 62.36 523.98C62.36 526.536 63.8 528.12 66.224 528.12ZM66.224 526.872C64.508 526.872 63.728 525.984 63.728 523.98C63.728 521.976 64.508 521.088 66.224 521.088C67.94 521.088 68.708 521.976 68.708 523.98C68.708 525.984 67.94 526.872 66.224 526.872ZM76.2332 528V519.96H75.0932C74.7452 520.728 74.2412 520.956 73.3532 520.956H72.9692V521.88H74.9372V528H76.2332Z" fill="#5FDDF9"/>
<defs>
<linearGradient id="paint0_linear_3753_1138" x1="76.9913" y1="463.148" x2="189.384" y2="463.148" gradientUnits="userSpaceOnUse">
<stop stop-color="#FFE826"/>
<stop offset="0.0094" stop-color="#FEE321"/>
<stop offset="0.0544" stop-color="#F9D00F"/>
<stop offset="0.1006" stop-color="#F7C504"/>
<stop offset="0.1498" stop-color="#F6C100"/>
<stop offset="0.4717" stop-color="#EA8834"/>
<stop offset="1" stop-color="#DC312D"/>
</linearGradient>
<linearGradient id="paint1_linear_3753_1138" x1="234.334" y1="96.1527" x2="346.727" y2="96.1527" gradientUnits="userSpaceOnUse">
<stop stop-color="#FFE826"/>
<stop offset="0.0094" stop-color="#FEE321"/>
<stop offset="0.0544" stop-color="#F9D00F"/>
<stop offset="0.1006" stop-color="#F7C504"/>
<stop offset="0.1498" stop-color="#F6C100"/>
<stop offset="0.4717" stop-color="#EA8834"/>
<stop offset="1" stop-color="#DC312D"/>
</linearGradient>
<clipPath id="clip0_3753_1138">
<rect width="140.698" height="140.698" fill="white" transform="translate(214.538 25.3076)"/>
</clipPath>
</defs>
</svg>
