<svg width="550" height="550" viewBox="0 0 550 550" fill="none" xmlns="http://www.w3.org/2000/svg">
<g clip-path="url(#clip0_3753_1253)">
<mask id="mask0_3753_1253" style="mask-type:luminance" maskUnits="userSpaceOnUse" x="432" y="148" width="114" height="127">
<path d="M495.922 151.227C500.55 152.676 504.995 154.635 509.172 157.05C513.341 159.471 517.307 162.266 520.861 165.487C524.426 168.699 527.532 172.388 530.309 176.305C533.062 180.232 535.42 184.409 537.156 188.846C538.024 191.05 538.831 193.368 539.477 195.613C540.106 197.897 540.595 200.221 540.928 202.572C541.267 204.922 541.471 207.294 541.559 209.676C541.653 212.105 541.677 214.409 541.47 216.769C541.087 221.496 540.131 226.099 538.623 230.611C537.187 235.132 535.227 239.353 532.665 243.305C531.194 245.588 529.587 247.781 527.847 249.835C532.681 241.997 535.476 232.768 535.476 222.883C535.476 194.482 512.452 171.459 484.051 171.459C455.65 171.459 432.627 194.482 432.627 222.883C432.627 251.284 455.65 274.307 484.051 274.307C484.878 274.307 485.698 274.284 486.515 274.245C491.355 274.251 496.152 273.504 500.734 272.354C510.701 269.918 519.703 264.415 526.943 257.475C530.623 253.903 533.677 249.853 536.3 245.58C538.935 241.302 541.038 236.583 542.381 231.773C548.294 212.493 544.024 190.816 532.029 175.052C529.058 171.123 525.74 167.42 521.967 164.227C518.202 161.031 514.089 158.299 509.757 155.988C505.408 153.708 500.812 151.911 496.093 150.645C491.38 149.356 486.543 148.538 481.682 148.269C486.528 148.74 491.303 149.754 495.922 151.227Z" fill="white"/>
</mask>
<g mask="url(#mask0_3753_1253)">
<path d="M548.294 148.27H432.627V274.308H548.294V148.27Z" fill="url(#paint0_linear_3753_1253)"/>
</g>
<path d="M494.971 206.268L492.76 209.669L495.141 212.9L497.352 209.669L494.971 206.268Z" fill="white"/>
<path d="M495.008 195.545C493.93 193.517 492.198 191.931 490.701 190.189C489.371 188.642 488.17 186.826 487.923 184.829C487.913 184.753 487.803 184.752 487.794 184.829C487.372 188.685 486.345 196.016 481.683 198.406C480.358 199.086 479.343 200.269 479.024 201.725C477.789 207.349 485.165 207.107 486.031 211.245C487.44 211.302 488.57 209.918 489.185 208.791C489.861 207.552 490.306 206.159 491.255 205.114C492.333 203.927 493.956 203.316 494.947 202.055C496.368 200.25 496.087 197.573 495.008 195.545ZM488.046 203.803C487.543 204.618 486.87 205.932 485.952 205.195C485.363 204.722 484.384 203.72 484.353 202.923C484.323 202.157 484.975 201.565 485.489 200.997C487.183 199.124 487.76 196.526 488.274 194.054C488.807 195.137 489.213 196.29 489.388 197.485C489.707 199.662 489.199 201.936 488.046 203.803Z" fill="white"/>
<path d="M420.695 200.249L421.207 198.994C421.619 197.986 422.27 197.567 422.735 197.397C423.355 197.17 424.046 197.212 424.756 197.502C425.466 197.792 426 198.25 426.274 198.842C426.498 199.293 426.67 200.047 426.259 201.056L425.822 202.126L428.404 203.179L427.918 204.373L420.283 201.258L420.695 200.249ZM424.32 198.572C424.022 198.45 423.564 198.335 423.142 198.488C422.774 198.625 422.479 198.937 422.277 199.431L421.841 200.501L424.742 201.684L425.179 200.615C425.38 200.121 425.398 199.696 425.231 199.339C425.036 198.936 424.628 198.698 424.32 198.572Z" fill="#CF6112"/>
<path d="M429.006 191.897L432.78 193.982L432.157 195.111L428.383 193.025L423.536 193.662L424.208 192.445L427.819 191.977L426.293 188.671L426.96 187.465L429.006 191.897Z" fill="#CF6112"/>
<path d="M439.36 184.25L438.487 185.416L435.009 185.408L434.443 186.164L436.676 187.835L435.903 188.867L429.303 183.926L429.956 183.054L430.768 181.969C431.421 181.097 432.156 180.856 432.658 180.816C433.301 180.755 433.974 180.968 434.588 181.428C435.193 181.881 435.587 182.467 435.71 183.1C435.768 183.393 435.786 183.796 435.644 184.245L439.36 184.25ZM434.21 184.546C434.53 184.119 434.645 183.706 434.568 183.328C434.487 182.879 434.146 182.555 433.889 182.362C433.622 182.162 433.215 181.926 432.762 181.976C432.377 182.008 432.022 182.241 431.702 182.668L431.01 183.593L433.518 185.471L434.21 184.546Z" fill="#CF6112"/>
<path d="M442.533 180.34C442.026 180.534 441.506 180.617 440.972 180.606C440.438 180.595 439.921 180.491 439.423 180.276C438.924 180.061 438.467 179.745 438.083 179.344C437.698 178.944 437.402 178.473 437.2 177.959C437.014 177.46 436.93 176.939 436.934 176.397C436.945 175.863 437.058 175.355 437.272 174.856C437.487 174.358 437.803 173.901 438.204 173.516C438.604 173.132 439.074 172.835 439.589 172.634C440.088 172.448 440.601 172.356 441.143 172.359C441.685 172.379 442.193 172.491 442.684 172.698C443.19 172.92 443.647 173.236 444.032 173.637C444.416 174.038 444.713 174.508 444.907 175.015C445.101 175.522 445.192 176.034 445.181 176.569C445.162 177.11 445.057 177.627 444.85 178.117C444.627 178.623 444.312 179.08 443.911 179.465C443.51 179.85 443.04 180.146 442.533 180.34ZM438.23 176.432C438.214 177.186 438.49 177.907 439.013 178.452C439.536 178.998 440.245 179.303 440.999 179.318C441.753 179.334 442.474 179.058 443.019 178.535C443.564 178.012 443.869 177.304 443.885 176.55C443.901 175.795 443.625 175.074 443.101 174.529C442.578 173.984 441.87 173.679 441.116 173.663C440.361 173.648 439.641 173.923 439.096 174.446C438.551 174.969 438.245 175.678 438.23 176.432Z" fill="#CF6112"/>
<path d="M453.409 172.194L448.646 170.8L450.652 173.95L449.565 174.644L445.134 167.688L446.221 166.994L448.049 169.863L448.452 165.573L449.821 164.701L449.403 169.672L454.768 171.329L453.409 172.194Z" fill="#CF6112"/>
<path d="M458.961 169.39L455.584 161.87L454.408 162.398L457.786 169.918L458.961 169.39Z" fill="#CF6112"/>
<path d="M462.15 162.519L463.575 167.625L462.333 167.971L460.013 159.653L466.527 163.732L465.106 158.637L466.358 158.287L468.675 166.594L462.15 162.519Z" fill="#CF6112"/>
<path d="M472.931 160.644L475.925 160.332L476.046 161.492L473.052 161.804L473.316 164.345L476.951 163.967L477.072 165.127L473.426 165.506L472.155 165.638L471.303 157.44L472.573 157.308L476.219 156.929L476.339 158.078L472.703 158.456L472.931 160.644Z" fill="#CF6112"/>
<path d="M484.981 163.498C484.727 164.292 483.989 164.905 483.084 165.059C482.917 165.088 482.75 165.095 482.584 165.091C482.251 165.082 481.919 165.018 481.611 164.888C481.095 164.663 480.649 164.307 480.273 163.797L481.316 163.025C481.541 163.342 481.812 163.571 482.109 163.69C482.351 163.796 482.617 163.825 482.863 163.776C483.287 163.709 483.638 163.441 483.746 163.11C483.867 162.736 483.621 162.396 483.393 162.168C483.036 161.814 482.451 161.21 482.408 161.164L481.423 160.183C481.12 159.875 480.918 159.537 480.816 159.178C480.714 158.832 480.712 158.465 480.821 158.134C480.93 157.782 481.149 157.476 481.455 157.228C481.739 157.003 482.088 156.845 482.456 156.788C482.858 156.709 483.279 156.754 483.675 156.909C484.093 157.087 484.463 157.374 484.774 157.77L483.743 158.555C483.335 158.033 482.901 158.022 482.667 158.06C482.377 158.108 482.128 158.29 482.055 158.522C482.007 158.676 482.011 158.932 482.347 159.274L483.689 160.631C483.884 160.836 484.122 161.075 484.295 161.247C484.642 161.578 484.877 161.951 484.989 162.343C485.101 162.723 485.102 163.123 484.981 163.498Z" fill="#CF6112"/>
<path d="M489.597 165.616L490.53 157.425L489.249 157.279L488.316 165.47L489.597 165.616Z" fill="#CF6112"/>
<path d="M497.913 165.345C497.532 166.085 496.702 166.569 495.785 166.572C495.615 166.573 495.45 166.552 495.286 166.52C494.959 166.457 494.642 166.338 494.36 166.159C493.888 165.852 493.507 165.428 493.221 164.863L494.376 164.273C494.546 164.622 494.776 164.893 495.049 165.06C495.27 165.204 495.527 165.277 495.778 165.269C496.207 165.273 496.598 165.067 496.76 164.759C496.941 164.409 496.753 164.033 496.567 163.771C496.273 163.363 495.796 162.67 495.761 162.618L494.951 161.488C494.703 161.134 494.559 160.767 494.518 160.397C494.474 160.037 494.534 159.676 494.695 159.367C494.861 159.037 495.127 158.773 495.471 158.579C495.787 158.402 496.157 158.305 496.53 158.309C496.939 158.298 497.348 158.411 497.712 158.629C498.095 158.873 498.413 159.218 498.655 159.661L497.508 160.264C497.191 159.682 496.766 159.6 496.528 159.599C496.235 159.599 495.958 159.738 495.848 159.954C495.776 160.098 495.738 160.351 496.012 160.743L497.112 162.304C497.27 162.538 497.466 162.813 497.608 163.011C497.896 163.395 498.066 163.801 498.112 164.206C498.16 164.6 498.094 164.995 497.913 165.345Z" fill="#CF6112"/>
<path d="M458.359 242.213C459.988 241.309 461.622 240.414 463.236 239.486C463.389 239.399 463.454 239.11 463.503 238.901C463.86 237.404 464.096 235.869 464.575 234.413C465.289 232.24 466.637 230.441 468.376 228.958C470.459 227.182 471.626 224.941 471.952 222.231C472.361 218.833 472.8 215.438 473.229 212.011C476.259 211.943 478.907 212.769 480.94 215.108C482.653 217.079 483.355 219.382 483.095 221.976C482.822 224.701 482.524 227.424 482.272 230.151C482.238 230.516 482.343 230.937 482.509 231.27C482.914 232.085 483.392 232.862 483.864 233.698C485.03 232.669 486.167 231.669 487.3 230.663C488.749 229.377 490.2 228.093 491.634 226.79C491.833 226.61 492.002 226.351 492.082 226.097C492.55 224.608 492.986 223.11 493.436 221.616C494.85 216.93 499.646 214.61 504.204 216.41C504.61 216.57 505.013 216.741 505.454 216.922C505.39 217.29 505.327 217.652 505.269 217.982C506.174 217.885 507.049 217.741 507.927 217.71C509.228 217.665 510.439 218.067 511.605 218.616C511.841 218.727 512.097 218.795 512.343 218.884C512.362 218.917 512.38 218.95 512.399 218.983C512.356 219.108 512.308 219.231 512.272 219.358C510.904 224.131 509.531 228.902 508.18 233.68C508.048 234.147 507.81 234.478 507.445 234.779C503.823 237.762 500.198 240.742 496.601 243.756C494.835 245.236 492.997 246.581 490.973 247.71C483.712 251.759 476.493 255.881 469.256 259.973C469.042 260.094 468.817 260.195 468.596 260.304C465.184 254.274 461.772 248.243 458.359 242.213ZM508.144 221.185C506.615 220.848 504.455 221.974 503.893 223.479C503.122 225.547 502.421 227.641 501.675 229.718C501.589 229.958 501.458 230.219 501.27 230.378C498.269 232.923 495.258 235.456 492.238 237.977C492.035 238.147 491.744 238.276 491.482 238.303C488.799 238.584 486.112 238.834 483.428 239.111C483.056 239.149 482.852 239.066 482.665 238.72C481.434 236.442 480.169 234.184 478.942 231.905C478.792 231.627 478.714 231.256 478.744 230.942C479.037 227.875 479.354 224.809 479.677 221.744C479.795 220.618 479.662 219.538 479.143 218.528C478.507 217.288 477.561 216.381 476.203 215.861C475.891 218.319 475.609 220.718 475.278 223.111C474.819 226.43 473.318 229.204 470.78 231.392C468.828 233.075 467.621 235.16 467.203 237.705C467.031 238.757 466.801 239.8 466.652 240.854C466.575 241.395 466.351 241.729 465.855 241.981C464.911 242.461 464.004 243.013 463.083 243.534C465.387 247.605 467.651 251.607 469.94 255.651C470.132 255.542 470.295 255.45 470.457 255.358C477.414 251.422 484.371 247.485 491.327 243.546C491.558 243.416 491.79 243.278 491.994 243.11C496.2 239.635 500.404 236.16 504.595 232.668C504.837 232.467 505.029 232.14 505.119 231.834C505.956 228.986 506.768 226.13 507.582 223.275C507.78 222.581 507.958 221.882 508.144 221.185ZM487.411 235.14C487.428 235.181 487.445 235.221 487.463 235.262C488.328 235.18 489.197 235.119 490.059 235.002C490.341 234.964 490.649 234.836 490.867 234.655C493.315 232.61 495.753 230.552 498.178 228.48C498.42 228.273 498.624 227.966 498.731 227.665C499.369 225.874 499.983 224.075 500.583 222.272C500.911 221.289 501.196 220.292 501.517 219.249C501.26 219.232 501.133 219.214 501.005 219.217C499.045 219.252 497.369 220.53 496.75 222.506C496.182 224.321 495.662 226.15 495.097 227.966C495.012 228.24 494.846 228.522 494.638 228.717C493.919 229.393 493.164 230.031 492.426 230.686C490.754 232.17 489.083 233.655 487.411 235.14Z" fill="white"/>
<mask id="mask1_3753_1253" style="mask-type:luminance" maskUnits="userSpaceOnUse" x="25" y="163" width="113" height="127">
<path d="M88.3826 165.985C92.9781 167.434 97.3924 169.394 101.54 171.809C105.68 174.229 109.618 177.025 113.148 180.246C116.688 183.457 119.772 187.147 122.529 191.064C125.262 194.991 127.605 199.168 129.329 203.605C130.19 205.809 130.992 208.127 131.633 210.372C132.258 212.655 132.743 214.98 133.074 217.331C133.411 219.681 133.613 222.052 133.7 224.434C133.794 226.864 133.818 229.168 133.612 231.528C133.231 236.255 132.282 240.858 130.785 245.37C129.359 249.89 127.413 254.111 124.869 258.064C123.408 260.346 121.813 262.54 120.084 264.594C124.884 256.756 127.66 247.527 127.66 237.642C127.66 209.241 104.797 186.218 76.595 186.218C48.3928 186.218 25.5303 209.241 25.5303 237.642C25.5303 266.043 48.3926 289.066 76.595 289.066C77.4154 289.066 78.2305 289.042 79.0416 289.004C83.8479 289.01 88.6112 288.262 93.161 287.112C103.058 284.677 111.997 279.174 119.187 272.234C122.841 268.661 125.874 264.612 128.479 260.339C131.095 256.061 133.183 251.341 134.517 246.532C140.388 227.251 136.148 205.575 124.237 189.811C121.287 185.882 117.992 182.179 114.246 178.986C110.507 175.79 106.423 173.058 102.121 170.747C97.8022 168.467 93.2386 166.669 88.5525 165.404C83.8723 164.115 79.0689 163.297 74.2424 163.027C79.0541 163.499 83.7964 164.513 88.3826 165.985Z" fill="white"/>
</mask>
<g mask="url(#mask1_3753_1253)">
<path d="M140.388 163.028H25.5303V289.067H140.388V163.028Z" fill="url(#paint1_linear_3753_1253)"/>
</g>
<path d="M15.8088 247.51C16.63 247.612 17.3654 248.223 17.6829 249.083C17.742 249.242 17.7802 249.405 17.8065 249.569C17.8595 249.898 17.8583 250.236 17.7882 250.563C17.6645 251.112 17.3994 251.617 16.9708 252.081L16.0243 251.201C16.2919 250.92 16.4654 250.61 16.5265 250.297C16.5856 250.039 16.5648 249.772 16.4713 249.54C16.328 249.136 16.0008 248.841 15.658 248.795C15.2705 248.746 14.9841 249.052 14.8036 249.318C14.5245 249.735 14.0427 250.422 14.0065 250.473L13.2307 251.624C12.9862 251.979 12.6935 252.241 12.3622 252.408C12.0425 252.573 11.6848 252.643 11.3421 252.597C10.9781 252.556 10.6394 252.397 10.3409 252.142C10.0683 251.905 9.84965 251.592 9.72618 251.241C9.57542 250.86 9.54033 250.439 9.61847 250.02C9.71448 249.577 9.92681 249.159 10.2563 248.779L11.2127 249.647C10.7791 250.145 10.8481 250.573 10.9285 250.796C11.0293 251.072 11.253 251.283 11.4927 251.312C11.652 251.331 11.9004 251.279 12.1725 250.885L13.2491 249.313C13.4135 249.084 13.6034 248.805 13.7379 248.603C13.9974 248.2 14.3176 247.9 14.6794 247.717C15.0301 247.536 15.4205 247.461 15.8088 247.51Z" fill="#CF6112"/>
<path d="M12.1378 242.908L11.9548 239.902L13.1119 239.831L13.2941 242.837L15.828 242.681L15.6067 239.031L16.7631 238.96L16.9857 242.621L17.0632 243.897L8.88909 244.4L8.81143 243.124L8.58887 239.464L9.73452 239.393L9.95644 243.043L12.1378 242.908Z" fill="#CF6112"/>
<path d="M16.9606 230.679L16.8126 234.133L16.7582 235.41L8.57715 235.054L8.63222 233.765L15.6556 234.071L15.803 230.629L16.9606 230.679Z" fill="#CF6112"/>
<path d="M12.6766 225.729L13.1367 222.754L14.281 222.933L13.821 225.908L17.4722 226.481L17.2751 227.755L9.1875 226.485L9.38326 225.223L9.94504 221.59L11.0785 221.768L10.5184 225.39L12.6766 225.729Z" fill="#CF6112"/>
<path d="M16.2543 215.666L15.1934 215.363L14.2546 218.697L15.3156 219L16.2543 215.666Z" fill="#CF6112"/>
<path d="M19.5895 205.924C20.6442 206.406 21.4066 207.134 21.791 208.029C22.0059 208.519 22.1048 209.052 22.0709 209.61C22.0426 210.183 21.8967 210.775 21.6228 211.382L20.9978 212.768L20.8195 213.163L13.3652 209.752L13.895 208.578L14.1688 207.971C14.443 207.364 14.7794 206.859 15.1997 206.466C15.595 206.073 16.0589 205.797 16.5668 205.639C17.4892 205.341 18.5348 205.441 19.5895 205.924ZM19.0597 207.097C18.2966 206.747 17.5674 206.671 16.9578 206.867C16.2643 207.087 15.7266 207.635 15.3344 208.505L15.0602 209.111L20.1841 211.456L20.4577 210.849C20.85 209.979 20.896 209.207 20.6141 208.54C20.3605 207.949 19.8132 207.442 19.0597 207.097Z" fill="#CF6112"/>
<path d="M21.7217 200.927L23.4166 198.446L24.3717 199.107L22.677 201.589L24.768 203.037L26.8257 200.024L27.7808 200.686L25.7169 203.708L24.9974 204.761L18.25 200.088L18.9695 199.035L21.0334 196.013L21.9787 196.668L19.9212 199.68L21.7217 200.927Z" fill="#CF6112"/>
<path d="M28.5754 189.309L27.0061 190.933L32.0514 195.875L31.1512 196.807L26.1061 191.865L24.5374 193.489L23.7148 192.684L27.7531 188.503L28.5754 189.309Z" fill="#CF6112"/>
<path d="M37.0024 191.058C36.4767 191.179 35.9536 191.19 35.4301 191.104C34.9063 191.018 34.4133 190.842 33.9527 190.56C33.492 190.278 33.0867 189.902 32.764 189.45C32.4415 189 32.2149 188.494 32.0884 187.956C31.9746 187.436 31.9647 186.909 32.043 186.372C32.128 185.845 32.3091 185.357 32.5894 184.893C32.8693 184.43 33.2438 184.022 33.6912 183.697C34.1386 183.372 34.6419 183.144 35.176 183.016C35.6923 182.901 36.2088 182.882 36.7413 182.961C37.2716 183.056 37.7559 183.238 38.2101 183.511C38.6765 183.803 39.0825 184.179 39.4051 184.63C39.7276 185.08 39.9544 185.587 40.0745 186.116C40.1947 186.645 40.2135 187.166 40.1286 187.693C40.0348 188.227 39.86 188.724 39.5885 189.181C39.2999 189.651 38.9256 190.059 38.4781 190.384C38.0307 190.709 37.5274 190.937 37.0024 191.058ZM33.3122 186.587C33.1926 187.332 33.3638 188.084 33.8021 188.697C34.2409 189.31 34.896 189.711 35.635 189.832C36.3745 189.952 37.1208 189.78 37.7299 189.339C38.3383 188.897 38.7369 188.238 38.8572 187.493C38.9766 186.749 38.8053 185.997 38.3665 185.384C37.9277 184.77 37.2734 184.369 36.5343 184.249C35.7947 184.128 35.0479 184.3 34.4393 184.742C33.8309 185.184 33.4324 185.843 33.3122 186.587Z" fill="#CF6112"/>
<path d="M43.606 181.02L45.8822 185.798L44.7281 186.355L41.0205 178.572L48.0946 181.452L45.8229 176.683L46.9871 176.121L50.6894 183.895L43.606 181.02Z" fill="#CF6112"/>
<path d="M57.8089 179.772L54.9766 180.455L54.7092 182.336L53.3359 182.667L54.8075 173.447L60.2565 180.998L58.8936 181.326L57.8089 179.772ZM57.0912 178.757L55.5447 176.548L55.16 179.222L57.0912 178.757Z" fill="#CF6112"/>
<path d="M66.4742 172.896L64.2469 173.219L65.2506 180.234L63.9727 180.419L62.9697 173.404L60.7425 173.728L60.5791 172.585L66.3103 171.753L66.4742 172.896Z" fill="#CF6112"/>
<path d="M71.9908 179.588L71.4912 171.356L70.2135 171.435L70.713 179.666L71.9908 179.588Z" fill="#CF6112"/>
<path d="M77.9368 179.17C77.4509 178.935 77.035 178.614 76.6784 178.219C76.3213 177.823 76.0442 177.376 75.859 176.866C75.6731 176.356 75.5886 175.807 75.6151 175.251C75.6416 174.696 75.7779 174.157 76.0118 173.657C76.2448 173.179 76.5629 172.76 76.9562 172.389C77.3497 172.03 77.7927 171.762 78.2997 171.575C78.8058 171.388 79.351 171.303 79.9024 171.33C80.4538 171.357 80.9889 171.494 81.4855 171.73C81.9606 171.964 82.3769 172.273 82.7451 172.67C83.1008 173.077 83.3673 173.523 83.5535 174.022C83.7383 174.543 83.8228 175.092 83.7963 175.647C83.7698 176.203 83.6335 176.741 83.4001 177.231C83.1666 177.72 82.8596 178.139 82.4668 178.499C82.0626 178.858 81.6186 179.137 81.1232 179.324C80.6057 179.51 80.0606 179.595 79.5091 179.569C78.9575 179.542 78.4225 179.405 77.9368 179.17ZM77.8164 173.355C77.2621 173.862 76.9302 174.558 76.894 175.313C76.8582 176.068 77.1216 176.794 77.6255 177.352C78.1293 177.911 78.8204 178.244 79.5705 178.281C80.3202 178.317 81.0404 178.051 81.5947 177.544C82.1497 177.037 82.4809 176.341 82.5171 175.585C82.5535 174.83 82.2895 174.106 81.7857 173.547C81.2818 172.989 80.5907 172.655 79.8406 172.618C79.0909 172.582 78.3714 172.847 77.8164 173.355Z" fill="#CF6112"/>
<path d="M89.3022 175.35L88.1791 180.53L86.9287 180.255L88.7575 171.818L92.5795 178.471L93.7004 173.303L94.9616 173.58L93.1349 182.007L89.3022 175.35Z" fill="#CF6112"/>
<path d="M94.7615 255.478L89.0684 264.298L95.1995 272.678L100.893 264.298L94.7615 255.478Z" fill="white"/>
<path d="M94.702 244.554C98.3596 239.872 97.6354 232.931 94.858 227.671C92.0806 222.411 87.622 218.298 83.7657 213.781C80.3413 209.77 77.2505 205.06 76.6119 199.884C76.5875 199.685 76.3034 199.683 76.2816 199.882C75.6246 205.924 74.3945 215.255 70.8779 223.063L66.0969 215.507L65.5875 215.769L69.4598 225.612L68.804 225.659L57.0165 216.115L63.6289 229.367L50.7676 234.53L50.7705 234.728C50.7731 234.927 50.776 235.126 50.779 235.36C50.8069 235.587 50.8305 235.814 50.8519 236.041L50.8771 236.304L58.6699 236.253C56.1924 238.064 54.3608 240.65 53.6967 243.697C50.5167 258.282 69.5113 257.654 71.7422 268.384C75.3694 268.532 78.2782 264.945 79.8631 262.021C81.6042 258.808 82.7498 255.195 85.1939 252.486C87.9706 249.408 92.149 247.823 94.702 244.554ZM51.351 235.323C51.3503 235.189 51.3492 235.054 51.3476 234.919L63.9644 229.855L64.743 230.312L58.7163 218.234L68.6198 226.252L69.2873 226.205L70.2312 226.137L70.134 225.795L69.8746 225.132L67.2301 218.375L70.5922 223.689L71.5529 225.207L77.6688 234.089L80.1702 224.474C80.4127 225.866 80.9345 227.924 81.7446 230.686C83.6387 237.146 86.5364 245.439 87.1856 247.282C84.0443 247.504 81.0158 250.319 80.0519 251.298C77.7146 245.855 70.2507 239.848 67.9711 238.102L67.7966 237.969L57.6615 245.779C57.4724 245.361 57.2704 244.956 57.0601 244.572C57.0313 244.52 57.0016 244.47 56.9702 244.424L62.2984 235.65L59.5393 235.668L51.3973 235.722C51.3828 235.581 51.3679 235.445 51.351 235.323Z" fill="white"/>
<path d="M80.2895 242.084L80.8183 239.726L77.7275 236.132L79.0368 240.354L80.2895 242.084Z" fill="white"/>
<path d="M8.224 293.12C10.648 293.12 12.088 291.536 12.088 288.98C12.088 286.436 10.648 284.84 8.224 284.84C5.8 284.84 4.36 286.436 4.36 288.98C4.36 291.536 5.8 293.12 8.224 293.12ZM8.224 291.872C6.508 291.872 5.728 290.984 5.728 288.98C5.728 286.976 6.508 286.088 8.224 286.088C9.94 286.088 10.708 286.976 10.708 288.98C10.708 290.984 9.94 291.872 8.224 291.872ZM21.9892 293V291.836H18.5452L16.6012 291.968C16.6012 291.056 16.9732 290.672 18.0532 290.3L19.7452 289.784C21.1612 289.352 22.0132 288.656 22.0132 287.336C22.0132 285.92 21.0532 284.84 18.7732 284.84C16.2652 284.84 15.2452 286.184 15.2452 287.672V287.792H16.5172V287.648C16.5172 286.592 17.1172 286.028 18.7252 286.028C20.1652 286.028 20.7172 286.46 20.7172 287.312C20.7172 288.02 20.3812 288.344 19.4212 288.692L17.5012 289.352C15.8452 289.916 15.2572 290.66 15.2572 292.148V293H21.9892Z" fill="#5FDDF9"/>
<path d="M419.224 277.12C421.648 277.12 423.088 275.536 423.088 272.98C423.088 270.436 421.648 268.84 419.224 268.84C416.8 268.84 415.36 270.436 415.36 272.98C415.36 275.536 416.8 277.12 419.224 277.12ZM419.224 275.872C417.508 275.872 416.728 274.984 416.728 272.98C416.728 270.976 417.508 270.088 419.224 270.088C420.94 270.088 421.708 270.976 421.708 272.98C421.708 274.984 420.94 275.872 419.224 275.872ZM432.509 277V275.368H433.889V274.204H432.509V268.96H431.009L426.089 274.468V275.368H431.225V277H432.509ZM427.877 274.204V274.108L431.129 270.472H431.225V274.204H427.877Z" fill="#5FDDF9"/>
</g>
<defs>
<linearGradient id="paint0_linear_3753_1253" x1="432.644" y1="211.269" x2="545.038" y2="211.269" gradientUnits="userSpaceOnUse">
<stop stop-color="#FFE826"/>
<stop offset="0.0094" stop-color="#FEE321"/>
<stop offset="0.0544" stop-color="#F9D00F"/>
<stop offset="0.1006" stop-color="#F7C504"/>
<stop offset="0.1498" stop-color="#F6C100"/>
<stop offset="0.4717" stop-color="#EA8834"/>
<stop offset="1" stop-color="#DC312D"/>
</linearGradient>
<linearGradient id="paint1_linear_3753_1253" x1="25.5549" y1="226.028" x2="137.163" y2="226.028" gradientUnits="userSpaceOnUse">
<stop stop-color="#FFE826"/>
<stop offset="0.0094" stop-color="#FEE321"/>
<stop offset="0.0544" stop-color="#F9D00F"/>
<stop offset="0.1006" stop-color="#F7C504"/>
<stop offset="0.1498" stop-color="#F6C100"/>
<stop offset="0.4717" stop-color="#EA8834"/>
<stop offset="1" stop-color="#DC312D"/>
</linearGradient>
<clipPath id="clip0_3753_1253">
<rect width="550" height="550" fill="white"/>
</clipPath>
</defs>
</svg>
