<svg width="550" height="550" viewBox="0 0 550 550" fill="none" xmlns="http://www.w3.org/2000/svg">
<path d="M158.622 267.332L154.87 273.035L158.911 278.452L162.663 273.035L158.622 267.332Z" fill="#194A90"/>
<path d="M158.622 267.332L154.87 273.035L158.911 278.452L162.663 273.035L158.622 267.332Z" stroke="white" stroke-width="0.25" stroke-miterlimit="10"/>
<path d="M339.402 267.332L335.649 273.035L339.69 278.452L343.443 273.035L339.402 267.332Z" fill="#194A90"/>
<path d="M339.402 267.332L335.649 273.035L339.69 278.452L343.443 273.035L339.402 267.332Z" stroke="white" stroke-width="0.25" stroke-miterlimit="10"/>
<mask id="mask0_3753_1023" style="mask-type:luminance" maskUnits="userSpaceOnUse" x="241" y="268" width="16" height="18">
<path d="M252.028 281.944H246.066L244.643 285.492H241.752L249.047 268.179L256.319 285.492H253.451L252.028 281.944ZM251.08 279.624L249.047 274.581L247.014 279.624H251.08V279.624Z" fill="white"/>
</mask>
<g mask="url(#mask0_3753_1023)">
<path d="M256.319 268.18H241.752V285.493H256.319V268.18Z" fill="url(#paint0_linear_3753_1023)"/>
</g>
<path d="M252.028 281.944H246.065L244.643 285.492H241.752L249.047 268.179L256.319 285.492H253.451L252.028 281.944ZM251.08 279.624L249.047 274.581L247.014 279.624H251.08Z" stroke="white" stroke-width="0.25" stroke-miterlimit="10"/>
<mask id="mask1_3753_1023" style="mask-type:luminance" maskUnits="userSpaceOnUse" x="264" y="268" width="13" height="18">
<path d="M276.149 271.258H271.542V285.493H268.899V271.258H264.292V268.938H276.149V271.258Z" fill="white"/>
</mask>
<g mask="url(#mask1_3753_1023)">
<path d="M276.149 268.938H264.292V285.493H276.149V268.938Z" fill="url(#paint1_linear_3753_1023)"/>
</g>
<path d="M276.149 271.258H271.542V285.493H268.899V271.258H264.292V268.938H276.149V271.258Z" stroke="white" stroke-width="0.25" stroke-miterlimit="10"/>
<mask id="mask2_3753_1023" style="mask-type:luminance" maskUnits="userSpaceOnUse" x="287" y="268" width="11" height="18">
<path d="M290.22 275.675H296.341V278.018H290.22V283.15H297.651V285.493H290.198H287.601V268.938H290.198H297.651V271.258H290.22V275.675Z" fill="white"/>
</mask>
<g mask="url(#mask2_3753_1023)">
<path d="M297.651 268.938H287.601V285.493H297.651V268.938Z" fill="url(#paint2_linear_3753_1023)"/>
</g>
<path d="M290.22 275.675H296.341V278.018H290.22V283.15H297.651V285.493H290.198H287.601V268.938H290.198H297.651V271.258H290.22V275.675Z" stroke="white" stroke-width="0.25" stroke-miterlimit="10"/>
<mask id="mask3_3753_1023" style="mask-type:luminance" maskUnits="userSpaceOnUse" x="309" y="268" width="13" height="18">
<path d="M312.398 271.28H314.747C315.831 271.28 316.644 271.57 317.164 272.15C317.796 272.819 317.909 273.756 317.909 274.425C317.909 275.072 317.796 276.01 317.164 276.678C316.644 277.259 315.831 277.571 314.747 277.571H312.398V271.28V271.28ZM311.991 268.937H309.778V285.492H312.398V279.892H314.318L318.541 285.492H321.5L316.983 279.512C317.886 279.2 318.519 278.687 318.925 278.241C319.806 277.281 320.28 275.943 320.28 274.425C320.28 272.886 319.806 271.547 318.925 270.588C318.247 269.829 316.96 268.937 314.747 268.937H311.991V268.937Z" fill="white"/>
</mask>
<g mask="url(#mask3_3753_1023)">
<path d="M321.501 268.938H309.779V285.493H321.501V268.938Z" fill="url(#paint3_linear_3753_1023)"/>
</g>
<path d="M321.501 285.493H318.542L314.319 279.893H312.399V285.493H309.779V268.938H311.992H314.748C316.961 268.938 318.248 269.83 318.926 270.589C319.806 271.548 320.281 272.887 320.281 274.426C320.281 275.944 319.807 277.282 318.926 278.242C318.52 278.688 317.887 279.201 316.984 279.513L321.501 285.493ZM314.748 277.572C315.832 277.572 316.645 277.26 317.164 276.679C317.796 276.01 317.91 275.073 317.91 274.426C317.91 273.756 317.797 272.819 317.164 272.151C316.645 271.57 315.832 271.281 314.748 271.281H312.399V277.572H314.748Z" stroke="white" stroke-width="0.25" stroke-miterlimit="10"/>
<mask id="mask4_3753_1023" style="mask-type:luminance" maskUnits="userSpaceOnUse" x="171" y="255" width="63" height="45">
<path d="M213.132 287.399V268.565L216.889 265.352V290.224C215.543 289.947 214.085 289.226 213.132 287.399ZM196.59 288.949V268.565L203.656 263.08L205.618 264.743V287.731C203.207 288.894 200.796 289.171 199.058 289.171C197.544 289.171 196.59 288.949 196.59 288.949ZM217.674 264.687L221.711 261.253C221.543 261.862 221.431 262.416 221.431 262.97C221.431 267.291 226.534 270.171 226.534 276.818C226.534 277.428 226.477 278.038 226.421 278.647C225.861 283.079 221.15 287.62 217.898 290.28H217.674V264.687ZM217.674 262.859V256.433H216.889V263.524L213.132 266.737V264.133L215.712 261.973L209.095 257.375L196.59 266.958V261.031C192.777 257.985 188.684 257.043 185.32 257.043C182.796 257.043 180.666 257.542 179.32 258.206C177.077 259.258 174.553 263.026 174.553 266.46C174.553 270.337 178.367 272.387 180.553 272.387C182.684 272.387 184.142 271.113 184.142 271.113C183.133 271.556 182.18 271.777 181.282 271.777C177.974 271.777 175.899 268.786 175.899 265.961C175.899 263.191 177.862 260.92 181.899 260.92C186.665 260.92 189.021 265.13 189.021 265.13L188.964 285.681C188.18 285.626 187.45 285.57 186.722 285.57C178.367 285.57 171.918 290.777 171.918 295.154C171.918 298.477 174.498 299.419 175.955 299.419C177.75 299.419 179.488 298.422 179.488 298.422C179.488 298.422 178.198 298.809 176.909 298.809C175.395 298.809 173.881 298.311 173.881 296.261C173.881 292.938 178.086 290.721 184.142 290.721C190.366 290.721 197.319 295.32 197.319 295.32L204.216 289.393L213.02 295.264L231.075 282.801C233.038 280.031 233.823 277.261 233.823 274.713C233.823 267.623 228.103 261.918 226.87 260.588C226.085 259.757 225.917 258.649 225.917 257.708C225.917 256.544 226.197 255.658 226.197 255.658L217.674 262.859Z" fill="white"/>
</mask>
<g mask="url(#mask4_3753_1023)">
<path d="M233.823 255.659H171.918V299.42H233.823V255.659Z" fill="url(#paint4_linear_3753_1023)"/>
</g>
<path d="M233.823 274.714C233.823 277.262 233.038 280.032 231.075 282.802L213.02 295.265L204.216 289.393L197.319 295.321C197.319 295.321 190.366 290.722 184.142 290.722C178.086 290.722 173.881 292.938 173.881 296.262C173.881 298.312 175.395 298.81 176.909 298.81C178.198 298.81 179.488 298.422 179.488 298.422C179.488 298.422 177.75 299.42 175.955 299.42C174.497 299.42 171.918 298.478 171.918 295.154C171.918 290.778 178.367 285.571 186.722 285.571C187.45 285.571 188.179 285.627 188.964 285.682L189.02 265.131C189.02 265.131 186.665 260.921 181.899 260.921C177.862 260.921 175.899 263.192 175.899 265.962C175.899 268.787 177.974 271.778 181.282 271.778C182.18 271.778 183.133 271.557 184.142 271.113C184.142 271.113 182.684 272.388 180.553 272.388C178.367 272.388 174.553 270.338 174.553 266.46C174.553 263.027 177.077 259.259 179.32 258.207C180.666 257.542 182.796 257.043 185.319 257.043C188.684 257.043 192.777 257.986 196.59 261.032V266.959L209.095 257.376L215.711 261.973L213.132 264.134V266.737L216.889 263.525V256.434H217.674V262.86L226.197 255.659C226.197 255.659 225.917 256.545 225.917 257.709C225.917 258.65 226.085 259.758 226.87 260.589C228.103 261.918 233.823 267.624 233.823 274.714ZM199.057 289.172C200.796 289.172 203.207 288.895 205.618 287.731V264.743L203.656 263.081L196.59 268.566V288.95C196.59 288.95 197.544 289.172 199.057 289.172ZM216.889 290.224V265.353L213.132 268.566V287.399C214.085 289.227 215.543 289.947 216.889 290.224ZM226.534 276.819C226.534 270.172 221.431 267.291 221.431 262.971C221.431 262.416 221.543 261.863 221.711 261.254L217.674 264.687V290.28H217.898C221.15 287.621 225.861 283.079 226.421 278.647C226.477 278.038 226.534 277.428 226.534 276.819Z" stroke="white" stroke-width="0.25" stroke-miterlimit="10"/>
<path d="M275.039 185.713L271.528 191.048L275.309 196.117L278.82 191.048L275.039 185.713Z" fill="#001D35"/>
<path d="M275.039 185.713L271.528 191.048L275.309 196.117L278.82 191.048L275.039 185.713Z" stroke="white" stroke-width="0.25" stroke-miterlimit="10"/>
<path d="M255.664 220.603L252.992 224.663L255.87 228.521L258.541 224.663L255.664 220.603Z" fill="#194A90"/>
<path d="M255.664 220.603L252.992 224.663L255.87 228.521L258.541 224.663L255.664 220.603Z" stroke="white" stroke-width="0.25" stroke-miterlimit="10"/>
<path d="M264.827 178.614C266.066 181.543 265.816 184.334 263.846 186.855C262.039 189.167 259.564 189.918 256.701 189.365C255.216 189.079 254.006 188.254 252.964 187.182C251.534 185.71 249.902 184.485 248.195 183.344C246.104 181.947 243.789 181.01 241.474 180.069C241.302 179.999 241.124 179.936 240.96 179.85C240.47 179.594 240.305 179.184 240.466 178.646C240.695 179.051 241.072 179.222 241.515 179.233C242.296 179.254 243.078 179.252 243.86 179.246C244.666 179.24 245.47 179.29 246.272 179.355C247.659 179.468 249.025 179.713 250.379 180.027C251.883 180.376 253.378 180.783 254.776 181.426C256.507 182.223 258.252 182.642 260.147 182.164C261.813 181.743 263.153 180.852 264.178 179.487C264.396 179.197 264.509 178.831 264.827 178.614Z" fill="#0B223D"/>
<path d="M264.827 178.614C266.066 181.543 265.816 184.334 263.846 186.855C262.039 189.167 259.564 189.918 256.701 189.365C255.216 189.079 254.006 188.254 252.964 187.182C251.534 185.71 249.902 184.485 248.195 183.344C246.104 181.947 243.789 181.01 241.474 180.069C241.302 179.999 241.124 179.936 240.96 179.85C240.47 179.594 240.305 179.184 240.466 178.646C240.695 179.051 241.072 179.222 241.515 179.233C242.296 179.254 243.078 179.252 243.86 179.246C244.666 179.24 245.47 179.29 246.272 179.355C247.659 179.468 249.025 179.713 250.379 180.027C251.883 180.376 253.378 180.783 254.776 181.426C256.507 182.223 258.252 182.642 260.147 182.164C261.813 181.743 263.153 180.852 264.178 179.487C264.396 179.197 264.509 178.831 264.827 178.614Z" stroke="white" stroke-width="0.25" stroke-miterlimit="10"/>
<mask id="mask5_3753_1023" style="mask-type:luminance" maskUnits="userSpaceOnUse" x="240" y="173" width="25" height="10">
<path d="M255.312 173.993C253.463 174.463 251.636 175.02 249.801 175.545C246.953 176.36 244.107 177.182 241.259 177.998C240.897 178.102 240.582 178.252 240.466 178.646C240.696 179.05 241.072 179.221 241.515 179.233C242.297 179.253 243.078 179.252 243.86 179.246C244.667 179.24 245.47 179.289 246.272 179.355C247.66 179.468 249.025 179.712 250.379 180.026C251.884 180.375 253.378 180.782 254.777 181.426C256.507 182.222 258.253 182.641 260.147 182.163C261.814 181.742 263.153 180.852 264.178 179.487C264.396 179.197 264.509 178.83 264.828 178.614C264.719 178.407 264.621 178.194 264.502 177.993C263.542 176.374 262.209 175.171 260.451 174.433C259.392 173.989 258.311 173.752 257.216 173.752C256.586 173.752 255.951 173.83 255.312 173.993Z" fill="white"/>
</mask>
<g mask="url(#mask5_3753_1023)">
<path d="M264.827 173.751H240.465V182.641H264.827V173.751Z" fill="url(#paint5_linear_3753_1023)"/>
</g>
<path d="M264.827 178.614C264.508 178.83 264.395 179.197 264.177 179.487C263.152 180.852 261.813 181.742 260.146 182.163C258.252 182.641 256.507 182.222 254.776 181.426C253.378 180.783 251.883 180.376 250.378 180.026C249.024 179.712 247.658 179.468 246.271 179.355C245.469 179.289 244.665 179.24 243.859 179.246C243.077 179.252 242.295 179.253 241.514 179.233C241.071 179.221 240.694 179.05 240.465 178.645C240.581 178.252 240.896 178.102 241.258 177.998C244.106 177.182 246.952 176.36 249.8 175.545C251.635 175.02 253.462 174.463 255.312 173.993C257.06 173.548 258.783 173.734 260.45 174.433C262.208 175.171 263.541 176.374 264.501 177.993C264.62 178.194 264.718 178.407 264.827 178.614Z" stroke="white" stroke-width="0.25" stroke-miterlimit="10"/>
<mask id="mask6_3753_1023" style="mask-type:luminance" maskUnits="userSpaceOnUse" x="229" y="178" width="24" height="39">
<path d="M229.611 181.422C229.833 183.12 230.073 184.815 230.314 186.511C230.58 188.386 230.862 190.258 231.125 192.134C231.356 193.791 231.567 195.45 231.792 197.107C232.002 198.645 232.205 200.183 232.435 201.718C232.61 202.893 232.815 204.064 233.018 205.235C233.317 206.956 234.01 208.535 234.962 209.984C236.135 211.769 237.648 213.245 239.49 214.369C241.307 215.478 243.266 216.185 245.392 216.457C246.703 216.624 248.003 216.608 249.308 216.448C249.454 216.308 249.625 216.186 249.744 216.026C252.45 212.397 253.214 208.422 251.884 204.09C251.03 201.309 249.197 199.223 246.968 197.421C243.827 194.88 240.787 192.235 238.067 189.242C235.495 186.412 233.284 183.337 231.417 180.017C231.005 179.282 230.453 178.767 229.559 178.717C229.298 179.623 229.494 180.524 229.611 181.422Z" fill="white"/>
</mask>
<g mask="url(#mask6_3753_1023)">
<path d="M253.214 178.717H229.298V216.624H253.214V178.717Z" fill="url(#paint6_linear_3753_1023)"/>
</g>
<path d="M229.558 178.717C230.453 178.767 231.004 179.282 231.416 180.017C233.283 183.337 235.494 186.412 238.066 189.242C240.786 192.235 243.826 194.88 246.968 197.421C249.196 199.223 251.029 201.309 251.883 204.09C253.213 208.422 252.449 212.397 249.744 216.026C249.624 216.186 249.454 216.308 249.307 216.448C248.002 216.608 246.702 216.624 245.391 216.457C243.265 216.185 241.306 215.478 239.489 214.369C237.647 213.245 236.134 211.769 234.961 209.984C234.01 208.535 233.317 206.956 233.017 205.235C232.814 204.064 232.609 202.893 232.434 201.718C232.205 200.183 232.001 198.645 231.792 197.107C231.566 195.45 231.355 193.791 231.124 192.134C230.861 190.259 230.579 188.386 230.313 186.511C230.072 184.815 229.833 183.12 229.611 181.422C229.493 180.524 229.297 179.623 229.558 178.717Z" stroke="white" stroke-width="0.25" stroke-miterlimit="10"/>
<path d="M229.559 178.717C229.298 179.624 229.494 180.524 229.611 181.422C229.833 183.12 230.073 184.815 230.314 186.511C230.58 188.386 230.862 190.259 231.125 192.134C231.356 193.791 231.567 195.45 231.792 197.107C232.002 198.645 232.205 200.183 232.435 201.718C232.61 202.893 232.815 204.064 233.018 205.235C233.317 206.956 234.01 208.535 234.962 209.984C236.135 211.769 237.648 213.245 239.49 214.369C241.307 215.478 243.266 216.185 245.392 216.457C246.703 216.624 248.003 216.608 249.308 216.448C248.766 217.344 247.912 217.927 247.075 218.493C244.39 220.309 241.39 221.077 238.156 220.813C234.127 220.484 230.77 218.767 228.132 215.749C225.562 212.807 224.402 209.354 224.664 205.48C224.795 203.546 225.084 201.622 225.309 199.695C225.534 197.768 225.769 195.842 225.998 193.916C226.232 191.949 226.466 189.983 226.696 188.016C226.918 186.129 227.134 184.241 227.355 182.355C227.437 181.652 227.502 180.946 227.618 180.249C227.764 179.364 228.563 178.754 229.559 178.717Z" fill="#0B223D"/>
<path d="M229.559 178.717C229.298 179.624 229.494 180.524 229.611 181.422C229.833 183.12 230.073 184.815 230.314 186.511C230.58 188.386 230.862 190.259 231.125 192.134C231.356 193.791 231.567 195.45 231.792 197.107C232.002 198.645 232.205 200.183 232.435 201.718C232.61 202.893 232.815 204.064 233.018 205.235C233.317 206.956 234.01 208.535 234.962 209.984C236.135 211.769 237.648 213.245 239.49 214.369C241.307 215.478 243.266 216.185 245.392 216.457C246.703 216.624 248.003 216.608 249.308 216.448C248.766 217.344 247.912 217.927 247.075 218.493C244.39 220.309 241.39 221.077 238.156 220.813C234.127 220.484 230.77 218.767 228.132 215.749C225.562 212.807 224.402 209.354 224.664 205.48C224.795 203.546 225.084 201.622 225.309 199.695C225.534 197.768 225.769 195.842 225.998 193.916C226.232 191.949 226.466 189.983 226.696 188.016C226.918 186.129 227.134 184.241 227.355 182.355C227.437 181.652 227.502 180.946 227.618 180.249C227.764 179.364 228.563 178.754 229.559 178.717Z" stroke="white" stroke-width="0.25" stroke-miterlimit="10"/>
<mask id="mask7_3753_1023" style="mask-type:luminance" maskUnits="userSpaceOnUse" x="258" y="198" width="18" height="19">
<path d="M259.405 200.296C260.632 202.022 261.744 203.819 262.697 205.706C263.603 207.5 264.379 209.348 264.976 211.265C265.378 212.557 265.963 213.761 266.955 214.689C268.905 216.512 271.228 217.227 273.895 216.741C274.065 216.71 274.229 216.612 274.373 216.787C275.534 215.123 276.07 213.309 275.857 211.269C275.631 209.095 274.681 207.317 273.053 205.874C272.038 204.974 270.796 204.426 269.617 203.786C266.471 202.079 263.314 200.391 260.159 198.699C259.822 198.519 259.49 198.32 259.094 198.281C258.71 199.027 258.952 199.659 259.405 200.296Z" fill="white"/>
</mask>
<g mask="url(#mask7_3753_1023)">
<path d="M276.069 198.281H258.71V217.227H276.069V198.281Z" fill="url(#paint7_linear_3753_1023)"/>
</g>
<path d="M259.094 198.281C259.49 198.32 259.822 198.519 260.159 198.699C263.314 200.391 266.471 202.079 269.617 203.786C270.796 204.426 272.038 204.974 273.053 205.874C274.681 207.317 275.631 209.095 275.857 211.269C276.069 213.309 275.534 215.123 274.373 216.787C274.229 216.612 274.065 216.71 273.894 216.741C271.228 217.227 268.904 216.512 266.955 214.689C265.962 213.761 265.378 212.557 264.976 211.265C264.379 209.348 263.603 207.5 262.697 205.706C261.744 203.819 260.631 202.022 259.405 200.296C258.952 199.659 258.71 199.027 259.094 198.281Z" stroke="white" stroke-width="0.25" stroke-miterlimit="10"/>
<path d="M259.094 198.281C258.71 199.027 258.952 199.659 259.405 200.296C260.632 202.022 261.744 203.819 262.698 205.706C263.603 207.5 264.379 209.348 264.976 211.265C265.378 212.557 265.962 213.761 266.955 214.689C268.905 216.512 271.228 217.227 273.895 216.741C274.066 216.71 274.229 216.612 274.373 216.787C271.853 220.274 267.093 221.128 263.541 218.394C261.6 216.9 260.71 214.874 260.599 212.498C260.406 208.42 259.452 204.508 258.062 200.685C257.968 200.425 257.88 200.162 257.809 199.895C257.569 198.991 258.139 198.28 259.094 198.281Z" fill="#0B223D"/>
<path d="M259.094 198.281C258.71 199.027 258.952 199.659 259.405 200.296C260.632 202.022 261.744 203.819 262.698 205.706C263.603 207.5 264.379 209.348 264.976 211.265C265.378 212.557 265.962 213.761 266.955 214.689C268.905 216.512 271.228 217.227 273.895 216.741C274.066 216.71 274.229 216.612 274.373 216.787C271.853 220.274 267.093 221.128 263.541 218.394C261.6 216.9 260.71 214.874 260.599 212.498C260.406 208.42 259.452 204.508 258.062 200.685C257.968 200.425 257.88 200.162 257.809 199.895C257.569 198.991 258.139 198.28 259.094 198.281Z" stroke="white" stroke-width="0.25" stroke-miterlimit="10"/>
<defs>
<linearGradient id="paint0_linear_3753_1023" x1="241.752" y1="276.837" x2="256.319" y2="276.837" gradientUnits="userSpaceOnUse">
<stop stop-color="#194A90"/>
<stop offset="0.2471" stop-color="#1B4D92"/>
<stop offset="0.4137" stop-color="#225699"/>
<stop offset="0.5567" stop-color="#2E65A4"/>
<stop offset="0.6863" stop-color="#3E7AB4"/>
<stop offset="0.8069" stop-color="#5496C9"/>
<stop offset="0.9192" stop-color="#6DB8E2"/>
<stop offset="1" stop-color="#84D5F8"/>
</linearGradient>
<linearGradient id="paint1_linear_3753_1023" x1="264.295" y1="277.218" x2="276.152" y2="277.218" gradientUnits="userSpaceOnUse">
<stop stop-color="#194A90"/>
<stop offset="0.2471" stop-color="#1B4D92"/>
<stop offset="0.4137" stop-color="#225699"/>
<stop offset="0.5567" stop-color="#2E65A4"/>
<stop offset="0.6863" stop-color="#3E7AB4"/>
<stop offset="0.8069" stop-color="#5496C9"/>
<stop offset="0.9192" stop-color="#6DB8E2"/>
<stop offset="1" stop-color="#84D5F8"/>
</linearGradient>
<linearGradient id="paint2_linear_3753_1023" x1="287.6" y1="277.218" x2="297.651" y2="277.218" gradientUnits="userSpaceOnUse">
<stop stop-color="#194A90"/>
<stop offset="0.2471" stop-color="#1B4D92"/>
<stop offset="0.4137" stop-color="#225699"/>
<stop offset="0.5567" stop-color="#2E65A4"/>
<stop offset="0.6863" stop-color="#3E7AB4"/>
<stop offset="0.8069" stop-color="#5496C9"/>
<stop offset="0.9192" stop-color="#6DB8E2"/>
<stop offset="1" stop-color="#84D5F8"/>
</linearGradient>
<linearGradient id="paint3_linear_3753_1023" x1="309.775" y1="277.218" x2="321.496" y2="277.218" gradientUnits="userSpaceOnUse">
<stop stop-color="#194A90"/>
<stop offset="0.2471" stop-color="#1B4D92"/>
<stop offset="0.4137" stop-color="#225699"/>
<stop offset="0.5567" stop-color="#2E65A4"/>
<stop offset="0.6863" stop-color="#3E7AB4"/>
<stop offset="0.8069" stop-color="#5496C9"/>
<stop offset="0.9192" stop-color="#6DB8E2"/>
<stop offset="1" stop-color="#84D5F8"/>
</linearGradient>
<linearGradient id="paint4_linear_3753_1023" x1="171.918" y1="277.565" x2="233.822" y2="277.565" gradientUnits="userSpaceOnUse">
<stop stop-color="#194A90"/>
<stop offset="0.2471" stop-color="#1B4D92"/>
<stop offset="0.4137" stop-color="#225699"/>
<stop offset="0.5567" stop-color="#2E65A4"/>
<stop offset="0.6863" stop-color="#3E7AB4"/>
<stop offset="0.8069" stop-color="#5496C9"/>
<stop offset="0.9192" stop-color="#6DB8E2"/>
<stop offset="1" stop-color="#84D5F8"/>
</linearGradient>
<linearGradient id="paint5_linear_3753_1023" x1="240.452" y1="178.209" x2="264.813" y2="178.209" gradientUnits="userSpaceOnUse">
<stop stop-color="#194A90"/>
<stop offset="0.2471" stop-color="#1B4D92"/>
<stop offset="0.4137" stop-color="#225699"/>
<stop offset="0.5567" stop-color="#2E65A4"/>
<stop offset="0.6863" stop-color="#3E7AB4"/>
<stop offset="0.8069" stop-color="#5496C9"/>
<stop offset="0.9192" stop-color="#6DB8E2"/>
<stop offset="1" stop-color="#84D5F8"/>
</linearGradient>
<linearGradient id="paint6_linear_3753_1023" x1="229.435" y1="197.699" x2="252.527" y2="197.699" gradientUnits="userSpaceOnUse">
<stop stop-color="#194A90"/>
<stop offset="0.2471" stop-color="#1B4D92"/>
<stop offset="0.4137" stop-color="#225699"/>
<stop offset="0.5567" stop-color="#2E65A4"/>
<stop offset="0.6863" stop-color="#3E7AB4"/>
<stop offset="0.8069" stop-color="#5496C9"/>
<stop offset="0.9192" stop-color="#6DB8E2"/>
<stop offset="1" stop-color="#84D5F8"/>
</linearGradient>
<linearGradient id="paint7_linear_3753_1023" x1="258.898" y1="207.783" x2="275.897" y2="207.783" gradientUnits="userSpaceOnUse">
<stop stop-color="#194A90"/>
<stop offset="0.2471" stop-color="#1B4D92"/>
<stop offset="0.4137" stop-color="#225699"/>
<stop offset="0.5567" stop-color="#2E65A4"/>
<stop offset="0.6863" stop-color="#3E7AB4"/>
<stop offset="0.8069" stop-color="#5496C9"/>
<stop offset="0.9192" stop-color="#6DB8E2"/>
<stop offset="1" stop-color="#84D5F8"/>
</linearGradient>
</defs>
</svg>
