<svg width="550" height="550" viewBox="0 0 550 550" fill="none" xmlns="http://www.w3.org/2000/svg">
<g clip-path="url(#clip0_3753_1368)">
<mask id="mask0_3753_1368" style="mask-type:luminance" maskUnits="userSpaceOnUse" x="416" y="252" width="117" height="131">
<path d="M481.716 255.542C486.49 257.037 491.076 259.058 495.384 261.549C499.685 264.046 503.776 266.93 507.443 270.253C511.121 273.566 514.324 277.372 517.189 281.413C520.028 285.463 522.461 289.772 524.252 294.349C525.147 296.623 525.979 299.014 526.646 301.33C527.295 303.685 527.799 306.084 528.143 308.508C528.493 310.932 528.703 313.379 528.794 315.836C528.891 318.342 528.915 320.719 528.701 323.154C528.306 328.03 527.32 332.779 525.765 337.433C524.284 342.096 522.262 346.45 519.619 350.527C518.102 352.882 516.445 355.145 514.649 357.264C519.635 349.178 522.518 339.658 522.518 329.461C522.518 300.163 498.768 276.413 469.47 276.413C440.173 276.413 416.423 300.163 416.423 329.461C416.423 358.758 440.173 382.508 469.47 382.508C470.323 382.508 471.169 382.484 472.012 382.444C477.005 382.451 481.953 381.679 486.68 380.493C496.961 377.981 506.248 372.304 513.716 365.145C517.512 361.459 520.663 357.283 523.369 352.874C526.086 348.461 528.256 343.593 529.642 338.632C535.741 318.743 531.336 296.382 518.962 280.12C515.897 276.067 512.475 272.248 508.583 268.954C504.699 265.656 500.456 262.838 495.988 260.455C491.501 258.103 486.761 256.248 481.892 254.943C477.031 253.613 472.04 252.77 467.026 252.491C472.025 252.977 476.952 254.024 481.716 255.542Z" fill="white"/>
</mask>
<g mask="url(#mask0_3753_1368)">
<path d="M535.742 252.49H416.424V382.508H535.742V252.49Z" fill="url(#paint0_linear_3753_1368)"/>
</g>
<path d="M408.032 336.11L403.214 338.954L408.553 340.434L400.201 345.366L400.025 343.91L405.303 340.86L401.629 339.884L399.806 339.411L401.435 338.464L404.781 336.537L398.949 334.989L398.775 333.544L408.032 336.11Z" fill="#84D5F8"/>
<path d="M405.59 324.485L405.496 327.508L407.295 328.287L407.249 329.752L398.476 325.778L407.478 322.365L407.433 323.82L405.59 324.485ZM404.383 324.929L401.763 325.88L404.319 326.99L404.383 324.929Z" fill="#84D5F8"/>
<path d="M401.268 313.819L400.933 316.133L408.169 317.181L407.977 318.508L400.741 317.46L400.406 319.774L399.227 319.603L400.089 313.648L401.268 313.819Z" fill="#84D5F8"/>
<path d="M404.73 309.018L405.585 306.034L406.742 306.364L405.887 309.35L408.421 310.076L409.458 306.452L410.615 306.783L409.574 310.418L409.211 311.685L401.038 309.343L401.401 308.077L402.442 304.441L403.587 304.77L402.549 308.394L404.73 309.018Z" fill="#84D5F8"/>
<path d="M414.368 298.056L413.732 299.416L410.216 300.136L409.803 301.019L412.408 302.239L411.844 303.443L404.143 299.835L404.619 298.818L405.212 297.551C405.688 296.534 406.381 296.137 406.88 295.991C407.516 295.795 408.241 295.869 408.957 296.205C409.663 296.535 410.183 297.045 410.44 297.659C410.56 297.943 410.663 298.345 410.613 298.828L414.368 298.056ZM409.229 299.433C409.463 298.935 409.492 298.493 409.335 298.128C409.16 297.692 408.747 297.435 408.447 297.294C408.135 297.148 407.675 296.996 407.228 297.141C406.846 297.253 406.536 297.564 406.302 298.062L405.796 299.142L408.723 300.513L409.229 299.433Z" fill="#84D5F8"/>
<path d="M423.723 285.765L420.413 282.69L421.51 287.339L416.784 286.596L420.095 289.671L419.19 290.645L412.67 284.59L419.762 285.716L418.117 278.726L424.637 284.781L423.723 285.765Z" fill="#84D5F8"/>
<path d="M428.638 281.626L423.401 274.928L422.355 275.746L427.591 282.444L428.638 281.626Z" fill="#84D5F8"/>
<path d="M437.429 276.024L435.186 272.103L434.848 276.868L430.559 274.751L432.802 278.672L431.648 279.333L427.229 271.61L433.663 274.798L434.175 267.636L438.593 275.358L437.429 276.024Z" fill="#84D5F8"/>
<path d="M443.31 273.448L440.539 265.406L439.282 265.84L442.053 273.882L443.31 273.448Z" fill="#84D5F8"/>
<path d="M452.882 270.258C452.7 270.44 452.505 270.614 452.293 270.768C451.827 271.098 451.305 271.334 450.747 271.462C450.188 271.589 449.615 271.602 449.064 271.505C448.512 271.407 448.008 271.205 447.541 270.911C447.075 270.618 446.673 270.251 446.347 269.797C446.02 269.343 445.783 268.82 445.656 268.262C445.528 267.703 445.515 267.13 445.61 266.568C445.71 266.028 445.91 265.512 446.203 265.045C446.497 264.579 446.863 264.178 447.32 263.862C447.773 263.524 448.297 263.299 448.856 263.171C449.414 263.044 449.985 263.019 450.549 263.125C450.611 263.135 450.686 263.154 450.747 263.163L451.095 264.694C450.499 264.395 449.822 264.314 449.151 264.467C448.391 264.64 447.743 265.094 447.331 265.764C446.917 266.422 446.778 267.206 446.952 267.966C447.125 268.726 447.59 269.372 448.249 269.786C448.907 270.2 449.691 270.339 450.451 270.165C451.211 269.992 451.857 269.527 452.271 268.869C452.349 268.745 452.415 268.625 452.479 268.493L452.882 270.258Z" fill="#84D5F8"/>
<path d="M462.501 269.666L461.009 269.84L458.547 267.23L457.579 267.343L457.912 270.201L456.591 270.355L455.607 261.905L456.723 261.775L458.112 261.613C459.228 261.483 459.931 261.863 460.317 262.211C460.819 262.649 461.137 263.304 461.228 264.09C461.319 264.864 461.159 265.576 460.772 266.117C460.593 266.368 460.305 266.667 459.868 266.88L462.501 269.666ZM458.625 266.02C459.172 265.957 459.563 265.749 459.791 265.423C460.07 265.044 460.071 264.559 460.033 264.229C459.993 263.887 459.881 263.416 459.522 263.111C459.225 262.845 458.798 262.745 458.251 262.809L457.067 262.947L457.441 266.158L458.625 266.02Z" fill="#84D5F8"/>
<path d="M468.741 265.014L468.788 269.462L467.458 269.476L467.411 265.028L464.376 261.002L465.809 260.987L468.065 263.99L470.256 260.94L471.678 260.925L468.741 265.014Z" fill="#84D5F8"/>
<path d="M499.185 343.273C498.422 343 497.663 343.273 497.296 343.952C496.898 344.69 497.056 345.453 497.696 345.982C498.156 346.364 498.644 346.726 499.04 347.168C500.012 348.252 499.964 349.029 498.939 350.055C497.517 351.477 495.725 352.258 493.882 352.924C487.679 355.164 481.214 355.998 474.677 356.372C468.651 356.716 462.637 356.476 456.649 355.718C452.522 355.196 448.462 354.356 444.545 352.917C442.782 352.27 441.105 351.455 439.742 350.128C438.716 349.128 438.748 348.041 439.783 347.049C440.072 346.773 440.407 346.543 440.683 346.257C441.257 345.66 441.284 344.801 440.777 344.197C440.265 343.588 439.41 343.433 438.738 343.893C438.264 344.218 437.816 344.594 437.413 345.004C435.439 347.009 435.37 349.852 437.212 351.979C438.369 353.315 439.812 354.262 441.374 355.034C444.161 356.411 447.149 357.185 450.161 357.859C456.569 359.293 463.081 359.688 468.604 359.749C473.963 359.795 478.282 359.507 482.581 358.912C486.833 358.323 491.033 357.503 495.066 355.986C497.174 355.193 499.199 354.241 500.882 352.69C501.663 351.972 502.298 351.153 502.621 350.129C503.34 347.847 501.45 344.085 499.185 343.273Z" fill="white"/>
<path d="M449.813 347.712C451.149 348.902 452.739 349.629 454.438 350.128C459.078 351.49 463.831 352.022 468.85 352.027C473.673 352.119 478.638 351.726 483.505 350.402C485.669 349.813 487.733 349.031 489.43 347.507C491.234 345.888 491.275 343.475 489.482 341.843C489.154 341.544 488.546 341.356 488.106 341.414C486.795 341.587 486.386 342.96 487.251 344.061C487.76 344.708 487.793 344.921 487.107 345.331C486.107 345.931 485.077 346.545 483.979 346.906C480.672 347.991 477.244 348.504 473.773 348.69C468.52 348.972 463.286 348.866 458.125 347.714C455.999 347.239 453.893 346.675 452.067 345.404C451.244 344.832 451.237 344.555 451.984 343.881C452.724 343.215 452.83 342.313 452.249 341.636C451.653 340.942 450.762 340.889 449.991 341.501C447.844 343.206 447.76 345.882 449.813 347.712Z" fill="white"/>
<path d="M482.709 324.552L485.233 327.977L487.576 324.552L485.052 320.946L482.709 324.552Z" fill="white"/>
<path d="M468.036 299.7L465.512 296.095L463.169 299.7L465.693 303.125L468.036 299.7Z" fill="white"/>
<path d="M454.514 332.089L452.593 329.345L450.81 332.089L452.73 334.695L454.514 332.089Z" fill="white"/>
<path d="M470.291 311.126C470.401 311.184 470.519 311.227 470.635 311.274C472.18 311.91 473.725 312.543 475.121 313.487C476.26 314.258 477.35 315.086 478.305 316.081C479 316.805 479.808 317.362 480.799 317.556C482.71 317.929 484.362 317.422 485.569 315.859C486.884 314.156 487.051 312.27 486.224 310.291C486.151 310.151 486.086 310.008 486.006 309.872C485.365 308.777 484.476 307.965 483.302 307.466C482.189 306.994 481.04 306.868 479.872 307.168C478.638 307.487 477.418 307.862 476.193 308.217C474.292 308.768 472.392 309.323 470.491 309.875C470.25 309.945 470.039 310.047 469.962 310.313C469.854 310.676 469.964 310.953 470.291 311.126Z" fill="white"/>
<path d="M468.419 338.805C470.578 338.984 472.581 338.465 474.373 337.238C474.931 336.856 475.502 336.461 475.864 335.856C475.962 335.761 476.075 335.679 476.155 335.571C477.961 333.119 478.471 330.433 477.583 327.506C477.013 325.626 475.789 324.216 474.302 322.999C472.205 321.282 470.176 319.495 468.36 317.472C466.643 315.56 465.167 313.483 463.921 311.238C463.645 310.742 463.277 310.394 462.68 310.36C462.015 310.386 461.482 310.798 461.384 311.395C461.307 311.867 461.264 312.344 461.209 312.818C461.062 314.094 460.917 315.369 460.77 316.644C460.615 317.973 460.459 319.302 460.303 320.631C460.15 321.932 459.993 323.233 459.843 324.535C459.693 325.838 459.5 327.138 459.413 328.444C459.238 331.062 460.012 333.396 461.728 335.384C463.488 337.423 465.73 338.583 468.419 338.805Z" fill="white"/>
<path d="M402.224 386.12C404.648 386.12 406.088 384.536 406.088 381.98C406.088 379.436 404.648 377.84 402.224 377.84C399.8 377.84 398.36 379.436 398.36 381.98C398.36 384.536 399.8 386.12 402.224 386.12ZM402.224 384.872C400.508 384.872 399.728 383.984 399.728 381.98C399.728 379.976 400.508 379.088 402.224 379.088C403.94 379.088 404.708 379.976 404.708 381.98C404.708 383.984 403.94 384.872 402.224 384.872ZM412.833 386.12C415.029 386.12 416.361 385.28 416.361 383.756C416.361 382.64 415.665 381.992 414.501 381.788V381.692C415.533 381.524 416.073 380.876 416.073 379.964C416.073 378.596 414.909 377.84 412.857 377.84C410.361 377.84 409.209 379.016 409.209 380.588V380.696H410.577V380.612C410.577 379.556 411.105 379.064 412.749 379.064C414.309 379.064 414.789 379.436 414.789 380.216C414.789 380.936 414.285 381.296 413.313 381.296H411.249V382.376H413.493C414.501 382.376 415.053 382.748 415.053 383.564C415.053 384.512 414.453 384.896 412.785 384.896C411.009 384.896 410.577 384.404 410.577 383.348V383.18H409.209V383.372C409.209 385.004 410.313 386.12 412.833 386.12Z" fill="#5FDDF9"/>
</g>
<mask id="mask1_3753_1368" style="mask-type:luminance" maskUnits="userSpaceOnUse" x="44" y="336" width="119" height="131">
<path d="M111.038 339.542C115.88 341.037 120.531 343.058 124.9 345.549C129.262 348.046 133.411 350.93 137.13 354.253C140.86 357.566 144.109 361.372 147.014 365.413C149.894 369.463 152.362 373.772 154.178 378.349C155.085 380.623 155.929 383.014 156.605 385.33C157.264 387.685 157.775 390.084 158.124 392.508C158.479 394.932 158.691 397.379 158.784 399.836C158.883 402.342 158.907 404.719 158.691 407.154C158.29 412.03 157.289 416.779 155.712 421.433C154.21 426.096 152.16 430.45 149.479 434.527C147.94 436.882 146.259 439.145 144.438 441.264C149.496 433.178 152.419 423.658 152.419 413.461C152.419 384.163 128.333 360.413 98.6193 360.413C68.9064 360.413 44.8193 384.163 44.8193 413.461C44.8193 442.758 68.9064 466.508 98.6193 466.508C99.4838 466.508 100.342 466.484 101.197 466.444C106.261 466.451 111.28 465.679 116.073 464.493C126.499 461.981 135.918 456.304 143.492 449.145C147.342 445.459 150.538 441.283 153.282 436.874C156.038 432.461 158.239 427.593 159.644 422.632C165.829 402.743 161.363 380.382 148.813 364.12C145.705 360.067 142.234 356.248 138.287 352.954C134.347 349.656 130.045 346.838 125.513 344.455C120.963 342.103 116.155 340.248 111.217 338.943C106.287 337.613 101.226 336.77 96.1407 336.491C101.21 336.977 106.206 338.024 111.038 339.542Z" fill="white"/>
</mask>
<g mask="url(#mask1_3753_1368)">
<path d="M165.829 336.49H44.8193V466.508H165.829V336.49Z" fill="url(#paint1_linear_3753_1368)"/>
</g>
<path d="M39.9619 389.427L38.7751 392.216L40.1958 393.587L39.6203 394.94L32.7568 388.086L42.5201 388.124L41.9492 389.467L39.9619 389.427ZM38.6587 389.41L35.8322 389.359L37.8493 391.312L38.6587 389.41Z" fill="#84D5F8"/>
<path d="M46.4937 378.701C46.5057 378.748 46.513 378.78 46.5252 378.827L47.8035 378.69L47.9272 379.888L46.6125 380.017C46.6045 380.119 46.5907 380.231 46.582 380.333C46.4949 380.898 46.301 381.438 46.0004 381.929C45.7006 382.42 45.3067 382.842 44.8474 383.171C44.3883 383.501 43.8853 383.724 43.3424 383.857C42.8002 383.989 42.2495 384.023 41.6871 383.944C41.1249 383.864 40.5765 383.673 40.0792 383.376C39.5812 383.081 39.1528 382.692 38.8087 382.233C38.4851 381.787 38.2488 381.285 38.1143 380.75C37.9797 380.214 37.9543 379.678 38.0355 379.123C38.1065 378.563 38.3106 378.029 38.6111 377.538C38.9111 377.047 39.2945 376.619 39.7702 376.286C40.2234 375.965 40.722 375.727 41.2649 375.594C41.8077 375.461 42.362 375.443 42.9141 375.517C43.4921 375.593 44.035 375.794 44.5325 376.09C45.0305 376.386 45.4648 376.764 45.7927 377.227C46.1264 377.68 46.3592 378.166 46.4937 378.701ZM45.2407 380.152L44.241 380.254L44.1179 379.056L45.1692 378.958C44.9608 378.232 44.4936 377.62 43.8363 377.229C43.1588 376.827 42.3597 376.713 41.5932 376.9C40.8274 377.088 40.1743 377.556 39.7659 378.224C39.3582 378.892 39.2425 379.68 39.4327 380.436C39.6229 381.191 40.098 381.835 40.7754 382.237C41.4527 382.64 42.2518 382.753 43.0183 382.566C43.7842 382.379 44.4372 381.91 44.8457 381.242C45.0554 380.899 45.1838 380.533 45.2407 380.152Z" fill="#84D5F8"/>
<path d="M50.3923 374.399C49.9798 374.49 49.5744 374.482 49.1866 374.384C48.7571 374.282 48.3595 374.07 47.9954 373.767L43.6445 370.14L44.5147 369.124L48.8662 372.751C49.2569 373.077 49.6791 373.188 50.1083 373.096C50.514 373.013 50.937 372.751 51.2679 372.366C51.5902 371.989 51.7829 371.534 51.8047 371.117C51.8265 370.684 51.6367 370.301 51.246 369.976L46.8946 366.348L47.7731 365.324L52.1246 368.951C52.4881 369.255 52.7583 369.615 52.94 370.007C53.0952 370.376 53.1703 370.768 53.1552 371.177C53.1243 371.887 52.8231 372.611 52.2979 373.224C51.7719 373.837 51.0977 374.251 50.3923 374.399Z" fill="#84D5F8"/>
<path d="M58.9548 364.191L56.6227 366.159L57.2692 368.014L56.1387 368.969L53.1221 359.802L61.8359 364.158L60.7137 365.105L58.9548 364.191ZM57.797 363.598L55.2928 362.301L56.2072 364.941L57.797 363.598Z" fill="#84D5F8"/>
<path d="M72.7716 356.211C72.9 357.061 72.49 357.966 71.712 358.521C71.5683 358.624 71.4145 358.707 71.2557 358.778C70.9389 358.922 70.5977 359.014 70.2487 359.033C69.6599 359.06 69.0758 358.934 68.488 358.632L69.1097 357.442C69.4677 357.633 69.8295 357.721 70.1627 357.697C70.4389 357.685 70.702 357.591 70.9103 357.434C71.2776 357.178 71.4841 356.769 71.4333 356.414C71.3739 356.012 70.9855 355.809 70.6662 355.702C70.1669 355.537 69.3387 355.243 69.2775 355.221L67.8978 354.761C67.4713 354.613 67.1248 354.392 66.8643 354.107C66.6074 353.831 66.4366 353.492 66.3862 353.137C66.3262 352.76 66.3905 352.378 66.5643 352.008C66.7262 351.67 66.9806 351.366 67.3006 351.145C67.6423 350.889 68.0578 350.738 68.5014 350.701C68.9758 350.676 69.4562 350.774 69.9324 351L69.326 352.195C68.7013 351.898 68.2893 352.085 68.0869 352.227C67.8362 352.404 67.6865 352.686 67.7246 352.934C67.7507 353.099 67.8731 353.333 68.3463 353.498L70.2342 354.144C70.5117 354.245 70.8461 354.358 71.0884 354.438C71.5671 354.587 71.9597 354.825 72.2457 355.137C72.5267 355.439 72.7123 355.809 72.7716 356.211Z" fill="#84D5F8"/>
<path d="M75.6288 348.063L76.9945 347.686C78.0911 347.383 78.854 347.648 79.2933 347.919C79.8784 348.281 80.2868 348.87 80.5038 349.632C80.7195 350.393 80.6842 351.117 80.3711 351.715C80.1422 352.183 79.6295 352.8 78.5327 353.103L77.369 353.424L78.1553 356.194L76.8576 356.552L74.5322 348.365L75.6288 348.063ZM79.3397 349.953C79.2489 349.633 79.05 349.188 78.6538 348.941C78.3043 348.728 77.8571 348.684 77.3202 348.833L76.1564 349.155L77.0404 352.266L78.2037 351.945C78.7404 351.796 79.1027 351.541 79.29 351.181C79.498 350.766 79.4336 350.285 79.3397 349.953Z" fill="#84D5F8"/>
<path d="M90.0851 353.956L86.4983 354.409L85.1726 354.576L84.0771 346.14L85.4144 345.971L86.3553 353.213L89.93 352.761L90.0851 353.956Z" fill="#84D5F8"/>
<path d="M98.1245 352.038L95.0552 351.984L94.29 353.794L92.8018 353.768L96.719 344.938L100.3 353.9L98.8237 353.874L98.1245 352.038ZM97.6579 350.837L96.6589 348.229L95.5653 350.8L97.6579 350.837Z" fill="#84D5F8"/>
<path d="M108.15 353.158C107.795 353.944 106.957 354.491 105.998 354.547C105.82 354.558 105.646 354.546 105.474 354.523C105.128 354.476 104.79 354.373 104.485 354.204C103.973 353.916 103.549 353.5 103.217 352.935L104.391 352.259C104.588 352.61 104.845 352.876 105.14 353.032C105.379 353.168 105.653 353.228 105.914 353.205C106.363 353.184 106.76 352.948 106.91 352.621C107.079 352.251 106.861 351.875 106.65 351.615C106.319 351.211 105.78 350.526 105.74 350.474L104.827 349.356C104.547 349.006 104.375 348.635 104.31 348.257C104.244 347.889 104.284 347.512 104.435 347.185C104.589 346.836 104.851 346.548 105.199 346.328C105.52 346.128 105.9 346.005 106.29 345.989C106.717 345.954 107.151 346.047 107.545 346.25C107.959 346.479 108.312 346.816 108.59 347.258L107.428 347.947C107.062 347.365 106.613 347.305 106.364 347.318C106.057 347.334 105.777 347.493 105.675 347.722C105.607 347.875 105.582 348.138 105.892 348.527L107.134 350.071C107.313 350.303 107.534 350.576 107.694 350.771C108.017 351.15 108.218 351.559 108.291 351.974C108.364 352.378 108.319 352.788 108.15 353.158Z" fill="#84D5F8"/>
<path d="M117.364 356.871L116.051 356.563L116.912 352.994L113.563 352.209L112.703 355.779L111.391 355.471L113.385 347.194L114.698 347.501L113.846 351.038L117.194 351.823L118.047 348.287L119.359 348.594L117.364 356.871Z" fill="#84D5F8"/>
<path d="M115.983 416.728C112.645 416.661 109.303 416.777 106.321 416.57C105.204 416.57 104.441 416.59 103.68 416.564C102.964 416.54 102.341 416.698 101.983 417.354C101.623 418.011 101.851 418.6 102.261 419.178C104.727 422.647 107.158 426.141 109.644 429.596C111.07 431.578 113.083 432.669 115.525 432.856C118.399 433.076 120.78 432.075 122.647 429.854C124.644 427.48 125.003 423.667 123.436 420.989C121.776 418.151 119.256 416.795 115.983 416.728Z" fill="white"/>
<path d="M100.811 414.057C101.128 414.291 101.357 414.026 101.568 413.833C104.622 411.039 107.84 408.443 111.209 406.028C111.488 405.855 111.774 405.691 112.045 405.507C115.541 403.138 119.169 401.019 123.19 399.604C124.956 398.983 126.442 397.91 127.502 396.366C128.715 394.599 129.183 392.669 128.536 390.563C128.178 389.207 127.445 388.077 126.464 387.067C124.109 384.643 120.776 384.135 117.796 385.774C115.534 387.017 113.912 388.874 112.718 391.082C108.73 398.454 104.788 405.849 100.829 413.236C100.685 413.505 100.462 413.801 100.811 414.057Z" fill="white"/>
<path d="M74.5332 402.515C80.8293 406.562 87.2093 410.482 93.556 414.452C93.8227 414.619 94.1009 414.81 94.3945 414.513C94.6804 414.224 94.5031 413.949 94.3408 413.677C92.8816 411.227 91.7618 408.63 90.8872 405.927C90.8832 405.87 90.8904 405.81 90.8738 405.756C89.8626 402.517 89.2342 399.208 89.0236 395.824C88.9519 394.672 88.9714 393.505 88.7751 392.374C88.2889 389.568 86.7487 387.415 84.311 385.9C82.1596 384.563 79.8032 384.108 77.3097 384.541C75.7424 384.814 74.2951 385.429 73.0722 386.478C72.8893 386.621 72.6981 386.755 72.5249 386.909C69.975 389.173 68.894 391.955 69.5518 395.31C70.1592 398.408 71.9136 400.832 74.5332 402.515Z" fill="white"/>
<path d="M92.6907 418.404C93.3348 417.673 93.0149 416.771 92.0567 416.559C91.8664 416.516 91.6739 416.484 91.4815 416.452C89.2994 416.085 87.1232 415.677 84.9328 415.366C83.6167 415.179 82.3293 414.782 80.9559 414.952C78.8958 415.207 77.3454 416.229 76.3765 417.965C74.1125 422.02 77.0042 426.754 81.69 426.763C83.317 426.774 84.6993 426.187 85.8531 425.072C87.7519 423.238 89.6416 421.394 91.534 419.553C91.9236 419.174 92.3327 418.811 92.6907 418.404Z" fill="white"/>
<path d="M99.8632 424.063C99.6767 423.706 99.55 423.316 99.268 423.012C98.8303 422.152 98.4273 421.274 97.9461 420.439C97.2982 419.316 95.9078 419.352 95.2598 420.479C95.1732 420.63 95.0992 420.787 95.0192 420.942C93.1416 424.556 91.2713 428.174 89.383 431.782C88.5391 433.395 88.2689 435.077 88.5511 436.872C89.3147 441.731 94.3935 444.773 99.1581 443.206C99.2916 443.18 99.4309 443.171 99.5573 443.126C103.946 441.575 106.149 436.139 104.037 432.067C102.651 429.396 101.258 426.729 99.8632 424.063Z" fill="white"/>
<path d="M97.2024 409.343C97.3652 409.656 97.5336 409.969 97.9599 409.974C98.4156 409.979 98.5865 409.644 98.7578 409.314C99.6204 407.653 100.487 405.994 101.342 404.329C102.637 401.809 100.905 398.913 98.0363 398.795C95.2478 398.68 93.2887 401.69 94.5399 404.203C95.3998 405.929 96.3121 407.631 97.2024 409.343Z" fill="white"/>
<path d="M76.3859 410.527C75.4059 409.479 74.4316 408.423 73.4113 407.413C72.493 406.504 71.1656 406.388 70.0696 407.044C69.0337 407.663 68.5299 408.971 68.8884 410.109C69.2665 411.312 70.3563 412.081 71.8816 412.036C73.1029 411.881 74.5766 411.71 76.0445 411.499C76.6771 411.408 76.8166 410.988 76.3859 410.527Z" fill="white"/>
<path d="M127.025 405.637C126.001 405.122 124.969 405.184 124.071 405.926C122.95 406.852 121.863 407.818 120.779 408.786C120.325 409.193 120.43 409.611 121.018 409.745C122.459 410.075 123.9 410.412 125.355 410.671C127.016 410.965 128.465 409.729 128.495 408.071C128.487 406.979 128.011 406.134 127.025 405.637Z" fill="white"/>
<path d="M113.886 439.129L110.613 444.094L114.138 448.811L117.411 444.094L113.886 439.129Z" fill="white"/>
<path d="M93.8474 376.904L90.5742 381.869L94.0992 386.587L97.3724 381.869L93.8474 376.904Z" fill="white"/>
<path d="M73.7205 431.201L70.4473 436.166L73.9722 440.883L77.2454 436.166L73.7205 431.201Z" fill="white"/>
<path d="M33.224 467.12C35.648 467.12 37.088 465.536 37.088 462.98C37.088 460.436 35.648 458.84 33.224 458.84C30.8 458.84 29.36 460.436 29.36 462.98C29.36 465.536 30.8 467.12 33.224 467.12ZM33.224 465.872C31.508 465.872 30.728 464.984 30.728 462.98C30.728 460.976 31.508 460.088 33.224 460.088C34.94 460.088 35.708 460.976 35.708 462.98C35.708 464.984 34.94 465.872 33.224 465.872ZM43.2332 467V458.96H42.0932C41.7452 459.728 41.2412 459.956 40.3532 459.956H39.9692V460.88H41.9372V467H43.2332Z" fill="#5FDDF9"/>
<defs>
<linearGradient id="paint0_linear_3753_1368" x1="416.396" y1="317.493" x2="532.337" y2="317.493" gradientUnits="userSpaceOnUse">
<stop stop-color="#194A90"/>
<stop offset="0.2471" stop-color="#1B4D92"/>
<stop offset="0.4137" stop-color="#225699"/>
<stop offset="0.5567" stop-color="#2E65A4"/>
<stop offset="0.6863" stop-color="#3E7AB4"/>
<stop offset="0.8069" stop-color="#5496C9"/>
<stop offset="0.9192" stop-color="#6DB8E2"/>
<stop offset="1" stop-color="#84D5F8"/>
</linearGradient>
<linearGradient id="paint1_linear_3753_1368" x1="44.849" y1="401.493" x2="162.435" y2="401.493" gradientUnits="userSpaceOnUse">
<stop stop-color="#194A90"/>
<stop offset="0.2471" stop-color="#1B4D92"/>
<stop offset="0.4137" stop-color="#225699"/>
<stop offset="0.5567" stop-color="#2E65A4"/>
<stop offset="0.6863" stop-color="#3E7AB4"/>
<stop offset="0.8069" stop-color="#5496C9"/>
<stop offset="0.9192" stop-color="#6DB8E2"/>
<stop offset="1" stop-color="#84D5F8"/>
</linearGradient>
<clipPath id="clip0_3753_1368">
<rect width="141" height="141" fill="white" transform="translate(395 247)"/>
</clipPath>
</defs>
</svg>
