<svg width="550" height="550" viewBox="0 0 550 550" fill="none" xmlns="http://www.w3.org/2000/svg">
<path d="M407.555 120.4C409.223 119.468 410.896 118.546 412.55 117.588C412.707 117.498 412.773 117.199 412.824 116.984C413.19 115.44 413.432 113.857 413.921 112.355C414.653 110.112 416.034 108.258 417.815 106.728C419.949 104.895 421.144 102.584 421.478 99.7883C421.897 96.2825 422.347 92.7806 422.787 89.2451C425.891 89.1753 428.603 90.0277 430.685 92.4401C432.44 94.473 433.159 96.8496 432.893 99.5252C432.613 102.336 432.307 105.145 432.05 107.958C432.015 108.335 432.123 108.769 432.292 109.113C432.707 109.953 433.196 110.755 433.681 111.617C434.875 110.555 436.04 109.524 437.2 108.486C438.684 107.159 440.171 105.835 441.64 104.491C441.843 104.306 442.016 104.039 442.098 103.776C442.578 102.241 443.024 100.695 443.486 99.154C444.934 94.3195 449.847 91.9271 454.515 93.7832C454.932 93.9488 455.344 94.1247 455.796 94.3113C455.73 94.6909 455.665 95.0648 455.607 95.4054C456.534 95.3057 457.429 95.1567 458.329 95.1248C459.662 95.0778 460.902 95.4926 462.097 96.0591C462.339 96.1733 462.601 96.2443 462.853 96.3352C462.872 96.3694 462.891 96.4035 462.911 96.4378C462.867 96.5665 462.817 96.6937 462.78 96.8244C461.379 101.748 459.973 106.67 458.589 111.599C458.454 112.081 458.21 112.422 457.836 112.732C454.126 115.81 450.412 118.884 446.728 121.993C444.918 123.519 443.036 124.907 440.962 126.071C433.525 130.248 426.13 134.5 418.717 138.721C418.498 138.846 418.267 138.95 418.041 139.063C414.546 132.843 411.05 126.621 407.555 120.4ZM458.552 98.7094C456.985 98.3619 454.773 99.5227 454.198 101.076C453.407 103.209 452.689 105.369 451.925 107.512C451.837 107.759 451.703 108.028 451.51 108.192C448.436 110.817 445.352 113.43 442.259 116.032C442.05 116.207 441.753 116.34 441.484 116.368C438.735 116.658 435.983 116.915 433.234 117.201C432.853 117.241 432.643 117.155 432.452 116.798C431.192 114.448 429.896 112.118 428.639 109.767C428.485 109.48 428.405 109.099 428.436 108.774C428.736 105.61 429.061 102.447 429.392 99.2858C429.513 98.1245 429.377 97.0101 428.845 95.9677C428.193 94.6894 427.224 93.7534 425.833 93.2174C425.514 95.7529 425.225 98.2277 424.886 100.695C424.415 104.119 422.878 106.981 420.277 109.239C418.278 110.975 417.041 113.125 416.614 115.751C416.437 116.836 416.202 117.911 416.049 118.999C415.97 119.557 415.741 119.901 415.233 120.162C414.266 120.656 413.337 121.226 412.394 121.764C414.753 125.963 417.073 130.092 419.417 134.263C419.614 134.151 419.781 134.056 419.947 133.961C427.074 129.9 434.2 125.84 441.325 121.777C441.562 121.642 441.8 121.5 442.009 121.326C446.317 117.742 450.624 114.157 454.916 110.555C455.164 110.347 455.361 110.01 455.453 109.695C456.311 106.757 457.142 103.81 457.976 100.865C458.179 100.149 458.361 99.428 458.552 98.7094ZM437.314 113.104C437.332 113.146 437.349 113.189 437.366 113.231C438.253 113.145 439.144 113.083 440.026 112.962C440.315 112.923 440.631 112.791 440.853 112.604C443.362 110.495 445.859 108.372 448.343 106.234C448.591 106.02 448.8 105.704 448.91 105.394C449.563 103.546 450.192 101.69 450.807 99.83C451.142 98.8163 451.435 97.7883 451.763 96.7121C451.5 96.6945 451.369 96.6758 451.239 96.6783C449.231 96.7145 447.514 98.0334 446.881 100.072C446.299 101.944 445.766 103.831 445.187 105.704C445.1 105.986 444.929 106.278 444.717 106.479C443.981 107.176 443.207 107.834 442.451 108.51C440.738 110.041 439.026 111.573 437.314 113.104Z" fill="white"/>
<mask id="mask0_3753_1533" style="mask-type:luminance" maskUnits="userSpaceOnUse" x="381" y="23" width="116" height="131">
<path d="M446.031 26.5422C450.772 28.0373 455.326 30.0584 459.604 32.5493C463.874 35.0465 467.937 37.9303 471.578 41.2528C475.23 44.5658 478.411 48.3718 481.256 52.4128C484.076 56.4634 486.492 60.7721 488.27 65.3492C489.159 67.6231 489.985 70.014 490.647 72.3303C491.291 74.6854 491.792 77.084 492.134 79.5084C492.481 81.9324 492.689 84.3793 492.78 86.8361C492.877 89.3425 492.901 91.7193 492.688 94.1535C492.296 99.0302 491.317 103.779 489.772 108.433C488.302 113.096 486.294 117.45 483.669 121.527C482.163 123.882 480.517 126.145 478.734 128.264C483.686 120.178 486.549 110.658 486.549 100.461C486.549 71.1635 462.964 47.4132 433.872 47.4132C404.779 47.4132 381.195 71.1635 381.195 100.461C381.195 129.758 404.779 153.508 433.872 153.508C434.718 153.508 435.559 153.484 436.396 153.444C441.354 153.451 446.267 152.679 450.961 151.493C461.17 148.981 470.392 143.304 477.808 136.145C481.577 132.459 484.706 128.283 487.393 123.874C490.092 119.461 492.246 114.593 493.622 109.632C499.678 89.7427 495.305 67.3817 483.018 51.1205C479.974 47.0669 476.576 43.2479 472.711 39.9539C468.854 36.6563 464.641 33.8385 460.204 31.4549C455.748 29.103 451.041 27.2484 446.207 25.9431C441.379 24.613 436.424 23.7696 431.445 23.4912C436.408 23.9773 441.3 25.0237 446.031 26.5422Z" fill="white"/>
</mask>
<g mask="url(#mask0_3753_1533)">
<path d="M499.677 23.4902H381.194V153.508H499.677V23.4902Z" fill="url(#paint0_linear_3753_1533)"/>
</g>
<path d="M376.256 86.5561L376.08 87.8734L372.471 87.3863L372.024 90.7493L375.633 91.2361L375.459 92.5541L367.088 91.425L367.264 90.1071L370.839 90.5898L371.286 87.227L367.71 86.7446L367.885 85.4268L376.256 86.5561Z" fill="#84D5F8"/>
<path d="M373.825 78.0339L378.062 79.2902L377.688 80.5656L373.451 79.3094L368.747 81.0323L369.149 79.6583L372.655 78.3798L370.397 75.3916L370.796 74.0283L373.825 78.0339Z" fill="#84D5F8"/>
<path d="M379.059 66.007C380.131 66.5418 380.891 67.3189 381.255 68.2564C381.461 68.7683 381.544 69.3215 381.489 69.8963C381.441 70.4859 381.268 71.091 380.965 71.707L380.272 73.1139L380.074 73.5141L372.509 69.7325L373.096 68.5412L373.4 67.9252C373.703 67.3096 374.068 66.801 374.515 66.4097C374.936 66.0191 375.424 65.7509 375.953 65.6056C376.914 65.3312 377.989 65.4717 379.059 66.007ZM378.473 67.1976C377.698 66.8105 376.95 66.7053 376.314 66.8864C375.591 67.0883 375.017 67.6337 374.583 68.5166L374.279 69.1326L379.478 71.7319L379.782 71.1159C380.217 70.2331 380.292 69.4379 380.025 68.7412C379.784 68.1218 379.237 67.58 378.473 67.1976Z" fill="#84D5F8"/>
<path d="M388.202 60.2612L387.306 61.462L383.742 61.4471L383.161 62.2262L385.446 63.9549L384.652 65.0185L377.897 59.9069L378.568 59.0084L379.403 57.8901C380.073 56.9923 380.827 56.7449 381.342 56.7042C382 56.6434 382.69 56.8638 383.318 57.3392C383.937 57.8076 384.34 58.4135 384.465 59.067C384.523 59.37 384.54 59.7851 384.395 60.2481L388.202 60.2612ZM382.926 60.5563C383.254 60.1159 383.373 59.6902 383.294 59.2999C383.212 58.8365 382.864 58.5013 382.599 58.3016C382.327 58.0949 381.91 57.8513 381.446 57.9014C381.051 57.9331 380.687 58.1739 380.358 58.6135L379.647 59.567L382.214 61.5097L382.926 60.5563Z" fill="#84D5F8"/>
<path d="M391.521 56.3432C390.996 56.5266 390.46 56.596 389.914 56.5673C389.367 56.5386 388.842 56.4138 388.339 56.1764C387.836 55.9394 387.378 55.5988 386.996 55.1735C386.615 54.7476 386.326 54.2536 386.136 53.7163C385.962 53.1961 385.893 52.6567 385.914 52.0979C385.942 51.5479 386.074 51.0268 386.31 50.5202C386.545 50.0131 386.883 49.5519 387.305 49.1682C387.729 48.7848 388.219 48.4939 388.753 48.3027C389.269 48.1265 389.797 48.0488 390.352 48.0698C390.906 48.1068 391.423 48.2393 391.918 48.4682C392.43 48.7138 392.888 49.0543 393.268 49.4802C393.649 49.9055 393.939 50.3997 394.12 50.9284C394.303 51.457 394.38 51.9887 394.352 52.539C394.315 53.0969 394.191 53.6263 393.964 54.1257C393.72 54.64 393.382 55.1012 392.959 55.4849C392.537 55.8689 392.046 56.1592 391.521 56.3432ZM387.239 52.1756C387.2 52.9523 387.458 53.7045 387.977 54.2833C388.495 54.8623 389.211 55.1998 389.982 55.2404C390.754 55.2804 391.501 55.0194 392.075 54.4972C392.65 53.9757 392.986 53.2546 393.025 52.478C393.066 51.7008 392.806 50.9488 392.288 50.3704C391.77 49.7908 391.055 49.4534 390.282 49.4132C389.511 49.3727 388.765 49.6344 388.189 50.1559C387.615 50.6776 387.279 51.3985 387.239 52.1756Z" fill="#84D5F8"/>
<path d="M404.572 47.3075L402.307 43.4089L402.016 48.1749L397.737 46.1002L400.003 49.9988L398.862 50.6697L394.402 42.9918L400.82 46.1168L401.261 38.9521L405.721 46.6306L404.572 47.3075Z" fill="#84D5F8"/>
<path d="M412.825 41.9553L409.951 42.8425L409.797 44.7965L408.404 45.2267L409.33 35.6377L415.422 43.0592L414.041 43.4865L412.825 41.9553ZM412.021 40.9572L410.287 38.7825L410.062 41.5618L412.021 40.9572Z" fill="#84D5F8"/>
<path d="M418.908 36.7421L419.85 42.1247L418.549 42.3552L417.017 33.5865L423.247 38.4273L422.307 33.0556L423.618 32.8223L425.151 41.5797L418.908 36.7421Z" fill="#84D5F8"/>
<path d="M435.039 39.714C434.831 39.864 434.61 40.0025 434.378 40.1197C433.868 40.3668 433.317 40.5132 432.749 40.5462C432.181 40.579 431.617 40.4965 431.094 40.3085C430.569 40.1202 430.109 39.8364 429.701 39.4697C429.293 39.1027 428.96 38.6745 428.715 38.1715C428.469 37.669 428.324 37.1146 428.292 36.5429C428.259 35.9706 428.341 35.4031 428.527 34.8642C428.715 34.3486 428.996 33.8731 429.36 33.4614C429.724 33.0504 430.15 32.7159 430.65 32.4805C431.148 32.2226 431.699 32.0873 432.267 32.0545C432.835 32.0218 433.398 32.0929 433.934 32.2916C433.992 32.3116 434.062 32.342 434.12 32.361L434.209 33.9294C433.674 33.5349 433.024 33.3427 432.343 33.3821C431.57 33.4262 430.859 33.7656 430.346 34.3583C429.831 34.9388 429.566 35.6886 429.61 36.467C429.655 37.2448 430.002 37.9598 430.579 38.4779C431.155 38.996 431.901 39.2629 432.673 39.2187C433.447 39.1739 434.156 38.8232 434.671 38.2425C434.767 38.1338 434.852 38.0257 434.937 37.9057L435.039 39.714Z" fill="#84D5F8"/>
<path d="M442.345 36.2464L442.043 40.6834L440.726 40.5925L441.028 36.1556L438.34 31.9033L439.759 32.0012L441.757 35.1722L444.165 32.3053L445.573 32.4027L442.345 36.2464Z" fill="#84D5F8"/>
<path d="M462.348 96.3352C462.096 96.2442 461.834 96.1735 461.593 96.0589C460.397 95.4924 459.157 95.0776 457.825 95.1247C456.925 95.1565 456.029 95.3055 455.102 95.4052C455.161 95.0647 455.226 94.6909 455.291 94.311C454.839 94.1244 454.427 93.9487 454.011 93.7832C449.342 91.9271 444.429 94.3194 442.981 99.154C442.519 100.695 442.073 102.241 441.594 103.776C441.511 104.038 441.338 104.306 441.135 104.491C439.666 105.834 438.18 107.159 436.695 108.486C435.535 109.523 434.37 110.555 433.176 111.617C432.692 110.755 432.202 109.953 431.788 109.113C431.618 108.769 431.51 108.335 431.545 107.958C431.803 105.145 432.109 102.336 432.388 99.525C432.654 96.8493 431.935 94.473 430.181 92.4398C428.098 90.0276 425.386 89.1752 422.282 89.2452C421.842 92.7805 421.393 96.2824 420.974 99.788C420.639 102.583 419.445 104.895 417.311 106.727C415.529 108.257 414.149 110.112 413.417 112.355C412.927 113.857 412.685 115.44 412.319 116.983C412.268 117.199 412.202 117.498 412.046 117.588C410.392 118.545 408.718 119.468 407.05 120.4C410.546 126.621 414.041 132.842 417.537 139.063C417.762 138.95 417.994 138.846 418.213 138.721C425.625 134.499 433.02 130.247 440.458 126.071C442.531 124.907 444.414 123.519 446.223 121.992C449.908 118.884 453.621 115.81 457.331 112.732C457.705 112.421 457.949 112.081 458.085 111.599C459.468 106.67 460.874 101.748 462.276 96.8242C462.313 96.6936 462.362 96.5663 462.406 96.4376C462.387 96.4034 462.368 96.3691 462.348 96.3352ZM441.946 108.51C442.702 107.834 443.476 107.176 444.212 106.479C444.425 106.278 444.596 105.987 444.683 105.705C445.261 103.832 445.794 101.944 446.376 100.072C447.009 98.0337 448.726 96.715 450.734 96.6788C450.865 96.6764 450.996 96.695 451.259 96.7128C450.93 97.7888 450.638 98.8166 450.302 99.8305C449.687 101.691 449.058 103.547 448.405 105.394C448.295 105.705 448.086 106.021 447.838 106.234C445.355 108.372 442.857 110.495 440.349 112.604C440.126 112.792 439.81 112.923 439.521 112.963C438.639 113.083 437.749 113.146 436.862 113.231C436.844 113.189 436.827 113.147 436.81 113.105C438.522 111.573 440.233 110.041 441.946 108.51ZM457.471 100.865C456.638 103.81 455.806 106.756 454.948 109.695C454.856 110.01 454.659 110.347 454.412 110.554C450.119 114.157 445.812 117.742 441.504 121.325C441.295 121.499 441.057 121.641 440.821 121.776C433.696 125.84 426.569 129.9 419.443 133.961C419.276 134.056 419.109 134.151 418.912 134.263C416.568 130.092 414.249 125.963 411.889 121.763C412.832 121.225 413.762 120.656 414.729 120.161C415.237 119.901 415.465 119.557 415.544 118.999C415.697 117.911 415.932 116.836 416.109 115.751C416.537 113.124 417.774 110.974 419.773 109.238C422.373 106.981 423.911 104.119 424.381 100.695C424.72 98.2274 425.009 95.7526 425.328 93.2173C426.719 93.7534 427.688 94.6892 428.34 95.9678C428.872 97.01 429.008 98.1244 428.887 99.2857C428.556 102.447 428.231 105.61 427.932 108.774C427.9 109.098 427.98 109.48 428.134 109.767C429.391 112.118 430.687 114.448 431.947 116.798C432.139 117.154 432.348 117.24 432.73 117.201C435.478 116.915 438.23 116.658 440.979 116.368C441.248 116.34 441.545 116.207 441.754 116.031C444.848 113.43 447.931 110.817 451.005 108.192C451.198 108.028 451.332 107.758 451.42 107.512C452.184 105.369 452.902 103.208 453.693 101.075C454.269 99.5224 456.48 98.3616 458.047 98.7092C457.856 99.428 457.674 100.149 457.471 100.865Z" fill="white"/>
<path d="M448.5 78.3632L450.155 80.6248L451.691 78.3632L450.036 75.9824L448.5 78.3632Z" fill="white"/>
<path d="M438.879 61.9538L437.224 59.5732L435.688 61.9538L437.342 64.2156L438.879 61.9538Z" fill="white"/>
<path d="M430.012 83.3397L428.752 81.5283L427.583 83.3397L428.842 85.061L430.012 83.3397Z" fill="white"/>
<path d="M440.357 69.4982C440.429 69.5365 440.507 69.5642 440.582 69.5957C441.596 70.0158 442.609 70.4338 443.524 71.057C444.271 71.5659 444.986 72.1126 445.611 72.7695C446.067 73.2478 446.597 73.6155 447.247 73.7436C448.501 73.9898 449.584 73.655 450.375 72.6234C451.237 71.4987 451.347 70.2533 450.804 68.9466C450.757 68.8541 450.713 68.7592 450.662 68.6697C450.242 67.9472 449.658 67.4105 448.888 67.0813C448.159 66.7692 447.405 66.6862 446.639 66.8849C445.83 67.0946 445.03 67.3428 444.227 67.5773C442.98 67.9409 441.735 68.3075 440.488 68.672C440.33 68.7182 440.192 68.7851 440.141 68.9607C440.071 69.2007 440.143 69.3839 440.357 69.4982Z" fill="white"/>
<path d="M439.13 87.775C440.546 87.8929 441.859 87.5506 443.034 86.7402C443.4 86.4875 443.774 86.2271 444.011 85.8273C444.075 85.765 444.15 85.7105 444.202 85.6394C445.387 84.0202 445.721 82.2464 445.139 80.3138C444.765 79.0725 443.962 78.1418 442.987 77.3379C441.612 76.2043 440.282 75.0242 439.091 73.6886C437.965 72.4259 436.997 71.0541 436.18 69.5724C436 69.2448 435.758 69.0146 435.367 68.9922C434.931 69.0091 434.581 69.2812 434.517 69.6759C434.466 69.9871 434.438 70.302 434.402 70.6155C434.305 71.4576 434.211 72.2995 434.114 73.1415C434.013 74.0192 433.911 74.8965 433.808 75.774C433.708 76.6336 433.605 77.4927 433.507 78.3525C433.408 79.2124 433.281 80.0707 433.225 80.9336C433.11 82.662 433.617 84.2031 434.743 85.5158C435.897 86.8623 437.367 87.6281 439.13 87.775Z" fill="white"/>
<path d="M368.224 155.12C370.648 155.12 372.088 153.536 372.088 150.98C372.088 148.436 370.648 146.84 368.224 146.84C365.8 146.84 364.36 148.436 364.36 150.98C364.36 153.536 365.8 155.12 368.224 155.12ZM368.224 153.872C366.508 153.872 365.728 152.984 365.728 150.98C365.728 148.976 366.508 148.088 368.224 148.088C369.94 148.088 370.708 148.976 370.708 150.98C370.708 152.984 369.94 153.872 368.224 153.872ZM381.509 155V153.368H382.889V152.204H381.509V146.96H380.009L375.089 152.468V153.368H380.225V155H381.509ZM376.877 152.204V152.108L380.129 148.472H380.225V152.204H376.877Z" fill="#5FDDF9"/>
<mask id="mask1_3753_1533" style="mask-type:luminance" maskUnits="userSpaceOnUse" x="247" y="389" width="118" height="131">
<path d="M313.351 392.542C318.193 394.037 322.844 396.058 327.213 398.549C331.574 401.046 335.724 403.93 339.443 407.253C343.173 410.566 346.422 414.372 349.327 418.413C352.207 422.463 354.674 426.772 356.49 431.349C357.398 433.623 358.242 436.014 358.918 438.33C359.576 440.685 360.088 443.084 360.437 445.508C360.791 447.932 361.004 450.379 361.096 452.836C361.195 455.342 361.22 457.719 361.003 460.154C360.602 465.03 359.602 469.779 358.025 474.433C356.523 479.096 354.472 483.45 351.792 487.527C350.253 489.882 348.572 492.145 346.751 494.264C351.808 486.178 354.732 476.658 354.732 466.461C354.732 437.163 330.645 413.413 300.932 413.413C271.219 413.413 247.132 437.163 247.132 466.461C247.132 495.758 271.219 519.508 300.932 519.508C301.796 519.508 302.655 519.484 303.509 519.444C308.573 519.451 313.592 518.679 318.385 517.493C328.812 514.981 338.231 509.304 345.805 502.145C349.655 498.459 352.851 494.283 355.595 489.874C358.351 485.461 360.551 480.593 361.957 475.632C368.142 455.743 363.676 433.382 351.126 417.12C348.017 413.067 344.547 409.248 340.6 405.954C336.66 402.656 332.357 399.838 327.825 397.455C323.275 395.103 318.467 393.248 313.53 391.943C308.599 390.613 303.538 389.77 298.453 389.491C303.523 389.977 308.519 391.024 313.351 392.542Z" fill="white"/>
</mask>
<g mask="url(#mask1_3753_1533)">
<path d="M368.143 389.49H247.133V519.508H368.143V389.49Z" fill="url(#paint1_linear_3753_1533)"/>
</g>
<path d="M242.275 442.427L241.087 445.216L242.508 446.587L241.933 447.939L235.069 441.085L244.833 441.124L244.262 442.466L242.275 442.427ZM240.971 442.409L238.145 442.358L240.162 444.312L240.971 442.409Z" fill="#84D5F8"/>
<path d="M248.806 431.701C248.818 431.748 248.826 431.78 248.838 431.827L250.116 431.69L250.24 432.888L248.925 433.017C248.917 433.119 248.903 433.231 248.895 433.333C248.807 433.898 248.613 434.438 248.313 434.929C248.013 435.42 247.619 435.842 247.159 436.171C246.7 436.501 246.197 436.724 245.654 436.857C245.112 436.989 244.562 437.023 243.999 436.944C243.437 436.864 242.889 436.673 242.391 436.376C241.893 436.081 241.465 435.692 241.121 435.233C240.797 434.787 240.561 434.285 240.426 433.75C240.292 433.214 240.267 432.678 240.348 432.123C240.419 431.563 240.623 431.029 240.923 430.538C241.223 430.047 241.607 429.619 242.082 429.286C242.535 428.965 243.035 428.727 243.577 428.594C244.12 428.461 244.674 428.443 245.227 428.517C245.805 428.593 246.347 428.794 246.844 429.09C247.342 429.386 247.777 429.764 248.105 430.227C248.439 430.68 248.672 431.166 248.806 431.701ZM247.553 433.152L246.554 433.254L246.43 432.056L247.481 431.958C247.273 431.232 246.806 430.62 246.149 430.229C245.471 429.827 244.672 429.713 243.906 429.9C243.14 430.088 242.487 430.556 242.078 431.224C241.67 431.892 241.555 432.68 241.745 433.436C241.935 434.191 242.411 434.835 243.088 435.237C243.765 435.64 244.564 435.753 245.33 435.566C246.097 435.379 246.75 434.91 247.158 434.242C247.368 433.899 247.496 433.533 247.553 433.152Z" fill="#84D5F8"/>
<path d="M252.705 427.399C252.292 427.49 251.887 427.482 251.499 427.384C251.07 427.282 250.673 427.07 250.308 426.767L245.957 423.14L246.828 422.124L251.179 425.751C251.569 426.077 251.992 426.188 252.421 426.096C252.827 426.013 253.25 425.751 253.58 425.366C253.903 424.989 254.096 424.534 254.118 424.117C254.139 423.684 253.949 423.301 253.559 422.976L249.208 419.348L250.086 418.324L254.437 421.951C254.801 422.255 255.071 422.615 255.253 423.007C255.408 423.376 255.483 423.768 255.468 424.177C255.437 424.887 255.135 425.611 254.61 426.224C254.085 426.837 253.41 427.251 252.705 427.399Z" fill="#84D5F8"/>
<path d="M261.267 417.191L258.935 419.159L259.581 421.014L258.451 421.969L255.435 412.802L264.148 417.158L263.026 418.105L261.267 417.191ZM260.11 416.598L257.605 415.301L258.52 417.941L260.11 416.598Z" fill="#84D5F8"/>
<path d="M277.777 410.005L276.009 405.838L275.073 410.524L271.022 407.895L272.79 412.062L271.545 412.576L268.062 404.369L274.14 408.324L275.55 401.28L279.031 409.488L277.777 410.005Z" fill="#84D5F8"/>
<path d="M286.877 405.844L283.865 406.426L283.501 408.353L282.041 408.636L283.992 399.195L289.4 407.214L287.951 407.494L286.877 405.844ZM286.165 404.767L284.634 402.424L284.112 405.164L286.165 404.767Z" fill="#84D5F8"/>
<path d="M298.56 403.534L298.644 405.836L298.349 406.053C298.338 406.054 298.338 406.054 298.326 406.065C298.315 406.077 298.292 406.09 298.281 406.09C298.269 406.102 298.258 406.113 298.247 406.114C298.235 406.126 298.224 406.138 298.201 406.139C298.19 406.151 298.178 406.162 298.156 406.174C298.144 406.187 298.134 406.187 298.122 406.199C298.11 406.21 298.099 406.211 298.087 406.223C298.065 406.235 298.053 406.235 298.03 406.248C298.02 406.26 298.007 406.26 297.996 406.272C297.986 406.284 297.962 406.296 297.94 406.297C297.928 406.309 297.928 406.309 297.917 406.321C297.906 406.321 297.906 406.321 297.893 406.321C297.883 406.333 297.86 406.346 297.836 406.358C297.814 406.37 297.78 406.383 297.757 406.395L297.746 406.407C297.266 406.642 296.759 406.774 296.214 406.828L296.202 406.829C296.179 406.829 296.144 406.83 296.11 406.832L296.098 406.832C296.062 406.833 296.028 406.835 295.993 406.836C295.529 406.852 295.062 406.8 294.627 406.666L294.614 406.667C294.568 406.657 294.532 406.635 294.485 406.625C294.427 406.605 294.367 406.584 294.308 406.563C294.155 406.511 294.013 406.448 293.882 406.372C293.527 406.201 293.194 405.971 292.905 405.695C292.495 405.32 292.165 404.884 291.926 404.376C291.749 403.993 291.618 403.585 291.568 403.162C291.551 403.025 291.534 402.877 291.529 402.739C291.527 402.671 291.524 402.59 291.521 402.521C291.538 402.028 291.625 401.531 291.806 401.067C292.008 400.555 292.305 400.086 292.686 399.682C293.066 399.279 293.508 398.954 294.024 398.729C294.538 398.481 295.103 398.358 295.684 398.338C295.719 398.336 295.753 398.335 295.789 398.334L295.801 398.333C295.835 398.332 295.87 398.331 295.893 398.33H295.905C295.94 398.329 295.975 398.327 296.01 398.338C296.511 398.354 297.003 398.451 297.475 398.641C297.475 398.641 297.475 398.653 297.486 398.653C297.511 398.663 297.534 398.673 297.558 398.684L297.569 398.684L297.626 400.253C297.446 400.11 297.245 400.003 297.032 399.907C296.855 399.833 296.667 399.771 296.491 399.731C296.479 399.732 296.467 399.732 296.456 399.721C296.444 399.721 296.432 399.722 296.421 399.722C296.409 399.711 296.397 399.712 296.374 399.712C296.374 399.712 296.362 399.713 296.35 399.702C296.304 399.692 296.245 399.694 296.198 399.684C296.187 399.684 296.187 399.684 296.175 399.685C296.163 399.685 296.14 399.675 296.128 399.675C296.117 399.675 296.117 399.675 296.105 399.676C296.093 399.676 296.07 399.677 296.058 399.666C296.047 399.666 296.035 399.667 296.024 399.667C296 399.668 295.976 399.669 295.953 399.67C295.942 399.67 295.93 399.659 295.918 399.66C295.907 399.66 295.895 399.66 295.883 399.661C295.872 399.661 295.849 399.662 295.837 399.662C295.825 399.663 295.814 399.663 295.814 399.663C295.791 399.664 295.756 399.665 295.733 399.666C295.186 399.685 294.669 399.841 294.226 400.132C294.215 400.144 294.192 400.156 294.169 400.169C293.987 400.29 293.818 400.433 293.673 400.599C293.628 400.647 293.572 400.694 293.527 400.753C293.527 400.753 293.527 400.765 293.516 400.765C293.461 400.836 293.417 400.907 293.373 400.976C293.361 400.988 293.351 401 293.351 401C293.328 401.036 293.306 401.071 293.284 401.106C293.273 401.118 293.262 401.141 293.263 401.153C293.098 401.433 292.993 401.724 292.934 402.036C292.923 402.048 292.923 402.048 292.924 402.059C292.905 402.174 292.885 402.29 292.878 402.405C292.879 402.45 292.882 402.496 292.883 402.531C292.873 402.588 292.874 402.634 292.877 402.692C292.878 402.737 292.88 402.783 292.894 402.84C292.913 403.057 292.955 403.273 293.021 403.478C293.179 403.954 293.45 404.38 293.823 404.722C294.4 405.252 295.155 405.535 295.945 405.507C295.968 405.506 296.003 405.505 296.026 405.504C296.038 405.504 296.049 405.504 296.061 405.492C296.072 405.492 296.095 405.491 296.107 405.491L296.142 405.489C296.153 405.489 296.165 405.488 296.176 405.487C296.2 405.487 296.212 405.486 296.235 405.486C296.235 405.474 296.246 405.474 296.258 405.473C296.27 405.473 296.293 405.472 296.304 405.472C296.316 405.471 296.316 405.471 296.327 405.471C296.409 405.456 296.501 405.43 296.581 405.416C296.593 405.416 296.593 405.416 296.604 405.404C296.616 405.403 296.639 405.402 296.65 405.391C296.662 405.39 296.673 405.39 296.685 405.389C296.696 405.377 296.708 405.377 296.719 405.377C296.731 405.365 296.754 405.364 296.765 405.364C296.777 405.363 296.788 405.351 296.788 405.351C296.949 405.3 297.109 405.237 297.258 405.151H297.269L297.212 403.582L295.586 403.639L295.543 402.437L298.516 402.331L298.56 403.534Z" fill="#84D5F8"/>
<path d="M303.545 407.065L304.171 398.58L302.826 398.484L302.2 406.968L303.545 407.065Z" fill="#84D5F8"/>
<path d="M313.836 407.771C313.595 407.871 313.345 407.957 313.086 408.019C312.523 408.147 311.942 408.167 311.369 408.072C310.796 407.977 310.253 407.772 309.773 407.471C309.294 407.171 308.898 406.793 308.574 406.344C308.25 405.895 308.015 405.403 307.884 404.858C307.753 404.313 307.732 403.741 307.829 403.175C307.924 402.61 308.133 402.076 308.439 401.591C308.742 401.13 309.128 400.729 309.583 400.409C310.039 400.089 310.537 399.858 311.088 399.74C311.642 399.599 312.221 399.59 312.795 399.685C313.368 399.779 313.912 399.974 314.401 400.287C314.454 400.319 314.517 400.364 314.571 400.397L314.308 401.945C313.863 401.442 313.26 401.109 312.572 400.996C311.792 400.867 311.008 401.04 310.364 401.503C309.722 401.954 309.289 402.626 309.158 403.395C309.028 404.164 309.214 404.938 309.672 405.572C310.13 406.205 310.812 406.632 311.592 406.761C312.371 406.89 313.157 406.706 313.799 406.254C313.92 406.17 314.029 406.083 314.14 405.985L313.836 407.771Z" fill="#84D5F8"/>
<path d="M319.962 466.044C318.112 466.027 316.56 465.304 315.362 463.958C314.567 463.064 313.908 462.05 313.223 461.066C312.628 460.211 312.138 459.281 311.505 458.458C310.36 456.97 309.059 456.97 307.911 458.469C307.252 459.33 306.755 460.31 306.131 461.199C305.417 462.217 304.746 463.292 303.877 464.17C301.411 466.663 297.669 466.722 295.141 464.288C294.204 463.387 293.486 462.255 292.724 461.189C292.093 460.305 291.605 459.319 290.946 458.459C289.804 456.967 288.483 456.971 287.351 458.466C286.696 459.33 286.187 460.3 285.579 461.201C284.984 462.082 284.421 463 283.715 463.79C281.016 466.815 276.796 466.837 274.105 463.808C273.238 462.833 272.524 461.705 271.868 460.574C271.2 459.423 270.447 458.376 269.419 457.512C268.635 456.854 268.426 455.876 268.81 454.995C269.189 454.121 270.091 453.581 271.084 453.719C271.449 453.769 271.834 453.941 272.13 454.162C273.54 455.21 274.61 456.546 275.481 458.058C276.034 459.016 276.608 459.978 277.302 460.837C278.287 462.056 279.558 462.035 280.534 460.796C281.233 459.909 281.768 458.899 282.418 457.972C283.131 456.953 283.791 455.871 284.652 454.985C287.193 452.368 291.001 452.334 293.579 454.913C294.468 455.802 295.147 456.901 295.882 457.932C296.538 458.853 297.077 459.862 297.78 460.745C298.841 462.076 300.098 462.061 301.138 460.708C301.84 459.795 302.366 458.751 303.048 457.82C303.874 456.691 304.653 455.484 305.679 454.552C307.955 452.484 311.326 452.459 313.627 454.5C314.68 455.435 315.481 456.658 316.328 457.798C317.016 458.724 317.542 459.769 318.25 460.678C319.346 462.087 320.59 462.081 321.697 460.67C322.338 459.854 322.885 458.957 323.402 458.056C324.271 456.543 325.349 455.216 326.748 454.153C327.713 453.42 328.986 453.565 329.751 454.479C330.493 455.365 330.425 456.636 329.516 457.4C328.449 458.297 327.705 459.398 327.023 460.593C326.364 461.746 325.592 462.858 324.728 463.87C323.445 465.372 321.789 466.051 319.962 466.044Z" fill="white"/>
<path d="M320.103 487.731C318.138 487.713 316.602 487.008 315.408 485.691C314.635 484.839 313.992 483.868 313.333 482.921C312.712 482.029 312.201 481.059 311.545 480.195C310.364 478.638 309.045 478.642 307.865 480.208C307.225 481.056 306.74 482.015 306.129 482.887C305.416 483.905 304.744 484.98 303.874 485.858C301.407 488.35 297.665 488.406 295.137 485.97C294.201 485.068 293.484 483.936 292.722 482.869C292.091 481.985 291.603 481 290.943 480.139C289.8 478.649 288.48 478.656 287.348 480.156C286.681 481.04 286.171 482.037 285.539 482.949C284.871 483.916 284.238 484.934 283.421 485.769C280.817 488.433 276.902 488.431 274.34 485.727C273.383 484.718 272.616 483.508 271.901 482.308C271.208 481.147 270.46 480.068 269.412 479.191C268.63 478.537 268.427 477.551 268.814 476.67C269.198 475.796 270.099 475.262 271.094 475.404C271.459 475.456 271.842 475.632 272.138 475.853C273.547 476.903 274.619 478.238 275.486 479.753C276.013 480.674 276.56 481.599 277.219 482.429C278.273 483.757 279.549 483.75 280.586 482.42C281.267 481.546 281.788 480.555 282.425 479.647C283.138 478.628 283.799 477.547 284.661 476.661C287.184 474.066 290.966 474.02 293.54 476.561C294.435 477.444 295.121 478.539 295.855 479.57C296.433 480.382 296.892 481.277 297.484 482.077C298.801 483.86 300.118 483.854 301.405 482.063C301.999 481.236 302.46 480.316 303.056 479.491C303.835 478.411 304.569 477.257 305.535 476.357C307.926 474.128 311.391 474.112 313.801 476.326C314.789 477.234 315.54 478.405 316.339 479.499C317.02 480.431 317.554 481.47 318.263 482.378C319.342 483.761 320.576 483.763 321.665 482.392C322.311 481.579 322.865 480.686 323.38 479.784C324.234 478.288 325.29 476.974 326.656 475.907C327.594 475.174 328.751 475.247 329.557 476.085C330.332 476.89 330.427 478.227 329.59 478.961C328.289 480.101 327.512 481.566 326.601 482.973C325.809 484.195 324.855 485.346 323.814 486.372C322.794 487.379 321.409 487.722 320.103 487.731Z" fill="white"/>
<path d="M303.954 495.334L300.681 500.299L304.205 505.016L307.479 500.299L303.954 495.334Z" fill="white"/>
<path d="M285.024 433.266L280.947 439.45L285.337 445.324L289.414 439.45L285.024 433.266Z" fill="white"/>
<path d="M317.843 434.167L315.21 438.16L318.045 441.954L320.678 438.16L317.843 434.167Z" fill="white"/>
<path d="M234.224 521.12C236.648 521.12 238.088 519.536 238.088 516.98C238.088 514.436 236.648 512.84 234.224 512.84C231.8 512.84 230.36 514.436 230.36 516.98C230.36 519.536 231.8 521.12 234.224 521.12ZM234.224 519.872C232.508 519.872 231.728 518.984 231.728 516.98C231.728 514.976 232.508 514.088 234.224 514.088C235.94 514.088 236.708 514.976 236.708 516.98C236.708 518.984 235.94 519.872 234.224 519.872ZM247.989 521V519.836H244.545L242.601 519.968C242.601 519.056 242.973 518.672 244.053 518.3L245.745 517.784C247.161 517.352 248.013 516.656 248.013 515.336C248.013 513.92 247.053 512.84 244.773 512.84C242.265 512.84 241.245 514.184 241.245 515.672V515.792H242.517V515.648C242.517 514.592 243.117 514.028 244.725 514.028C246.165 514.028 246.717 514.46 246.717 515.312C246.717 516.02 246.381 516.344 245.421 516.692L243.501 517.352C241.845 517.916 241.257 518.66 241.257 520.148V521H247.989Z" fill="#5FDDF9"/>
<defs>
<linearGradient id="paint0_linear_3753_1533" x1="381.21" y1="88.4934" x2="496.34" y2="88.4934" gradientUnits="userSpaceOnUse">
<stop stop-color="#194A90"/>
<stop offset="0.2471" stop-color="#1B4D92"/>
<stop offset="0.4137" stop-color="#225699"/>
<stop offset="0.5567" stop-color="#2E65A4"/>
<stop offset="0.6863" stop-color="#3E7AB4"/>
<stop offset="0.8069" stop-color="#5496C9"/>
<stop offset="0.9192" stop-color="#6DB8E2"/>
<stop offset="1" stop-color="#84D5F8"/>
</linearGradient>
<linearGradient id="paint1_linear_3753_1533" x1="247.125" y1="454.493" x2="364.71" y2="454.493" gradientUnits="userSpaceOnUse">
<stop stop-color="#194A90"/>
<stop offset="0.2471" stop-color="#1B4D92"/>
<stop offset="0.4137" stop-color="#225699"/>
<stop offset="0.5567" stop-color="#2E65A4"/>
<stop offset="0.6863" stop-color="#3E7AB4"/>
<stop offset="0.8069" stop-color="#5496C9"/>
<stop offset="0.9192" stop-color="#6DB8E2"/>
<stop offset="1" stop-color="#84D5F8"/>
</linearGradient>
</defs>
</svg>
