<svg width="550" height="550" viewBox="0 0 550 550" fill="none" xmlns="http://www.w3.org/2000/svg">
<path d="M214.06 352.698L209.434 359.815L214.416 366.578L219.043 359.815L214.06 352.698Z" fill="#E3EFF6"/>
<path d="M358.584 352.698L353.957 359.815L358.94 366.578L363.566 359.815L358.584 352.698Z" fill="#E3EFF6"/>
<path d="M303.94 373.666C303.411 374.001 302.854 374.307 302.269 374.558C300.988 375.087 299.624 375.365 298.232 375.365C296.839 375.365 295.475 375.087 294.221 374.558C292.968 374.029 291.882 373.277 290.936 372.33C289.988 371.383 289.237 370.297 288.707 369.044C288.178 367.791 287.9 366.426 287.9 365.033C287.9 363.641 288.178 362.277 288.707 360.995C289.237 359.77 289.988 358.657 290.936 357.71C291.882 356.763 292.968 356.011 294.221 355.51C295.475 354.953 296.839 354.702 298.232 354.702C299.624 354.702 300.988 354.953 302.269 355.51C302.409 355.566 302.576 355.649 302.715 355.705V359.52C301.462 358.49 299.902 357.933 298.232 357.933C296.338 357.933 294.556 358.657 293.219 360.021C291.882 361.357 291.13 363.14 291.13 365.033C291.13 366.928 291.882 368.71 293.219 370.046C294.556 371.383 296.338 372.135 298.232 372.135C300.125 372.135 301.907 371.383 303.244 370.046C303.495 369.796 303.718 369.545 303.94 369.266V373.666Z" fill="#A794D0"/>
<path d="M321.986 363.112H329.533V366.036H321.986V372.441H331.148V375.365H321.958H318.756V354.702H321.958H331.148V357.598H321.986V363.112Z" fill="#A794D0"/>
<path d="M276.618 380.658C277.862 380.658 279.245 380.382 280.351 379.759L272.538 387.71C272.538 387.71 264.034 381.971 256.359 381.971C248.892 381.971 243.638 384.737 243.638 388.886C243.638 391.444 245.573 392.066 247.371 392.066C249.031 392.066 250.621 391.582 250.621 391.582C250.621 391.582 248.477 392.826 246.196 392.826C244.329 392.826 241.218 391.651 241.218 387.295C241.218 382.594 245.781 376.44 256.359 376.44C260.508 376.44 265.624 377.408 271.709 379.759C271.709 379.759 274.059 380.658 276.618 380.658ZM262.928 345.534C260.024 341.732 254.423 339.174 249.998 339.174C246.472 339.174 243.569 340.833 243.569 344.843C243.569 353.832 251.519 354.039 251.658 354.039C250.897 354.384 250.068 354.523 249.307 354.523C245.159 354.523 241.287 350.444 241.287 345.811C241.287 340.487 247.855 335.164 255.046 335.164C262.582 335.164 269.012 339.934 269.012 339.934L262.928 345.534ZM265.97 344.636C265.417 345.258 261.268 349.268 261.268 352.31L261.199 352.518C261.061 352.794 260.992 353.071 260.992 353.278L260.923 353.486V353.693C260.854 353.832 260.784 354.246 260.784 354.315V354.523L260.715 355.353V355.975C260.715 356.874 260.784 357.773 260.992 358.602C260.992 358.671 261.614 359.708 261.614 360.953C262.375 363.303 264.311 366.83 265.002 368.904C265.002 370.978 265.417 369.042 265.417 372.084C265.417 372.084 265.417 371.946 265.486 371.669C265.486 369.111 263.273 366.276 261.891 360.814C261.891 360.469 260.923 361.022 260.923 355.974V355.352V354.938L260.992 354.315C260.992 354.246 260.992 353.97 261.13 353.762V353.624L261.199 353.347C261.199 353.14 261.338 352.656 261.407 352.586V352.379C261.476 352.31 261.476 352.241 261.476 352.172C263.066 347.332 269.635 340.625 269.911 340.902C269.911 340.902 268.113 342.216 265.97 344.636ZM272.262 344.636C272.262 347.055 273.575 350.72 274.889 358.464C275.027 359.57 275.166 360.607 275.166 361.575C275.166 371.324 266.869 375.541 266.869 375.541C267.422 374.089 267.698 372.776 267.698 371.6C267.698 366.83 263.758 363.857 262.928 355.905C262.859 355.491 262.859 355.145 262.859 354.799C262.859 345.673 273.714 341.386 273.714 341.386C272.676 342.423 272.262 343.322 272.262 344.636Z" fill="#A794D0"/>
<path d="M278.477 294.267C278.209 294.516 277.876 294.412 277.579 294.397C276.315 294.336 275.04 294.576 273.785 294.267C273.388 291.914 272.999 289.561 272.59 287.211C271.933 283.436 271.25 279.665 270.601 275.89C269.94 272.042 269.314 268.188 268.66 264.339C268.051 260.752 267.424 257.169 266.806 253.584H285.458C285.142 255.436 284.826 257.289 284.509 259.141C284.05 261.825 283.589 264.509 283.129 267.193C282.611 270.209 282.094 273.225 281.577 276.241C281.075 279.163 280.572 282.084 280.069 285.006C279.539 288.092 279.008 291.179 278.477 294.267Z" fill="#C5BAE3"/>
<path d="M288.965 272.413C289.767 271.361 290.309 270.153 291 269.034C291.503 268.22 291.974 267.385 292.459 266.56C292.655 266.734 292.673 266.987 292.738 267.214C293.371 269.419 294.013 271.621 294.611 273.835C294.768 274.416 294.918 274.542 295.505 274.244C300.352 271.79 305.217 269.371 310.074 266.938C310.287 266.832 310.535 266.773 310.683 266.56C310.879 266.56 310.977 266.659 310.979 266.855C310.942 266.886 310.89 266.909 310.871 266.949C308.326 272.071 305.785 277.196 303.239 282.318C303.045 282.708 303.218 282.806 303.574 282.903C304.856 283.253 306.119 283.674 307.406 284C308.598 284.301 309.743 284.781 310.974 284.931C310.783 285.596 310.108 285.66 309.64 285.931C304.893 288.684 300.121 291.396 295.354 294.116C295.082 294.271 294.809 294.413 294.471 294.41C292.338 294.392 290.205 294.388 288.073 294.38C288.101 294.119 288.343 294.046 288.506 293.92C292.023 291.202 295.545 288.491 299.068 285.783C300.14 284.958 301.231 284.156 302.29 283.315C302.573 283.091 303.037 282.872 302.517 282.358C300.045 279.921 297.598 277.458 295.146 274.999C294.887 274.74 294.737 274.699 294.475 275.044C291.415 279.06 288.348 283.071 285.251 287.057C284.576 287.926 284.009 288.891 283.147 289.608C283.141 287.429 283.137 285.25 283.127 283.07C283.126 282.845 283.17 282.638 283.282 282.445C284.454 280.419 285.649 278.404 286.795 276.361C287.477 275.144 288.267 273.984 288.815 272.692L288.961 272.539C288.965 272.496 288.966 272.455 288.965 272.413Z" fill="#C5BAE3"/>
<path d="M285.458 253.584H266.806C266.797 253.539 266.792 253.493 266.79 253.447C267.7 250.973 268.434 248.441 269.24 245.933C270.994 240.476 272.763 235.026 274.492 229.561C275.001 227.951 275.599 226.366 275.976 224.715C276.08 224.574 276.184 224.574 276.288 224.715C276.236 224.996 276.377 225.239 276.457 225.488C277.543 228.9 278.64 232.31 279.732 235.72C281.361 240.814 282.979 245.911 284.626 250.999C284.877 251.774 285.04 252.588 285.472 253.299C285.467 253.394 285.462 253.489 285.458 253.584Z" fill="#A794D0"/>
<path d="M285.457 253.584C285.462 253.489 285.466 253.394 285.471 253.299C285.81 253.291 285.964 253.011 286.164 252.812C288.761 250.223 291.352 247.627 293.949 245.037C294.15 244.837 294.309 244.565 294.641 244.544C294.563 245.972 294.134 247.337 293.85 248.725C292.679 254.456 291.463 260.178 290.261 265.902C289.86 267.811 289.459 269.719 289.039 271.623C288.98 271.89 288.965 272.148 288.965 272.413C288.966 272.455 288.965 272.497 288.961 272.539L288.814 272.692C288.266 273.984 287.477 275.144 286.794 276.362C285.648 278.404 284.454 280.419 283.281 282.445C283.169 282.638 283.125 282.845 283.126 283.07C283.137 285.25 283.141 287.429 283.147 289.608C283.126 289.846 283.322 289.972 283.424 290.147C282.838 290.958 281.951 291.436 281.237 292.107C280.505 292.796 279.687 293.392 278.912 294.035C278.779 294.144 278.659 294.259 278.477 294.266C279.007 291.18 279.538 288.093 280.069 285.006C280.571 282.084 281.074 279.163 281.576 276.241C282.094 273.225 282.61 270.209 283.128 267.193C283.588 264.509 284.049 261.825 284.508 259.141C284.826 257.289 285.141 255.436 285.457 253.584Z" fill="#E3EFF6"/>
<path d="M268.839 290.16C268.924 290.274 268.991 290.412 269.098 290.501C270.09 291.328 271.085 292.153 272.09 292.966C272.644 293.413 273.112 293.974 273.785 294.267C273.387 291.915 272.999 289.561 272.59 287.211C271.932 283.436 271.249 279.666 270.6 275.89C269.94 272.042 269.314 268.188 268.66 264.339C268.05 260.752 267.424 257.169 266.805 253.584C266.797 253.539 266.791 253.493 266.79 253.447C265.338 252.016 263.883 250.59 262.436 249.154C261.058 247.786 259.69 246.406 258.312 245.037C258.111 244.837 257.953 244.564 257.62 244.544C257.665 245.563 257.971 246.532 258.18 247.52C259.388 253.245 260.587 258.971 261.78 264.698C262.295 267.172 262.79 269.65 263.295 272.126C263.278 272.373 263.318 272.605 263.445 272.824L268.839 290.16Z" fill="#E3EFF6"/>
<path d="M266.789 253.447C265.338 252.017 263.883 250.59 262.436 249.154C261.058 247.786 259.69 246.406 258.312 245.037C258.111 244.837 257.953 244.564 257.62 244.544C257.387 244.249 257.59 244.073 257.785 243.874C258.58 243.06 259.366 242.24 260.138 241.404C262.224 239.146 264.376 236.95 266.49 234.718C268.836 232.241 271.187 229.769 273.496 227.259C274.3 226.386 275.088 225.504 275.975 224.716C275.598 226.367 275 227.951 274.491 229.561C272.762 235.026 270.993 240.477 269.239 245.933C268.433 248.441 267.699 250.973 266.789 253.447Z" fill="#C5BAE3"/>
<path d="M294.642 244.544C294.309 244.565 294.15 244.837 293.95 245.038C291.353 247.627 288.762 250.223 286.165 252.812C285.965 253.011 285.811 253.291 285.472 253.299C285.04 252.588 284.877 251.774 284.626 250.999C282.979 245.911 281.361 240.814 279.731 235.72C278.64 232.31 277.543 228.901 276.457 225.488C276.377 225.239 276.235 224.996 276.288 224.715C277.928 226.189 279.349 227.872 280.849 229.48C281.739 230.436 282.659 231.362 283.544 232.324C285.608 234.567 287.759 236.73 289.837 238.959C291.322 240.551 292.773 242.174 294.317 243.708C294.561 243.95 294.697 244.202 294.642 244.544Z" fill="#C5BAE3"/>
<path d="M283.425 290.147C283.322 289.973 283.126 289.846 283.147 289.608C284.008 288.891 284.576 287.926 285.251 287.057C288.348 283.071 291.415 279.06 294.475 275.044C294.738 274.699 294.887 274.74 295.146 274.999C297.597 277.458 300.045 279.921 302.517 282.359C303.037 282.872 302.573 283.091 302.29 283.316C301.231 284.156 300.14 284.958 299.068 285.783C295.544 288.492 292.023 291.203 288.506 293.92C288.343 294.046 288.101 294.119 288.073 294.38C287.685 294.488 287.506 294.186 287.29 293.972C285.999 292.699 284.713 291.422 283.425 290.147Z" fill="#A794D0"/>
<path d="M310.683 266.56C310.535 266.774 310.287 266.832 310.075 266.939C305.218 269.372 300.352 271.79 295.506 274.245C294.918 274.542 294.768 274.416 294.611 273.835C294.014 271.621 293.372 269.419 292.739 267.214C292.674 266.988 292.655 266.734 292.46 266.56C292.676 266.324 292.96 266.421 293.215 266.421C298.786 266.416 304.357 266.416 309.928 266.421C310.183 266.421 310.467 266.325 310.683 266.56Z" fill="#C5BAE3"/>
<path d="M310.974 284.931C309.743 284.782 308.598 284.301 307.406 284C306.119 283.675 304.856 283.253 303.574 282.903C303.218 282.806 303.045 282.709 303.239 282.318C305.785 277.196 308.326 272.072 310.871 266.949C310.891 266.91 310.942 266.886 310.979 266.855C311.213 267.072 311.116 267.356 311.117 267.61C311.122 273.133 311.122 278.656 311.117 284.179C311.116 284.433 311.214 284.718 310.974 284.931Z" fill="#E3EFF6"/>
<path d="M308.854 226.781L302.697 236.253L309.327 245.251L315.484 236.253L308.854 226.781Z" fill="#A794D0"/>
</svg>
