<svg width="550" height="550" viewBox="0 0 550 550" fill="none" xmlns="http://www.w3.org/2000/svg">
<mask id="mask0_3753_2341" style="mask-type:luminance" maskUnits="userSpaceOnUse" x="426" y="141" width="118" height="133">
<path d="M492.21 144.873C497.022 146.39 501.644 148.442 505.987 150.97C510.322 153.505 514.446 156.433 518.142 159.805C521.849 163.168 525.079 167.032 527.966 171.134C530.828 175.246 533.281 179.619 535.086 184.266C535.988 186.574 536.827 189.001 537.499 191.352C538.153 193.743 538.661 196.178 539.008 198.639C539.361 201.099 539.572 203.583 539.664 206.077C539.762 208.621 539.787 211.034 539.571 213.505C539.173 218.455 538.179 223.276 536.611 228C535.118 232.734 533.08 237.154 530.416 241.292C528.886 243.682 527.216 245.98 525.406 248.13C530.432 239.923 533.338 230.258 533.338 219.908C533.338 190.168 509.398 166.059 479.866 166.059C450.334 166.059 426.394 190.168 426.394 219.908C426.394 249.647 450.334 273.756 479.866 273.756C480.725 273.756 481.578 273.732 482.428 273.691C487.461 273.698 492.449 272.914 497.213 271.71C507.576 269.16 516.937 263.398 524.466 256.13C528.292 252.39 531.468 248.15 534.196 243.675C536.935 239.195 539.122 234.253 540.519 229.217C546.667 209.027 542.227 186.329 529.754 169.822C526.665 165.707 523.215 161.83 519.292 158.487C515.377 155.139 511.1 152.279 506.596 149.859C502.073 147.472 497.295 145.589 492.388 144.264C487.487 142.914 482.457 142.058 477.403 141.775C482.441 142.269 487.407 143.331 492.21 144.873Z" fill="white"/>
</mask>
<g mask="url(#mask0_3753_2341)">
<path d="M546.667 141.775H426.395V273.756H546.667V141.775Z" fill="url(#paint0_linear_3753_2341)"/>
</g>
<path d="M423.241 194.415C423.285 194.672 423.313 194.937 423.316 195.202C423.313 195.781 423.203 196.352 422.98 196.889C422.757 197.425 422.433 197.907 422.03 198.305C421.627 198.703 421.165 199 420.652 199.213C420.138 199.426 419.602 199.541 419.038 199.543C418.473 199.545 417.907 199.433 417.374 199.209C416.84 198.985 416.363 198.658 415.957 198.248C415.572 197.846 415.266 197.378 415.055 196.86C414.844 196.342 414.73 195.803 414.738 195.239C414.725 194.666 414.847 194.1 415.07 193.563C415.292 193.026 415.607 192.541 416.025 192.137C416.068 192.092 416.126 192.041 416.17 191.996L417.63 192.61C417.036 192.928 416.574 193.439 416.306 194.084C416.004 194.813 415.996 195.617 416.305 196.351C416.603 197.082 417.165 197.659 417.89 197.964C418.615 198.268 419.417 198.265 420.142 197.965C420.867 197.665 421.441 197.099 421.743 196.369C422.045 195.639 422.043 194.831 421.744 194.1C421.689 193.963 421.629 193.837 421.558 193.706L423.241 194.415Z" fill="#A794D0"/>
<path d="M428.504 186.243L427.748 187.562L424.158 187.986L423.666 188.842L426.176 190.302L425.507 191.47L418.085 187.154L418.651 186.167L419.356 184.938C419.922 183.951 420.652 183.609 421.165 183.505C421.82 183.362 422.541 183.5 423.231 183.902C423.912 184.297 424.391 184.857 424.596 185.501C424.691 185.798 424.76 186.214 424.668 186.698L428.504 186.243ZM423.227 187.19C423.504 186.706 423.572 186.262 423.444 185.879C423.306 185.422 422.915 185.128 422.625 184.959C422.326 184.784 421.876 184.59 421.414 184.698C421.021 184.778 420.683 185.065 420.406 185.549L419.805 186.597L422.625 188.237L423.227 187.19Z" fill="#A794D0"/>
<path d="M428.637 178.336L432.204 181.072L431.392 182.146L427.825 179.41L422.744 179.331L423.618 178.174L427.404 178.239L426.336 174.582L427.203 173.434L428.637 178.336Z" fill="#A794D0"/>
<path d="M436.742 175.309C436.215 175.511 435.674 175.598 435.118 175.586C434.563 175.574 434.026 175.463 433.508 175.238C432.99 175.012 432.515 174.681 432.116 174.261C431.716 173.841 431.408 173.348 431.2 172.809C431.007 172.287 430.92 171.741 430.925 171.174C430.937 170.614 431.054 170.082 431.278 169.561C431.502 169.038 431.831 168.561 432.248 168.158C432.665 167.756 433.154 167.446 433.69 167.236C434.209 167.041 434.743 166.946 435.307 166.95C435.869 166.97 436.398 167.089 436.908 167.307C437.435 167.54 437.909 167.872 438.309 168.292C438.708 168.712 439.016 169.204 439.217 169.735C439.417 170.266 439.512 170.803 439.5 171.363C439.48 171.93 439.37 172.471 439.155 172.984C438.922 173.514 438.593 173.992 438.175 174.394C437.759 174.797 437.27 175.107 436.742 175.309ZM432.271 171.211C432.255 172.001 432.54 172.756 433.084 173.328C433.627 173.899 434.363 174.22 435.148 174.237C435.931 174.254 436.682 173.966 437.249 173.419C437.816 172.872 438.136 172.131 438.152 171.341C438.169 170.551 437.884 169.796 437.341 169.225C436.797 168.653 436.06 168.333 435.276 168.315C434.492 168.298 433.742 168.586 433.175 169.133C432.607 169.68 432.289 170.422 432.271 171.211Z" fill="#A794D0"/>
<path d="M448.067 166.795L443.118 165.326L445.198 168.627L444.066 169.351L439.473 162.059L440.605 161.337L442.499 164.343L442.927 159.853L444.352 158.942L443.907 164.146L449.482 165.891L448.067 166.795Z" fill="#A794D0"/>
<path d="M453.849 163.863L450.352 155.981L449.128 156.532L452.625 164.414L453.849 163.863Z" fill="#A794D0"/>
<path d="M457.177 156.67L458.653 162.016L457.362 162.378L454.957 153.668L461.726 157.944L460.251 152.607L461.555 152.243L463.956 160.942L457.177 156.67Z" fill="#A794D0"/>
<path d="M468.386 154.721L471.502 154.4L471.624 155.615L468.509 155.937L468.78 158.6L472.563 158.21L472.686 159.426L468.892 159.817L467.569 159.953L466.696 151.361L468.019 151.225L471.814 150.834L471.935 152.039L468.152 152.428L468.386 154.721Z" fill="#A794D0"/>
<path d="M480.908 157.73C480.641 158.561 479.873 159.202 478.932 159.362C478.759 159.392 478.586 159.399 478.412 159.395C478.065 159.385 477.721 159.317 477.402 159.18C476.865 158.944 476.401 158.57 476.012 158.035L477.097 157.228C477.331 157.561 477.612 157.801 477.921 157.926C478.172 158.038 478.448 158.069 478.705 158.018C479.145 157.949 479.51 157.668 479.625 157.322C479.751 156.93 479.495 156.574 479.259 156.334C478.888 155.963 478.281 155.33 478.236 155.282L477.214 154.253C476.898 153.93 476.688 153.575 476.584 153.2C476.478 152.836 476.477 152.452 476.591 152.106C476.704 151.737 476.933 151.417 477.252 151.159C477.547 150.923 477.91 150.758 478.293 150.699C478.711 150.618 479.149 150.665 479.561 150.828C479.994 151.014 480.379 151.316 480.703 151.732L479.628 152.552C479.204 152.004 478.754 151.992 478.511 152.032C478.208 152.081 477.949 152.272 477.874 152.515C477.823 152.676 477.827 152.943 478.175 153.302L479.568 154.726C479.77 154.941 480.018 155.192 480.198 155.371C480.558 155.719 480.801 156.11 480.917 156.521C481.034 156.919 481.034 157.338 480.908 157.73Z" fill="#A794D0"/>
<path d="M484.391 159.797L485.375 151.219L486.707 151.375L485.721 159.952L484.391 159.797Z" fill="#A794D0"/>
<path d="M494.35 159.671C493.952 160.447 493.09 160.953 492.136 160.955C491.959 160.956 491.787 160.934 491.617 160.9C491.277 160.834 490.948 160.71 490.655 160.522C490.164 160.2 489.767 159.755 489.47 159.163L490.673 158.546C490.849 158.913 491.088 159.196 491.371 159.371C491.601 159.523 491.869 159.599 492.13 159.591C492.576 159.596 492.983 159.379 493.151 159.056C493.339 158.691 493.146 158.297 492.952 158.022C492.646 157.594 492.151 156.869 492.115 156.814L491.273 155.63C491.015 155.259 490.866 154.874 490.823 154.487C490.779 154.11 490.84 153.731 491.008 153.409C491.181 153.064 491.458 152.786 491.816 152.584C492.146 152.4 492.53 152.297 492.918 152.303C493.343 152.291 493.767 152.41 494.146 152.638C494.545 152.894 494.875 153.256 495.127 153.72L493.933 154.35C493.604 153.741 493.161 153.654 492.914 153.653C492.608 153.652 492.322 153.797 492.207 154.024C492.131 154.175 492.092 154.44 492.377 154.851L493.52 156.486C493.684 156.731 493.887 157.02 494.036 157.227C494.334 157.629 494.51 158.055 494.557 158.48C494.607 158.892 494.539 159.306 494.35 159.671Z" fill="#A794D0"/>
<path d="M453.151 240.148C454.845 239.202 456.544 238.265 458.222 237.293C458.381 237.202 458.448 236.899 458.5 236.68C458.871 235.113 459.117 233.506 459.615 231.981C460.357 229.705 461.759 227.822 463.567 226.269C465.733 224.409 466.946 222.062 467.285 219.225C467.711 215.666 468.167 212.111 468.614 208.523C471.764 208.452 474.518 209.317 476.631 211.766C478.413 213.829 479.142 216.242 478.872 218.958C478.589 221.811 478.278 224.663 478.016 227.518C477.981 227.901 478.091 228.341 478.263 228.69C478.684 229.543 479.18 230.357 479.672 231.232C480.884 230.155 482.067 229.107 483.245 228.054C484.751 226.707 486.26 225.362 487.752 223.999C487.958 223.811 488.134 223.539 488.217 223.273C488.704 221.714 489.157 220.145 489.625 218.581C491.096 213.673 496.083 211.245 500.822 213.129C501.244 213.297 501.663 213.476 502.122 213.665C502.055 214.05 501.989 214.43 501.929 214.776C502.871 214.675 503.78 214.523 504.693 214.491C506.046 214.443 507.305 214.864 508.518 215.439C508.763 215.555 509.029 215.627 509.285 215.72C509.304 215.754 509.324 215.789 509.343 215.824C509.299 215.954 509.249 216.084 509.211 216.216C507.789 221.214 506.361 226.211 504.957 231.214C504.819 231.703 504.572 232.049 504.192 232.364C500.426 235.488 496.656 238.609 492.916 241.765C491.079 243.315 489.168 244.723 487.064 245.905C479.514 250.144 472.007 254.46 464.482 258.746C464.26 258.873 464.025 258.978 463.796 259.093C460.248 252.778 456.7 246.463 453.151 240.148ZM504.918 218.129C503.329 217.777 501.083 218.955 500.499 220.531C499.696 222.696 498.967 224.889 498.192 227.065C498.103 227.316 497.966 227.589 497.771 227.756C494.651 230.42 491.52 233.072 488.379 235.713C488.168 235.891 487.866 236.026 487.593 236.055C484.803 236.349 482.009 236.61 479.219 236.9C478.831 236.94 478.619 236.853 478.425 236.491C477.145 234.106 475.83 231.741 474.554 229.354C474.398 229.063 474.317 228.675 474.348 228.346C474.653 225.134 474.982 221.924 475.318 218.714C475.441 217.536 475.303 216.404 474.763 215.346C474.101 214.048 473.118 213.098 471.706 212.554C471.382 215.128 471.088 217.64 470.744 220.145C470.267 223.621 468.706 226.525 466.066 228.817C464.037 230.579 462.781 232.762 462.347 235.428C462.168 236.529 461.929 237.621 461.774 238.725C461.694 239.292 461.462 239.641 460.946 239.905C459.965 240.407 459.021 240.985 458.063 241.531C460.459 245.794 462.813 249.985 465.193 254.22C465.393 254.106 465.562 254.01 465.731 253.913C472.965 249.791 480.2 245.669 487.432 241.544C487.672 241.408 487.914 241.263 488.126 241.087C492.499 237.449 496.871 233.81 501.228 230.153C501.479 229.942 501.68 229.6 501.773 229.28C502.644 226.298 503.488 223.307 504.334 220.317C504.54 219.591 504.725 218.859 504.918 218.129ZM483.36 232.742C483.378 232.785 483.396 232.827 483.413 232.87C484.314 232.784 485.217 232.72 486.113 232.598C486.406 232.558 486.727 232.424 486.953 232.234C489.499 230.093 492.034 227.938 494.556 225.768C494.808 225.551 495.02 225.23 495.131 224.915C495.794 223.04 496.432 221.156 497.057 219.267C497.397 218.238 497.694 217.194 498.028 216.102C497.761 216.084 497.628 216.065 497.495 216.068C495.457 216.105 493.714 217.443 493.071 219.513C492.481 221.413 491.939 223.329 491.352 225.23C491.264 225.517 491.091 225.812 490.875 226.016C490.128 226.724 489.342 227.392 488.574 228.078C486.836 229.632 485.098 231.187 483.36 232.742Z" fill="#001D35"/>
<path d="M484.82 208.11C484.709 208.214 484.571 208.171 484.447 208.165C483.923 208.14 483.394 208.24 482.874 208.11C482.709 207.128 482.548 206.145 482.378 205.164C482.106 203.587 481.823 202.013 481.554 200.436C481.279 198.828 481.02 197.219 480.749 195.611C480.496 194.114 480.236 192.617 479.979 191.12C482.558 191.12 485.136 191.12 487.715 191.12C487.584 191.893 487.453 192.667 487.322 193.441C487.131 194.562 486.94 195.682 486.749 196.803C486.534 198.063 486.32 199.323 486.105 200.582C485.897 201.802 485.689 203.023 485.481 204.243C485.26 205.532 485.04 206.821 484.82 208.11Z" fill="#001D35"/>
<path d="M491.456 208.481H491.45C490.787 208.475 490.125 208.473 489.462 208.47L488.455 208.467L488.493 208.123C488.518 207.89 488.691 207.783 488.765 207.737C490.248 206.585 491.71 205.452 493.171 204.321L493.655 203.951C493.939 203.734 494.224 203.517 494.503 203.293L494.504 203.293C493.577 202.367 492.676 201.457 491.776 200.547L491.615 200.384C490.362 202.039 489.123 203.669 487.872 205.29C487.799 205.384 487.729 205.483 487.659 205.581C487.455 205.865 487.245 206.159 486.954 206.403L486.45 206.826L486.439 203.436C486.438 203.28 486.473 203.143 486.545 203.017L486.995 202.238C487.334 201.654 487.672 201.07 488 200.481C488.088 200.323 488.18 200.168 488.272 200.012C488.478 199.663 488.673 199.334 488.823 198.979L488.857 198.913L488.857 198.894L488.924 198.795C489.122 198.534 489.279 198.247 489.446 197.943C489.545 197.763 489.644 197.584 489.75 197.409C489.896 197.172 490.035 196.93 490.175 196.688L490.542 196.056L490.823 196.307C490.96 196.429 490.995 196.579 491.018 196.678L491.159 197.18C491.375 197.934 491.591 198.688 491.794 199.444C493.178 198.74 494.565 198.042 495.952 197.343L497.868 196.382C497.891 196.372 497.923 196.358 497.932 196.35L498.025 196.217L498.176 196.228C498.427 196.228 498.605 196.406 498.607 196.66L498.608 196.802L498.503 196.894L495.442 203.101C495.642 203.159 495.817 203.212 495.993 203.265C496.292 203.355 496.591 203.445 496.892 203.522C497.071 203.568 497.248 203.622 497.425 203.677C497.736 203.774 498.031 203.866 498.334 203.904L498.693 203.947L498.593 204.298C498.494 204.644 498.215 204.76 498.031 204.837C497.985 204.856 497.94 204.874 497.9 204.898C496.248 205.862 494.589 206.814 492.931 207.766L491.972 208.318C491.864 208.379 491.685 208.481 491.456 208.481ZM489.632 207.85C490.24 207.852 490.848 207.855 491.455 207.86C491.514 207.866 491.568 207.834 491.667 207.778L492.626 207.227C494.277 206.279 495.929 205.33 497.573 204.371C497.461 204.338 497.351 204.304 497.242 204.27C497.076 204.219 496.91 204.167 496.742 204.124C496.431 204.045 496.124 203.953 495.817 203.86C495.594 203.792 495.371 203.726 495.147 203.664C495.123 203.657 495.093 203.649 495.059 203.637C495.011 203.688 494.96 203.726 494.922 203.754C494.604 204.006 494.316 204.226 494.027 204.446L493.547 204.814C492.241 205.825 490.936 206.836 489.632 207.85ZM489.368 199.274C489.205 199.649 489 199.995 488.801 200.33C488.712 200.481 488.623 200.632 488.538 200.784C488.208 201.377 487.868 201.964 487.529 202.551L487.079 203.329C487.067 203.349 487.056 203.376 487.056 203.433L487.062 205.351C487.094 205.307 487.126 205.263 487.159 205.217C487.233 205.114 487.307 205.01 487.384 204.909C488.67 203.245 489.941 201.571 491.209 199.894C491.226 199.872 491.245 199.847 491.267 199.824C491.241 199.762 491.225 199.703 491.213 199.658C491.006 198.887 490.787 198.119 490.567 197.352L490.546 197.279C490.457 197.432 490.368 197.584 490.275 197.735C490.174 197.902 490.08 198.073 489.986 198.243C489.83 198.527 489.67 198.819 489.472 199.094L489.463 199.175L489.368 199.274ZM492.093 199.988L492.212 200.108C493.106 201.011 493.999 201.914 494.898 202.809L497.679 197.17L496.228 197.899C494.848 198.593 493.469 199.287 492.093 199.988Z" fill="#001D35"/>
<path d="M484.451 208.436L487.41 191.046L487.423 190.756L487.714 190.69C487.686 190.699 487.708 190.668 487.724 190.65C487.747 190.625 487.768 190.6 487.791 190.577L491.019 187.33C491.137 187.199 491.269 187.049 491.505 187.034L491.851 187.013L491.832 187.361C491.807 187.812 491.706 188.242 491.609 188.657C491.57 188.822 491.532 188.987 491.498 189.153C491.123 190.999 490.737 192.844 490.352 194.688L490.009 196.328C489.843 197.127 489.676 197.925 489.502 198.72C489.486 198.795 489.478 198.874 489.478 198.984L489.464 199.175L489.368 199.275C489.206 199.649 489.001 199.995 488.802 200.33C488.713 200.481 488.624 200.632 488.539 200.784C488.209 201.377 487.869 201.964 487.529 202.551L487.079 203.329C487.068 203.349 487.056 203.376 487.057 203.433L487.065 206.131C487.099 206.174 487.12 206.202 487.137 206.232L487.24 206.407L487.122 206.572C486.941 206.824 486.715 206.999 486.497 207.169C486.387 207.254 486.277 207.34 486.176 207.435C485.968 207.632 485.744 207.811 485.519 207.991C485.412 208.078 485.303 208.164 485.197 208.253C485.117 208.32 485.006 208.414 484.832 208.421L484.451 208.436ZM488.011 191.221L485.252 207.412C485.424 207.274 485.594 207.134 485.754 206.982C485.869 206.873 485.995 206.775 486.12 206.678C486.252 206.575 486.379 206.476 486.487 206.366C486.459 206.302 486.442 206.226 486.45 206.136L486.44 203.436C486.439 203.28 486.474 203.143 486.546 203.018L486.996 202.238C487.334 201.654 487.672 201.07 488.001 200.481C488.088 200.323 488.18 200.168 488.272 200.012C488.479 199.663 488.674 199.334 488.823 198.979L488.863 198.908C488.866 198.808 488.874 198.701 488.899 198.587C489.074 197.793 489.239 196.997 489.405 196.201L489.748 194.56C490.133 192.717 490.519 190.874 490.893 189.028C490.928 188.857 490.969 188.686 491.009 188.515C491.039 188.384 491.069 188.257 491.096 188.13L488.226 191.018C488.165 191.085 488.098 191.163 488.011 191.221ZM487.065 206.157V206.164C487.066 206.162 487.066 206.16 487.065 206.157Z" fill="#001D35"/>
<path d="M483.272 208.623L482.751 208.396C482.507 208.289 482.322 208.119 482.159 207.97C482.099 207.914 482.04 207.859 481.976 207.808C481.559 207.469 481.145 207.122 480.733 206.777C480.667 206.72 480.626 206.659 480.597 206.614L480.528 206.488L478.3 199.277C478.24 199.159 478.211 199.029 478.214 198.888L478.033 197.991C477.888 197.269 477.743 196.547 477.594 195.825C477.099 193.434 476.601 191.042 476.1 188.652C476.077 188.543 476.051 188.435 476.026 188.326C475.953 188.018 475.877 187.698 475.862 187.358L475.847 187.013L476.189 187.034C476.424 187.049 476.557 187.198 476.635 187.287L478.385 189.049C478.794 189.459 479.206 189.867 479.618 190.275L480.277 190.929L480.281 191.053L480.491 192.275C480.679 193.37 480.868 194.464 481.053 195.56C481.173 196.273 481.29 196.987 481.408 197.7C481.556 198.595 481.705 199.489 481.857 200.383C482.011 201.288 482.17 202.192 482.329 203.097L482.682 205.111C482.798 205.783 482.91 206.456 483.022 207.129L483.272 208.623ZM481.103 206.259L481.113 206.273C481.538 206.643 481.949 206.987 482.365 207.326C482.39 207.346 482.415 207.368 482.441 207.39L482.414 207.231C482.302 206.56 482.19 205.888 482.074 205.217L481.722 203.205C481.563 202.3 481.403 201.394 481.249 200.488C481.096 199.593 480.948 198.698 480.8 197.802C480.683 197.09 480.565 196.377 480.444 195.664C480.259 194.569 480.071 193.475 479.883 192.381L479.681 191.21L479.185 190.717C478.773 190.309 478.361 189.9 477.95 189.49L476.619 188.152C476.621 188.161 476.623 188.171 476.626 188.182C476.652 188.295 476.679 188.409 476.703 188.523C477.204 190.914 477.702 193.306 478.197 195.698C478.347 196.421 478.492 197.145 478.638 197.868L478.834 198.843L478.831 198.885C478.827 198.945 478.839 198.976 478.852 198.999L478.88 199.063L481.103 206.259Z" fill="#001D35"/>
<path d="M479.973 191.063C479.371 190.465 478.767 189.869 478.168 189.27C477.596 188.698 477.029 188.122 476.457 187.551C476.374 187.467 476.308 187.353 476.17 187.345C476.074 187.221 476.158 187.148 476.238 187.064C476.568 186.725 476.894 186.382 477.214 186.033C478.079 185.09 478.972 184.173 479.849 183.241C480.822 182.206 481.797 181.174 482.755 180.126C483.088 179.761 483.414 179.393 483.783 179.063C483.626 179.753 483.378 180.415 483.167 181.087C482.45 183.369 481.716 185.646 480.989 187.925C480.655 188.972 480.35 190.03 479.973 191.063Z" fill="#001D35"/>
<path d="M491.523 187.344C491.385 187.353 491.319 187.467 491.236 187.55C490.159 188.632 489.084 189.716 488.007 190.797C487.924 190.881 487.86 190.998 487.72 191.001C487.541 190.704 487.473 190.364 487.369 190.04C486.686 187.916 486.015 185.786 485.339 183.659C484.887 182.235 484.432 180.811 483.981 179.386C483.948 179.282 483.889 179.18 483.911 179.063C484.592 179.678 485.181 180.381 485.802 181.053C486.172 181.452 486.554 181.839 486.92 182.241C487.776 183.177 488.668 184.081 489.53 185.012C490.146 185.677 490.748 186.355 491.388 186.995C491.489 187.096 491.546 187.202 491.523 187.344Z" fill="#001D35"/>
<path d="M486.872 206.39C486.829 206.317 486.748 206.264 486.756 206.165C487.114 205.866 487.349 205.463 487.629 205.1C488.914 203.435 490.185 201.76 491.454 200.083C491.563 199.938 491.625 199.955 491.733 200.064C492.749 201.091 493.765 202.119 494.79 203.137C495.006 203.352 494.813 203.443 494.696 203.537C494.257 203.888 493.804 204.223 493.359 204.567C491.898 205.699 490.438 206.831 488.979 207.966C488.912 208.018 488.811 208.049 488.8 208.158C488.639 208.203 488.565 208.077 488.475 207.987C487.94 207.456 487.406 206.923 486.872 206.39Z" fill="#001D35"/>
<path d="M498.176 196.539C498.114 196.629 498.012 196.653 497.923 196.697C495.909 197.714 493.891 198.724 491.881 199.749C491.638 199.873 491.575 199.82 491.51 199.578C491.263 198.653 490.996 197.733 490.734 196.813C490.707 196.718 490.699 196.612 490.618 196.539C490.708 196.441 490.826 196.481 490.931 196.481C493.242 196.479 495.552 196.479 497.863 196.481C497.968 196.481 498.086 196.441 498.176 196.539Z" fill="#001D35"/>
<path d="M498.297 204.212C497.787 204.149 497.312 203.949 496.817 203.823C496.284 203.687 495.76 203.511 495.228 203.365C495.081 203.324 495.009 203.283 495.089 203.121C496.145 200.981 497.199 198.841 498.254 196.702C498.263 196.685 498.284 196.675 498.299 196.663C498.396 196.753 498.356 196.872 498.356 196.978C498.359 199.284 498.359 201.591 498.356 203.897C498.356 204.004 498.397 204.123 498.297 204.212Z" fill="#001D35"/>
<path d="M489.106 199.102C489.127 199.08 489.148 199.058 489.169 199.036C489.148 199.058 489.127 199.08 489.106 199.102Z" fill="#001D35"/>
<path d="M497.418 179.926L494.864 183.882L497.614 187.64L500.167 183.882L497.418 179.926Z" fill="#001D35"/>
<g clip-path="url(#clip0_3753_2341)">
<mask id="mask1_3753_2341" style="mask-type:luminance" maskUnits="userSpaceOnUse" x="71" y="395" width="118" height="133">
<path d="M137.26 398.706C142.073 400.224 146.695 402.275 151.038 404.804C155.373 407.339 159.497 410.266 163.193 413.639C166.9 417.002 170.129 420.866 173.017 424.967C175.879 429.079 178.332 433.453 180.137 438.099C181.039 440.407 181.878 442.834 182.55 445.186C183.204 447.576 183.712 450.011 184.059 452.472C184.411 454.933 184.623 457.417 184.715 459.911C184.813 462.455 184.837 464.868 184.622 467.339C184.224 472.289 183.229 477.109 181.661 481.834C180.169 486.567 178.131 490.987 175.466 495.126C173.937 497.516 172.266 499.813 170.457 501.964C175.483 493.756 178.389 484.092 178.389 473.741C178.389 444.001 154.449 419.892 124.917 419.892C95.3845 419.892 71.4443 444.001 71.4443 473.741C71.4443 503.481 95.3845 527.59 124.917 527.59C125.776 527.59 126.629 527.565 127.479 527.525C132.512 527.531 137.499 526.748 142.264 525.544C152.627 522.994 161.988 517.231 169.516 509.964C173.343 506.223 176.519 501.983 179.246 497.508C181.986 493.028 184.173 488.087 185.57 483.05C191.717 462.861 187.278 440.163 174.805 423.655C171.715 419.541 168.266 415.664 164.343 412.32C160.427 408.973 156.151 406.112 151.646 403.693C147.124 401.305 142.345 399.423 137.438 398.098C132.538 396.748 127.507 395.892 122.453 395.609C127.492 396.102 132.458 397.165 137.26 398.706Z" fill="white"/>
</mask>
<g mask="url(#mask1_3753_2341)">
<path d="M94.1336 348.224L242.991 420.507L169.028 574.975L20.1709 502.692L94.1336 348.224Z" fill="url(#paint1_linear_3753_2341)"/>
</g>
<path d="M57.2359 469.768L57.3889 466.62L58.6005 466.679L58.4475 469.828L62.3117 470.018L62.2462 471.366L53.6865 470.943L53.7516 469.608L53.9383 465.762L55.1384 465.822L54.9518 469.655L57.2359 469.768Z" fill="#A794D0"/>
<path d="M63.9375 456.581L63.6718 458.082L60.4387 459.713L60.2665 460.687L63.1222 461.198L62.8872 462.527L54.4463 461.015L54.6444 459.893L54.8913 458.495C55.0894 457.373 55.6604 456.801 56.1079 456.527C56.6757 456.167 57.4007 456.049 58.1853 456.19C58.9591 456.329 59.5992 456.691 60.0094 457.225C60.2003 457.472 60.4055 457.84 60.4839 458.327L63.9375 456.581ZM59.2939 459.283C59.3909 458.733 59.3048 458.293 59.0555 457.976C58.7707 457.595 58.3027 457.451 57.9733 457.393C57.6319 457.332 57.1441 457.303 56.746 457.562C56.4041 457.773 56.183 458.159 56.0861 458.709L55.8754 459.9L59.0837 460.475L59.2939 459.283Z" fill="#A794D0"/>
<path d="M60.3104 450.704L61.2818 447.707L62.435 448.086L61.4629 451.083L63.9885 451.913L65.1683 448.275L66.3208 448.654L65.1382 452.303L64.7258 453.575L56.5781 450.896L56.9906 449.625L58.1738 445.975L59.3156 446.351L58.136 449.989L60.3104 450.704Z" fill="#A794D0"/>
<path d="M63.7903 441.792L65.2154 438.985L66.2955 439.541L64.87 442.348L67.2353 443.566L68.9662 440.158L70.0458 440.715L68.3104 444.132L67.7051 445.323L60.0742 441.393L60.6794 440.202L62.4149 436.784L63.4844 437.335L61.7543 440.742L63.7903 441.792Z" fill="#A794D0"/>
<path d="M71.5622 438.131L68.4561 430.195L66.3756 432.96L65.3066 432.144L68.8325 427.459L71.9394 435.395L74.5294 431.953L75.5975 432.769L71.5622 438.131Z" fill="#A794D0"/>
<path d="M75.7264 425.346L78.0364 423.217L78.8554 424.119L76.5454 426.248L78.3392 428.222L81.1444 425.638L81.9632 426.539L79.1498 429.131L78.1695 430.035L72.3818 423.665L73.3621 422.761L76.1757 420.169L76.9868 421.062L74.1818 423.646L75.7264 425.346Z" fill="#A794D0"/>
<path d="M92.9702 416.452C93.1732 416.831 93.2731 417.213 93.2749 417.609C93.2653 417.984 93.1636 418.356 92.9726 418.712C92.6294 419.321 92.0205 419.876 91.1667 420.341L90.4952 420.705L89.498 421.246L85.4277 413.646L86.608 413.005L87.0959 412.74C87.9299 412.287 88.6224 412.11 89.2198 412.195C89.5474 412.242 89.8406 412.374 90.09 412.569C90.3175 412.749 90.5108 412.988 90.6703 413.285C90.8896 413.694 91.0263 414.268 90.8264 414.998C90.992 415.014 91.1535 415.045 91.3202 415.087C91.6647 415.191 91.9693 415.342 92.2391 415.553C92.536 415.788 92.7782 416.093 92.9702 416.452ZM87.1783 414.071L88.4129 416.375C88.6194 416.197 88.8501 415.966 89.0542 415.709C89.3481 415.352 89.5497 415.018 89.6436 414.702C89.7473 414.381 89.7341 414.111 89.6022 413.865C89.4046 413.496 89.1957 413.424 89.0398 413.403C88.6399 413.343 88.063 413.59 87.6667 413.805L87.1783 414.071ZM91.9122 417.026C91.6984 416.627 91.3962 416.381 90.9945 416.268C90.7597 416.198 90.5006 416.18 90.2121 416.205C90.1321 416.301 90.0581 416.407 89.9678 416.509C89.6443 416.909 89.2817 417.239 89.0048 417.481L90.102 419.53L90.5904 419.265C91.2311 418.917 91.6893 418.523 91.9097 418.125C92.1158 417.749 92.1158 417.405 91.9122 417.026Z" fill="#A794D0"/>
<path d="M102.993 415.522L101.544 415.96L98.6408 413.789L97.7001 414.073L98.5341 416.87L97.2503 417.258L94.7861 408.99L95.8701 408.662L97.2201 408.254C98.3048 407.926 99.0683 408.181 99.5134 408.459C100.087 408.808 100.519 409.406 100.748 410.176C100.974 410.934 100.941 411.672 100.653 412.282C100.52 412.565 100.286 412.915 99.8902 413.205L102.993 415.522ZM98.506 412.566C99.0372 412.405 99.3889 412.129 99.5568 411.762C99.767 411.334 99.6827 410.85 99.5864 410.527C99.487 410.192 99.2925 409.741 98.883 409.5C98.5422 409.288 98.1002 409.263 97.569 409.424L96.4181 409.771L97.3552 412.914L98.506 412.566Z" fill="#A794D0"/>
<path d="M106.466 409.546L109.544 408.963L109.768 410.164L106.691 410.746L107.182 413.377L110.919 412.669L111.143 413.87L107.395 414.58L106.089 414.827L104.504 406.341L105.81 406.094L109.558 405.384L109.78 406.574L106.044 407.281L106.466 409.546Z" fill="#A794D0"/>
<path d="M119.272 411.138L116.231 411.381L115.651 413.283L114.177 413.4L117.188 404.104L121.605 412.808L120.142 412.925L119.272 411.138ZM118.693 409.97L117.45 407.432L116.62 410.136L118.693 409.97Z" fill="#A794D0"/>
<path d="M129.411 405.517L127.054 405.459L126.874 412.883L125.522 412.849L125.702 405.425L123.345 405.367L123.374 404.157L129.44 404.307L129.411 405.517Z" fill="#A794D0"/>
<path d="M138.547 414.189L137.223 413.977L137.804 410.299L134.426 409.758L133.845 413.435L132.521 413.223L133.868 404.695L135.192 404.907L134.617 408.551L137.995 409.092L138.571 405.448L139.894 405.66L138.547 414.189Z" fill="#A794D0"/>
<path d="M160.534 463.979C160.298 464.221 160.097 464.521 159.819 464.693C159.245 465.046 158.476 464.809 158.123 464.232C157.763 463.645 157.911 462.89 158.463 462.488C159.006 462.092 159.787 462.182 160.216 462.702C160.339 462.85 160.429 463.026 160.534 463.189L160.534 463.979Z" fill="#001D35"/>
<path d="M108.533 482.712C111.371 482.655 114.182 481.318 116.734 479.332C118.897 477.648 120.607 475.566 121.97 473.183C123.721 470.122 125.597 467.147 127.959 464.512C131.449 460.618 135.669 457.984 140.841 457.071C145.617 456.228 150.194 456.997 154.579 459.021C155.307 459.356 155.571 460.096 155.27 460.774C154.965 461.462 154.234 461.725 153.443 461.375C151.544 460.532 149.587 459.905 147.526 459.604C141.708 458.755 136.581 460.302 132.12 464.115C129.228 466.586 127.073 469.667 125.165 472.927C123.67 475.483 122.138 477.999 119.951 480.036C117.129 482.664 113.941 484.586 110.081 485.179C104.537 486.03 99.0076 483.235 96.361 478.217C94.2559 474.226 93.9127 470.148 96.1605 466.103C99.4411 460.2 107.249 458.448 112.451 462.397C116.003 465.093 116.991 469.598 115.289 473.728C114.984 474.469 114.258 474.765 113.573 474.486C112.904 474.214 112.589 473.496 112.879 472.736C113.448 471.249 113.723 469.733 113.301 468.17C112.504 465.226 110.455 463.606 107.583 463.077C101.616 461.98 96.4396 467.162 97.3864 473.207C98.241 478.665 102.848 482.764 108.533 482.712Z" fill="#001D35"/>
<path d="M119.405 505.29C114.565 505.279 111.035 502.65 110.049 498.732C108.876 494.072 112.409 489.792 117.128 490.156C119.47 490.337 121.53 492.09 122.084 494.373C122.293 495.237 121.936 495.929 121.173 496.141C120.462 496.338 119.831 495.926 119.559 495.088C118.958 493.237 117.37 492.377 115.508 492.893C113.154 493.545 111.923 495.885 112.647 498.335C113.373 500.797 115.696 502.547 118.459 502.639C121.465 502.738 123.872 501.533 125.641 499.088C127.371 496.698 128.274 493.947 128.766 491.084C129.309 487.914 129.68 484.713 130.086 481.52C130.554 477.84 131.085 474.175 132.701 470.788C134.988 465.992 138.6 462.779 143.818 461.558C144.428 461.415 145.066 461.363 145.693 461.329C146.518 461.285 147.079 461.773 147.138 462.514C147.197 463.268 146.678 463.784 145.835 463.953C144.626 464.195 143.367 464.351 142.244 464.821C138.137 466.539 135.656 469.765 134.264 473.931C133.306 476.796 132.916 479.769 132.581 482.753C132.089 487.127 131.692 491.518 130.241 495.716C129.557 497.694 128.652 499.558 127.332 501.191C125.147 503.893 122.278 505.177 119.405 505.29Z" fill="#001D35"/>
<path d="M99.0776 489.531L95.7715 494.654L99.3319 499.52L102.638 494.654L99.0776 489.531Z" fill="#001D35"/>
<path d="M122.797 441.786L117.529 449.947L123.203 457.701L128.471 449.947L122.797 441.786Z" fill="#001D35"/>
<path d="M147.676 474.181L143.301 480.959L148.012 487.399L152.387 480.959L147.676 474.181Z" fill="#001D35"/>
<path d="M57.224 531.12C59.648 531.12 61.088 529.536 61.088 526.98C61.088 524.436 59.648 522.84 57.224 522.84C54.8 522.84 53.36 524.436 53.36 526.98C53.36 529.536 54.8 531.12 57.224 531.12ZM57.224 529.872C55.508 529.872 54.728 528.984 54.728 526.98C54.728 524.976 55.508 524.088 57.224 524.088C58.94 524.088 59.708 524.976 59.708 526.98C59.708 528.984 58.94 529.872 57.224 529.872ZM67.2332 531V522.96H66.0932C65.7452 523.728 65.2412 523.956 64.3532 523.956H63.9692V524.88H65.9372V531H67.2332Z" fill="#5FDDF9"/>
</g>
<path d="M417.224 276.12C419.648 276.12 421.088 274.536 421.088 271.98C421.088 269.436 419.648 267.84 417.224 267.84C414.8 267.84 413.36 269.436 413.36 271.98C413.36 274.536 414.8 276.12 417.224 276.12ZM417.224 274.872C415.508 274.872 414.728 273.984 414.728 271.98C414.728 269.976 415.508 269.088 417.224 269.088C418.94 269.088 419.708 269.976 419.708 271.98C419.708 273.984 418.94 274.872 417.224 274.872ZM430.509 276V274.368H431.889V273.204H430.509V267.96H429.009L424.089 273.468V274.368H429.225V276H430.509ZM425.877 273.204V273.108L429.129 269.472H429.225V273.204H425.877Z" fill="#5FDDF9"/>
<defs>
<linearGradient id="paint0_linear_3753_2341" x1="426.411" y1="207.754" x2="543.279" y2="207.754" gradientUnits="userSpaceOnUse">
<stop stop-color="#E3EFF6"/>
<stop offset="0.0236" stop-color="#DAEBF5"/>
<stop offset="0.0881" stop-color="#C7E4F2"/>
<stop offset="0.1545" stop-color="#BCDFF1"/>
<stop offset="0.225" stop-color="#B8DEF0"/>
<stop offset="0.7121" stop-color="#A794D0"/>
<stop offset="1" stop-color="#A794D0"/>
</linearGradient>
<linearGradient id="paint1_linear_3753_2341" x1="82.7257" y1="437.922" x2="184.759" y2="486.777" gradientUnits="userSpaceOnUse">
<stop stop-color="#E3EFF6"/>
<stop offset="0.0236" stop-color="#DAEBF5"/>
<stop offset="0.0881" stop-color="#C7E4F2"/>
<stop offset="0.1545" stop-color="#BCDFF1"/>
<stop offset="0.225" stop-color="#B8DEF0"/>
<stop offset="0.7121" stop-color="#A794D0"/>
<stop offset="1" stop-color="#A794D0"/>
</linearGradient>
<clipPath id="clip0_3753_2341">
<rect width="142" height="143" fill="white" transform="translate(50 390)"/>
</clipPath>
</defs>
</svg>
