<svg width="550" height="550" viewBox="0 0 550 550" fill="none" xmlns="http://www.w3.org/2000/svg">
<mask id="mask0_3753_2465" style="mask-type:luminance" maskUnits="userSpaceOnUse" x="232" y="27" width="118" height="133">
<path d="M298.335 30.2049C303.181 31.7225 307.836 33.7742 312.21 36.3027C316.575 38.8374 320.728 41.7648 324.45 45.1376C328.184 48.5006 331.436 52.3642 334.344 56.466C337.226 60.5779 339.696 64.9515 341.514 69.5977C342.422 71.906 343.267 74.333 343.943 76.6845C344.602 79.075 345.114 81.5098 345.463 83.9709C345.818 86.4316 346.031 88.9154 346.124 91.4094C346.223 93.9536 346.247 96.3663 346.03 98.8372C345.629 103.788 344.628 108.608 343.049 113.332C341.545 118.066 339.493 122.486 336.81 126.624C335.27 129.015 333.588 131.312 331.765 133.462C336.827 125.255 339.753 115.591 339.753 105.24C339.753 75.5 315.644 51.3911 285.904 51.3911C256.164 51.3911 232.056 75.5 232.056 105.24C232.056 134.98 256.164 159.089 285.904 159.089C286.77 159.089 287.629 159.064 288.484 159.023C293.553 159.03 298.576 158.247 303.374 157.042C313.81 154.493 323.237 148.73 330.818 141.463C334.672 137.722 337.87 133.482 340.617 129.007C343.376 124.527 345.578 119.586 346.985 114.549C353.176 94.3598 348.705 71.6612 336.144 55.1539C333.033 51.0395 329.559 47.1627 325.608 43.8188C321.665 40.4714 317.359 37.6111 312.823 35.1914C308.268 32.8041 303.456 30.9214 298.514 29.5963C293.579 28.2463 288.513 27.3901 283.424 27.1074C288.498 27.6011 293.499 28.6635 298.335 30.2049Z" fill="white"/>
</mask>
<g mask="url(#mask0_3753_2465)">
<path d="M353.176 27.1074H232.057V159.089H353.176V27.1074Z" fill="url(#paint0_linear_3753_2465)"/>
</g>
<path d="M229.573 74.3056L221.859 70.4243L221.253 71.6301L228.966 75.5114L229.573 74.3056Z" fill="#A794D0"/>
<path d="M234.436 65.3172C234.425 65.5784 234.396 65.843 234.342 66.1032C234.217 66.6682 233.986 67.2027 233.653 67.6799C233.32 68.1571 232.898 68.5578 232.417 68.8606C231.936 69.1637 231.419 69.356 230.868 69.4536C230.317 69.5518 229.765 69.5495 229.209 69.4311C228.653 69.3122 228.119 69.0813 227.642 68.7484C227.165 68.4155 226.764 67.9935 226.451 67.5058C226.158 67.0315 225.956 66.5076 225.858 65.9564C225.76 65.4057 225.763 64.8538 225.89 64.3044C226 63.7416 226.24 63.2141 226.573 62.7374C226.906 62.2602 227.319 61.8526 227.816 61.547C227.868 61.5124 227.937 61.4755 227.989 61.4409L229.296 62.3536C228.644 62.536 228.08 62.9374 227.68 63.5101C227.227 64.1589 227.049 64.9424 227.197 65.7271C227.335 66.5046 227.766 67.1887 228.415 67.6416C229.063 68.0946 229.854 68.2632 230.632 68.125C231.41 67.9867 232.093 67.5562 232.546 66.9073C232.999 66.2584 233.168 65.4675 233.029 64.6902C233.004 64.544 232.971 64.4082 232.929 64.265L234.436 65.3172Z" fill="#A794D0"/>
<path d="M234.699 58.4959L236.939 56.2746L237.799 57.1423L235.56 59.3637L237.445 61.2638L240.164 58.5676L241.024 59.4347L238.298 62.1393L237.347 63.0824L231.266 56.9514L232.216 56.0089L234.942 53.3042L235.795 54.1635L233.076 56.8597L234.699 58.4959Z" fill="#A794D0"/>
<path d="M254.235 50.5614L252.017 46.5483L251.602 51.3783L247.281 49.165L249.499 53.1783L248.317 53.8313L243.949 45.9271L250.431 49.2595L251.059 41.998L255.426 49.903L254.235 50.5614Z" fill="#A794D0"/>
<path d="M262.828 45.4261L259.871 46.2617L259.669 48.2424L258.235 48.6475L259.397 38.9336L265.459 46.6057L264.037 47.0078L262.828 45.4261ZM262.029 44.3945L260.305 42.1483L260.012 44.964L262.029 44.3945Z" fill="#A794D0"/>
<path d="M274.173 41.7493L274.556 44.0561L274.292 44.312C274.281 44.3138 274.281 44.3138 274.271 44.3273C274.261 44.3406 274.24 44.3557 274.229 44.3576C274.219 44.3715 274.21 44.3848 274.198 44.3867C274.188 44.4 274.179 44.4133 274.156 44.4169C274.147 44.4302 274.137 44.4437 274.116 44.4588C274.107 44.4728 274.095 44.4746 274.085 44.4879C274.076 44.5012 274.064 44.5032 274.054 44.5165C274.034 44.5315 274.022 44.5333 274.001 44.5491C273.991 44.5626 273.98 44.5644 273.971 44.5777C273.961 44.591 273.94 44.6063 273.917 44.6098C273.907 44.6231 273.907 44.6231 273.898 44.6371L273.875 44.6407C273.865 44.6542 273.844 44.6693 273.823 44.6843C273.802 44.6996 273.769 44.7172 273.749 44.7322L273.739 44.7456C273.293 45.0435 272.808 45.2423 272.274 45.366L272.262 45.3679C272.239 45.372 272.205 45.3775 272.17 45.3835L272.159 45.3853C272.125 45.3908 272.09 45.397 272.056 45.4025C271.597 45.4789 271.127 45.4861 270.677 45.4073L270.666 45.4091C270.618 45.4054 270.58 45.3878 270.532 45.3842C270.47 45.3709 270.409 45.3576 270.348 45.3436C270.19 45.3115 270.041 45.2654 269.901 45.2059C269.526 45.0792 269.165 44.8918 268.842 44.6504C268.387 44.3253 268.003 43.9294 267.699 43.4492C267.473 43.0852 267.29 42.6916 267.185 42.2726C267.151 42.1367 267.115 41.9894 267.092 41.8517C267.081 41.7832 267.067 41.7026 267.056 41.6341C267.008 41.1351 267.03 40.6243 267.148 40.1324C267.283 39.5915 267.517 39.081 267.842 38.6262C268.167 38.1713 268.563 37.7875 269.045 37.4952C269.524 37.18 270.069 36.9834 270.643 36.8881C270.677 36.8821 270.711 36.8765 270.746 36.8712L270.757 36.8687C270.792 36.8632 270.826 36.8577 270.849 36.8535L270.86 36.8517C270.895 36.8464 270.929 36.8402 270.966 36.8464C271.465 36.799 271.966 36.8336 272.459 36.964C272.459 36.964 272.461 36.9754 272.472 36.9736C272.497 36.9809 272.522 36.9887 272.547 36.9967L272.558 36.9942L272.82 38.5667C272.623 38.446 272.409 38.3637 272.185 38.2945C271.999 38.2428 271.805 38.2047 271.624 38.1871C271.613 38.1889 271.601 38.1908 271.588 38.1816C271.577 38.1834 271.565 38.1853 271.554 38.1871C271.54 38.1775 271.529 38.1791 271.506 38.1834C271.506 38.1834 271.495 38.1853 271.481 38.1756C271.433 38.1718 271.376 38.181 271.328 38.1775C271.317 38.1791 271.317 38.1791 271.306 38.181C271.294 38.1829 271.269 38.1756 271.258 38.1775L271.235 38.181C271.223 38.1829 271.2 38.1871 271.187 38.1775C271.175 38.1791 271.164 38.181 271.152 38.1829C271.13 38.1871 271.107 38.1908 271.084 38.1944C271.072 38.1962 271.059 38.1864 271.047 38.1889C271.036 38.1908 271.024 38.1924 271.013 38.1944C271.001 38.1962 270.978 38.1997 270.966 38.2022C270.956 38.2041 270.944 38.2059 270.944 38.2059C270.921 38.2096 270.886 38.2155 270.863 38.2194C270.324 38.3085 269.831 38.5321 269.429 38.8815C269.419 38.8955 269.398 38.9106 269.377 38.9257C269.213 39.0707 269.064 39.2375 268.941 39.4224C268.903 39.4764 268.853 39.5315 268.817 39.5965C268.817 39.5965 268.818 39.608 268.807 39.6098C268.761 39.6881 268.726 39.7649 268.692 39.8414C268.683 39.8547 268.673 39.8682 268.673 39.8682C268.655 39.9063 268.638 39.9445 268.621 39.9828C268.612 39.9961 268.604 40.0208 268.606 40.0325C268.48 40.3363 268.412 40.6425 268.395 40.9633C268.386 40.9768 268.386 40.9768 268.387 40.9882C268.383 41.1071 268.379 41.2254 268.387 41.3424C268.395 41.3878 268.402 41.434 268.408 41.4686C268.406 41.5273 268.413 41.5734 268.423 41.6311C268.431 41.6766 268.438 41.7225 268.46 41.7784C268.507 41.9944 268.578 42.2066 268.669 42.4036C268.887 42.8627 269.211 43.2568 269.626 43.5534C270.269 44.013 271.054 44.2011 271.835 44.0714C271.858 44.0676 271.892 44.0616 271.915 44.0579C271.926 44.0561 271.938 44.0543 271.948 44.041C271.959 44.0391 271.982 44.035 271.994 44.033C272.005 44.0313 272.016 44.0295 272.028 44.0277C272.039 44.0258 272.051 44.0235 272.062 44.0215C272.085 44.018 272.097 44.0162 272.12 44.0124C272.118 44.0009 272.13 43.9991 272.14 43.9967C272.152 43.9949 272.175 43.9912 272.187 43.9894L272.21 43.9858C272.288 43.961 272.376 43.9227 272.455 43.898C272.466 43.896 272.466 43.896 272.475 43.8827C272.487 43.8802 272.51 43.8767 272.52 43.8634C272.531 43.8614 272.542 43.8595 272.554 43.8579C272.564 43.8446 272.575 43.8421 272.586 43.8403C272.596 43.827 272.619 43.8233 272.631 43.8215C272.642 43.8196 272.652 43.8063 272.652 43.8063C272.805 43.7335 272.956 43.6492 273.091 43.5443L273.103 43.5425L272.842 41.9706L271.236 42.2368L271.036 41.0323L273.973 40.5449L274.173 41.7493Z" fill="#A794D0"/>
<path d="M279.62 44.5368L278.945 35.9312L277.6 36.0367L278.275 44.6423L279.62 44.5368Z" fill="#A794D0"/>
<path d="M289.903 43.6951C289.68 43.8315 289.444 43.9552 289.199 44.056C288.66 44.2688 288.088 44.3755 287.506 44.3664C286.924 44.3568 286.356 44.2314 285.835 44.0014C285.316 43.7721 284.867 43.45 284.478 43.048C284.089 42.6459 283.782 42.1876 283.569 41.66C283.357 41.1329 283.25 40.5604 283.259 39.9788C283.269 39.3973 283.395 38.8291 283.624 38.2972C283.854 37.7891 284.175 37.3288 284.577 36.9395C284.979 36.5501 285.438 36.2433 285.965 36.0426C286.493 35.8182 287.065 35.723 287.646 35.732C288.228 35.7418 288.796 35.8557 289.328 36.0972C289.386 36.1214 289.455 36.1579 289.513 36.182L289.487 37.7758C288.97 37.3368 288.322 37.0935 287.624 37.082C286.833 37.0692 286.083 37.3597 285.516 37.9206C284.948 38.4701 284.622 39.2099 284.608 40.0007C284.596 40.7922 284.898 41.5423 285.447 42.11C285.997 42.6775 286.736 43.0039 287.528 43.0165C288.319 43.0293 289.069 42.7274 289.637 42.1778C289.743 42.0747 289.838 41.9716 289.932 41.8571L289.903 43.6951Z" fill="#A794D0"/>
<path d="M286.175 138.564C285.93 138.792 285.626 138.697 285.355 138.684C284.202 138.628 283.04 138.847 281.895 138.564C281.533 136.419 281.178 134.272 280.805 132.129C280.206 128.686 279.583 125.248 278.991 121.804C278.388 118.294 277.817 114.779 277.221 111.269C276.665 107.998 276.094 104.729 275.529 101.459C281.2 101.459 286.871 101.46 292.541 101.46C292.253 103.149 291.965 104.839 291.676 106.528C291.257 108.976 290.837 111.424 290.417 113.872C289.945 116.623 289.474 119.374 289.001 122.124C288.544 124.789 288.085 127.454 287.627 130.118C287.143 132.934 286.659 135.749 286.175 138.564Z" fill="#001D35"/>
<path d="M314.729 114.395L312.304 119.278C310.994 121.916 309.684 124.555 308.373 127.192C306.474 125.318 304.561 123.398 302.709 121.54L301.966 120.795C305.085 119.216 308.264 117.627 311.339 116.09C312.469 115.525 313.599 114.96 314.729 114.395ZM298.808 114.605L298.956 115.122C299.423 116.744 299.906 118.421 300.352 120.075C300.378 120.172 300.422 120.332 300.503 120.491C300.418 120.569 300.358 120.648 300.322 120.696C297.829 123.968 294.88 127.829 291.913 131.648C291.741 131.869 291.577 132.096 291.413 132.324C291.27 132.522 291.129 132.716 290.986 132.903C290.983 131.386 290.979 129.868 290.972 128.351C290.971 128.23 290.991 128.141 291.037 128.062C291.365 127.496 291.694 126.931 292.024 126.366C292.759 125.106 293.518 123.802 294.245 122.506C294.433 122.172 294.63 121.842 294.827 121.512C295.265 120.776 295.718 120.017 296.075 119.199L296.14 119.131L296.26 118.867C296.713 118.254 297.078 117.595 297.43 116.958C297.635 116.587 297.847 116.204 298.07 115.844C298.322 115.435 298.568 115.017 298.808 114.605ZM308.658 128.652C308.755 128.693 308.848 128.718 308.918 128.738C309.412 128.872 309.914 129.022 310.4 129.167C311.058 129.364 311.74 129.568 312.423 129.741C312.791 129.834 313.15 129.945 313.531 130.063C313.865 130.166 314.204 130.271 314.551 130.363C314.473 130.398 314.395 130.436 314.318 130.481C310.696 132.582 306.996 134.691 303.418 136.731L301.291 137.944C301.064 138.074 300.921 138.14 300.766 138.14C299.311 138.128 297.857 138.122 296.402 138.117C299.363 135.83 302.327 133.548 305.293 131.268C305.651 130.993 306.012 130.72 306.372 130.448C306.987 129.983 307.623 129.502 308.239 129.012C308.265 128.992 308.293 128.972 308.321 128.951C308.418 128.879 308.549 128.783 308.658 128.652ZM315.548 113.294C315.413 113.49 315.187 113.543 314.993 113.64C310.563 115.859 306.126 118.064 301.705 120.303C301.519 120.398 301.381 120.445 301.275 120.445C301.074 120.445 300.983 120.276 300.889 119.93C300.344 117.911 299.758 115.902 299.182 113.892C299.122 113.685 299.105 113.453 298.927 113.295C298.485 114.048 298.055 114.809 297.596 115.552C296.966 116.572 296.471 117.674 295.74 118.633C295.742 118.671 295.74 118.709 295.737 118.748C295.692 118.794 295.648 118.841 295.603 118.887C295.103 120.066 294.383 121.124 293.76 122.234C292.715 124.097 291.626 125.934 290.556 127.783C290.454 127.958 290.414 128.147 290.415 128.353C290.424 130.341 290.428 132.329 290.434 134.316C291.219 133.662 291.737 132.782 292.352 131.99C295.177 128.353 297.974 124.696 300.765 121.033C300.885 120.875 300.979 120.805 301.073 120.805C301.167 120.805 301.26 120.874 301.377 120.992C303.613 123.234 305.845 125.48 308.1 127.704C308.574 128.172 308.151 128.372 307.893 128.576C306.927 129.344 305.932 130.075 304.954 130.827C301.741 133.297 298.529 135.77 295.321 138.249C295.173 138.363 294.952 138.43 294.926 138.668C296.871 138.676 298.816 138.68 300.762 138.696H300.771C301.075 138.696 301.322 138.568 301.567 138.428C305.915 135.947 310.267 133.473 314.597 130.962C315.024 130.715 315.64 130.656 315.813 130.05C314.691 129.914 313.646 129.476 312.559 129.201C311.385 128.904 310.234 128.519 309.065 128.2C308.74 128.112 308.582 128.023 308.758 127.667C311.081 122.995 313.399 118.321 315.72 113.649C315.737 113.613 315.784 113.592 315.818 113.563C315.816 113.385 315.727 113.295 315.548 113.294Z" fill="#001D35"/>
<path d="M300.18 94.5567C300.101 94.9641 300.004 95.374 299.904 95.7953C299.816 96.1685 299.728 96.5418 299.651 96.917C298.838 100.894 297.988 104.933 297.165 108.84L296.378 112.581C296.021 114.284 295.651 116.046 295.265 117.793C295.206 118.059 295.19 118.31 295.186 118.527L295.091 118.67C294.759 119.454 294.328 120.177 293.871 120.942C293.67 121.281 293.468 121.619 293.276 121.962C292.553 123.25 291.796 124.549 291.063 125.806C290.733 126.372 290.403 126.938 290.075 127.504C289.928 127.758 289.858 128.036 289.859 128.356C289.867 129.968 289.871 131.581 289.875 133.193L289.878 134.298C289.867 134.495 289.919 134.655 289.987 134.78C289.732 135.049 289.428 135.283 289.111 135.529C288.845 135.734 288.57 135.947 288.311 136.19C287.886 136.59 287.432 136.951 286.951 137.333L288.175 130.213L288.678 127.29L289.55 122.219L290.658 115.759L290.965 113.966L291.27 112.189L292.224 106.622L292.807 103.211L293.08 101.611C293.266 101.502 293.396 101.354 293.49 101.247C293.52 101.213 293.548 101.18 293.579 101.15C294.823 99.9089 296.066 98.6666 297.309 97.4245C298.266 96.4684 299.223 95.5123 300.18 94.5567ZM300.918 93.2148C300.615 93.2338 300.47 93.4821 300.286 93.6648C297.918 96.027 295.555 98.3941 293.186 100.756C293.004 100.938 292.863 101.193 292.554 101.2C292.55 101.286 292.545 101.373 292.541 101.46C292.253 103.149 291.965 104.839 291.676 106.528C291.257 108.976 290.837 111.424 290.417 113.872C289.945 116.623 289.474 119.374 289.001 122.125C288.544 124.789 288.085 127.454 287.627 130.118C287.143 132.934 286.659 135.749 286.175 138.564C286.341 138.558 286.451 138.453 286.572 138.353C287.279 137.767 288.025 137.223 288.693 136.596C289.344 135.983 290.153 135.547 290.687 134.807C290.594 134.648 290.415 134.533 290.434 134.316C290.429 132.329 290.425 130.341 290.416 128.353C290.415 128.148 290.455 127.959 290.557 127.783C291.627 125.935 292.716 124.097 293.761 122.235C294.384 121.124 295.104 120.066 295.604 118.888C295.649 118.841 295.693 118.794 295.738 118.748C295.741 118.71 295.743 118.672 295.741 118.633C295.742 118.391 295.755 118.156 295.809 117.913C296.192 116.176 296.558 114.436 296.923 112.695C298.019 107.474 299.129 102.255 300.197 97.0286C300.455 95.7621 300.847 94.5176 300.918 93.2148Z" fill="#001D35"/>
<path d="M267.922 94.5881C268.35 95.0148 268.777 95.4427 269.205 95.8703C269.853 96.5191 270.501 97.1683 271.152 97.8143C272.061 98.7159 272.973 99.6138 273.886 100.512L274.988 101.597L275.501 104.562C275.893 106.828 276.286 109.095 276.672 111.362C276.938 112.927 277.198 114.493 277.459 116.059C277.784 118.006 278.108 119.953 278.442 121.898C278.779 123.858 279.125 125.815 279.472 127.773C279.735 129.257 279.998 130.741 280.256 132.225C280.515 133.712 280.765 135.201 281.015 136.69L281.12 137.312C280.982 137.187 280.843 137.062 280.699 136.946C279.764 136.189 278.837 135.42 277.983 134.709C277.959 134.683 277.941 134.65 277.921 134.619C277.911 134.604 277.901 134.588 277.89 134.572L272.996 118.843L272.946 118.728C272.893 118.637 272.873 118.539 272.883 118.41L272.873 118.26L272.439 116.122C272.126 114.575 271.812 113.028 271.49 111.483C270.293 105.737 269.219 100.611 268.206 95.8143C268.153 95.5644 268.094 95.3158 268.035 95.0674C267.996 94.9057 267.958 94.7459 267.922 94.5881ZM267.151 93.2148C267.193 94.1442 267.471 95.0276 267.662 95.9292C268.764 101.15 269.857 106.373 270.946 111.597C271.416 113.853 271.867 116.113 272.327 118.371C272.312 118.597 272.349 118.808 272.465 119.008L277.384 134.819C277.462 134.924 277.523 135.049 277.62 135.13C278.525 135.885 279.433 136.637 280.349 137.378C280.854 137.787 281.281 138.298 281.895 138.565C281.532 136.42 281.178 134.273 280.804 132.13C280.205 128.687 279.582 125.248 278.99 121.804C278.388 118.295 277.817 114.78 277.22 111.269C276.664 107.998 276.093 104.73 275.529 101.46C275.521 101.419 275.517 101.377 275.514 101.335C274.191 100.03 272.864 98.7285 271.544 97.4192C270.287 96.1713 269.039 94.9131 267.783 93.6643C267.599 93.4821 267.455 93.2333 267.151 93.2148Z" fill="#001D35"/>
<path d="M275.515 101.335C274.191 100.03 272.864 98.7284 271.545 97.4189C270.287 96.171 269.04 94.9128 267.783 93.664C267.6 93.4818 267.455 93.233 267.152 93.2146C266.939 92.9455 267.124 92.7849 267.302 92.6028C268.027 91.8609 268.744 91.1126 269.448 90.3501C271.351 88.291 273.314 86.2882 275.242 84.2528C277.381 81.9937 279.526 79.7388 281.632 77.4493C282.365 76.6532 283.083 75.8487 283.893 75.1299C283.549 76.6357 283.004 78.081 282.539 79.5494C280.963 84.533 279.349 89.5049 277.749 94.4813C277.014 96.7689 276.345 99.0781 275.515 101.335Z" fill="#001D35"/>
<path d="M300.918 93.2146C300.614 93.2335 300.469 93.4818 300.286 93.6645C297.918 96.0267 295.555 98.3938 293.186 100.756C293.004 100.937 292.863 101.192 292.554 101.199C292.161 100.551 292.012 99.8087 291.783 99.1022C290.28 94.4617 288.805 89.8125 287.318 85.1668C286.323 82.0561 285.322 78.9468 284.331 75.8348C284.259 75.6073 284.13 75.3856 284.177 75.1294C285.673 76.4731 286.97 78.0087 288.337 79.4758C289.149 80.3471 289.989 81.1916 290.796 82.0689C292.678 84.1145 294.64 86.0877 296.536 88.1208C297.89 89.5726 299.213 91.0531 300.622 92.4523C300.844 92.6727 300.968 92.9026 300.918 93.2146Z" fill="#001D35"/>
<path d="M290.687 134.807C290.594 134.648 290.415 134.533 290.434 134.316C291.22 133.662 291.737 132.782 292.353 131.99C295.178 128.353 297.975 124.696 300.765 121.033C301.005 120.718 301.142 120.755 301.378 120.992C303.614 123.234 305.846 125.48 308.101 127.704C308.575 128.172 308.152 128.372 307.894 128.576C306.928 129.343 305.933 130.075 304.955 130.827C301.741 133.297 298.53 135.77 295.322 138.249C295.173 138.363 294.953 138.43 294.927 138.668C294.573 138.766 294.411 138.491 294.213 138.296C293.036 137.135 291.862 135.97 290.687 134.807Z" fill="#001D35"/>
<path d="M315.548 113.294C315.413 113.489 315.187 113.543 314.994 113.64C310.563 115.859 306.126 118.064 301.706 120.303C301.17 120.575 301.033 120.46 300.89 119.93C300.345 117.91 299.759 115.902 299.182 113.891C299.123 113.685 299.106 113.453 298.928 113.295C299.125 113.079 299.384 113.168 299.616 113.168C304.697 113.163 309.779 113.163 314.86 113.168C315.092 113.168 315.351 113.08 315.548 113.294Z" fill="#001D35"/>
<path d="M315.814 130.05C314.691 129.914 313.647 129.476 312.56 129.201C311.386 128.904 310.234 128.52 309.065 128.2C308.741 128.112 308.582 128.023 308.759 127.667C311.081 122.995 313.399 118.322 315.72 113.649C315.738 113.613 315.785 113.592 315.818 113.563C316.032 113.761 315.944 114.02 315.944 114.253C315.949 119.29 315.949 124.327 315.944 129.364C315.944 129.596 316.033 129.856 315.814 130.05Z" fill="#001D35"/>
<path d="M295.604 118.889C295.649 118.842 295.694 118.795 295.739 118.748C295.694 118.795 295.648 118.842 295.604 118.889Z" fill="#001D35"/>
<path d="M311.08 82.5142L307.298 88.3323L311.37 93.8594L315.152 88.3323L311.08 82.5142Z" fill="#001D35"/>
<path d="M268.406 74.6899L265.964 78.4463L268.594 82.0154L271.035 78.4463L268.406 74.6899Z" fill="#001D35"/>
<path d="M257.222 83.3916L253.557 89.0305L257.504 94.3875L261.169 89.0305L257.222 83.3916Z" fill="#001D35"/>
<path d="M261.745 105.354L258.391 110.514L262.003 115.417L265.358 110.514L261.745 105.354Z" fill="#001D35"/>
<path d="M300.972 71.3057L298.354 75.3331L301.174 79.159L303.792 75.3331L300.972 71.3057Z" fill="#001D35"/>
<path d="M220.224 159.12C222.648 159.12 224.088 157.536 224.088 154.98C224.088 152.436 222.648 150.84 220.224 150.84C217.8 150.84 216.36 152.436 216.36 154.98C216.36 157.536 217.8 159.12 220.224 159.12ZM220.224 157.872C218.508 157.872 217.728 156.984 217.728 154.98C217.728 152.976 218.508 152.088 220.224 152.088C221.94 152.088 222.708 152.976 222.708 154.98C222.708 156.984 221.94 157.872 220.224 157.872ZM230.833 159.12C233.029 159.12 234.361 158.28 234.361 156.756C234.361 155.64 233.665 154.992 232.501 154.788V154.692C233.533 154.524 234.073 153.876 234.073 152.964C234.073 151.596 232.909 150.84 230.857 150.84C228.361 150.84 227.209 152.016 227.209 153.588V153.696H228.577V153.612C228.577 152.556 229.105 152.064 230.749 152.064C232.309 152.064 232.789 152.436 232.789 153.216C232.789 153.936 232.285 154.296 231.313 154.296H229.249V155.376H231.493C232.501 155.376 233.053 155.748 233.053 156.564C233.053 157.512 232.453 157.896 230.785 157.896C229.009 157.896 228.577 157.404 228.577 156.348V156.18H227.209V156.372C227.209 158.004 228.313 159.12 230.833 159.12Z" fill="#5FDDF9"/>
<mask id="mask1_3753_2465" style="mask-type:luminance" maskUnits="userSpaceOnUse" x="24" y="158" width="119" height="133">
<path d="M90.9959 161.69C95.876 163.207 100.563 165.259 104.968 167.787C109.364 170.322 113.545 173.25 117.294 176.622C121.053 179.985 124.328 183.849 127.256 187.951C130.158 192.063 132.646 196.436 134.476 201.083C135.391 203.391 136.242 205.818 136.923 208.169C137.586 210.56 138.102 212.995 138.454 215.456C138.811 217.916 139.025 220.4 139.119 222.894C139.219 225.438 139.243 227.851 139.025 230.322C138.62 235.272 137.613 240.093 136.022 244.817C134.509 249.551 132.442 253.97 129.74 258.109C128.189 260.499 126.495 262.797 124.66 264.947C129.757 256.74 132.704 247.075 132.704 236.725C132.704 206.985 108.426 182.876 78.4785 182.876C48.5307 182.876 24.2529 206.985 24.2529 236.725C24.2529 266.464 48.5307 290.573 78.4785 290.573C79.3497 290.573 80.215 290.549 81.0762 290.508C86.1803 290.515 91.2384 289.731 96.0698 288.527C106.579 285.978 116.072 280.215 123.706 272.947C127.587 269.207 130.808 264.966 133.574 260.492C136.351 256.012 138.569 251.07 139.986 246.034C146.22 225.845 141.718 203.146 129.069 186.639C125.936 182.524 122.438 178.648 118.46 175.304C114.489 171.956 110.152 169.096 105.584 166.676C100.999 164.289 96.1525 162.406 91.1763 161.081C86.2064 159.731 81.1055 158.875 75.9804 158.592C81.0899 159.086 86.1259 160.148 90.9959 161.69Z" fill="white"/>
</mask>
<g mask="url(#mask1_3753_2465)">
<path d="M146.221 158.592H24.2539V290.573H146.221V158.592Z" fill="url(#paint1_linear_3753_2465)"/>
</g>
<path d="M15.0218 214.175L16.2138 211.253L17.3546 211.712L16.1624 214.634L19.7996 216.097L19.2896 217.348L11.2324 214.107L11.7388 212.867L13.1945 209.298L14.3237 209.752L12.8722 213.311L15.0218 214.175Z" fill="#A794D0"/>
<path d="M25.5338 204.433L24.7949 205.77L21.1609 206.272L20.6815 207.14L23.2609 208.545L22.6069 209.729L14.9814 205.574L15.5348 204.574L16.2224 203.329C16.7751 202.329 17.5071 201.971 18.0262 201.855C18.6883 201.698 19.4228 201.82 20.132 202.206C20.8305 202.587 21.3288 203.137 21.551 203.776C21.6548 204.072 21.733 204.486 21.6512 204.973L25.5338 204.433ZM20.1991 205.496C20.4702 205.006 20.5288 204.56 20.392 204.18C20.2411 203.727 19.8376 203.44 19.5395 203.278C19.2318 203.11 18.7713 202.925 18.3053 203.043C17.909 203.132 17.5719 203.427 17.3014 203.917L16.7145 204.978L19.6127 206.557L20.1991 205.496Z" fill="#A794D0"/>
<path d="M28.2209 199.857C27.7258 200.142 27.1975 200.316 26.6399 200.394C26.0818 200.472 25.5266 200.45 24.971 200.312C24.416 200.173 23.8863 199.923 23.4187 199.572C22.951 199.222 22.5624 198.786 22.2657 198.288C21.9884 197.803 21.8139 197.279 21.7258 196.718C21.647 196.164 21.679 195.619 21.8181 195.068C21.9579 194.517 22.2096 193.991 22.5624 193.526C22.9148 193.061 23.354 192.676 23.8559 192.381C24.3445 192.105 24.8624 191.925 25.4278 191.838C25.9951 191.767 26.5435 191.798 27.0887 191.93C27.6536 192.075 28.1832 192.325 28.6509 192.675C29.1187 193.025 29.507 193.461 29.7942 193.953C30.0817 194.445 30.263 194.96 30.3419 195.514C30.4134 196.077 30.3913 196.629 30.2582 197.171C30.1122 197.732 29.86 198.257 29.5077 198.722C29.1551 199.187 28.7154 199.572 28.2209 199.857ZM23.0803 196.536C23.1915 197.319 23.6005 198.018 24.237 198.494C24.8732 198.971 25.6629 199.168 26.4507 199.057C27.2384 198.948 27.9425 198.541 28.4218 197.91C28.9014 197.278 29.0997 196.493 28.9891 195.711C28.8781 194.929 28.4696 194.23 27.8326 193.754C27.1963 193.278 26.4074 193.081 25.6195 193.19C24.8317 193.301 24.1271 193.706 23.6484 194.338C23.168 194.971 22.9696 195.754 23.0803 196.536Z" fill="#A794D0"/>
<path d="M36.3853 188.616C36.7969 189.388 36.7164 190.391 36.166 191.182C36.0647 191.328 35.947 191.458 35.821 191.58C35.5682 191.823 35.275 192.025 34.9503 192.16C34.4001 192.383 33.8022 192.456 33.1401 192.365L33.326 191.017C33.7307 191.081 34.1044 191.045 34.4129 190.909C34.6719 190.806 34.8891 190.628 35.0334 190.408C35.2958 190.041 35.352 189.581 35.1829 189.258C34.9894 188.893 34.5508 188.829 34.2114 188.832C33.6801 188.841 32.7934 188.837 32.7274 188.836L31.2599 188.856C30.8038 188.858 30.3994 188.761 30.0538 188.576C29.7168 188.398 29.4383 188.13 29.2692 187.807C29.0835 187.467 29.0144 187.079 29.0535 186.668C29.0926 186.29 29.2307 185.913 29.4591 185.596C29.696 185.237 30.0399 184.954 30.4483 184.77C30.8906 184.587 31.3808 184.52 31.9103 184.577L31.7418 185.924C31.0468 185.848 30.7183 186.165 30.5748 186.369C30.3969 186.621 30.3507 186.941 30.4723 187.166C30.5528 187.315 30.7489 187.499 31.2544 187.498L33.2691 187.485C33.5678 187.49 33.9238 187.486 34.1808 187.482C34.6865 187.465 35.1407 187.562 35.5193 187.764C35.8894 187.959 36.1926 188.252 36.3853 188.616Z" fill="#A794D0"/>
<path d="M40.3321 178.447L38.3912 179.833L42.7565 185.86L41.6438 186.655L37.2788 180.628L35.3379 182.014L34.626 181.031L39.6206 177.464L40.3321 178.447Z" fill="#A794D0"/>
<path d="M56.7947 176.17C56.9425 176.574 56.9864 176.967 56.9302 177.358C56.8662 177.728 56.7086 178.082 56.4655 178.405C56.032 178.957 55.3395 179.417 54.4148 179.751L53.6881 180.013L52.6091 180.402L49.6426 172.288L50.92 171.828L51.4483 171.637C52.3515 171.312 53.072 171.237 53.6582 171.409C53.9795 171.504 54.2549 171.677 54.476 171.906C54.6774 172.119 54.837 172.383 54.953 172.7C55.1129 173.138 55.1653 173.725 54.8582 174.418C55.022 174.457 55.1794 174.512 55.3406 174.578C55.6705 174.731 55.9538 174.926 56.1937 175.173C56.457 175.45 56.6549 175.787 56.7947 176.17ZM51.3359 172.965L52.2347 175.425C52.4682 175.279 52.7337 175.084 52.9762 174.861C53.3236 174.55 53.5746 174.249 53.7151 173.951C53.8666 173.649 53.8928 173.38 53.797 173.117C53.6528 172.723 53.4537 172.622 53.3005 172.578C52.9084 172.46 52.2934 172.619 51.8642 172.774L51.3359 172.965ZM55.6497 176.583C55.4933 176.157 55.2266 175.869 54.84 175.699C54.6151 175.594 54.3581 175.539 54.0644 175.52C53.9704 175.604 53.8807 175.698 53.775 175.786C53.3914 176.134 52.9805 176.406 52.6672 176.606L53.4666 178.793L53.9947 178.602C54.6886 178.352 55.2063 178.03 55.486 177.669C55.7473 177.327 55.7976 176.987 55.6497 176.583Z" fill="#A794D0"/>
<path d="M61.4708 172.404L64.5921 171.819L64.8203 173.02L61.6992 173.605L62.1998 176.236L65.9885 175.525L66.2169 176.726L62.4166 177.438L61.0922 177.687L59.4775 169.201L60.8027 168.952L64.6029 168.239L64.8295 169.429L61.0403 170.14L61.4708 172.404Z" fill="#A794D0"/>
<path d="M74.4844 174.321L71.3932 174.419L70.7152 176.291L69.2168 176.338L72.7098 167.197L76.7684 176.1L75.2814 176.147L74.4844 174.321ZM73.9544 173.128L72.8161 170.533L71.8463 173.194L73.9544 173.128Z" fill="#A794D0"/>
<path d="M86.7817 177.053L87.3301 172.502L84.1497 176.178L81.9219 171.859L81.3723 176.41L80.0234 176.249L81.1049 167.286L84.4392 173.775L89.2232 168.252L88.1424 177.215L86.7817 177.053Z" fill="#A794D0"/>
<path d="M78.262 207.146C79.9394 208.453 81.6177 209.759 83.2936 211.069C83.8016 211.466 84.3076 211.866 84.8063 212.274C85.6499 212.965 85.6561 213.786 84.8008 214.472C83.0791 215.854 81.3501 217.227 79.6104 218.586C79.2862 218.839 79.1538 219.105 79.1635 219.518C79.191 220.702 79.1732 221.888 79.1732 223.204C79.4029 223.034 79.5521 222.931 79.694 222.818C80.8878 221.871 82.0756 220.917 83.2749 219.977C83.9205 219.471 84.6479 219.502 85.1157 220.028C85.6222 220.598 85.5298 221.357 84.8428 221.913C83.3842 223.091 81.9579 224.318 80.4245 225.394C79.4358 226.087 78.9735 226.858 79.1596 228.051C79.2395 228.562 79.173 229.095 79.173 229.651C80.9905 230.014 82.4916 230.867 83.7077 232.273C84.6005 231.761 85.4854 231.272 86.3449 230.742C86.4893 230.653 86.5696 230.393 86.6003 230.2C86.9549 227.973 87.2863 225.742 87.6418 223.516C87.7786 222.658 88.3984 222.192 89.1444 222.334C89.8471 222.469 90.2343 223.12 90.1053 223.953C89.8501 225.604 89.594 227.254 89.3254 228.987C89.5149 228.906 89.6489 228.862 89.7684 228.794C90.7366 228.243 91.7133 227.706 92.6596 227.12C92.869 226.991 93.0635 226.702 93.1037 226.459C93.467 224.273 93.7984 222.082 94.1311 219.891C94.3041 218.751 95.0187 218.323 96.1069 218.742C98.4407 219.642 100.772 220.547 103.102 221.457C103.992 221.805 104.236 222.255 104.091 223.182C103.711 225.622 103.334 228.062 102.961 230.502C102.783 231.672 102.069 232.086 100.945 231.649C98.8868 230.85 96.8341 230.035 94.7664 229.261C94.5208 229.169 94.148 229.197 93.9158 229.32C92.8323 229.897 91.7776 230.527 90.5951 231.206C90.9352 231.346 91.1721 231.448 91.4125 231.541C92.7419 232.057 94.0754 232.564 95.4012 233.09C96.2759 233.437 96.613 234.107 96.3054 234.826C96.0105 235.515 95.3307 235.733 94.4618 235.397C92.4018 234.602 90.3407 233.81 88.2911 232.989C87.919 232.84 87.6423 232.872 87.3146 233.072C86.5505 233.538 85.7671 233.973 84.9706 234.432C85.58 236.175 85.5916 237.892 84.9645 239.638C85.866 240.155 86.7345 240.676 87.6304 241.147C87.7904 241.231 88.0788 241.145 88.2807 241.068C90.3798 240.265 92.4693 239.438 94.57 238.64C95.6351 238.235 96.5687 238.947 96.3753 239.987C96.2796 240.503 95.9223 240.783 95.4603 240.963C94.112 241.485 92.7635 242.007 91.4157 242.531C91.1836 242.621 90.9553 242.72 90.6025 242.866C91.3739 243.311 92.1118 243.635 92.7281 244.114C93.787 244.936 94.7781 244.959 95.9904 244.383C97.5918 243.623 99.29 243.063 100.949 242.421C102.069 241.987 102.783 242.404 102.962 243.575C103.334 246.015 103.712 248.455 104.092 250.895C104.233 251.8 103.996 252.255 103.146 252.588C100.781 253.516 98.4146 254.439 96.0437 255.351C95.0293 255.741 94.3002 255.3 94.137 254.232C93.8021 252.041 93.4585 249.851 93.1367 247.659C93.0839 247.299 92.945 247.074 92.6158 246.895C91.5391 246.307 90.4822 245.684 89.3224 245.02C89.5447 246.488 89.7502 247.846 89.9561 249.203C90.0144 249.588 90.0949 249.97 90.1276 250.357C90.1887 251.076 89.7396 251.656 89.0807 251.747C88.3736 251.844 87.7809 251.42 87.66 250.672C87.3372 248.676 86.9907 246.682 86.7501 244.676C86.6438 243.786 86.3777 243.16 85.4972 242.803C84.887 242.555 84.3385 242.159 83.7116 241.8C82.5159 243.178 81.0114 244.06 79.1749 244.414C79.1749 245.442 79.1553 246.432 79.1923 247.421C79.1992 247.605 79.4013 247.821 79.5682 247.955C81.1971 249.265 82.8373 250.561 84.4743 251.861C84.6273 251.982 84.7847 252.099 84.929 252.23C85.5057 252.751 85.5923 253.452 85.1527 253.995C84.7043 254.549 83.9406 254.621 83.3201 254.135C82.1204 253.196 80.934 252.24 79.741 251.292C79.592 251.174 79.4363 251.064 79.1727 250.869C79.1727 251.855 79.2538 252.745 79.1523 253.615C79.0228 254.727 79.4276 255.435 80.3371 256.08C81.8334 257.142 83.2317 258.339 84.6676 259.484C85.7011 260.307 85.7023 261.079 84.6661 261.905C82.7568 263.428 80.8431 264.945 78.9281 266.46C78.7161 266.628 78.4842 266.771 78.2615 266.925H77.5559C75.8038 265.555 74.0513 264.186 72.3002 262.815C71.8692 262.478 71.4392 262.139 71.017 261.792C70.167 261.093 70.158 260.289 71.0171 259.599C72.7234 258.229 74.4346 256.865 76.1639 255.525C76.5275 255.243 76.6663 254.95 76.6547 254.498C76.6251 253.333 76.6448 252.166 76.6448 250.87C76.4005 251.052 76.2361 251.168 76.0789 251.293C74.9152 252.215 73.7558 253.143 72.5886 254.061C71.8892 254.611 71.1315 254.579 70.6632 253.997C70.1864 253.405 70.3135 252.686 71.0203 252.121C72.7451 250.743 74.4714 249.367 76.212 248.009C76.5378 247.755 76.6686 247.486 76.6542 247.075C76.6234 246.203 76.6448 245.329 76.6448 244.42C74.8311 244.055 73.3278 243.204 72.1155 241.802C71.2361 242.305 70.3661 242.782 69.524 243.303C69.363 243.403 69.252 243.669 69.219 243.874C68.861 246.1 68.5304 248.331 68.1756 250.558C68.0407 251.405 67.4729 251.852 66.7341 251.746C65.9955 251.639 65.5793 250.98 65.7117 250.121C65.9662 248.471 66.2226 246.821 66.491 245.087C66.3004 245.169 66.1657 245.212 66.0454 245.28C65.0944 245.822 64.1339 246.348 63.206 246.926C62.9802 247.067 62.7574 247.363 62.7147 247.618C62.3482 249.804 62.0198 251.996 61.6873 254.187C61.5148 255.323 60.7966 255.749 59.7078 255.328C57.3569 254.417 55.0093 253.499 52.6616 252.581C51.8398 252.259 51.5843 251.812 51.7179 250.943C52.0987 248.464 52.483 245.986 52.8636 243.507C53.0278 242.439 53.7428 242.001 54.7667 242.389C56.8494 243.179 58.9278 243.981 60.9969 244.805C61.3859 244.96 61.6752 244.931 62.0258 244.719C63.0424 244.104 64.081 243.526 65.1967 242.884C64.9718 242.776 64.8298 242.696 64.6796 242.637C63.2594 242.084 61.8383 241.532 60.416 240.984C59.9367 240.799 59.5432 240.531 59.4432 239.99C59.3556 239.515 59.4777 239.099 59.8616 238.785C60.2851 238.438 60.7533 238.438 61.2437 238.628C62.7375 239.208 64.2315 239.787 65.7275 240.361C66.492 240.655 67.2808 241.205 68.0221 241.151C68.7639 241.096 69.4613 240.433 70.1759 240.033C70.3952 239.91 70.6072 239.774 70.8436 239.632C70.2377 237.902 70.2238 236.185 70.8527 234.43C69.9584 233.918 69.0887 233.401 68.1961 232.927C68.0479 232.848 67.7833 232.913 67.6001 232.983C65.5739 233.757 63.5527 234.544 61.5304 235.328C61.3847 235.385 61.2427 235.453 61.0932 235.497C60.3948 235.701 59.7243 235.401 59.4891 234.786C59.2378 234.129 59.5279 233.458 60.2394 233.168C61.4153 232.689 62.6043 232.241 63.7878 231.78C64.2228 231.611 64.6573 231.44 65.2099 231.223C64.8596 231.009 64.5925 230.839 64.3184 230.681C63.5234 230.221 62.7381 229.742 61.9208 229.324C61.6842 229.204 61.3159 229.169 61.0704 229.26C59.0745 230.004 57.0932 230.785 55.1083 231.558C53.6678 232.118 53.071 231.797 52.8298 230.289C52.4463 227.889 52.0789 225.487 51.7129 223.084C51.587 222.258 51.8608 221.8 52.6481 221.492C54.9959 220.574 57.344 219.657 59.6954 218.748C60.8152 218.315 61.5108 218.741 61.6921 219.932C62.0255 222.123 62.3656 224.313 62.7184 226.501C62.7487 226.689 62.847 226.937 62.9938 227.025C64.1125 227.697 65.2513 228.336 66.4883 229.045C66.3107 227.852 66.1514 226.768 65.9872 225.684C65.8967 225.088 65.7911 224.495 65.705 223.898C65.586 223.074 66.0101 222.429 66.7268 222.327C67.465 222.222 68.0407 222.671 68.175 223.51C68.5283 225.717 68.8727 227.927 69.1942 230.139C69.2476 230.508 69.3852 230.726 69.7136 230.902C70.5051 231.327 71.2755 231.79 72.1033 232.266C73.3077 230.9 74.8057 230.007 76.6428 229.654C76.6428 228.628 76.6623 227.637 76.6256 226.649C76.6187 226.465 76.4185 226.249 76.2524 226.115C74.5788 224.767 72.8936 223.434 71.2117 222.096C71.1352 222.035 71.0563 221.978 70.9813 221.915C70.3206 221.366 70.198 220.656 70.6632 220.078C71.1206 219.509 71.8846 219.457 72.5413 219.973C73.7094 220.889 74.8681 221.818 76.032 222.74C76.1963 222.87 76.3677 222.992 76.6448 223.199C76.6448 222.173 76.57 221.245 76.6646 220.334C76.7711 219.312 76.4171 218.662 75.5772 218.06C74.0384 216.956 72.5938 215.724 71.11 214.545C70.1337 213.769 70.1257 212.986 71.1049 212.204C73.0586 210.643 75.0188 209.09 76.9794 207.537C77.1609 207.394 77.3633 207.276 77.5559 207.146H78.262ZM77.914 232.08C75.1338 232.08 72.9069 234.267 72.8879 237.016C72.8692 239.771 75.1174 241.988 77.9333 241.991C80.6951 241.994 82.9391 239.764 82.9296 237.026C82.9201 234.278 80.6909 232.08 77.914 232.08ZM73.6486 213.373C75.1114 214.535 76.5112 215.647 77.9146 216.761C79.3547 215.614 80.7401 214.51 82.1694 213.372C80.8041 212.285 79.4811 211.224 78.1438 210.183C78.047 210.107 77.7918 210.099 77.6984 210.172C76.3587 211.212 75.0342 212.272 73.6486 213.373ZM73.653 260.696C74.8093 261.618 75.9352 262.518 77.0641 263.415C77.9139 264.089 77.9164 264.088 78.7643 263.413C79.8899 262.516 81.0141 261.618 82.1701 260.695C80.7182 259.542 79.3179 258.429 77.9107 257.311C76.4735 258.454 75.085 259.558 73.653 260.696ZM59.4028 252.53C59.6662 250.812 59.9043 249.198 60.1669 247.589C60.2233 247.244 60.0914 247.107 59.791 246.993C58.4933 246.504 57.2035 245.994 55.9095 245.494C55.6645 245.399 55.4142 245.318 55.1379 245.221C54.862 247.035 54.5968 248.779 54.3265 250.558C56.0177 251.215 57.6676 251.855 59.4028 252.53ZM54.3245 223.512C54.5996 225.314 54.866 227.057 55.142 228.866C56.7804 228.232 58.3818 227.618 59.9733 226.981C60.077 226.939 60.1759 226.702 60.1577 226.572C59.9236 224.922 59.6676 223.276 59.4042 221.543C57.6909 222.207 56.0406 222.847 54.3245 223.512ZM96.415 221.543C96.1521 223.26 95.9142 224.874 95.6512 226.483C95.5944 226.831 95.7295 226.958 96.0306 227.072C97.3651 227.574 98.6907 228.1 100.021 228.615C100.229 228.695 100.442 228.763 100.681 228.847C100.956 227.036 101.221 225.292 101.492 223.51C99.801 222.855 98.1506 222.215 96.415 221.543ZM96.4164 252.529C98.1578 251.853 99.8213 251.208 101.495 250.558C101.217 248.742 100.95 247.001 100.675 245.203C99.0404 245.838 97.4552 246.444 95.8856 247.087C95.757 247.139 95.6515 247.459 95.6759 247.635C95.8991 249.231 96.1537 250.822 96.4164 252.529Z" fill="#001D35"/>
<path d="M56.6197 198.31L52.8115 204.128L56.9125 209.655L60.7206 204.128L56.6197 198.31Z" fill="#001D35"/>
<path d="M104.118 260.643L100.31 266.461L104.411 271.988L108.219 266.461L104.118 260.643Z" fill="#001D35"/>
<path d="M14.224 287.12C16.648 287.12 18.088 285.536 18.088 282.98C18.088 280.436 16.648 278.84 14.224 278.84C11.8 278.84 10.36 280.436 10.36 282.98C10.36 285.536 11.8 287.12 14.224 287.12ZM14.224 285.872C12.508 285.872 11.728 284.984 11.728 282.98C11.728 280.976 12.508 280.088 14.224 280.088C15.94 280.088 16.708 280.976 16.708 282.98C16.708 284.984 15.94 285.872 14.224 285.872ZM27.9892 287V285.836H24.5452L22.6012 285.968C22.6012 285.056 22.9732 284.672 24.0532 284.3L25.7452 283.784C27.1612 283.352 28.0132 282.656 28.0132 281.336C28.0132 279.92 27.0532 278.84 24.7732 278.84C22.2652 278.84 21.2452 280.184 21.2452 281.672V281.792H22.5172V281.648C22.5172 280.592 23.1172 280.028 24.7252 280.028C26.1652 280.028 26.7172 280.46 26.7172 281.312C26.7172 282.02 26.3812 282.344 25.4212 282.692L23.5012 283.352C21.8452 283.916 21.2572 284.66 21.2572 286.148V287H27.9892Z" fill="#5FDDF9"/>
<defs>
<linearGradient id="paint0_linear_3753_2465" x1="231.984" y1="93.0862" x2="349.675" y2="93.0862" gradientUnits="userSpaceOnUse">
<stop stop-color="#E3EFF6"/>
<stop offset="0.0236" stop-color="#DAEBF5"/>
<stop offset="0.0881" stop-color="#C7E4F2"/>
<stop offset="0.1545" stop-color="#BCDFF1"/>
<stop offset="0.225" stop-color="#B8DEF0"/>
<stop offset="0.7121" stop-color="#A794D0"/>
<stop offset="1" stop-color="#A794D0"/>
</linearGradient>
<linearGradient id="paint1_linear_3753_2465" x1="24.1991" y1="224.585" x2="142.712" y2="224.585" gradientUnits="userSpaceOnUse">
<stop stop-color="#E3EFF6"/>
<stop offset="0.0236" stop-color="#DAEBF5"/>
<stop offset="0.0881" stop-color="#C7E4F2"/>
<stop offset="0.1545" stop-color="#BCDFF1"/>
<stop offset="0.225" stop-color="#B8DEF0"/>
<stop offset="0.7121" stop-color="#A794D0"/>
<stop offset="1" stop-color="#A794D0"/>
</linearGradient>
</defs>
</svg>
