<svg width="550" height="550" viewBox="0 0 550 550" fill="none" xmlns="http://www.w3.org/2000/svg">
<path d="M154.929 278.996L150.871 285.198L155.241 291.09L159.3 285.198L154.929 278.996Z" fill="#DCDCDC"/>
<path d="M357.759 278.996L353.7 285.198L358.071 291.09L362.129 285.198L357.759 278.996Z" fill="#DCDCDC"/>
<path d="M233.13 298.747H229.93L225.362 292.657H223.286V298.747H220.453V280.743H222.847H225.827C228.22 280.743 229.613 281.713 230.346 282.538C231.298 283.582 231.811 285.037 231.811 286.712C231.811 288.361 231.298 289.818 230.346 290.861C229.906 291.346 229.222 291.905 228.245 292.244L233.13 298.747ZM225.827 290.133C226.999 290.133 227.879 289.794 228.44 289.163C229.124 288.435 229.247 287.415 229.247 286.712C229.247 285.983 229.124 284.965 228.44 284.237C227.879 283.606 226.999 283.29 225.827 283.29H223.286V290.133H225.827Z" fill="#4B7021"/>
<path d="M249.692 298.043C248.593 297.583 247.64 296.927 246.81 296.103C245.979 295.277 245.32 294.331 244.856 293.239C244.392 292.147 244.147 290.959 244.147 289.745C244.147 288.532 244.392 287.343 244.856 286.227C245.32 285.159 245.979 284.213 246.81 283.364C247.64 282.539 248.593 281.908 249.692 281.447C250.791 280.985 251.988 280.743 253.21 280.743C254.431 280.743 255.628 280.985 256.751 281.447C257.826 281.908 258.779 282.539 259.633 283.364C260.464 284.213 261.099 285.159 261.563 286.227C262.027 287.343 262.272 288.532 262.272 289.745C262.272 290.959 262.027 292.147 261.563 293.239C261.099 294.331 260.464 295.277 259.633 296.103C258.779 296.927 257.826 297.583 256.751 298.043C255.628 298.504 254.431 298.747 253.21 298.747C251.988 298.747 250.791 298.504 249.692 298.043ZM248.813 285.377C247.64 286.542 246.981 288.094 246.981 289.745C246.981 291.395 247.64 292.948 248.813 294.113C249.985 295.277 251.548 295.932 253.21 295.932C254.871 295.932 256.434 295.277 257.606 294.113C258.779 292.948 259.439 291.395 259.439 289.745C259.439 288.095 258.779 286.542 257.606 285.377C256.434 284.213 254.871 283.557 253.21 283.557C251.548 283.557 249.985 284.213 248.813 285.377Z" fill="#4B7021"/>
<path d="M277.123 297.316C276.415 296.781 275.878 296.126 275.512 295.374C275.096 294.549 274.9 293.627 274.9 292.633V280.743H277.734V292.633C277.734 293.7 278.125 294.525 278.858 295.083C279.542 295.617 280.543 295.932 281.618 295.932C282.668 295.932 283.67 295.617 284.378 295.083C285.111 294.525 285.477 293.7 285.477 292.633V280.743H288.335V292.633C288.335 293.627 288.115 294.549 287.724 295.374C287.333 296.127 286.796 296.781 286.112 297.316C284.915 298.237 283.327 298.747 281.618 298.747C279.908 298.747 278.321 298.237 277.123 297.316Z" fill="#4B7021"/>
<path d="M304.554 287.173V298.747H301.721V279.894L313.104 292.293V280.743H315.961V299.572L304.554 287.173Z" fill="#4B7021"/>
<path d="M342.879 289.745C342.879 292.293 342.123 294.477 340.681 296.054C339.9 296.927 338.923 297.607 337.775 298.043C336.602 298.505 335.283 298.747 333.817 298.747H330.471H329.519V280.743H332.352H333.817C335.283 280.743 336.602 280.961 337.775 281.446C338.923 281.883 339.9 282.562 340.681 283.436C342.123 285.013 342.879 287.197 342.879 289.745ZM340.046 289.745C340.046 287.901 339.533 286.373 338.581 285.329C337.506 284.139 335.918 283.557 333.817 283.557H332.352V295.933H333.817C335.918 295.933 337.506 295.326 338.581 294.162C339.533 293.118 340.046 291.565 340.046 289.745Z" fill="#4B7021"/>
<path d="M203.408 280.842L212.081 285.481L210.201 286.987V298.133L200.437 304.699C197.466 306.989 193.887 308.615 189.703 308.615C186.913 308.615 183.82 307.832 180.545 305.964C173.692 302.049 170.721 295.482 170.721 288.855C170.721 277.951 178.908 266.745 191.765 266.625C191.765 266.625 179.878 271.203 179.393 281.505L200.073 265.902C200.073 265.902 202.135 271.866 206.623 271.866C208.26 271.866 210.261 271.023 212.627 268.794C212.627 268.794 209.231 278.071 202.499 278.071C200.013 278.071 197.102 276.806 193.706 273.432V287.831L203.408 280.842ZM179.393 285.542C179.393 292.47 184.002 297.229 184.002 297.229L187.035 294.759V277.71L179.636 282.951C179.454 283.855 179.393 284.698 179.393 285.542ZM194.312 300.904C196.192 300.904 198.254 300.603 200.437 299.82V289.699L197.587 287.65L193.706 290.663L185.033 298.374C185.033 298.374 188.854 300.904 194.312 300.904Z" fill="#4B7021"/>
<path d="M236.064 170.094L230.664 178.347L236.48 186.188L241.88 178.347L236.064 170.094Z" fill="#4B7021"/>
<path d="M227.898 183.958L224.64 188.938L228.149 193.668L231.407 188.938L227.898 183.958Z" fill="#DCDCDC"/>
<path d="M278.928 222.487L275.544 227.659L279.188 232.572L282.572 227.659L278.928 222.487Z" fill="#DCDCDC"/>
<path d="M276.185 165.126C279.947 167.608 283.67 170.149 287.492 172.537C288.705 173.295 289.093 174.099 289.073 175.498C288.986 181.528 289.033 187.559 289.044 193.59C289.044 194.011 288.939 194.351 288.704 194.701C286.073 198.605 283.452 202.516 280.845 206.435C280.609 206.79 280.365 206.935 279.927 206.932C277.125 206.91 274.323 206.922 271.52 206.919C271.331 206.919 271.142 206.896 270.952 206.883C270.978 204.844 271.113 202.809 271.167 200.773C271.215 198.964 271.263 197.151 271.36 195.348C271.446 193.754 271.443 192.158 271.547 190.563C271.727 187.794 271.743 185.015 271.829 182.241C272.023 181.446 272.216 180.651 272.412 179.857C273.472 175.557 274.524 171.256 275.602 166.961C275.758 166.342 275.761 165.665 276.185 165.126Z" fill="#4B7021"/>
<path d="M236.801 229.813C236.522 229.836 236.466 229.581 236.35 229.427C232.269 224.035 228.198 218.635 224.113 213.247C223.865 212.92 223.871 212.703 224.095 212.371C226.82 208.323 229.53 204.267 232.241 200.21C232.408 199.96 232.592 199.764 232.892 199.646C239.627 196.986 246.358 194.315 253.09 191.649C253.168 191.618 253.254 191.606 253.336 191.585C253.468 191.673 253.439 191.784 253.41 191.918C253.193 192.921 252.987 193.926 252.779 194.931C251.952 198.931 251.133 202.932 250.297 206.93C249.89 208.876 249.453 210.817 249.03 212.76C248.182 213.937 247.337 215.116 246.484 216.289C243.764 220.031 241.026 223.759 238.331 227.519C237.797 228.263 237.107 228.915 236.801 229.813Z" fill="#354C18"/>
<path d="M236.801 229.813C237.106 228.915 237.797 228.263 238.331 227.519C241.026 223.76 243.763 220.031 246.483 216.289C247.336 215.116 248.181 213.937 249.03 212.76C250.234 212.712 251.438 212.724 252.643 212.651C254.606 212.533 256.575 212.626 258.544 212.53C261.227 212.398 263.917 212.417 266.604 212.367C267.788 212.345 268.974 212.421 270.154 212.255C270.122 213.275 269.752 214.225 269.512 215.199C268.354 219.901 267.157 224.594 265.989 229.294C265.895 229.673 265.779 229.844 265.337 229.843C255.91 229.829 246.482 229.832 237.054 229.831C236.97 229.831 236.885 229.82 236.801 229.813Z" fill="#4B7021"/>
<path d="M276.185 165.126C275.761 165.665 275.758 166.342 275.602 166.961C274.524 171.256 273.472 175.558 272.412 179.857C272.216 180.651 272.023 181.446 271.829 182.241C270.093 182.686 268.357 183.127 266.623 183.576C263.439 184.402 260.252 185.217 257.076 186.073C256.294 186.285 255.459 186.362 254.752 186.816C254.555 186.649 254.641 186.422 254.641 186.223C254.636 180.784 254.644 175.344 254.624 169.904C254.622 169.392 254.784 169.258 255.275 169.163C262.112 167.824 268.944 166.456 275.777 165.096C275.916 165.068 276.06 164.974 276.185 165.126Z" fill="#DCDCDC"/>
<path d="M270.153 212.256C268.974 212.421 267.788 212.345 266.604 212.367C263.917 212.417 261.227 212.398 258.544 212.53C256.575 212.626 254.606 212.533 252.643 212.651C251.437 212.724 250.233 212.712 249.029 212.761C249.452 210.817 249.889 208.877 250.296 206.93C251.132 202.932 251.951 198.931 252.778 194.932C252.986 193.927 253.193 192.921 253.409 191.918C253.438 191.784 253.467 191.674 253.335 191.586C253.682 191.404 253.715 191.763 253.828 191.903C256.948 195.762 260.057 199.631 263.168 203.498C265.431 206.312 267.694 209.126 269.955 211.942C270.032 212.038 270.088 212.15 270.153 212.256Z" fill="#DCDCDC"/>
<path d="M254.752 186.815C255.459 186.362 256.294 186.284 257.076 186.073C260.252 185.217 263.439 184.402 266.623 183.576C268.357 183.126 270.093 182.685 271.828 182.241C271.743 185.015 271.726 187.794 271.546 190.563C271.443 192.158 271.446 193.754 271.36 195.348C271.263 197.152 271.214 198.964 271.167 200.773C271.113 202.809 270.977 204.845 270.952 206.883C269.312 204.872 267.665 202.866 266.034 200.847C262.381 196.326 258.735 191.799 255.088 187.273C254.97 187.126 254.864 186.968 254.752 186.815Z" fill="#354C18"/>
</svg>
