<svg width="550" height="550" viewBox="0 0 550 550" fill="none" xmlns="http://www.w3.org/2000/svg">
<mask id="mask0_3753_2996" style="mask-type:luminance" maskUnits="userSpaceOnUse" x="42" y="336" width="118" height="131">
<path d="M108.587 339.354C113.409 340.854 118.041 342.881 122.392 345.38C126.736 347.884 130.869 350.777 134.572 354.11C138.287 357.433 141.522 361.25 144.416 365.303C147.284 369.366 149.742 373.688 151.55 378.279C152.454 380.56 153.295 382.958 153.968 385.281C154.623 387.644 155.133 390.049 155.48 392.481C155.833 394.912 156.045 397.367 156.137 399.831C156.236 402.345 156.26 404.729 156.044 407.171C155.645 412.063 154.649 416.825 153.078 421.494C151.582 426.171 149.54 430.538 146.87 434.627C145.338 436.989 143.664 439.259 141.851 441.384C146.887 433.274 149.799 423.725 149.799 413.497C149.799 384.111 125.81 360.289 96.2183 360.289C66.6266 360.289 42.6377 384.111 42.6377 413.497C42.6377 442.884 66.6266 466.706 96.2183 466.706C97.0794 466.706 97.9345 466.681 98.7853 466.641C103.829 466.648 108.827 465.874 113.6 464.684C123.985 462.164 133.365 456.47 140.908 449.289C144.743 445.593 147.925 441.403 150.658 436.982C153.403 432.555 155.595 427.672 156.994 422.696C163.155 402.746 158.706 380.318 146.208 364.007C143.112 359.941 139.655 356.11 135.724 352.807C131.801 349.499 127.516 346.673 123.002 344.282C118.471 341.923 113.682 340.062 108.765 338.753C103.855 337.419 98.8143 336.573 93.7502 336.294C98.7987 336.782 103.775 337.831 108.587 339.354Z" fill="white"/>
</mask>
<g mask="url(#mask0_3753_2996)">
<path d="M65.3734 289.472L214.532 360.896L140.42 513.528L-8.73926 442.104L65.3734 289.472Z" fill="url(#paint0_linear_3753_2996)"/>
</g>
<path d="M26.3153 405.311L26.1995 407.653L33.5745 408.011L33.508 409.354L26.1343 408.995L26.0185 411.337L24.8164 411.279L25.1133 405.252L26.3153 405.311Z" fill="#DCDCDC"/>
<path d="M29.2868 400.229L29.8214 397.159L31.0185 397.364L30.4852 400.434L33.1088 400.884L33.7568 397.157L34.9552 397.363L34.3045 401.101L34.0776 402.404L25.6133 400.952L25.8402 399.649L26.4893 395.911L27.6767 396.114L27.0277 399.841L29.2868 400.229Z" fill="#DCDCDC"/>
<path d="M37.6768 388.197L37.205 389.629L33.7704 390.774L33.4638 391.703L36.2263 392.601L35.8087 393.868L27.6445 391.215L27.997 390.144L28.4362 388.81C28.7898 387.74 29.4343 387.26 29.9171 387.054C30.5301 386.782 31.2663 386.767 32.0253 387.013C32.7736 387.257 33.3576 387.701 33.6907 388.281C33.8464 388.549 33.9984 388.937 34.0082 389.424L37.6768 388.197ZM32.6939 390.195C32.8677 389.67 32.8436 389.227 32.6395 388.882C32.4103 388.469 31.9662 388.265 31.6476 388.161C31.3169 388.054 30.8366 387.958 30.4056 388.157C30.0376 388.315 29.7648 388.662 29.5912 389.186L29.217 390.322L32.3198 391.331L32.6939 390.195Z" fill="#DCDCDC"/>
<path d="M41.8304 379.806L41.1219 381.138L37.5425 381.692L37.0827 382.557L39.6531 383.903L39.0257 385.083L31.4287 381.102L31.9585 380.106L32.6174 378.865C33.1472 377.869 33.8642 377.504 34.3747 377.381C35.025 377.216 35.7527 377.323 36.46 377.694C37.1562 378.059 37.6572 378.595 37.8864 379.221C37.9938 379.512 38.0783 379.92 38.006 380.402L41.8304 379.806ZM36.5794 380.942C36.8389 380.453 36.8908 380.012 36.7483 379.639C36.5928 379.193 36.1896 378.917 35.8927 378.762C35.5851 378.6 35.1277 378.426 34.6702 378.55C34.2792 378.644 33.9522 378.941 33.6927 379.429L33.1303 380.486L36.0183 381.999L36.5794 380.942Z" fill="#DCDCDC"/>
<path d="M45.0253 372.383L43.1282 374.764L44.1189 376.466L43.1993 377.621L38.4746 369.171L47.8336 371.805L46.9212 372.95L45.0253 372.383ZM43.7788 372.02L41.0803 371.22L42.485 373.643L43.7788 372.02Z" fill="#DCDCDC"/>
<path d="M57.0012 361.925C57.2944 362.737 57.0724 363.706 56.4219 364.402C56.3011 364.531 56.1685 364.641 56.0274 364.742C55.7461 364.945 55.4311 365.101 55.0944 365.188C54.5247 365.328 53.9298 365.316 53.2951 365.134L53.6679 363.843C54.0554 363.962 54.4258 363.979 54.7468 363.89C55.0135 363.825 55.2524 363.682 55.4251 363.487C55.7328 363.165 55.8536 362.723 55.734 362.383C55.5964 361.999 55.1776 361.875 54.8446 361.831C54.3245 361.765 53.458 361.636 53.394 361.626L51.9555 361.44C51.5101 361.378 51.1275 361.227 50.8162 360.997C50.5122 360.776 50.2791 360.475 50.1585 360.135C50.0257 359.777 50.0137 359.388 50.1101 358.992C50.2019 358.628 50.3903 358.279 50.6593 358C50.9418 357.682 51.3182 357.454 51.7442 357.332C52.2017 357.215 52.6904 357.218 53.2009 357.348L52.8436 358.642C52.175 358.47 51.8095 358.734 51.6404 358.912C51.4304 359.135 51.34 359.441 51.4257 359.677C51.4835 359.834 51.6501 360.042 52.1437 360.112L54.1157 360.382C54.4065 360.428 54.7553 360.475 55.0075 360.507C55.5034 360.561 55.9343 360.719 56.2758 360.97C56.6102 361.213 56.8636 361.541 57.0012 361.925Z" fill="#DCDCDC"/>
<path d="M58.0327 353.373L59.2781 352.711C60.2786 352.179 61.0798 352.276 61.5662 352.448C62.2144 352.677 62.7405 353.167 63.1171 353.867C63.4948 354.567 63.6177 355.283 63.4441 355.937C63.3234 356.444 62.9588 357.158 61.9584 357.69L60.8965 358.254L62.2675 360.799L61.0823 361.427L57.0322 353.903L58.0327 353.373ZM62.055 354.431C61.8969 354.137 61.6072 353.743 61.1667 353.586C60.7806 353.452 60.3365 353.506 59.8466 353.765L58.7845 354.329L60.3231 357.189L61.3852 356.625C61.8751 356.365 62.172 356.038 62.2758 355.644C62.3867 355.193 62.2189 354.735 62.055 354.431Z" fill="#DCDCDC"/>
<path d="M69.9862 357.25L67.2295 349.17L65.9575 349.598L68.7142 357.678L69.9862 357.25Z" fill="#DCDCDC"/>
<path d="M78.3094 355.1L74.1339 352.074L74.9883 355.843L73.6788 356.136L71.79 347.814L73.0996 347.52L73.8792 350.953L75.7884 346.918L77.4368 346.549L75.2743 351.241L79.9471 354.734L78.3094 355.1Z" fill="#DCDCDC"/>
<path d="M84.1834 349.01L87.2983 348.644L87.4406 349.843L84.3259 350.208L84.6383 352.833L88.4193 352.389L88.5616 353.588L84.7687 354.033L83.4473 354.188L82.4395 345.719L83.7621 345.564L87.554 345.119L87.6953 346.306L83.9143 346.75L84.1834 349.01Z" fill="#DCDCDC"/>
<path d="M96.7964 351.581C96.566 352.413 95.8237 353.08 94.8883 353.278C94.7158 353.316 94.5422 353.33 94.3683 353.332C94.0207 353.338 93.6731 353.286 93.3461 353.164C92.7994 352.954 92.319 352.605 91.9053 352.094L92.9576 351.249C93.2061 351.568 93.4993 351.793 93.8131 351.903C94.0701 352.003 94.3477 352.022 94.6013 351.96C95.0405 351.873 95.3953 351.58 95.4942 351.233C95.6029 350.841 95.3313 350.5 95.0853 350.274C94.6979 349.923 94.0631 349.324 94.0159 349.278L92.9466 348.305C92.6172 348 92.3927 347.658 92.2708 347.292C92.1489 346.938 92.132 346.559 92.2309 346.212C92.3287 345.843 92.5447 345.517 92.8525 345.248C93.1385 345.002 93.4945 344.824 93.8759 344.749C94.291 344.651 94.7315 344.678 95.1503 344.822C95.5933 344.988 95.9914 345.269 96.3329 345.666L95.2926 346.522C94.8449 346 94.3936 346.006 94.151 346.056C93.8506 346.118 93.5983 346.317 93.5331 346.56C93.4896 346.722 93.5053 346.986 93.87 347.325L95.3264 348.672C95.5378 348.875 95.7961 349.113 95.9843 349.282C96.3596 349.61 96.6204 349.986 96.7544 350.386C96.8882 350.775 96.9063 351.189 96.7964 351.581Z" fill="#DCDCDC"/>
<path d="M131.038 420.326C130.453 419.957 129.69 420.036 129.195 420.516L117.776 431.541L109.666 420.802L118.562 405.522C118.941 404.872 118.771 404.043 118.165 403.592C117.559 403.139 116.711 403.209 116.188 403.751L105.301 415.022L103.236 412.289C102.804 411.716 102.022 411.53 101.376 411.85C100.73 412.168 100.404 412.899 100.603 413.588L101.999 418.441L90.5367 430.309L61.5076 391.572C61.0535 390.965 60.2116 390.797 59.5537 391.176C58.8965 391.557 58.6323 392.368 58.9411 393.06L80.9352 442.343C81.182 442.897 81.7297 443.227 82.3027 443.227C82.505 443.227 82.7109 443.186 82.908 443.099C83.663 442.767 84.0041 441.89 83.6689 441.14L67.0961 404.004L95.2016 441.508C95.5025 441.909 95.9924 442.132 96.4874 442.104C96.9897 442.075 97.444 441.797 97.6958 441.365L104.99 428.835L108.468 440.921C108.386 441.376 108.515 441.861 108.864 442.217C109.44 442.806 110.387 442.818 110.979 442.246L126.794 426.976L122.056 440.701C121.788 441.476 122.205 442.32 122.986 442.586C123.147 442.641 123.31 442.668 123.471 442.668C124.092 442.668 124.673 442.28 124.885 441.663L131.653 422.062C131.877 421.412 131.623 420.693 131.038 420.326ZM103.847 424.864L96.2441 437.924L92.3474 432.724L102.95 421.747L107.12 417.43L109.776 414.68L107.715 418.219L106.088 421.014L105.929 421.288L103.847 424.864ZM110.813 438.264L107.071 425.259L108.039 423.597L115.615 433.628L110.813 438.264Z" fill="#DCDCDC"/>
<path d="M95.7938 390.896L92.1729 396.428L96.0721 401.683L99.6928 396.428L95.7938 390.896Z" fill="#DCDCDC"/>
<path d="M87.2989 402.188L85.1143 405.526L87.4668 408.696L89.6516 405.526L87.2989 402.188Z" fill="#DCDCDC"/>
<path d="M34.8072 468.12C37.2312 468.12 38.6712 466.536 38.6712 463.98C38.6712 461.436 37.2312 459.84 34.8072 459.84C32.3832 459.84 30.9432 461.436 30.9432 463.98C30.9432 466.536 32.3832 468.12 34.8072 468.12ZM34.8072 466.872C33.0912 466.872 32.3112 465.984 32.3112 463.98C32.3112 461.976 33.0912 461.088 34.8072 461.088C36.5232 461.088 37.2912 461.976 37.2912 463.98C37.2912 465.984 36.5232 466.872 34.8072 466.872ZM44.8164 468V459.96H43.6764C43.3284 460.728 42.8244 460.956 41.9364 460.956H41.5524V461.88H43.5204V468H44.8164Z" fill="#5FDDF9"/>
<mask id="mask1_3753_2996" style="mask-type:luminance" maskUnits="userSpaceOnUse" x="414" y="251" width="117" height="131">
<path d="M480.189 254.355C484.978 255.854 489.577 257.881 493.899 260.38C498.213 262.885 502.316 265.777 505.994 269.11C509.683 272.433 512.896 276.25 515.77 280.303C518.617 284.366 521.058 288.688 522.854 293.279C523.752 295.56 524.587 297.958 525.255 300.281C525.906 302.644 526.412 305.05 526.757 307.481C527.108 309.913 527.318 312.367 527.41 314.831C527.507 317.345 527.531 319.729 527.317 322.171C526.921 327.063 525.932 331.826 524.371 336.494C522.886 341.171 520.858 345.538 518.207 349.628C516.685 351.99 515.023 354.259 513.222 356.384C518.223 348.274 521.115 338.725 521.115 328.498C521.115 299.111 497.293 275.289 467.907 275.289C438.521 275.289 414.698 299.111 414.698 328.497C414.698 357.884 438.521 381.706 467.907 381.706C468.762 381.706 469.611 381.681 470.456 381.641C475.464 381.648 480.428 380.874 485.168 379.684C495.48 377.164 504.795 371.47 512.286 364.289C516.094 360.593 519.255 356.403 521.969 351.982C524.695 347.555 526.871 342.672 528.261 337.696C534.378 317.746 529.961 295.318 517.549 279.007C514.474 274.941 511.042 271.11 507.138 267.807C503.242 264.499 498.987 261.673 494.505 259.282C490.005 256.923 485.249 255.062 480.367 253.753C475.49 252.419 470.485 251.573 465.456 251.294C470.469 251.782 475.41 252.831 480.189 254.355Z" fill="white"/>
</mask>
<g mask="url(#mask1_3753_2996)">
<path d="M534.378 251.294H414.698V381.706H534.378V251.294Z" fill="url(#paint1_linear_3753_2996)"/>
</g>
<path d="M404.882 341.407L407.138 340.918L407.404 341.166C407.407 341.177 407.407 341.177 407.421 341.186C407.434 341.195 407.45 341.215 407.452 341.226C407.466 341.236 407.48 341.244 407.483 341.255C407.496 341.264 407.51 341.273 407.515 341.295C407.528 341.304 407.542 341.313 407.558 341.333C407.572 341.342 407.574 341.353 407.588 341.361C407.601 341.371 407.604 341.382 407.617 341.391C407.634 341.411 407.636 341.422 407.652 341.442C407.666 341.45 407.668 341.462 407.681 341.471C407.696 341.479 407.712 341.499 407.717 341.522C407.73 341.531 407.73 341.531 407.744 341.54C407.746 341.551 407.746 341.551 407.749 341.562C407.763 341.571 407.778 341.591 407.795 341.612C407.811 341.631 407.829 341.662 407.846 341.683L407.859 341.691C408.175 342.117 408.394 342.587 408.542 343.107L408.545 343.119C408.55 343.141 408.557 343.175 408.564 343.208L408.567 343.219C408.573 343.253 408.581 343.287 408.588 343.32C408.686 343.77 408.716 344.234 408.66 344.681L408.663 344.692C408.661 344.739 408.646 344.777 408.645 344.825C408.634 344.887 408.624 344.947 408.614 345.008C408.589 345.167 408.551 345.316 408.499 345.456C408.392 345.833 408.224 346.198 408.002 346.528C407.703 346.993 407.331 347.391 406.872 347.714C406.524 347.954 406.144 348.154 405.736 348.278C405.603 348.318 405.46 348.361 405.325 348.391C405.258 348.406 405.179 348.422 405.112 348.437C404.621 348.508 404.116 348.511 403.626 348.418C403.085 348.312 402.57 348.106 402.106 347.807C401.641 347.507 401.243 347.136 400.932 346.674C400.597 346.217 400.377 345.689 400.255 345.127C400.248 345.094 400.24 345.06 400.234 345.026L400.23 345.015C400.224 344.982 400.216 344.948 400.211 344.925L400.209 344.914C400.202 344.88 400.195 344.846 400.198 344.81C400.127 344.321 400.137 343.825 400.242 343.331C400.242 343.331 400.253 343.329 400.251 343.317C400.257 343.293 400.263 343.268 400.27 343.243L400.267 343.232L401.806 342.898C401.696 343.099 401.625 343.313 401.568 343.537C401.527 343.724 401.498 343.917 401.489 344.096C401.492 344.107 401.494 344.118 401.485 344.132C401.488 344.143 401.491 344.154 401.493 344.166C401.484 344.179 401.486 344.19 401.491 344.212C401.491 344.212 401.494 344.224 401.485 344.238C401.483 344.285 401.495 344.342 401.494 344.388C401.496 344.399 401.496 344.399 401.499 344.411C401.501 344.421 401.495 344.447 401.498 344.458C401.5 344.469 401.5 344.469 401.502 344.481C401.504 344.492 401.51 344.514 401.501 344.528C401.503 344.54 401.506 344.551 401.508 344.562C401.513 344.584 401.518 344.607 401.523 344.629C401.525 344.64 401.516 344.654 401.519 344.665C401.521 344.676 401.524 344.688 401.526 344.699C401.528 344.71 401.533 344.732 401.536 344.744C401.538 344.755 401.541 344.767 401.541 344.767C401.546 344.789 401.553 344.823 401.558 344.845C401.673 345.373 401.917 345.849 402.281 346.229C402.295 346.238 402.312 346.258 402.326 346.277C402.478 346.433 402.649 346.572 402.838 346.684C402.893 346.719 402.95 346.766 403.016 346.798C403.016 346.798 403.028 346.796 403.03 346.807C403.11 346.849 403.187 346.879 403.264 346.909C403.278 346.919 403.291 346.927 403.291 346.927C403.33 346.942 403.368 346.958 403.406 346.972C403.42 346.982 403.445 346.988 403.457 346.985C403.762 347.095 404.067 347.146 404.386 347.148C404.399 347.157 404.399 347.157 404.41 347.154C404.528 347.153 404.644 347.15 404.759 347.138C404.804 347.128 404.85 347.118 404.884 347.111C404.941 347.11 404.986 347.1 405.043 347.088C405.088 347.078 405.133 347.069 405.186 347.045C405.397 346.987 405.603 346.907 405.794 346.808C406.236 346.57 406.609 346.231 406.881 345.807C407.304 345.15 407.451 344.367 407.286 343.603C407.281 343.58 407.274 343.546 407.268 343.524C407.266 343.513 407.263 343.501 407.25 343.492C407.247 343.482 407.243 343.459 407.24 343.447C407.238 343.436 407.235 343.425 407.233 343.414C407.231 343.404 407.228 343.392 407.225 343.381C407.221 343.359 407.219 343.347 407.213 343.325C407.202 343.327 407.199 343.316 407.198 343.305C407.195 343.293 407.19 343.271 407.187 343.26C407.185 343.248 407.185 343.248 407.183 343.237C407.155 343.16 407.113 343.076 407.084 343C407.083 342.988 407.083 342.988 407.069 342.98C407.066 342.969 407.061 342.946 407.048 342.937C407.045 342.926 407.042 342.914 407.04 342.903C407.026 342.895 407.024 342.883 407.022 342.872C407.008 342.863 407.003 342.841 407 342.83C406.998 342.819 406.984 342.81 406.984 342.81C406.905 342.662 406.815 342.517 406.704 342.388L406.702 342.376L405.164 342.71L405.505 344.283L404.326 344.538L403.702 341.663L404.882 341.407Z" fill="#DCDCDC"/>
<path d="M402.56 338.045L402.186 334.952L403.385 334.808L403.758 337.9L406.383 337.584L405.93 333.828L407.128 333.684L407.583 337.451L407.741 338.763L399.273 339.785L399.114 338.472L398.66 334.706L399.847 334.563L400.3 338.318L402.56 338.045Z" fill="#DCDCDC"/>
<path d="M406.573 329.875C406.365 330.396 406.064 330.85 405.679 331.249C405.296 331.647 404.854 331.966 404.34 332.195C403.827 332.422 403.266 332.548 402.691 332.559C402.116 332.571 401.55 332.466 401.017 332.258C400.508 332.049 400.052 331.747 399.643 331.364C399.245 330.98 398.937 330.538 398.709 330.025C398.48 329.511 398.354 328.95 398.344 328.375C398.333 327.8 398.437 327.235 398.645 326.701C398.854 326.191 399.145 325.737 399.528 325.327C399.922 324.928 400.365 324.621 400.867 324.394C401.392 324.164 401.954 324.039 402.528 324.028C403.103 324.017 403.669 324.121 404.191 324.33C404.712 324.538 405.166 324.829 405.565 325.212C405.964 325.607 406.283 326.05 406.51 326.552C406.738 327.077 406.864 327.637 406.876 328.213C406.887 328.788 406.783 329.353 406.573 329.875ZM400.579 330.403C401.142 330.944 401.884 331.241 402.666 331.225C403.447 331.211 404.177 330.886 404.719 330.324C405.26 329.761 405.556 329.02 405.542 328.238C405.527 327.456 405.202 326.726 404.64 326.184C404.077 325.643 403.336 325.346 402.554 325.362C401.772 325.376 401.042 325.701 400.5 326.263C399.958 326.826 399.662 327.568 399.677 328.349C399.692 329.131 400.017 329.861 400.579 330.403Z" fill="#DCDCDC"/>
<path d="M400.116 316.683L399.906 319.019L407.21 319.677L407.09 321.016L399.785 320.359L399.574 322.694L398.384 322.587L398.926 316.576L400.116 316.683Z" fill="#DCDCDC"/>
<path d="M408.909 309.836L408.633 311.141L405.034 310.377L404.327 313.706L407.926 314.469L407.649 315.774L399.304 314.004L399.581 312.699L403.146 313.456L403.853 310.126L400.287 309.369L400.564 308.065L408.909 309.836Z" fill="#DCDCDC"/>
<path d="M405.191 304.867L406.233 301.93L407.371 302.334L406.328 305.272L408.821 306.156L410.087 302.591L411.225 302.995L409.955 306.571L409.511 307.817L401.472 304.962L401.914 303.715L403.184 300.14L404.311 300.539L403.044 304.105L405.191 304.867Z" fill="#DCDCDC"/>
<path d="M414.72 295.967L414.024 297.303L410.471 297.877L410.02 298.745L412.581 300.077L411.965 301.261L404.396 297.322L404.917 296.323L405.564 295.078C406.085 294.078 406.795 293.709 407.3 293.583C407.946 293.414 408.67 293.518 409.374 293.884C410.068 294.245 410.568 294.778 410.799 295.405C410.908 295.694 410.994 296.102 410.924 296.584L414.72 295.967ZM409.512 297.132C409.766 296.642 409.814 296.201 409.672 295.828C409.514 295.383 409.112 295.11 408.816 294.956C408.51 294.796 408.055 294.624 407.601 294.751C407.214 294.848 406.89 295.146 406.635 295.635L406.083 296.696L408.96 298.193L409.512 297.132Z" fill="#DCDCDC"/>
<path d="M419.385 289.484L415.769 286.756L417.338 291.281L412.55 291.025L416.166 293.752L415.363 294.817L408.239 289.445L415.43 289.841L413.071 283.037L420.196 288.409L419.385 289.484Z" fill="#DCDCDC"/>
<path d="M423.742 282.478L421.524 284.549L422.242 286.378L421.167 287.382L417.795 278.331L426.584 282.324L425.518 283.32L423.742 282.478ZM422.574 281.935L420.046 280.742L421.062 283.345L422.574 281.935Z" fill="#DCDCDC"/>
<path d="M431.734 278.627L428.837 280.722L427.766 281.496L422.766 274.584L423.847 273.802L428.138 279.736L431.027 277.648L431.734 278.627Z" fill="#DCDCDC"/>
<path d="M441.601 272.754C441.453 272.966 441.29 273.171 441.106 273.36C440.703 273.765 440.229 274.089 439.698 274.311C439.168 274.532 438.604 274.644 438.043 274.643C437.481 274.641 436.948 274.528 436.436 274.318C435.926 274.109 435.465 273.815 435.064 273.422C434.663 273.03 434.339 272.554 434.118 272.025C433.895 271.494 433.785 270.93 433.782 270.358C433.788 269.808 433.897 269.263 434.106 268.752C434.316 268.241 434.609 267.782 435.007 267.391C435.395 266.979 435.874 266.665 436.404 266.444C436.934 266.222 437.494 266.1 438.07 266.108C438.132 266.107 438.21 266.112 438.272 266.111L438.879 267.563C438.238 267.371 437.556 267.407 436.919 267.673C436.198 267.976 435.636 268.535 435.344 269.268C435.048 269.99 435.046 270.788 435.347 271.509C435.649 272.23 436.221 272.789 436.942 273.085C437.665 273.381 438.463 273.383 439.184 273.081C439.904 272.78 440.463 272.209 440.758 271.487C440.814 271.351 440.859 271.22 440.899 271.079L441.601 272.754Z" fill="#DCDCDC"/>
<path d="M445.765 271.879C445.208 271.808 444.693 271.629 444.212 271.357C443.73 271.085 443.311 270.737 442.962 270.297C442.613 269.857 442.351 269.344 442.197 268.79C442.043 268.237 442.003 267.663 442.071 267.095C442.146 266.549 442.325 266.035 442.594 265.542C442.865 265.061 443.218 264.652 443.657 264.303C444.097 263.955 444.609 263.693 445.163 263.538C445.717 263.384 446.291 263.344 446.858 263.412C447.404 263.488 447.916 263.655 448.409 263.924C448.893 264.207 449.302 264.559 449.648 264.988C450 265.438 450.262 265.95 450.415 266.504C450.57 267.058 450.61 267.632 450.538 268.189C450.467 268.746 450.299 269.259 450.027 269.74C449.744 270.223 449.395 270.643 448.967 270.989C448.515 271.341 448.003 271.603 447.449 271.757C446.895 271.911 446.322 271.951 445.765 271.879ZM443.758 266.209C443.374 266.888 443.272 267.68 443.482 268.433C443.691 269.187 444.188 269.813 444.867 270.196C445.547 270.58 446.339 270.682 447.092 270.473C447.845 270.263 448.471 269.767 448.855 269.087C449.238 268.407 449.341 267.615 449.13 266.862C448.922 266.108 448.424 265.483 447.745 265.099C447.066 264.716 446.274 264.613 445.521 264.824C444.767 265.033 444.142 265.529 443.758 266.209Z" fill="#DCDCDC"/>
<path d="M453.806 264.626L454.707 270.036L453.391 270.255L451.924 261.442L458.174 266.359L457.275 260.959L458.603 260.738L460.068 269.54L453.806 264.626Z" fill="#DCDCDC"/>
<path d="M467.145 261.248L464.805 261.407L465.303 268.726L463.961 268.817L463.462 261.498L461.123 261.657L461.041 260.464L467.064 260.055L467.145 261.248Z" fill="#DCDCDC"/>
<path d="M475.201 268.748L473.696 268.697L471.645 265.739L470.668 265.706L470.57 268.591L469.236 268.546L469.527 260.018L470.654 260.057L472.055 260.104C473.181 260.143 473.821 260.625 474.152 261.027C474.583 261.537 474.801 262.234 474.774 263.027C474.748 263.808 474.482 264.49 474.018 264.968C473.804 265.192 473.473 265.445 473.007 265.59L475.201 268.748ZM471.904 264.552C472.455 264.57 472.875 264.424 473.149 264.134C473.483 263.8 473.556 263.319 473.568 262.986C473.58 262.642 473.538 262.157 473.229 261.801C472.975 261.493 472.566 261.33 472.014 261.311L470.819 261.27L470.709 264.512L471.904 264.552Z" fill="#DCDCDC"/>
<path d="M478.758 268.852C478.283 268.553 477.891 268.173 477.569 267.724C477.247 267.274 477.014 266.781 476.883 266.235C476.751 265.689 476.729 265.115 476.823 264.547C476.917 263.98 477.123 263.443 477.424 262.957C477.722 262.493 478.102 262.102 478.553 261.768C479.002 261.446 479.494 261.224 480.04 261.093C480.586 260.961 481.16 260.94 481.728 261.034C482.295 261.127 482.832 261.332 483.318 261.634C483.782 261.933 484.175 262.3 484.509 262.751C484.829 263.213 485.05 263.704 485.184 264.238C485.313 264.795 485.336 265.37 485.242 265.937C485.148 266.504 484.943 267.042 484.643 267.517C484.343 267.992 483.974 268.386 483.525 268.707C483.064 269.028 482.571 269.261 482.036 269.394C481.479 269.523 480.905 269.546 480.337 269.452C479.77 269.358 479.233 269.152 478.758 268.852ZM479.327 262.863C478.693 263.317 478.267 263.993 478.139 264.765C478.012 265.536 478.198 266.312 478.653 266.947C479.107 267.582 479.783 268.008 480.555 268.136C481.327 268.262 482.102 268.077 482.738 267.622C483.372 267.167 483.798 266.492 483.926 265.72C484.053 264.949 483.867 264.172 483.412 263.537C482.958 262.903 482.282 262.477 481.51 262.349C480.738 262.222 479.962 262.408 479.327 262.863Z" fill="#DCDCDC"/>
<path d="M490.94 272.187L487.531 271.109L486.271 270.711L488.842 262.577L490.114 262.979L487.906 269.961L491.304 271.036L490.94 272.187Z" fill="#DCDCDC"/>
<path d="M453.648 325.149C453.672 325.075 453.7 325.001 453.719 324.926C453.998 323.808 454.272 322.688 454.559 321.572C454.604 321.398 454.569 321.286 454.45 321.156C453.135 319.724 451.824 318.287 450.517 316.847C450.4 316.718 450.274 316.642 450.104 316.6C447.681 316.001 445.253 315.417 442.839 314.779C442.666 314.733 442.512 314.709 442.37 314.709C442.05 314.709 441.787 314.832 441.493 315.114C440.154 316.4 438.763 317.632 437.393 318.885C437.319 318.92 437.342 318.987 437.34 319.045C437.208 321.908 437.079 324.771 436.937 327.634C436.927 327.839 436.964 327.917 437.17 327.967C439.358 328.503 441.542 329.051 443.728 329.592C443.781 329.606 443.835 329.636 443.892 329.636C443.92 329.636 443.948 329.628 443.977 329.607M443.977 329.607C444.05 329.578 444.123 329.551 444.194 329.519C446.375 328.516 448.555 327.514 450.734 326.508C451.707 326.059 452.677 325.602 453.648 325.149M439.044 318.388C440.023 317.501 441.035 316.584 442.008 315.65C442.214 315.452 442.304 315.452 442.37 315.452C442.441 315.452 442.535 315.468 442.649 315.498C444.56 316.003 446.509 316.481 448.393 316.944L449.926 317.322L449.967 317.346C451.239 318.749 452.516 320.148 453.798 321.545C453.607 322.292 453.421 323.04 453.236 323.788L453.125 324.233C452.903 324.169 452.682 324.104 452.461 324.039C452.112 323.936 451.763 323.833 451.409 323.735C450.704 323.54 449.976 323.338 449.272 323.122C448.978 323.032 448.683 322.949 448.388 322.867C448.049 322.773 447.711 322.678 447.376 322.571C446.591 322.321 445.789 322.102 445.014 321.89C444.713 321.807 444.411 321.725 444.111 321.641L443.959 321.561L443.282 321.206L442.185 320.63C441.001 320.008 439.817 319.386 438.636 318.759C438.772 318.635 438.908 318.512 439.044 318.388ZM441.797 328.347C440.432 328.007 439.066 327.667 437.696 327.331C437.805 325.127 437.906 322.922 438.007 320.717L438.034 320.123C439.186 320.734 440.34 321.34 441.494 321.946L442.589 322.522L443.096 322.787L443.097 322.972C443.101 323.5 443.105 324.027 443.111 324.555L443.121 325.419C443.132 326.486 443.144 327.554 443.166 328.622C443.167 328.644 443.167 328.666 443.167 328.688L441.797 328.347Z" fill="#DCDCDC"/>
<path d="M457.8 295.301L453.924 289.763L450.324 295.301L454.201 300.562L457.8 295.301Z" fill="#DCDCDC"/>
<path d="M495.553 316.982L491.953 322.52L495.83 327.781L499.429 322.52L495.553 316.982Z" fill="#DCDCDC"/>
<path d="M447.818 304.409L445.479 301.067L443.307 304.409L445.646 307.584L447.818 304.409Z" fill="#DCDCDC"/>
<path d="M462.628 365.415L465.057 368.711L467.313 365.415L464.884 361.944L462.628 365.415Z" fill="#DCDCDC"/>
<path d="M469.975 339.466C470.101 339.475 470.228 339.49 470.354 339.491C470.546 339.491 470.738 339.491 470.931 339.491C471.638 339.491 472.345 339.49 473.052 339.49C474.02 339.49 474.989 339.492 475.957 339.499H475.967C476.253 339.499 476.413 339.402 476.569 339.166C478.307 336.536 480.054 333.912 481.808 331.292C481.965 331.057 482.035 330.829 482.034 330.547C482.027 326.5 481.996 322.453 482.054 318.406C482.067 317.468 481.809 316.928 481 316.42C478.453 314.818 475.971 313.112 473.463 311.447C473.428 311.404 473.391 311.39 473.352 311.39C473.3 311.39 473.245 311.416 473.191 311.427C468.636 312.34 464.083 313.257 459.525 314.156C459.198 314.22 459.09 314.309 459.091 314.653C459.105 318.303 459.099 321.953 459.102 325.603C459.102 325.737 459.045 325.889 459.177 326.001C459.251 326.103 459.322 326.209 459.401 326.308C461.832 329.345 464.262 332.382 466.696 335.416C467.784 336.77 468.882 338.117 469.975 339.466ZM470.641 312.696L472.386 312.346C472.377 312.398 472.366 312.448 472.353 312.499C471.808 314.685 471.272 316.875 470.737 319.064L470.226 321.154L469.947 322.301L469.942 322.322L469.272 322.495C468.482 322.698 467.691 322.902 466.901 323.108L465.572 323.455C463.919 323.885 462.209 324.33 460.531 324.785C460.404 324.82 460.275 324.848 460.146 324.877C460.048 324.899 459.948 324.921 459.845 324.946L459.844 322.092C459.844 319.679 459.844 317.266 459.835 314.852C463.438 314.141 467.04 313.419 470.641 312.696ZM481.284 328.004L481.291 330.548C481.291 330.682 481.266 330.766 481.19 330.879C479.318 333.675 477.604 336.252 475.949 338.756C474.983 338.748 474.018 338.747 473.052 338.747L471.991 338.747L470.931 338.747H470.733C470.749 338.212 470.772 337.675 470.795 337.15C470.82 336.562 470.845 335.974 470.861 335.386C470.892 334.202 470.924 332.978 470.989 331.766C471.015 331.272 471.03 330.779 471.043 330.285C471.06 329.719 471.076 329.133 471.113 328.563C471.198 327.238 471.229 325.894 471.26 324.596C471.272 324.074 471.284 323.552 471.3 323.031L471.391 322.652L471.67 321.508L472.181 319.418C472.716 317.231 473.251 315.043 473.796 312.859C473.817 312.773 473.835 312.686 473.851 312.599C474.283 312.888 474.715 313.177 475.146 313.466C476.922 314.657 478.759 315.889 480.604 317.049C481.169 317.404 481.321 317.694 481.311 318.396C481.265 321.6 481.275 324.855 481.284 328.004Z" fill="#DCDCDC"/>
<path d="M464.786 337.195C462.713 334.599 460.641 332.004 458.56 329.414C458.5 329.339 458.473 329.168 458.345 329.168C458.314 329.168 458.277 329.178 458.232 329.202C458.177 329.216 458.12 329.223 458.069 329.244C453.581 331.034 449.094 332.825 444.605 334.61C444.405 334.69 444.282 334.821 444.171 334.989C442.364 337.711 440.557 340.433 438.741 343.149C438.592 343.371 438.588 343.517 438.753 343.737C441.476 347.352 444.19 350.975 446.91 354.594C446.987 354.697 447.024 354.868 447.21 354.853C447.267 354.857 447.323 354.864 447.379 354.864C453.664 354.865 459.948 354.863 466.232 354.873H466.234C466.527 354.873 466.604 354.758 466.667 354.504C467.445 351.35 468.243 348.201 469.015 345.046C469.175 344.393 469.422 343.755 469.442 343.071C469.399 343.001 469.362 342.925 469.311 342.86C467.803 340.971 466.295 339.083 464.786 337.195ZM458.589 331.596L458.645 331.323C458.678 331.159 458.712 330.996 458.746 330.833C460.374 332.863 461.999 334.896 463.623 336.929L464.205 337.659C465.469 339.241 466.733 340.822 467.994 342.402L467.765 342.401L467.438 342.399C467.312 342.399 467.187 342.4 467.063 342.403C466.503 342.413 465.943 342.419 465.384 342.425C464.167 342.438 462.909 342.452 461.667 342.513C461.064 342.542 460.442 342.544 459.841 342.547C459.151 342.549 458.437 342.551 457.726 342.595C457.27 342.622 456.8 342.632 456.345 342.64C456.327 342.641 456.308 342.641 456.29 342.641L456.354 342.348C456.55 341.449 456.747 340.55 456.934 339.649C457.314 337.817 457.689 335.985 458.065 334.152L458.589 331.596ZM468.446 344.302C468.392 344.491 468.339 344.68 468.293 344.87C467.849 346.682 467.397 348.492 466.945 350.303C466.627 351.578 466.309 352.853 465.993 354.129C461.016 354.122 456.039 354.122 451.061 354.122L448.547 354.121C448.647 353.997 448.744 353.873 448.835 353.744C450.104 351.963 451.409 350.162 452.67 348.419L454.267 346.213C454.67 345.654 455.072 345.093 455.473 344.531L455.753 344.141C455.96 344.135 456.167 344.131 456.374 344.127C456.844 344.118 457.329 344.108 457.815 344.079C458.485 344.038 459.177 344.035 459.846 344.033C460.464 344.031 461.103 344.029 461.741 343.998C462.954 343.938 464.197 343.925 465.4 343.912C465.963 343.906 466.527 343.9 467.09 343.889C467.206 343.887 467.322 343.886 467.438 343.886L467.756 343.887L468.084 343.888C468.24 343.888 468.399 343.887 468.561 343.883C468.526 344.021 468.486 344.16 468.446 344.302Z" fill="#DCDCDC"/>
<path d="M485.406 346.585C485.35 346.64 485.291 346.692 485.238 346.749C483.596 348.499 481.954 350.25 480.314 352.002C479.583 352.785 478.857 353.573 478.128 354.359M478.128 354.359C478.134 354.437 478.135 354.515 478.146 354.593C478.309 355.733 478.477 356.874 478.632 358.015C478.656 358.194 478.73 358.285 478.889 358.36C480.647 359.191 482.403 360.028 484.156 360.869C484.273 360.925 484.383 360.952 484.502 360.952C484.544 360.952 484.587 360.949 484.631 360.942C487.102 360.584 489.571 360.21 492.047 359.891C492.622 359.818 492.929 359.612 493.168 359.074C493.923 357.378 494.748 355.713 495.545 354.036C495.601 353.976 495.553 353.922 495.534 353.868C494.577 351.166 493.618 348.465 492.67 345.76C492.614 345.598 492.56 345.531 492.422 345.531C492.395 345.531 492.364 345.534 492.329 345.539C490.101 345.867 487.871 346.183 485.642 346.505C485.56 346.517 485.462 346.495 485.406 346.585M486.528 347.193C486.519 347.173 486.511 347.153 486.503 347.132L487.884 346.934C489.282 346.733 490.68 346.532 492.082 346.327C492.803 348.386 493.532 350.442 494.26 352.498L494.484 353.131C493.2 353 491.915 352.875 490.63 352.75L489.361 352.626L488.792 352.571L488.702 352.355C488.506 351.882 488.31 351.411 488.112 350.939L487.775 350.138C487.363 349.155 486.951 348.172 486.528 347.193ZM494.203 355.117C493.63 356.307 493.038 357.539 492.489 358.771C492.362 359.057 492.286 359.111 491.952 359.154C489.994 359.406 488.012 359.697 486.094 359.978L484.525 360.207L484.478 360.199C482.771 359.38 481.061 358.565 479.347 357.754C479.244 357 479.135 356.246 479.027 355.493L478.957 355.01C479.187 354.986 479.417 354.963 479.647 354.94C480.009 354.904 480.37 354.868 480.731 354.826C481.454 354.741 482.201 354.654 482.945 354.587C483.25 354.56 483.555 354.525 483.859 354.491C484.208 354.451 484.558 354.41 484.909 354.383C485.731 354.319 486.556 354.22 487.353 354.124C487.663 354.087 487.974 354.05 488.284 354.015L488.537 354.039L489.216 354.105L490.486 354.229C491.804 354.358 493.123 354.486 494.442 354.621C494.362 354.786 494.282 354.951 494.203 355.117Z" fill="#DCDCDC"/>
<path d="M481.016 289.252C480.982 289.261 480.945 289.266 480.911 289.279C478.044 290.423 475.177 291.568 472.309 292.708C472.181 292.759 472.103 292.843 472.031 292.95C470.877 294.689 469.722 296.429 468.561 298.164C468.467 298.306 468.464 298.4 468.569 298.54C470.31 300.85 472.044 303.165 473.782 305.477C473.831 305.543 473.854 305.652 473.974 305.643C474.01 305.645 474.046 305.65 474.082 305.65C478.097 305.651 482.113 305.649 486.128 305.656H486.129C486.316 305.656 486.365 305.582 486.406 305.42C486.903 303.405 487.413 301.393 487.906 299.376C488.008 298.959 488.166 298.552 488.179 298.114C488.151 298.07 488.128 298.021 488.095 297.98C487.132 296.773 486.168 295.566 485.204 294.359C483.879 292.701 482.555 291.043 481.226 289.388C481.187 289.34 481.17 289.23 481.088 289.23C481.069 289.23 481.045 289.237 481.016 289.252ZM487.184 299.2C486.898 300.368 486.607 301.534 486.316 302.701C486.133 303.435 485.949 304.169 485.765 304.911C482.637 304.907 479.508 304.907 476.38 304.907L475.362 304.906C476.123 303.839 476.892 302.778 477.66 301.716L478.7 300.279C478.951 299.932 479.201 299.583 479.45 299.234L479.573 299.063C479.66 299.061 479.747 299.059 479.834 299.057C480.145 299.051 480.455 299.045 480.766 299.026C481.186 299.001 481.605 298.999 482.048 298.998C482.446 298.996 482.858 298.995 483.271 298.974C484.041 298.936 484.833 298.928 485.598 298.92C485.959 298.916 486.32 298.912 486.681 298.905C486.753 298.904 486.826 298.904 486.897 298.904L487.101 298.904L487.263 298.905C487.235 299.003 487.208 299.101 487.184 299.2ZM481.195 292.358L481.493 290.908C482.374 292.008 483.254 293.109 484.134 294.211L484.623 294.823C485.315 295.689 486.006 296.554 486.695 297.418C486.681 297.419 486.667 297.419 486.654 297.419C486.297 297.426 485.939 297.429 485.582 297.433C484.803 297.441 483.997 297.45 483.198 297.489C482.819 297.508 482.442 297.51 482.043 297.511C481.598 297.512 481.138 297.514 480.677 297.542C480.488 297.554 480.299 297.56 480.11 297.564C480.225 297.037 480.34 296.51 480.449 295.982C480.7 294.774 480.948 293.566 481.195 292.358Z" fill="#DCDCDC"/>
<path d="M400.224 382.12C402.648 382.12 404.088 380.536 404.088 377.98C404.088 375.436 402.648 373.84 400.224 373.84C397.8 373.84 396.36 375.436 396.36 377.98C396.36 380.536 397.8 382.12 400.224 382.12ZM400.224 380.872C398.508 380.872 397.728 379.984 397.728 377.98C397.728 375.976 398.508 375.088 400.224 375.088C401.94 375.088 402.708 375.976 402.708 377.98C402.708 379.984 401.94 380.872 400.224 380.872ZM410.833 382.12C413.029 382.12 414.361 381.28 414.361 379.756C414.361 378.64 413.665 377.992 412.501 377.788V377.692C413.533 377.524 414.073 376.876 414.073 375.964C414.073 374.596 412.909 373.84 410.857 373.84C408.361 373.84 407.209 375.016 407.209 376.588V376.696H408.577V376.612C408.577 375.556 409.105 375.064 410.749 375.064C412.309 375.064 412.789 375.436 412.789 376.216C412.789 376.936 412.285 377.296 411.313 377.296H409.249V378.376H411.493C412.501 378.376 413.053 378.748 413.053 379.564C413.053 380.512 412.453 380.896 410.785 380.896C409.009 380.896 408.577 380.404 408.577 379.348V379.18H407.209V379.372C407.209 381.004 408.313 382.12 410.833 382.12Z" fill="#5FDDF9"/>
<defs>
<linearGradient id="paint0_linear_3753_2996" x1="51.9134" y1="377.124" x2="153.616" y2="426.507" gradientUnits="userSpaceOnUse">
<stop stop-color="#DCDCDC"/>
<stop offset="0.1782" stop-color="#A9B69A"/>
<stop offset="0.3319" stop-color="#839968"/>
<stop offset="0.448" stop-color="#6B874A"/>
<stop offset="0.513" stop-color="#62803E"/>
<stop offset="0.7121" stop-color="#4B7021"/>
<stop offset="1" stop-color="#4B531F"/>
</linearGradient>
<linearGradient id="paint1_linear_3753_2996" x1="414.757" y1="316.492" x2="531.05" y2="316.492" gradientUnits="userSpaceOnUse">
<stop stop-color="#DCDCDC"/>
<stop offset="0.1782" stop-color="#A9B69A"/>
<stop offset="0.3319" stop-color="#839968"/>
<stop offset="0.448" stop-color="#6B874A"/>
<stop offset="0.513" stop-color="#62803E"/>
<stop offset="0.7121" stop-color="#4B7021"/>
<stop offset="1" stop-color="#4B531F"/>
</linearGradient>
</defs>
</svg>
