<svg width="550" height="550" viewBox="0 0 550 550" fill="none" xmlns="http://www.w3.org/2000/svg">
<mask id="mask0_3753_3111" style="mask-type:luminance" maskUnits="userSpaceOnUse" x="245" y="388" width="118" height="131">
<path d="M311.236 391.355C316.024 392.854 320.624 394.881 324.946 397.38C329.259 399.885 333.363 402.777 337.041 406.11C340.73 409.433 343.943 413.25 346.816 417.303C349.664 421.366 352.105 425.688 353.901 430.279C354.799 432.56 355.634 434.958 356.302 437.281C356.953 439.644 357.458 442.05 357.804 444.481C358.154 446.913 358.365 449.367 358.456 451.831C358.554 454.345 358.578 456.729 358.364 459.171C357.968 464.063 356.979 468.826 355.418 473.494C353.932 478.171 351.905 482.538 349.254 486.628C347.732 488.99 346.07 491.259 344.269 493.384C349.27 485.274 352.162 475.725 352.162 465.498C352.162 436.111 328.34 412.289 298.953 412.289C269.567 412.289 245.745 436.111 245.745 465.497C245.745 494.884 269.567 518.706 298.954 518.706C299.809 518.706 300.658 518.681 301.503 518.641C306.511 518.648 311.474 517.874 316.215 516.684C326.527 514.164 335.842 508.47 343.333 501.289C347.141 497.593 350.301 493.403 353.015 488.982C355.741 484.555 357.917 479.672 359.307 474.696C365.425 454.746 361.007 432.318 348.596 416.007C345.521 411.941 342.089 408.11 338.185 404.807C334.289 401.499 330.033 398.673 325.551 396.282C321.051 393.923 316.296 392.062 311.413 390.753C306.537 389.419 301.532 388.573 296.502 388.294C301.516 388.782 306.457 389.831 311.236 391.355Z" fill="white"/>
</mask>
<g mask="url(#mask0_3753_3111)">
<path d="M365.425 388.294H245.745V518.706H365.425V388.294Z" fill="url(#paint0_linear_3753_3111)"/>
</g>
<path d="M242.707 441.815L241.37 445.132L240.876 446.359L232.963 443.17L233.462 441.933L240.254 444.67L241.587 441.364L242.707 441.815Z" fill="#DCDCDC"/>
<path d="M244.621 434.126L243.161 436.785L244.414 438.3L243.705 439.59L237.675 432.042L247.274 433.092L246.571 434.371L244.621 434.126ZM243.341 433.973L240.566 433.63L242.345 435.787L243.341 433.973Z" fill="#DCDCDC"/>
<path d="M247.501 427.662L244.216 422.58L245.055 421.398L250.202 429.538L240.675 427.566L241.527 426.366L247.501 427.662Z" fill="#DCDCDC"/>
<path d="M254.576 420.796L252.52 423.027L253.373 424.799L252.376 425.881L248.331 417.105L257.401 420.428L256.411 421.502L254.576 420.796ZM253.369 420.341L250.758 419.341L251.967 421.863L253.369 420.341Z" fill="#DCDCDC"/>
<path d="M268.197 412.501L263.299 410.966L265.312 414.262L264.174 414.958L259.728 407.677L260.866 406.982L262.7 409.985L263.201 405.556L264.634 404.681L264.105 409.814L269.62 411.632L268.197 412.501Z" fill="#DCDCDC"/>
<path d="M272.509 410.362L269.141 402.525L270.365 401.999L273.735 409.835L272.509 410.362Z" fill="#DCDCDC"/>
<path d="M283.024 406.866L281.572 407.265L278.735 405.051L277.793 405.31L278.556 408.092L277.271 408.445L275.013 400.22L276.098 399.921L277.452 399.551C278.537 399.252 279.291 399.522 279.727 399.808C280.291 400.166 280.706 400.767 280.916 401.532C281.122 402.286 281.072 403.015 280.771 403.61C280.632 403.886 280.392 404.227 279.991 404.504L283.024 406.866ZM278.629 403.84C279.161 403.694 279.518 403.43 279.693 403.071C279.913 402.654 279.84 402.173 279.751 401.852C279.66 401.519 279.477 401.068 279.075 400.821C278.741 400.603 278.302 400.568 277.77 400.714L276.617 401.031L277.476 404.157L278.629 403.84Z" fill="#DCDCDC"/>
<path d="M290.613 404.02L287.593 404.324L287.055 406.216L285.591 406.363L288.392 397.112L292.97 405.62L291.518 405.766L290.613 404.02ZM290.013 402.879L288.723 400.396L287.954 403.085L290.013 402.879Z" fill="#DCDCDC"/>
<path d="M297.795 400.199L297.496 405.674L296.164 405.602L296.651 396.683L301.68 402.841L301.979 397.377L303.321 397.45L302.835 406.358L297.795 400.199Z" fill="#DCDCDC"/>
<path d="M314.043 485.539C314.684 487.024 315.279 488.555 316.653 489.554C318.978 491.244 321.593 491.103 324.105 489.164C325.994 487.145 326.495 484.846 325.368 482.28C324.662 480.674 323.953 479.073 323.439 477.391C323.385 477.139 323.334 476.887 323.274 476.636C322.925 475.177 322.488 473.743 322.251 472.253C322.01 470.743 321.931 469.209 321.649 467.713C320.847 463.454 317.359 460.578 313.079 460.573C304.669 460.564 296.26 460.571 287.85 460.568C287.313 460.568 286.785 460.617 286.256 460.707C282.644 461.315 279.475 464.675 279.222 468.148C279.086 470.025 278.823 471.886 278.396 473.719C278.078 475.091 277.718 476.453 277.377 477.82H277.377C276.767 479.466 276.143 481.106 275.41 482.701C275.178 483.208 275.052 483.756 275.014 484.328C274.886 486.231 275.535 487.821 276.845 489.159C277.018 489.276 277.196 489.387 277.364 489.511C280.141 491.564 283.807 490.882 285.693 487.964C286.269 487.072 286.64 486.08 287.047 485.108C288.034 482.748 288.72 480.286 289.417 477.829C290.036 476.781 290.919 476.168 292.153 476.287C293.222 476.39 293.986 477.002 294.452 477.978C294.56 478.205 294.614 478.459 294.693 478.7H294.693C294.705 481.834 294.712 484.969 294.73 488.103C294.733 488.571 294.727 489.035 294.818 489.507C295.177 491.377 296.357 492.623 297.818 493.669C297.866 493.72 297.914 493.771 297.963 493.822L297.964 493.815C298.187 493.869 298.416 493.909 298.635 493.98C302.273 495.154 306.148 492.746 306.312 488.487C306.438 485.22 306.329 481.945 306.326 478.673C306.576 477.357 307.357 476.542 308.654 476.332C309.844 476.14 310.741 476.697 311.401 477.682L314.043 485.539ZM299.876 438.856L294.846 446.079L300.263 452.941L305.294 446.079L299.876 438.856ZM306.749 431.393L303.908 435.472L306.968 439.348L309.809 435.472L306.749 431.393Z" fill="#DCDCDC"/>
<path d="M313.379 457.291C312.038 457.292 310.885 456.716 309.999 455.593C308.882 454.177 308.744 452.511 309.599 450.774C309.691 450.59 309.787 450.41 309.885 450.231L310.01 449.998C312.234 445.753 315.166 443.232 318.967 442.3C322.396 441.458 325.602 442.644 327.329 445.398C328.276 446.906 328.55 448.647 328.168 450.722C327.891 452.313 327.041 453.618 325.493 454.816C324.213 455.804 322.724 456.281 320.805 456.319C318.917 456.354 316.928 456.62 314.541 457.157C314.14 457.247 313.752 457.291 313.379 457.291ZM321.123 444.259C320.6 444.259 320.057 444.326 319.498 444.464C316.309 445.246 313.92 447.334 311.98 451.037L311.843 451.292C311.759 451.447 311.675 451.602 311.597 451.76C311.122 452.722 311.169 453.479 311.748 454.214C312.344 454.969 313.056 455.207 314.053 454.983C316.589 454.413 318.721 454.129 320.762 454.091C322.198 454.064 323.236 453.744 324.13 453.054C325.226 452.205 325.796 451.365 325.976 450.33C326.258 448.797 326.088 447.61 325.443 446.582C324.496 445.073 322.944 444.259 321.123 444.259Z" fill="#DCDCDC"/>
<path d="M287.861 457.322C287.536 457.322 287.202 457.285 286.863 457.21C284.451 456.677 282.006 456.37 279.389 456.27H279.388C276.492 456.159 273.611 453.731 273.052 450.948C272.504 449.251 272.752 447.31 273.738 445.608C274.774 443.819 276.446 442.58 278.323 442.211C280.371 441.808 282.448 442.11 284.505 443.105C287.339 444.476 289.511 446.733 291.144 450.006L291.31 450.31C291.45 450.567 291.59 450.824 291.712 451.088C292.418 452.609 292.211 454.187 291.112 455.655C290.3 456.742 289.149 457.322 287.861 457.322ZM279.474 454.044C282.225 454.149 284.8 454.473 287.344 455.035C288.17 455.218 288.838 454.977 289.329 454.321C290.119 453.265 289.915 452.506 289.693 452.027C289.591 451.808 289.472 451.594 289.356 451.38L289.163 451.023C287.746 448.185 285.909 446.258 283.535 445.11C281.901 444.32 280.336 444.086 278.752 444.397C277.524 444.638 276.37 445.509 275.665 446.725C274.986 447.896 274.812 449.202 275.187 450.309L275.228 450.464C275.56 452.266 277.584 453.972 279.474 454.044Z" fill="#DCDCDC"/>
<path d="M232.224 519.12C234.648 519.12 236.088 517.536 236.088 514.98C236.088 512.436 234.648 510.84 232.224 510.84C229.8 510.84 228.36 512.436 228.36 514.98C228.36 517.536 229.8 519.12 232.224 519.12ZM232.224 517.872C230.508 517.872 229.728 516.984 229.728 514.98C229.728 512.976 230.508 512.088 232.224 512.088C233.94 512.088 234.708 512.976 234.708 514.98C234.708 516.984 233.94 517.872 232.224 517.872ZM245.989 519V517.836H242.545L240.601 517.968C240.601 517.056 240.973 516.672 242.053 516.3L243.745 515.784C245.161 515.352 246.013 514.656 246.013 513.336C246.013 511.92 245.053 510.84 242.773 510.84C240.265 510.84 239.245 512.184 239.245 513.672V513.792H240.517V513.648C240.517 512.592 241.117 512.028 242.725 512.028C244.165 512.028 244.717 512.46 244.717 513.312C244.717 514.02 244.381 514.344 243.421 514.692L241.501 515.352C239.845 515.916 239.257 516.66 239.257 518.148V519H245.989Z" fill="#5FDDF9"/>
<mask id="mask1_3753_3111" style="mask-type:luminance" maskUnits="userSpaceOnUse" x="378" y="23" width="117" height="131">
<path d="M444.034 26.3545C448.823 27.8541 453.422 29.8813 457.744 32.3796C462.057 34.8844 466.161 37.7769 469.839 41.1096C473.528 44.4325 476.741 48.2501 479.614 52.3032C482.462 56.3662 484.903 60.6879 486.699 65.2787C487.597 67.5598 488.432 69.9578 489.1 72.2813C489.751 74.6436 490.257 77.0495 490.602 79.481C490.953 81.9125 491.163 84.3669 491.254 86.8312C491.352 89.3451 491.376 91.7291 491.162 94.1709C490.766 99.0627 489.777 103.825 488.216 108.494C486.73 113.171 484.703 117.538 482.052 121.627C480.53 123.989 478.868 126.259 477.067 128.384C482.068 120.274 484.96 110.725 484.96 100.497C484.96 71.111 461.138 47.2887 431.751 47.2887C402.365 47.2887 378.543 71.111 378.543 100.497C378.543 129.884 402.365 153.706 431.751 153.706C432.606 153.706 433.455 153.681 434.301 153.641C439.309 153.648 444.272 152.874 449.013 151.684C459.325 149.164 468.64 143.47 476.131 136.289C479.939 132.593 483.099 128.403 485.813 123.982C488.539 119.555 490.715 114.672 492.105 109.696C498.223 89.7464 493.805 67.3177 481.393 51.0067C478.319 46.9412 474.887 43.1104 470.983 39.8066C467.087 36.4992 462.831 33.6726 458.349 31.2818C453.849 28.9227 449.094 27.0625 444.211 25.753C439.334 24.4192 434.329 23.5731 429.3 23.2939C434.314 23.7816 439.256 24.8312 444.034 26.3545Z" fill="white"/>
</mask>
<g mask="url(#mask1_3753_3111)">
<path d="M498.224 23.2939H378.544V153.706H498.224V23.2939Z" fill="url(#paint1_linear_3753_3111)"/>
</g>
<path d="M373.219 74.0359L375.349 74.9316L375.425 75.2874C375.42 75.2978 375.42 75.2978 375.426 75.3127C375.432 75.3282 375.433 75.3535 375.429 75.3643C375.435 75.3792 375.441 75.3942 375.437 75.405C375.443 75.42 375.45 75.4349 375.441 75.4566C375.447 75.4715 375.453 75.4866 375.455 75.5123C375.46 75.5272 375.456 75.538 375.462 75.553C375.468 75.568 375.464 75.5781 375.47 75.5937C375.472 75.619 375.467 75.6298 375.469 75.6554C375.475 75.6704 375.471 75.6814 375.477 75.6962C375.483 75.7111 375.484 75.7369 375.476 75.7579C375.482 75.7728 375.482 75.7728 375.488 75.7879C375.484 75.7988 375.484 75.7988 375.479 75.8096C375.485 75.8245 375.487 75.8503 375.489 75.8759C375.49 75.9012 375.488 75.9378 375.489 75.9635L375.495 75.9785C375.51 76.5081 375.42 77.0192 375.242 77.5305L375.238 77.5412C375.229 77.5621 375.215 77.5939 375.202 77.6258L375.197 77.6365C375.184 77.6684 375.17 77.7 375.157 77.7319C374.979 78.1559 374.737 78.5533 374.435 78.8871L374.43 78.8979C374.402 78.9356 374.367 78.9589 374.339 78.9968C374.295 79.0405 374.251 79.0848 374.208 79.1292C374.097 79.2442 373.98 79.345 373.857 79.43C373.554 79.6769 373.206 79.8799 372.834 80.0232C372.322 80.2318 371.788 80.3443 371.227 80.345C370.805 80.342 370.378 80.2875 369.973 80.1544C369.841 80.1114 369.699 80.064 369.571 80.0108C369.508 79.9838 369.433 79.9526 369.37 79.9261C368.928 79.7027 368.512 79.4157 368.164 79.0572C367.782 78.6594 367.479 78.195 367.27 77.6834C367.061 77.1714 366.949 76.6375 366.959 76.0804C366.947 75.5148 367.07 74.9549 367.293 74.4253C367.306 74.3935 367.319 74.3611 367.333 74.3295L367.337 74.3192C367.351 74.2874 367.364 74.2557 367.374 74.2341L367.378 74.2239C367.391 74.1922 367.404 74.1597 367.429 74.1328C367.652 73.6907 367.945 73.2898 368.314 72.9457C368.314 72.9457 368.324 72.9507 368.329 72.9398C368.348 72.9231 368.368 72.9063 368.387 72.8894L368.392 72.8794L369.844 73.49C369.64 73.5906 369.458 73.7266 369.282 73.8771C369.141 74.0048 369.006 74.1479 368.897 74.2888C368.892 74.2994 368.888 74.3102 368.873 74.3164C368.869 74.3264 368.864 74.3372 368.859 74.348C368.844 74.354 368.84 74.3649 368.831 74.3857C368.831 74.3857 368.826 74.3965 368.812 74.4025C368.783 74.4403 368.76 74.4936 368.733 74.5312C368.728 74.5422 368.728 74.5422 368.724 74.5528C368.719 74.5631 368.699 74.5798 368.695 74.5907C368.691 74.6014 368.691 74.6014 368.686 74.6117C368.681 74.6223 368.672 74.6433 368.658 74.6499C368.653 74.6602 368.649 74.6709 368.644 74.6819C368.635 74.7028 368.626 74.7238 368.617 74.7454C368.613 74.7555 368.598 74.762 368.594 74.7723C368.589 74.783 368.585 74.7939 368.58 74.8039C368.576 74.8149 368.567 74.8358 368.562 74.8465C368.558 74.8573 368.553 74.8681 368.553 74.8681C368.545 74.889 368.531 74.9208 368.522 74.9418C368.313 75.4403 368.239 75.9707 368.32 76.4908C368.326 76.5058 368.328 76.5315 368.33 76.5573C368.365 76.7712 368.424 76.9838 368.515 77.1842C368.539 77.2441 368.56 77.3154 368.595 77.3801C368.595 77.3801 368.605 77.3842 368.601 77.395C368.643 77.4748 368.688 77.5437 368.734 77.6125C368.74 77.6282 368.746 77.6431 368.746 77.6431C368.769 77.6772 368.792 77.712 368.815 77.7467C368.821 77.7617 368.838 77.7815 368.848 77.7858C369.036 78.0517 369.256 78.2693 369.516 78.4526C369.522 78.4682 369.522 78.4682 369.532 78.4725C369.629 78.5384 369.727 78.6044 369.828 78.6594C369.87 78.6767 369.913 78.6948 369.945 78.708C369.993 78.7409 370.036 78.7589 370.089 78.781C370.131 78.7991 370.174 78.8171 370.23 78.8284C370.437 78.9027 370.651 78.9554 370.865 78.983C371.363 79.0429 371.864 78.9788 372.331 78.7883C373.053 78.4935 373.624 77.9354 373.928 77.2146C373.937 77.1937 373.95 77.1619 373.959 77.141C373.963 77.1302 373.968 77.1193 373.962 77.1044C373.966 77.0937 373.975 77.0728 373.979 77.0618C373.984 77.0517 373.988 77.0409 373.993 77.0302C373.997 77.0199 374.002 77.0091 374.006 76.9983C374.015 76.9773 374.019 76.9665 374.028 76.9456C374.018 76.9409 374.022 76.9306 374.027 76.92C374.031 76.909 374.04 76.8881 374.045 76.8774C374.049 76.8671 374.049 76.8671 374.054 76.8563C374.074 76.7778 374.089 76.6839 374.109 76.6052C374.113 76.5946 374.113 76.5946 374.107 76.5794C374.112 76.5693 374.121 76.5477 374.115 76.5329C374.119 76.5219 374.124 76.5118 374.128 76.501C374.122 76.486 374.127 76.4752 374.131 76.4644C374.125 76.4496 374.134 76.4286 374.138 76.4176C374.143 76.4075 374.136 76.3925 374.136 76.3925C374.157 76.2259 374.166 76.0553 374.149 75.8862L374.154 75.8759L372.702 75.2655L372.078 76.749L370.965 76.2811L372.106 73.568L373.219 74.0359Z" fill="#DCDCDC"/>
<path d="M374.139 68.3773L375.7 65.68L376.745 66.2848L375.185 68.9818L377.474 70.3064L379.368 67.0314L380.413 67.636L378.513 70.9203L377.851 72.065L370.466 67.7923L371.128 66.6481L373.029 63.3638L374.063 63.9629L372.169 67.2372L374.139 68.3773Z" fill="#DCDCDC"/>
<path d="M383.274 62.9198C382.782 63.1913 382.261 63.3513 381.712 63.4166C381.163 63.482 380.618 63.4484 380.076 63.2998C379.535 63.1511 379.021 62.8929 378.569 62.5369C378.117 62.1809 377.745 61.7424 377.465 61.2432C377.203 60.7585 377.043 60.2371 376.968 59.681C376.903 59.1316 376.945 58.5941 377.094 58.0523C377.243 57.5108 377.501 56.9966 377.857 56.5453C378.213 56.0936 378.651 55.7221 379.15 55.4416C379.635 55.179 380.148 55.0112 380.704 54.9376C381.262 54.8789 381.8 54.922 382.332 55.0635C382.883 55.2186 383.397 55.4768 383.849 55.8328C384.3 56.1887 384.672 56.628 384.943 57.1193C385.215 57.6113 385.382 58.1237 385.447 58.6732C385.506 59.2311 385.472 59.7758 385.33 60.3086C385.175 60.8591 384.917 61.3732 384.561 61.825C384.205 62.277 383.766 62.6484 383.274 62.9198ZM378.302 59.5307C378.394 60.3054 378.78 61.0053 379.395 61.4888C380.009 61.973 380.779 62.184 381.554 62.0922C382.33 62.0001 383.029 61.614 383.513 60.9993C383.997 60.3852 384.208 59.6145 384.116 58.8398C384.024 58.0645 383.638 57.3651 383.023 56.8809C382.409 56.3973 381.639 56.1858 380.863 56.278C380.089 56.3697 379.389 56.7562 378.905 57.3704C378.421 57.9846 378.21 58.7553 378.302 59.5307Z" fill="#DCDCDC"/>
<path d="M393.178 52.8991L388.087 52.2431L390.645 55.1372L389.646 56.0202L383.998 49.6287L384.997 48.7455L387.326 51.3815L387.047 46.9338L388.305 45.8223L388.679 50.9681L394.426 51.7955L393.178 52.8991Z" fill="#DCDCDC"/>
<path d="M398.391 49.1009L393.681 41.9868L392.568 42.7233L397.279 49.8373L398.391 49.1009Z" fill="#DCDCDC"/>
<path d="M400.497 41.545L402.802 46.5204L401.592 47.0806L397.838 38.9764L405.167 42.055L402.868 37.0904L404.088 36.5249L407.837 44.6192L400.497 41.545Z" fill="#DCDCDC"/>
<path d="M411.257 37.8671L414.274 37.0935L414.574 38.262L411.557 39.036L412.214 41.5967L415.876 40.6569L416.176 41.8262L412.503 42.7681L411.222 43.0964L409.104 34.8361L410.383 34.5079L414.057 33.5659L414.354 34.7236L410.692 35.663L411.257 37.8671Z" fill="#DCDCDC"/>
<path d="M424.03 39.0639C423.876 39.9126 423.201 40.6417 422.294 40.9222C422.127 40.9743 421.956 41.0035 421.784 41.0215C421.442 41.0576 421.093 41.0365 420.759 40.9443C420.2 40.7831 419.693 40.4781 419.239 40.0054L420.205 39.0724C420.479 39.367 420.789 39.5656 421.109 39.6475C421.371 39.7244 421.648 39.7184 421.893 39.6351C422.32 39.5092 422.644 39.1861 422.711 38.8326C422.785 38.4317 422.486 38.1166 422.221 37.9127C421.807 37.5983 421.127 37.0572 421.075 37.0158L419.932 36.1422C419.58 35.867 419.327 35.5466 419.174 35.1931C419.023 34.8502 418.972 34.4744 419.039 34.1204C419.103 33.7441 419.287 33.4013 419.568 33.1059C419.829 32.8356 420.165 32.6271 420.535 32.5193C420.937 32.3845 421.375 32.373 421.802 32.4786C422.254 32.6043 422.673 32.8494 423.046 33.2149L422.094 34.1587C421.604 33.6781 421.158 33.725 420.923 33.7962C420.632 33.8843 420.401 34.1048 420.357 34.3522C420.328 34.517 420.367 34.7789 420.758 35.0845L422.318 36.296C422.545 36.4807 422.822 36.6939 423.023 36.8467C423.423 37.1399 423.714 37.4909 423.882 37.8775C424.049 38.2531 424.103 38.6637 424.03 39.0639Z" fill="#DCDCDC"/>
<path d="M427.688 40.6799L427.674 32.1481L429.008 32.1465L429.022 40.6774L427.688 40.6799Z" fill="#DCDCDC"/>
<path d="M437.521 39.4892C437.205 40.2915 436.402 40.8771 435.458 40.9759C435.283 40.9945 435.11 40.9902 434.938 40.9747C434.595 40.9435 434.256 40.8555 433.947 40.7002C433.429 40.4336 432.992 40.0362 432.638 39.4845L433.766 38.7557C433.977 39.0979 434.242 39.3533 434.541 39.4958C434.784 39.6217 435.057 39.6696 435.314 39.6348C435.756 39.5941 436.137 39.3405 436.271 39.0063C436.421 38.6269 436.189 38.2595 435.969 38.0091C435.624 37.6197 435.06 36.9569 435.019 36.9067L434.066 35.8274C433.774 35.4887 433.587 35.1257 433.506 34.7487C433.424 34.3839 433.447 34.0046 433.581 33.6707C433.717 33.3136 433.964 33.0129 434.297 32.7773C434.605 32.5628 434.975 32.4232 435.36 32.3891C435.78 32.3345 436.212 32.4089 436.611 32.5946C437.03 32.8061 437.394 33.1278 437.69 33.5587L436.572 34.2999C436.184 33.7338 435.737 33.693 435.493 33.717C435.19 33.7476 434.921 33.9195 434.83 34.1531C434.77 34.3096 434.757 34.5738 435.081 34.9494L436.377 36.441C436.564 36.6663 436.795 36.9293 436.962 37.1174C437.298 37.483 437.517 37.8839 437.606 38.2961C437.696 38.697 437.671 39.1099 437.521 39.4892Z" fill="#DCDCDC"/>
<path d="M405.168 120.497C406.853 119.562 408.544 118.637 410.214 117.677C410.372 117.586 410.439 117.286 410.491 117.07C410.86 115.522 411.104 113.934 411.599 112.428C412.338 110.178 413.733 108.317 415.532 106.783C417.688 104.945 418.895 102.626 419.232 99.8226C419.656 96.3065 420.109 92.7938 420.554 89.2476C423.689 89.1774 426.429 90.0328 428.532 92.4521C430.305 94.4914 431.031 96.875 430.762 99.5587C430.48 102.378 430.171 105.195 429.91 108.017C429.876 108.395 429.984 108.831 430.155 109.175C430.574 110.018 431.069 110.823 431.558 111.687C432.764 110.622 433.941 109.587 435.113 108.547C436.612 107.216 438.114 105.887 439.598 104.54C439.803 104.354 439.977 104.086 440.06 103.822C440.545 102.282 440.996 100.732 441.462 99.1863C442.925 94.3369 447.888 91.9373 452.603 93.7993C453.024 93.9653 453.44 94.1417 453.897 94.3289C453.831 94.7095 453.765 95.0847 453.706 95.4264C454.642 95.3263 455.547 95.177 456.456 95.145C457.802 95.0978 459.055 95.514 460.262 96.0822C460.506 96.1967 460.77 96.2679 461.025 96.359C461.044 96.3933 461.064 96.4275 461.083 96.462C461.039 96.591 460.989 96.7187 460.951 96.8497C459.536 101.788 458.116 106.726 456.718 111.669C456.581 112.153 456.335 112.494 455.957 112.806C452.21 115.893 448.459 118.976 444.737 122.094C442.909 123.626 441.008 125.018 438.913 126.186C431.401 130.374 423.931 134.639 416.444 138.874C416.222 138.999 415.989 139.103 415.761 139.217C412.23 132.977 408.699 126.737 405.168 120.497ZM456.68 98.7403C455.098 98.3918 452.863 99.5561 452.282 101.114C451.483 103.253 450.758 105.42 449.987 107.569C449.898 107.817 449.762 108.087 449.567 108.252C446.462 110.885 443.348 113.506 440.223 116.115C440.012 116.291 439.712 116.424 439.44 116.452C436.664 116.743 433.884 117.001 431.107 117.288C430.722 117.327 430.51 117.241 430.317 116.883C429.044 114.527 427.735 112.189 426.465 109.832C426.31 109.544 426.23 109.161 426.26 108.836C426.564 105.662 426.891 102.49 427.226 99.3185C427.348 98.1535 427.211 97.0358 426.674 95.9902C426.015 94.7079 425.036 93.7692 423.631 93.2313C423.309 95.7746 423.017 98.2568 422.674 100.732C422.2 104.166 420.646 107.036 418.02 109.301C416 111.042 414.751 113.199 414.319 115.833C414.141 116.921 413.903 118 413.748 119.091C413.669 119.651 413.438 119.996 412.925 120.257C411.948 120.753 411.009 121.325 410.056 121.864C412.44 126.076 414.783 130.217 417.15 134.402C417.349 134.289 417.518 134.194 417.686 134.098C424.885 130.025 432.083 125.953 439.28 121.877C439.519 121.742 439.76 121.599 439.97 121.425C444.322 117.83 448.672 114.234 453.008 110.621C453.258 110.413 453.457 110.074 453.55 109.758C454.416 106.811 455.257 103.856 456.099 100.902C456.303 100.184 456.488 99.4613 456.68 98.7403ZM435.228 113.179C435.245 113.221 435.263 113.264 435.281 113.306C436.177 113.22 437.076 113.158 437.967 113.037C438.259 112.997 438.578 112.865 438.803 112.677C441.336 110.562 443.859 108.433 446.368 106.288C446.619 106.074 446.83 105.757 446.94 105.445C447.6 103.592 448.235 101.731 448.857 99.8649C449.196 98.8479 449.491 97.817 449.823 96.7375C449.557 96.7199 449.425 96.7012 449.293 96.7036C447.265 96.74 445.531 98.0627 444.891 100.108C444.303 101.985 443.765 103.878 443.18 105.757C443.092 106.04 442.92 106.332 442.705 106.534C441.962 107.233 441.18 107.893 440.416 108.571C438.686 110.106 436.958 111.643 435.228 113.179Z" fill="#DCDCDC"/>
<path d="M431.027 63.5435L428.899 66.817L431.191 69.9271L433.319 66.817L431.027 63.5435Z" fill="#DCDCDC"/>
<path d="M427.809 69.0425L426.525 71.0177L427.908 72.8943L429.192 71.0177L427.809 69.0425Z" fill="#DCDCDC"/>
<path d="M447.917 84.3252L446.583 86.3766L448.019 88.3255L449.353 86.3766L447.917 84.3252Z" fill="#DCDCDC"/>
<path d="M438.39 70.1762C438.434 70.2368 438.476 70.2995 438.523 70.3577C439.96 72.1528 441.396 73.9485 442.835 75.7418C443.478 76.5426 444.127 77.3382 444.773 78.1362M444.773 78.1362C444.848 78.1412 444.923 78.1503 444.997 78.1503C445.119 78.1505 445.24 78.1507 445.362 78.1507C445.77 78.1507 446.179 78.15 446.588 78.15C447.162 78.15 447.736 78.151 448.31 78.1555H448.315C448.484 78.1555 448.579 78.0976 448.671 77.9584C449.699 76.4039 450.732 74.8527 451.768 73.3041C451.861 73.1653 451.902 73.0303 451.902 72.8635C451.898 70.4712 451.879 68.0786 451.914 65.687C451.922 65.1323 451.769 64.8133 451.29 64.5125C449.785 63.5657 448.317 62.5575 446.835 61.573C446.815 61.5477 446.793 61.5396 446.77 61.5396C446.738 61.5396 446.706 61.5547 446.675 61.561C443.982 62.1007 441.29 62.6431 438.596 63.1741C438.403 63.2121 438.339 63.265 438.34 63.4681C438.348 65.6257 438.344 67.7835 438.346 69.9413C438.346 70.0201 438.312 70.1101 438.39 70.1762M439.219 69.5609C439.145 69.581 439.068 69.5979 438.987 69.6161C438.888 69.6378 438.784 69.6609 438.678 69.6917C438.678 69.0781 438.678 68.4649 438.678 67.8513C438.678 66.4247 438.677 64.9496 438.672 63.498C440.835 63.0718 443.032 62.631 445.157 62.2047L446.332 61.9689C446.327 61.9938 446.323 62.0179 446.319 62.0417C446.307 62.1054 446.297 62.1656 446.283 62.2205C445.956 63.5294 445.631 64.8616 445.316 66.15L445.025 67.3369C444.971 67.5597 444.917 67.7825 444.863 68.0055L444.842 68.0894L444.395 68.2047C443.924 68.3257 443.453 68.4466 442.983 68.5695L442.197 68.7745C441.22 69.0288 440.21 69.2916 439.219 69.5609ZM451.565 71.3585C451.567 71.8603 451.568 72.3622 451.569 72.8642C451.569 72.9638 451.548 73.0352 451.491 73.1191C450.394 74.7587 449.381 76.2819 448.393 77.7752C448.372 77.8081 448.36 77.8184 448.36 77.8189C448.358 77.8194 448.345 77.8229 448.312 77.8229H448.312C447.7 77.8181 447.097 77.8174 446.588 77.8174L445.974 77.8178L445.361 77.8181L445.112 77.8179C445.121 77.4638 445.136 77.1071 445.151 76.7596C445.166 76.4197 445.181 76.0682 445.19 75.721C445.208 75.0201 445.228 74.2956 445.266 73.5783C445.281 73.2868 445.29 72.9924 445.298 72.7075C445.307 72.3711 445.317 72.0231 445.339 71.6842C445.389 70.9036 445.408 70.1111 445.426 69.345C445.433 69.0321 445.44 68.7191 445.45 68.4064L445.513 68.146C445.566 67.929 445.618 67.712 445.671 67.4952L445.962 66.3084C446.276 65.0208 446.602 63.6892 446.928 62.3816C446.947 62.3051 446.96 62.2309 446.973 62.1593C446.978 62.1303 446.984 62.1024 446.989 62.0751C447.289 62.2748 447.588 62.4755 447.887 62.6761C448.937 63.3804 450.023 64.1084 451.113 64.794C451.482 65.0263 451.587 65.2256 451.581 65.6822C451.554 67.575 451.56 69.4982 451.565 71.3585Z" fill="#DCDCDC"/>
<path d="M441.707 76.7931C440.481 75.2592 439.256 73.7248 438.026 72.1942C437.99 72.1493 437.975 72.0483 437.899 72.0483C437.881 72.0483 437.859 72.0542 437.832 72.0683C437.8 72.0764 437.766 72.0811 437.735 72.0934C435.083 73.1511 432.431 74.2103 429.777 75.2653C429.659 75.3124 429.586 75.3899 429.52 75.4893C428.452 77.0984 427.384 78.7073 426.31 80.3127C426.222 80.4444 426.22 80.5307 426.317 80.6604C427.927 82.7976 429.531 84.9395 431.139 87.0781C431.185 87.139 431.207 87.2404 431.317 87.2313C431.35 87.2339 431.384 87.2384 431.417 87.2384C435.132 87.2388 438.847 87.2374 442.561 87.2433H442.562C442.735 87.2433 442.781 87.1754 442.818 87.0253C443.278 85.1609 443.75 83.2998 444.206 81.4343C444.301 81.0484 444.447 80.6714 444.459 80.267C444.433 80.2251 444.412 80.1804 444.381 80.1423C443.49 79.0256 442.598 77.9093 441.707 76.7931ZM437.939 73.4622L437.967 73.3259C438.003 73.1469 438.04 72.968 438.077 72.7888C439.061 74.0148 440.053 75.2564 441.015 76.4606L441.447 77.0008C442.239 77.9928 443.032 78.9845 443.824 79.977C443.767 79.978 443.711 79.9782 443.656 79.9782C443.593 79.9782 443.53 79.9779 443.467 79.9775C443.403 79.977 443.339 79.9767 443.275 79.9767C443.201 79.9767 443.128 79.9774 443.054 79.9787C442.723 79.9848 442.392 79.9885 442.06 79.992C441.343 79.9995 440.6 80.0075 439.868 80.0437C439.509 80.0612 439.14 80.0625 438.784 80.0638C438.377 80.0652 437.957 80.0667 437.539 80.0921C437.268 80.1084 436.989 80.1137 436.719 80.1194C436.664 80.1204 436.607 80.1212 436.551 80.1225C436.573 80.0216 436.595 79.9207 436.617 79.8199C436.731 79.2968 436.849 78.7559 436.96 78.2221C437.188 77.1243 437.413 76.0257 437.638 74.927L437.939 73.4622ZM443.973 81.0244C443.942 81.1317 443.911 81.2426 443.883 81.3553C443.622 82.4247 443.351 83.5108 443.088 84.5613C442.893 85.3442 442.697 86.127 442.504 86.9105C439.502 86.9059 436.452 86.9059 433.501 86.9059H431.886C431.92 86.8623 431.955 86.8189 431.99 86.7747C432.057 86.6915 432.126 86.6054 432.191 86.5141C432.943 85.4581 433.716 84.3899 434.465 83.3568C434.777 82.9253 435.09 82.4937 435.402 82.0617C435.634 81.7396 435.865 81.4163 436.097 81.0933L436.311 80.7938C436.452 80.7896 436.594 80.7868 436.732 80.7841C437.009 80.7787 437.295 80.773 437.58 80.7559C437.978 80.7318 438.389 80.7301 438.786 80.7289C439.15 80.7276 439.527 80.7263 439.901 80.7078C440.62 80.6724 441.356 80.6646 442.067 80.6569C442.401 80.6536 442.734 80.65 443.067 80.6436C443.136 80.6423 443.205 80.6418 443.275 80.6418C443.337 80.6418 443.4 80.6421 443.463 80.6426C443.528 80.643 443.592 80.6433 443.656 80.6433C443.791 80.6433 443.931 80.6418 444.075 80.635C444.047 80.7625 444.01 80.8916 443.973 81.0244Z" fill="#DCDCDC"/>
<path d="M369.224 154.12C371.648 154.12 373.088 152.536 373.088 149.98C373.088 147.436 371.648 145.84 369.224 145.84C366.8 145.84 365.36 147.436 365.36 149.98C365.36 152.536 366.8 154.12 369.224 154.12ZM369.224 152.872C367.508 152.872 366.728 151.984 366.728 149.98C366.728 147.976 367.508 147.088 369.224 147.088C370.94 147.088 371.708 147.976 371.708 149.98C371.708 151.984 370.94 152.872 369.224 152.872ZM382.509 154V152.368H383.889V151.204H382.509V145.96H381.009L376.089 151.468V152.368H381.225V154H382.509ZM377.877 151.204V151.108L381.129 147.472H381.225V151.204H377.877Z" fill="#5FDDF9"/>
<defs>
<linearGradient id="paint0_linear_3753_3111" x1="245.761" y1="453.492" x2="362.055" y2="453.492" gradientUnits="userSpaceOnUse">
<stop stop-color="#DCDCDC"/>
<stop offset="0.1782" stop-color="#A9B69A"/>
<stop offset="0.3319" stop-color="#839968"/>
<stop offset="0.448" stop-color="#6B874A"/>
<stop offset="0.513" stop-color="#62803E"/>
<stop offset="0.7121" stop-color="#4B7021"/>
<stop offset="1" stop-color="#4B531F"/>
</linearGradient>
<linearGradient id="paint1_linear_3753_3111" x1="378.6" y1="88.4916" x2="494.894" y2="88.4916" gradientUnits="userSpaceOnUse">
<stop stop-color="#DCDCDC"/>
<stop offset="0.1782" stop-color="#A9B69A"/>
<stop offset="0.3319" stop-color="#839968"/>
<stop offset="0.448" stop-color="#6B874A"/>
<stop offset="0.513" stop-color="#62803E"/>
<stop offset="0.7121" stop-color="#4B7021"/>
<stop offset="1" stop-color="#4B531F"/>
</linearGradient>
</defs>
</svg>
