<svg width="550" height="550" viewBox="0 0 550 550" fill="none" xmlns="http://www.w3.org/2000/svg">
<path d="M202.869 352.997L198.03 360.44L203.241 367.512L208.079 360.44L202.869 352.997Z" fill="white"/>
<path d="M356.759 352.997L351.921 360.44L357.132 367.512L361.97 360.44L356.759 352.997Z" fill="white"/>
<path d="M295.611 355.093H292.233V376.701H295.611V355.093Z" fill="#72DAFF"/>
<path d="M326.86 376.701H323.044L317.598 369.391H315.123V376.701H311.745V355.093H314.599H318.152C321.006 355.093 322.665 356.257 323.539 357.248C324.675 358.5 325.287 360.247 325.287 362.256C325.287 364.236 324.675 365.984 323.539 367.237C323.015 367.819 322.2 368.489 321.035 368.896L326.86 376.701ZM318.152 366.363C319.55 366.363 320.598 365.955 321.268 365.198C322.083 364.324 322.229 363.101 322.229 362.256C322.229 361.383 322.083 360.16 321.268 359.286C320.598 358.529 319.55 358.15 318.152 358.15H315.123V366.363H318.152Z" fill="#72DAFF"/>
<path d="M279.908 383.601C277.161 379.991 254.324 338.24 254.324 338.24L235.891 378.265C235.413 379.171 234.74 380.332 233.952 381.376C233.235 382.325 232.164 382.929 230.982 383.063C228.298 383.367 225.715 383.194 224.221 381.958C223.595 381.441 223.101 380.681 222.966 379.657C222.966 379.657 223.114 387.709 226.781 390.742L227.115 391.018C228.501 391.978 232.531 393.033 234.534 386.934L236.052 383.344L241.61 370.966H257.227L262.799 380.697C262.642 380.697 254.324 384.543 254.324 390.664C254.324 396.707 259.268 398.983 264.133 398.983C264.133 398.983 258.875 397.884 256.678 393.411C256.364 392.783 256.207 392.077 256.207 391.371C256.207 388.859 258.09 386.348 262.642 386.348C266.253 386.348 271.589 387.917 278.966 392.312L287.442 383.444C287.442 383.444 285.323 385.171 283.047 385.171C281.948 385.171 280.771 384.778 279.908 383.601ZM243.572 366.885L248.83 355.898L255.187 366.885H243.572Z" fill="#72DAFF"/>
<path d="M295.249 346.637C295.235 346.679 295.188 346.813 295.121 347.02C295.247 346.706 295.313 346.573 295.249 346.637Z" fill="#72DAFF"/>
<mask id="mask0_3753_3226" style="mask-type:luminance" maskUnits="userSpaceOnUse" x="222" y="266" width="93" height="27">
<path d="M294.154 266.73C290.8 267.357 288.214 269.392 285.763 271.643C281.652 275.42 276.861 276.726 271.365 275.569C268.415 274.948 266.044 273.312 263.733 271.547C259.485 268.303 254.637 266.734 249.364 266.636C245.995 266.574 242.688 267.28 239.571 268.642C234.493 270.861 229.426 273.084 223.79 273.52C222.731 273.602 222.021 274.723 222.11 275.788C222.199 276.858 222.959 277.569 224.101 277.596C224.865 277.615 225.638 277.637 226.394 277.548C230.879 277.02 235.215 275.887 239.494 274.446C242.335 273.489 245.195 272.708 248.334 273.147C251.192 273.547 253.689 274.513 255.995 276.173C258.127 277.708 259.562 279.935 261.568 281.605C265.452 284.835 269.909 286.796 274.882 287.167C282.306 287.723 288.801 285.36 294.143 280.064C294.74 279.47 295.393 278.936 296.139 278.535C299.922 276.498 305.122 278.759 306.832 283.128C307.626 285.158 307.418 287.223 307.275 289.303C307.201 290.369 307.242 291.434 308.435 291.915C309.617 292.391 310.502 291.821 311.255 290.956C311.48 290.698 311.698 290.431 311.9 290.154C313.686 287.685 314.452 284.904 314.432 281.875C314.376 278.237 313.022 275.081 310.628 272.415C307.057 268.44 302.772 266.379 297.807 266.379C296.627 266.379 295.409 266.496 294.154 266.73Z" fill="white"/>
</mask>
<g mask="url(#mask0_3753_3226)">
<path d="M314.452 266.379H222.021V292.391H314.452V266.379Z" fill="url(#paint0_linear_3753_3226)"/>
</g>
<path d="M275.194 266.351C274.323 266.272 273.448 266.429 272.579 266.136C271.687 265.836 271.15 265.279 271.018 264.367C270.875 263.372 271.197 262.542 272.083 262.015C272.473 261.784 272.917 261.64 273.344 261.477C277.183 260.011 279.771 257.392 280.106 253.204C280.402 249.508 277.804 245.671 273.488 245.227C270.376 244.907 268.068 246.222 266.762 249.112C265.239 252.483 263.178 255.4 260.045 257.48C254.629 261.077 247.479 260.663 242.451 256.534C241.31 255.597 240.421 254.482 239.501 253.37C238.415 252.058 236.957 251.334 235.408 250.746C234.05 250.231 233.696 249.692 233.811 248.227C233.901 247.094 234.671 246.566 235.671 246.357C239.238 245.613 242.392 246.662 245.245 248.743C247.689 250.525 250.866 250.721 253.141 249.088C254.377 248.201 255.021 246.898 255.482 245.503C257.271 240.088 260.829 236.295 266.116 234.248C272.12 231.924 277.83 232.724 283.033 236.495C287.125 239.46 289.621 243.557 290.217 248.547C290.772 253.191 289.524 257.497 286.425 261.117C284.119 263.81 281.227 265.553 277.705 266.217C276.863 266.376 276.029 266.274 275.194 266.351Z" fill="#B4E8F6"/>
<mask id="mask1_3753_3226" style="mask-type:luminance" maskUnits="userSpaceOnUse" x="296" y="240" width="42" height="27">
<path d="M326.57 240.11C322.946 240.172 319.993 241.229 317.935 244.304C317.46 245.013 317.172 245.752 317.647 246.634C318.407 248.042 319.417 248.495 320.977 247.997C322.184 247.612 323.376 247.387 324.659 247.722C326.557 248.218 327.681 250.088 327.099 251.944C326.456 253.998 324.035 255.625 321.616 255.769C318.457 255.957 315.684 254.934 313.116 253.227C310.398 251.42 307.516 250.429 304.184 250.923C300.983 251.398 298.716 253.078 297.162 255.848C296.55 256.937 297.288 257.971 299.304 259.433C303.352 257.414 304.848 257.401 307.41 260.154C311.345 264.383 316.286 266.328 321.69 266.617C326.719 266.438 330.873 264.895 334.134 261.371C337.66 257.56 338.692 253.04 337.297 248.097C336.108 243.889 331.69 240.109 326.734 240.109C326.68 240.109 326.625 240.109 326.57 240.11Z" fill="white"/>
</mask>
<g mask="url(#mask1_3753_3226)">
<path d="M338.692 240.108H296.551V266.617H338.692V240.108Z" fill="url(#paint1_linear_3753_3226)"/>
</g>
<path d="M327.792 274.799L324.475 279.902L328.047 284.75L331.364 279.902L327.792 274.799Z" fill="#72DAFF"/>
<path d="M296.096 225.04L292.646 230.348L296.361 235.392L299.812 230.348L296.096 225.04Z" fill="white"/>
<defs>
<linearGradient id="paint0_linear_3753_3226" x1="222.128" y1="279.386" x2="314.55" y2="279.386" gradientUnits="userSpaceOnUse">
<stop stop-color="#72DAFF"/>
<stop offset="1" stop-color="white"/>
</linearGradient>
<linearGradient id="paint1_linear_3753_3226" x1="296.94" y1="253.35" x2="337.884" y2="253.35" gradientUnits="userSpaceOnUse">
<stop stop-color="#72DAFF"/>
<stop offset="1" stop-color="white"/>
</linearGradient>
</defs>
</svg>
