<svg width="550" height="550" viewBox="0 0 550 550" fill="none" xmlns="http://www.w3.org/2000/svg">
<mask id="mask0_3753_3605" style="mask-type:luminance" maskUnits="userSpaceOnUse" x="71" y="395" width="117" height="133">
<path d="M136.986 398.763C141.786 400.276 146.397 402.323 150.729 404.845C155.053 407.374 159.167 410.294 162.854 413.659C166.552 417.013 169.773 420.867 172.654 424.959C175.509 429.06 177.956 433.423 179.756 438.058C180.656 440.361 181.493 442.782 182.163 445.127C182.816 447.512 183.322 449.941 183.669 452.396C184.02 454.85 184.231 457.328 184.323 459.816C184.421 462.354 184.445 464.76 184.23 467.225C183.833 472.163 182.841 476.972 181.277 481.684C179.788 486.406 177.755 490.815 175.097 494.944C173.572 497.328 171.905 499.619 170.1 501.765C175.114 493.577 178.013 483.937 178.013 473.612C178.013 443.945 154.132 419.896 124.673 419.896C95.2139 419.896 71.333 443.945 71.333 473.612C71.333 503.278 95.2139 527.327 124.673 527.327C125.53 527.327 126.381 527.303 127.228 527.262C132.249 527.269 137.224 526.487 141.977 525.286C152.314 522.742 161.652 516.994 169.162 509.745C172.979 506.013 176.148 501.784 178.868 497.32C181.601 492.851 183.782 487.922 185.176 482.898C191.308 462.759 186.88 440.116 174.438 423.65C171.355 419.546 167.914 415.678 164.001 412.343C160.095 409.004 155.829 406.15 151.336 403.737C146.825 401.355 142.058 399.477 137.163 398.155C132.275 396.809 127.257 395.955 122.215 395.673C127.242 396.165 132.195 397.225 136.986 398.763Z" fill="white"/>
</mask>
<g mask="url(#mask0_3753_3605)">
<path d="M191.308 395.673H71.333V527.328H191.308V395.673Z" fill="url(#paint0_linear_3753_3605)"/>
</g>
<path d="M60.3362 480.227L62.6261 479.883L62.8754 480.151C62.8772 480.162 62.8772 480.162 62.8904 480.172C62.9036 480.182 62.9182 480.203 62.9198 480.214C62.9332 480.225 62.9464 480.234 62.948 480.245C62.9608 480.255 62.974 480.265 62.9776 480.288C62.9908 480.298 63.0034 480.307 63.0184 480.328C63.0316 480.338 63.0334 480.35 63.0466 480.359C63.0592 480.37 63.061 480.381 63.0742 480.391C63.0894 480.412 63.0905 480.423 63.1054 480.444C63.1188 480.454 63.1204 480.466 63.133 480.475C63.1464 480.485 63.1614 480.506 63.165 480.529C63.1776 480.54 63.1776 480.54 63.1908 480.549L63.1944 480.572C63.2076 480.582 63.2221 480.603 63.237 480.624C63.2514 480.646 63.2684 480.678 63.2834 480.699L63.2959 480.709C63.5842 481.159 63.7728 481.647 63.8864 482.181L63.8882 482.192C63.8918 482.215 63.8965 482.25 63.9021 482.284L63.9037 482.295C63.9087 482.33 63.914 482.364 63.9188 482.399C63.9866 482.858 63.9866 483.327 63.9014 483.774L63.9027 483.785C63.8985 483.833 63.8805 483.871 63.8762 483.918C63.8618 483.979 63.8474 484.04 63.8331 484.101C63.7981 484.258 63.75 484.406 63.6894 484.544C63.5578 484.916 63.3663 485.273 63.1222 485.591C62.7925 486.04 62.3938 486.417 61.9131 486.711C61.5497 486.93 61.1569 487.107 60.7399 487.204C60.6047 487.236 60.4588 487.27 60.3219 487.291C60.2533 487.301 60.1736 487.313 60.1057 487.323C59.6101 487.362 59.1048 487.333 58.6207 487.206C58.0867 487.063 57.5851 486.822 57.1401 486.49C56.6948 486.158 56.3206 485.757 56.0396 485.271C55.7349 484.789 55.5493 484.242 55.464 483.668C55.4592 483.634 55.4537 483.599 55.449 483.565L55.4471 483.554C55.4424 483.519 55.4369 483.485 55.4334 483.461L55.4321 483.45C55.4268 483.416 55.4219 483.381 55.4278 483.345C55.3889 482.847 55.4316 482.348 55.5692 481.858C55.5692 481.858 55.5806 481.856 55.5787 481.845C55.5865 481.82 55.5943 481.796 55.6027 481.771L55.6009 481.759L57.162 481.525C57.039 481.72 56.9543 481.931 56.8822 482.153C56.8282 482.338 56.7867 482.531 56.7669 482.71C56.7687 482.722 56.7699 482.733 56.7603 482.747C56.7621 482.758 56.7638 482.77 56.7658 482.781C56.756 482.794 56.7572 482.805 56.761 482.828C56.761 482.828 56.7626 482.84 56.753 482.853C56.7484 482.901 56.7567 482.958 56.7526 483.006C56.7537 483.017 56.7537 483.017 56.7554 483.029C56.7572 483.04 56.7494 483.065 56.7512 483.076C56.7526 483.088 56.7526 483.088 56.7544 483.099C56.756 483.111 56.7597 483.134 56.7501 483.147C56.7512 483.159 56.753 483.17 56.755 483.181C56.7585 483.204 56.7616 483.227 56.7651 483.25C56.7669 483.261 56.7572 483.275 56.7592 483.286C56.7603 483.298 56.7621 483.309 56.7638 483.321C56.7658 483.332 56.7687 483.355 56.7704 483.367C56.7724 483.378 56.7742 483.39 56.7742 483.39C56.7776 483.413 56.7826 483.447 56.7861 483.47C56.866 484.009 57.0792 484.506 57.4186 484.912C57.4318 484.922 57.4469 484.943 57.4614 484.964C57.6024 485.13 57.7647 485.282 57.946 485.407C57.999 485.446 58.053 485.497 58.1167 485.534C58.1167 485.534 58.1281 485.532 58.13 485.544C58.2069 485.591 58.2819 485.627 58.357 485.662C58.3702 485.672 58.3827 485.682 58.3827 485.682C58.4206 485.699 58.4585 485.718 58.4958 485.735C58.5091 485.745 58.5335 485.753 58.5449 485.752C58.8436 485.882 59.1457 485.954 59.4634 485.977C59.4766 485.987 59.4766 485.987 59.488 485.985C59.6051 485.991 59.7223 485.997 59.8382 485.991C59.884 485.984 59.9296 485.977 59.9637 485.972C60.0222 485.975 60.0678 485.969 60.1249 485.96C60.1705 485.953 60.216 485.946 60.2713 485.926C60.4858 485.882 60.6973 485.815 60.8943 485.728C61.352 485.517 61.748 485.2 62.0482 484.792C62.5138 484.158 62.7128 483.378 62.5972 482.598C62.5937 482.575 62.5889 482.54 62.5853 482.517C62.5835 482.506 62.5818 482.494 62.5689 482.485C62.5673 482.473 62.5637 482.45 62.5618 482.439C62.56 482.427 62.5589 482.416 62.5571 482.405C62.5552 482.393 62.5534 482.382 62.5516 482.37C62.5486 482.347 62.547 482.336 62.5432 482.313C62.5318 482.315 62.53 482.303 62.5288 482.292C62.5272 482.28 62.5234 482.257 62.5215 482.246C62.5199 482.234 62.5199 482.234 62.5186 482.223C62.4951 482.144 62.4586 482.056 62.4352 481.977C62.4339 481.966 62.4339 481.966 62.4207 481.956C62.4188 481.944 62.4154 481.922 62.4027 481.912C62.4008 481.9 62.399 481.889 62.3972 481.877C62.384 481.867 62.3824 481.856 62.381 481.845C62.3678 481.835 62.3642 481.812 62.3624 481.8C62.3612 481.789 62.348 481.779 62.348 481.779C62.2783 481.625 62.1978 481.473 62.0957 481.336L62.0941 481.324L60.5332 481.559L60.7712 483.165L59.5746 483.345L59.1396 480.407L60.3362 480.227Z" fill="#F8F8F9"/>
<path d="M62.5298 475.3C62.2859 475.644 61.9828 475.908 61.6307 476.093C61.245 476.302 60.8101 476.407 60.3381 476.422L54.695 476.588L54.6554 475.243L60.2988 475.076C60.8053 475.061 61.1915 474.864 61.4463 474.508C61.69 474.176 61.8258 473.696 61.8109 473.186C61.7965 472.687 61.6331 472.216 61.37 471.887C61.0949 471.547 60.6983 471.384 60.1914 471.399L54.5484 471.566L54.5088 470.209L60.1518 470.042C60.6239 470.029 61.0647 470.12 61.4618 470.294C61.8241 470.469 62.1424 470.715 62.4055 471.032C62.8597 471.588 63.1234 472.334 63.1467 473.146C63.1708 473.958 62.951 474.719 62.5298 475.3Z" fill="#F8F8F9"/>
<path d="M61.8698 461.716C62.6772 462.029 63.2689 462.837 63.3745 463.79C63.3943 463.966 63.3914 464.141 63.377 464.314C63.3481 464.661 63.2618 465.003 63.1079 465.316C62.8442 465.842 62.4484 466.286 61.8974 466.647L61.1592 465.513C61.5016 465.297 61.7551 465.027 61.8962 464.724C62.0212 464.479 62.0675 464.203 62.0308 463.944C61.9876 463.497 61.7298 463.114 61.3941 462.981C61.0134 462.832 60.6461 463.069 60.3963 463.293C60.0083 463.644 59.347 464.218 59.297 464.26L58.2211 465.229C57.8841 465.526 57.5207 465.717 57.1435 465.801C56.7776 465.887 56.398 465.866 56.0617 465.733C55.7029 465.598 55.3996 465.35 55.1618 465.016C54.9444 464.706 54.8019 464.333 54.7654 463.945C54.7082 463.521 54.7792 463.084 54.9637 462.68C55.1725 462.256 55.4922 461.887 55.9228 461.585L56.6731 462.709C56.1079 463.104 56.0706 463.555 56.0959 463.802C56.1284 464.107 56.3024 464.378 56.5381 464.468C56.6947 464.528 56.9598 464.539 57.3346 464.21L58.8219 462.891C59.0458 462.7 59.3084 462.466 59.4958 462.296C59.8605 461.954 60.2606 461.731 60.6732 461.638C61.0746 461.544 61.4889 461.567 61.8698 461.716Z" fill="#F8F8F9"/>
<path d="M57.9487 451.597L57.4751 453.917L64.6796 455.406L64.408 456.737L57.2043 455.247L56.7311 457.567L55.5566 457.324L56.7744 451.354L57.9487 451.597Z" fill="#F8F8F9"/>
<path d="M68.6444 442.436C68.213 442.8 67.7307 443.059 67.2033 443.23C66.6759 443.4 66.134 443.472 65.5723 443.43C65.0114 443.388 64.4562 443.231 63.9439 442.966C63.4314 442.7 62.9821 442.337 62.6102 441.898C62.2595 441.468 62.0018 440.982 61.8221 440.446C61.6527 439.915 61.5915 439.375 61.6342 438.81C61.6762 438.244 61.8317 437.685 62.0949 437.169C62.3581 436.653 62.7184 436.2 63.1558 435.826C63.5823 435.473 64.0537 435.208 64.5867 435.027C65.1241 434.862 65.6613 434.801 66.2121 434.838C66.7832 434.885 67.3385 435.042 67.8507 435.307C68.3632 435.572 68.813 435.935 69.1741 436.37C69.5351 436.805 69.7983 437.28 69.9677 437.811C70.1318 438.353 70.2031 438.898 70.1666 439.453C70.1189 440.029 69.9635 440.587 69.6997 441.103C69.4366 441.62 69.0762 442.073 68.6444 442.436ZM63.1046 440.04C63.3437 440.79 63.8579 441.408 64.5547 441.768C65.2516 442.129 66.0499 442.19 66.7948 441.948C67.539 441.707 68.1529 441.19 68.511 440.489C68.869 439.786 68.9296 438.983 68.69 438.233C68.4509 437.483 67.9374 436.865 67.2399 436.504C66.543 436.143 65.7453 436.083 65.0005 436.324C64.2556 436.565 63.6417 437.082 63.2838 437.784C62.9256 438.486 62.8657 439.29 63.1046 440.04Z" fill="#F8F8F9"/>
<path d="M70.5149 430.24L72.4454 427.765L73.3977 428.519L71.467 430.993L74.5048 433.396L73.678 434.456L66.9502 429.132L67.7697 428.082L70.128 425.06L71.0705 425.806L68.7199 428.82L70.5149 430.24Z" fill="#F8F8F9"/>
<path d="M89.6051 420.242L84.8656 417.192L85.9638 422.691L77.7441 417.404L78.9711 416.579L84.1039 419.951L83.3109 416.186L82.9067 414.322L84.4961 415.361L87.7452 417.501L86.4841 411.525L87.7008 410.706L89.6051 420.242Z" fill="#F8F8F9"/>
<path d="M96.8297 416.02L93.2432 408.2L92.0292 408.765L95.6157 416.584L96.8297 416.02Z" fill="#F8F8F9"/>
<path d="M100.226 408.946L101.595 414.306L100.301 414.642L98.0693 405.91L104.738 410.305L103.37 404.955L104.676 404.617L106.905 413.338L100.226 408.946Z" fill="#F8F8F9"/>
<path d="M116.253 407.097C116.419 408.303 116.207 409.388 115.636 410.228C115.327 410.693 114.915 411.078 114.407 411.36C113.889 411.654 113.288 411.855 112.604 411.95L111.04 412.168L110.595 412.23L109.425 403.701L110.749 403.517L111.434 403.422C112.118 403.327 112.749 403.344 113.328 403.498C113.894 403.63 114.394 403.889 114.816 404.252C115.592 404.905 116.088 405.89 116.253 407.097ZM114.929 407.281C114.809 406.408 114.47 405.717 113.957 405.284C113.378 404.791 112.598 404.618 111.617 404.755L110.932 404.851L111.736 410.712L112.421 410.617C113.403 410.48 114.105 410.09 114.531 409.468C114.909 408.912 115.047 408.143 114.929 407.281Z" fill="#F8F8F9"/>
<path d="M154.415 473.858C153.995 474.35 153.714 474.947 153.167 475.346C152.604 475.756 152.04 475.841 151.436 475.527C150.777 475.185 150.416 474.631 150.48 473.868C150.508 473.533 150.611 473.202 150.697 472.873C151.462 469.919 150.997 467.225 148.626 465.215C146.534 463.441 143.117 463.357 141.001 465.775C139.475 467.518 139.276 469.482 140.452 471.519C141.824 473.893 142.692 476.399 142.599 479.191C142.438 484.017 139.126 488.163 134.493 489.422C133.441 489.707 132.391 489.764 131.329 489.841C130.076 489.931 129.016 490.5 128 491.183C127.109 491.782 126.633 491.764 125.803 491.062C125.161 490.519 125.173 489.825 125.477 489.131C126.559 486.652 128.539 485.198 131.011 484.37C133.129 483.661 134.607 481.825 134.602 479.744C134.599 478.614 134.092 477.663 133.452 476.782C130.967 473.364 130.214 469.576 131.25 465.496C132.427 460.862 135.354 457.755 139.847 456.236C143.381 455.041 146.911 455.299 150.162 457.092C153.188 458.76 155.24 461.372 156.085 464.808C156.714 467.365 156.522 469.866 155.412 472.282C155.146 472.86 154.727 473.32 154.415 473.858Z" fill="#001D35"/>
<path d="M99.0088 487.325C99.3911 487.848 99.6272 488.464 100.144 488.903C100.674 489.354 101.231 489.481 101.857 489.213C102.539 488.922 102.94 488.397 102.933 487.631C102.93 487.295 102.851 486.957 102.791 486.623C102.247 483.62 102.91 480.967 105.424 479.142C107.642 477.531 111.056 477.704 112.986 480.275C114.378 482.128 114.431 484.101 113.107 486.043C111.563 488.308 110.511 490.741 110.397 493.532C110.199 498.358 113.194 502.741 117.721 504.344C118.748 504.708 119.792 504.844 120.845 505C122.088 505.185 123.102 505.832 124.065 506.59C124.909 507.254 125.385 507.272 126.265 506.634C126.945 506.141 126.984 505.449 126.733 504.733C125.838 502.18 123.971 500.58 121.568 499.569C119.509 498.703 118.17 496.76 118.33 494.686C118.417 493.56 118.993 492.649 119.697 491.819C122.429 488.597 123.461 484.876 122.73 480.73C121.901 476.021 119.212 472.702 114.844 470.848C111.409 469.391 107.87 469.383 104.495 470.925C101.353 472.361 99.1138 474.812 98.0155 478.175C97.1985 480.677 97.2049 483.185 98.1324 485.678C98.3545 486.275 98.7379 486.765 99.0088 487.325Z" fill="#001D35"/>
<path d="M131.417 453.114C131.055 457.118 129.485 460.731 126.259 463.535C124.16 465.36 124.128 466.471 125.504 469.532C124.371 470.988 123.589 471.507 122.802 471.023C120.804 469.793 119.628 468.063 119.366 465.673C119.093 463.186 119.904 461.074 121.31 459.107C122.64 457.248 123.47 455.218 123.419 452.868C123.38 451.068 122.246 449.226 120.75 448.691C119.398 448.208 117.988 448.99 117.571 450.385C117.289 451.328 117.422 452.22 117.672 453.126C117.996 454.298 117.634 455.035 116.575 455.56C115.912 455.888 115.376 455.654 114.866 455.282C112.656 453.668 111.958 451.448 112.013 448.755C112.089 445.025 115.027 441.788 118.196 441.014C121.878 440.116 125.182 441.007 127.893 443.73C130.401 446.249 131.424 449.376 131.417 453.114Z" fill="#001D35"/>
<path d="M135.261 499.603L132.539 503.82L135.47 507.825L138.191 503.82L135.261 499.603Z" fill="#001D35"/>
<path d="M140.069 438.273L137.348 442.489L140.278 446.495L143 442.489L140.069 438.273Z" fill="#001D35"/>
<path d="M100.187 450.079L95.8643 456.776L100.52 463.139L104.843 456.776L100.187 450.079Z" fill="#001D35"/>
<mask id="mask1_3753_3605" style="mask-type:luminance" maskUnits="userSpaceOnUse" x="233" y="24" width="118" height="133">
<path d="M299.245 27.7626C304.046 29.2765 308.657 31.323 312.989 33.8455C317.313 36.3739 321.427 39.2939 325.114 42.6586C328.812 46.0131 332.033 49.8671 334.914 53.9589C337.769 58.0604 340.215 62.4234 342.016 67.0581C342.916 69.3609 343.753 71.7817 344.423 74.1272C345.075 76.512 345.582 78.9407 345.928 81.3956C346.28 83.8502 346.491 86.3278 346.583 88.8157C346.681 91.3536 346.705 93.7603 346.49 96.2251C346.093 101.163 345.101 105.972 343.537 110.684C342.048 115.406 340.015 119.815 337.357 123.944C335.832 126.328 334.165 128.619 332.36 130.765C337.373 122.577 340.273 112.937 340.273 102.612C340.273 72.9455 316.391 48.8962 286.933 48.8962C257.474 48.8962 233.593 72.9455 233.593 102.612C233.593 132.278 257.474 156.327 286.933 156.327C287.79 156.327 288.641 156.303 289.488 156.262C294.509 156.269 299.484 155.487 304.237 154.286C314.575 151.742 323.912 145.994 331.422 138.745C335.239 135.013 338.408 130.784 341.128 126.32C343.86 121.851 346.042 116.922 347.435 111.898C353.568 91.7588 349.14 69.1161 336.697 52.6498C333.615 48.5455 330.174 44.6784 326.261 41.343C322.355 38.0038 318.089 35.1504 313.596 32.7369C309.085 30.3553 304.318 28.4773 299.423 27.1554C294.535 25.8087 289.517 24.9549 284.475 24.6729C289.501 25.1654 294.455 26.2251 299.245 27.7626Z" fill="white"/>
</mask>
<g mask="url(#mask1_3753_3605)">
<path d="M353.568 24.6733H233.593V156.328H353.568V24.6733Z" fill="url(#paint1_linear_3753_3605)"/>
</g>
<path d="M220.667 111.547C221.863 111.364 222.942 111.564 223.784 112.127C224.25 112.432 224.638 112.842 224.925 113.35C225.224 113.868 225.431 114.47 225.535 115.159L225.772 116.731L225.839 117.178L217.384 118.469L217.183 117.137L217.08 116.449C216.976 115.76 216.986 115.125 217.131 114.54C217.255 113.969 217.505 113.461 217.86 113.032C218.498 112.242 219.47 111.73 220.667 111.547ZM220.867 112.878C220.001 113.01 219.32 113.36 218.897 113.883C218.414 114.473 218.253 115.26 218.402 116.248L218.506 116.936L224.317 116.049L224.213 115.36C224.064 114.374 223.667 113.671 223.044 113.25C222.487 112.877 221.722 112.747 220.867 112.878Z" fill="#F8F8F9"/>
<path d="M219.485 106.175L219.363 103.031L220.572 102.984L220.694 106.127L223.343 106.023L223.195 102.207L224.404 102.159L224.552 105.987L224.605 107.32L216.059 107.657L216.007 106.323L215.858 102.496L217.056 102.449L217.205 106.264L219.485 106.175Z" fill="#F8F8F9"/>
<path d="M224.253 96.5631C223.991 97.0646 223.642 97.4881 223.218 97.8474C222.794 98.2061 222.319 98.479 221.784 98.6539C221.248 98.8288 220.676 98.8947 220.102 98.8449C219.528 98.7949 218.976 98.6303 218.466 98.3639C217.98 98.1002 217.559 97.7495 217.192 97.3212C216.835 96.8942 216.575 96.4173 216.402 95.8779C216.229 95.3388 216.163 94.7623 216.213 94.1845C216.262 93.6062 216.426 93.0496 216.689 92.5373C216.951 92.0473 217.288 91.6226 217.713 91.2523C218.149 90.8943 218.623 90.6328 219.147 90.4568C219.694 90.2839 220.266 90.2174 220.84 90.2669C221.414 90.3172 221.967 90.4823 222.465 90.7467C222.962 91.0115 223.384 91.3509 223.74 91.7779C224.095 92.2166 224.367 92.6944 224.541 93.2225C224.714 93.7731 224.78 94.3494 224.73 94.9277C224.68 95.5057 224.517 96.0621 224.253 96.5631ZM218.226 96.4565C218.729 97.0591 219.437 97.4354 220.217 97.5037C220.998 97.5721 221.759 97.3242 222.358 96.8172C222.957 96.3102 223.331 95.5975 223.398 94.8112C223.466 94.0253 223.22 93.2583 222.716 92.6552C222.213 92.0528 221.505 91.6765 220.725 91.6081C219.944 91.5403 219.183 91.7877 218.584 92.2947C217.985 92.8019 217.611 93.5142 217.544 94.3005C217.476 95.0864 217.723 95.8534 218.226 96.4565Z" fill="#F8F8F9"/>
<path d="M226.874 82.5873L223.09 84.035L225.809 87.0451L225.416 88.6929L221.695 84.5686L217.195 86.2846L217.588 84.6369L220.692 83.4543L218.464 80.9693L218.857 79.3213L222.088 82.9207L227.267 80.9395L226.874 82.5873Z" fill="#F8F8F9"/>
<path d="M225.683 72.7675L229.788 74.557L229.256 75.7928L225.152 74.0036L220.212 75.1506L220.784 73.819L224.465 72.9702L222.562 69.686L223.13 68.3647L225.683 72.7675Z" fill="#F8F8F9"/>
<path d="M232.803 62.7479L234.745 64.0171L234.757 64.3842C234.75 64.3939 234.75 64.3939 234.754 64.4097C234.757 64.426 234.754 64.4514 234.747 64.4617C234.751 64.4774 234.755 64.4938 234.748 64.5035C234.752 64.5191 234.755 64.5356 234.743 64.5548C234.746 64.5711 234.749 64.5869 234.746 64.6129C234.75 64.6287 234.743 64.6383 234.747 64.6548C234.751 64.6704 234.744 64.6801 234.747 64.6965C234.745 64.7225 234.739 64.7321 234.736 64.7575C234.739 64.7738 234.732 64.7835 234.736 64.7999C234.74 64.8156 234.737 64.8417 234.724 64.861C234.728 64.8768 234.728 64.8768 234.731 64.8929C234.725 64.9027 234.725 64.9027 234.718 64.9125C234.722 64.9286 234.719 64.9542 234.716 64.9802C234.713 65.0055 234.704 65.0412 234.701 65.0671L234.704 65.0829C234.625 65.6124 234.445 66.1036 234.18 66.5801L234.174 66.5898C234.161 66.6092 234.142 66.6382 234.124 66.6679L234.117 66.6776C234.098 66.7067 234.08 66.7356 234.061 66.7652C233.81 67.1543 233.501 67.5063 233.144 67.784L233.137 67.7936C233.102 67.8264 233.064 67.8433 233.03 67.8759C232.979 67.9117 232.928 67.9478 232.878 67.9835C232.748 68.0786 232.615 68.1578 232.478 68.2208C232.135 68.4119 231.757 68.5515 231.364 68.6278C230.823 68.7441 230.276 68.7604 229.722 68.6613C229.306 68.5831 228.895 68.4531 228.518 68.2486C228.396 68.1827 228.264 68.1101 228.148 68.0344C228.09 67.9962 228.022 67.9521 227.965 67.9145C227.567 67.614 227.208 67.2547 226.928 66.8367C226.622 66.3739 226.404 65.8585 226.289 65.3129C226.173 64.7672 226.157 64.2166 226.265 63.6651C226.354 63.1006 226.574 62.567 226.887 62.0799C226.907 62.0512 226.925 62.0214 226.944 61.9923L226.951 61.9827C226.969 61.9537 226.988 61.924 227 61.9047L227.006 61.8949C227.026 61.8659 227.044 61.8368 227.073 61.8139C227.372 61.4142 227.731 61.0686 228.156 60.7928C228.156 60.7928 228.166 60.7988 228.172 60.7891C228.195 60.7758 228.217 60.7627 228.239 60.7497L228.245 60.7402L229.57 61.6052C229.35 61.6687 229.147 61.7715 228.946 61.8896C228.785 61.9916 228.626 62.109 228.494 62.2301C228.488 62.2397 228.481 62.2494 228.465 62.253C228.459 62.2627 228.453 62.2725 228.447 62.2821C228.43 62.2858 228.425 62.2954 228.412 62.3149C228.412 62.3149 228.405 62.3244 228.39 62.3282C228.355 62.3608 228.324 62.4092 228.289 62.4418C228.282 62.4516 228.282 62.4516 228.276 62.4611C228.27 62.4715 228.248 62.4842 228.241 62.494C228.235 62.5041 228.235 62.5041 228.229 62.5138C228.223 62.5234 228.21 62.5429 228.194 62.5465C228.188 62.5562 228.182 62.5658 228.175 62.5755C228.163 62.5949 228.15 62.6142 228.137 62.6337C228.131 62.6438 228.115 62.647 228.109 62.6566C228.103 62.6662 228.097 62.6759 228.091 62.6862C228.084 62.696 228.072 62.7153 228.065 62.7249C228.059 62.7346 228.053 62.7444 228.053 62.7444C228.04 62.7637 228.021 62.7933 228.009 62.8127C227.714 63.27 227.548 63.7841 227.536 64.3154C227.539 64.331 227.536 64.3571 227.533 64.3831C227.529 64.6014 227.552 64.8234 227.605 65.038C227.619 65.1029 227.626 65.1766 227.65 65.2469C227.65 65.2469 227.659 65.2535 227.653 65.2632C227.68 65.3497 227.713 65.4265 227.746 65.5033C227.749 65.5198 227.752 65.5356 227.752 65.5356C227.769 65.5741 227.785 65.6124 227.802 65.651C227.805 65.6667 227.818 65.689 227.828 65.6952C227.966 65.9928 228.145 66.2481 228.368 66.4774C228.372 66.493 228.372 66.493 228.381 66.4996C228.465 66.5821 228.55 66.6649 228.64 66.7374C228.679 66.7629 228.717 66.7883 228.747 66.8069C228.789 66.8482 228.827 66.8736 228.875 66.905C228.914 66.9303 228.953 66.9559 229.007 66.9775C229.197 67.0878 229.4 67.1786 229.605 67.2431C230.086 67.3921 230.592 67.4173 231.086 67.3114C231.851 67.147 232.513 66.6944 232.939 66.0327C232.952 66.0134 232.971 65.9837 232.983 65.9644C232.989 65.9546 232.996 65.9451 232.992 65.9286C232.999 65.919 233.011 65.8995 233.018 65.8899C233.024 65.8803 233.03 65.8704 233.036 65.861C233.043 65.8512 233.049 65.8415 233.055 65.8319C233.067 65.8119 233.074 65.8023 233.087 65.7828C233.077 65.7768 233.083 65.767 233.089 65.7569C233.096 65.7472 233.108 65.7278 233.114 65.7181C233.121 65.7085 233.121 65.7085 233.127 65.6987C233.161 65.6244 233.192 65.5336 233.226 65.4592C233.233 65.4496 233.233 65.4496 233.229 65.4331C233.236 65.4235 233.248 65.4042 233.245 65.3884C233.251 65.3788 233.257 65.3684 233.263 65.3588C233.26 65.343 233.266 65.3334 233.272 65.3237C233.269 65.3074 233.282 65.288 233.288 65.2783C233.294 65.2687 233.291 65.2524 233.291 65.2524C233.34 65.0908 233.379 64.9233 233.393 64.7521L233.4 64.7424L232.075 63.8773L231.197 65.2402L230.182 64.5778L231.787 62.0856L232.803 62.7479Z" fill="#F8F8F9"/>
<path d="M234.876 57.4235L237.017 55.1337L237.899 55.9692L235.757 58.2594L237.687 60.0899L240.287 57.3096L241.168 58.1451L238.56 60.9338L237.651 61.9054L231.425 56.0005L232.334 55.0286L234.942 52.2397L235.815 53.068L233.214 55.8475L234.876 57.4235Z" fill="#F8F8F9"/>
<path d="M241.589 50.4837L244.862 54.9293L243.788 55.7309L238.457 48.4893L246.276 50.0317L243.01 45.5957L244.093 44.7876L249.417 52.0196L241.589 50.4837Z" fill="#F8F8F9"/>
<path d="M255.722 45.9753L253.012 47.3647L253.196 49.3404L251.882 50.0144L251.142 40.29L258.505 46.619L257.201 47.2872L255.722 45.9753ZM254.748 45.1204L252.642 43.2573L252.899 46.0684L254.748 45.1204Z" fill="#F8F8F9"/>
<path d="M263.568 37.2933L261.309 37.9507L263.351 45.0667L262.055 45.4436L260.013 38.3275L257.754 38.9852L257.421 37.8255L263.235 36.1328L263.568 37.2933Z" fill="#F8F8F9"/>
<path d="M270.231 43.4512L268.553 35.0063L267.241 35.2707L268.92 43.7156L270.231 43.4512Z" fill="#F8F8F9"/>
<path d="M276.349 42.1312C275.811 41.9642 275.332 41.698 274.903 41.3453C274.473 40.9927 274.118 40.5735 273.848 40.0761C273.577 39.579 273.406 39.0243 273.347 38.4473C273.289 37.8695 273.347 37.2916 273.511 36.7383C273.678 36.2077 273.943 35.7254 274.292 35.2817C274.642 34.849 275.059 34.503 275.553 34.2308C276.047 33.9586 276.598 33.7855 277.171 33.7269C277.745 33.6681 278.318 33.7263 278.868 33.8921C279.395 34.0597 279.872 34.3142 280.313 34.6663C280.744 35.0306 281.087 35.4503 281.357 35.9366C281.628 36.4454 281.8 36.9996 281.858 37.5773C281.916 38.155 281.859 38.7326 281.693 39.2747C281.527 39.8167 281.275 40.2976 280.924 40.7301C280.562 41.1638 280.147 41.5214 279.664 41.7925C279.159 42.0658 278.608 42.2388 278.035 42.2976C277.461 42.3555 276.887 42.2976 276.349 42.1312ZM275.329 36.1441C274.834 36.7546 274.599 37.5253 274.678 38.3111C274.757 39.0963 275.141 39.8041 275.748 40.3019C276.354 40.8003 277.12 41.0369 277.899 40.9576C278.679 40.8778 279.382 40.4907 279.877 39.8803C280.371 39.2692 280.607 38.4985 280.528 37.7135C280.448 36.9276 280.064 36.2205 279.458 35.722C278.852 35.2241 278.086 34.987 277.306 35.0668C276.526 35.1466 275.823 35.5334 275.329 36.1441Z" fill="#F8F8F9"/>
<path d="M287.371 36.3076L287.165 41.8399L285.829 41.7895L286.165 32.7783L291.311 38.907L291.516 33.3864L292.864 33.4378L292.529 42.4373L287.371 36.3076Z" fill="#F8F8F9"/>
<path d="M284.241 104.253C283.877 104.22 283.51 104.286 283.147 104.162C282.773 104.036 282.549 103.801 282.493 103.417C282.433 102.997 282.568 102.647 282.939 102.425C283.102 102.328 283.288 102.267 283.467 102.198C285.074 101.58 286.157 100.476 286.298 98.7101C286.422 97.1518 285.334 95.534 283.527 95.3468C282.225 95.2118 281.258 95.7662 280.712 96.9852C280.074 98.406 279.211 99.636 277.9 100.513C275.632 102.029 272.639 101.855 270.534 100.114C270.056 99.7191 269.684 99.2491 269.299 98.7803C268.844 98.2271 268.234 97.9218 267.585 97.6741C267.017 97.4569 266.868 97.2296 266.917 96.6119C266.954 96.1343 267.276 95.9115 267.695 95.8237C269.189 95.5101 270.509 95.9519 271.704 96.8294C272.727 97.5809 274.057 97.6634 275.009 96.9749C275.527 96.6011 275.796 96.0517 275.989 95.4635C276.738 93.1805 278.228 91.5813 280.441 90.7186C282.955 89.7386 285.345 90.0761 287.524 91.6657C289.237 92.916 290.282 94.6433 290.531 96.7469C290.764 98.705 290.241 100.52 288.944 102.047C287.978 103.182 286.767 103.917 285.293 104.197C284.94 104.264 284.591 104.22 284.241 104.253Z" fill="#001D35"/>
<path d="M285.697 121.374C285.965 121.123 286.295 120.949 286.507 120.628C286.725 120.298 286.761 119.973 286.57 119.635C286.363 119.266 286.043 119.073 285.615 119.126C285.427 119.15 285.243 119.216 285.06 119.272C283.413 119.775 281.885 119.569 280.701 118.26C279.655 117.104 279.532 115.155 280.847 113.892C281.794 112.983 282.896 112.825 284.069 113.452C285.437 114.182 286.867 114.622 288.437 114.507C291.152 114.308 293.413 112.324 294.018 109.65C294.156 109.043 294.164 108.441 294.184 107.833C294.207 107.116 294.504 106.498 294.866 105.902C295.183 105.38 295.162 105.109 294.749 104.65C294.429 104.296 294.038 104.318 293.654 104.507C292.282 105.18 291.507 106.344 291.096 107.774C290.744 108.999 289.743 109.884 288.571 109.928C287.935 109.951 287.387 109.683 286.877 109.337C284.897 107.994 282.747 107.648 280.472 108.33C277.889 109.105 276.204 110.846 275.449 113.446C274.854 115.491 275.079 117.501 276.16 119.318C277.167 121.01 278.684 122.123 280.638 122.529C282.091 122.831 283.496 122.666 284.831 121.978C285.151 121.813 285.401 121.564 285.697 121.374Z" fill="#001D35"/>
<path d="M303.707 104.365C301.444 104.244 299.376 103.423 297.729 101.641C296.656 100.48 296.03 100.485 294.335 101.337C293.491 100.72 293.182 100.284 293.438 99.8251C294.088 98.6573 295.038 97.9489 296.378 97.7487C297.773 97.5404 298.98 97.9584 300.117 98.7202C301.192 99.44 302.353 99.871 303.676 99.7918C304.688 99.7313 305.702 99.0449 305.971 98.1791C306.215 97.3966 305.744 96.6081 304.949 96.3992C304.413 96.2579 303.913 96.3528 303.408 96.5153C302.755 96.7251 302.332 96.5341 302.014 95.9403C301.815 95.5687 301.935 95.2572 302.135 94.9583C302.996 93.6616 304.232 93.2158 305.75 93.19C307.852 93.1541 309.738 94.7635 310.24 96.5574C310.825 98.6413 310.393 100.547 308.917 102.153C307.552 103.639 305.812 104.29 303.707 104.365Z" fill="#001D35"/>
<path d="M300.226 111.287L298.837 113.438L300.332 115.482L301.721 113.438L300.226 111.287Z" fill="#001D35"/>
<path d="M294.348 85.9062L292.903 88.1444L294.459 90.2704L295.903 88.1444L294.348 85.9062Z" fill="#001D35"/>
<path d="M269.736 105.134L267.678 108.322L269.894 111.351L271.952 108.322L269.736 105.134Z" fill="#001D35"/>
<path d="M283.799 141.144C281.201 140.875 278.626 140.329 276.147 139.522L276.904 137.164C279.219 137.918 281.624 138.428 284.05 138.679L283.799 141.144ZM291.611 141.136L291.355 138.672C293.783 138.416 296.186 137.902 298.497 137.144L299.258 139.5C296.784 140.312 294.211 140.862 291.611 141.136ZM269.001 136.325C266.745 135.014 264.617 133.458 262.675 131.701L264.32 129.858C266.135 131.5 268.123 132.953 270.231 134.178L269.001 136.325ZM306.397 136.289L305.163 134.145C307.269 132.916 309.255 131.459 311.065 129.814L312.713 131.655C310.776 133.414 308.652 134.973 306.397 136.289ZM257.436 125.861C255.896 123.737 254.576 121.446 253.511 119.054L255.757 118.041C256.751 120.276 257.984 122.416 259.423 124.4L257.436 125.861ZM317.943 125.806L315.952 124.349C317.389 122.359 318.618 120.216 319.608 117.98L321.856 118.989C320.796 121.383 319.48 123.676 317.943 125.806ZM251.084 111.57C250.543 109.014 250.265 106.381 250.26 103.744L252.72 103.739C252.726 106.204 252.985 108.665 253.49 111.053L251.084 111.57ZM324.269 111.498L321.861 110.985C322.363 108.597 322.617 106.136 322.617 103.671V103.53H325.078V103.671C325.078 106.308 324.806 108.942 324.269 111.498ZM253.463 96.4223L251.054 95.9153C251.589 93.3425 252.396 90.8205 253.453 88.4194L255.702 89.4236C254.715 91.6659 253.961 94.0202 253.463 96.4223ZM321.833 96.2239C321.32 93.826 320.553 91.4758 319.553 89.2387L321.797 88.2226C322.868 90.6175 323.689 93.1339 324.238 95.7013L321.833 96.2239ZM259.345 83.0493L257.352 81.596C258.882 79.4698 260.638 77.4977 262.571 75.7355L264.222 77.572C262.415 79.2192 260.775 81.0624 259.345 83.0493ZM315.876 82.8877C314.436 80.9094 312.785 79.0759 310.968 77.439L312.609 75.5928C314.553 77.3446 316.32 79.3058 317.86 81.4224L315.876 82.8877ZM270.116 73.2312L268.879 71.0897C271.135 69.7667 273.535 68.6819 276.011 67.8647L276.777 70.219C274.465 70.9826 272.224 71.9959 270.116 73.2312ZM305.049 73.1307C302.934 71.9076 300.687 70.9069 298.371 70.1573L299.123 67.7982C301.604 68.601 304.01 69.6723 306.274 70.9819L305.049 73.1307ZM283.916 68.6766L283.654 66.2134C284.973 66.0712 286.318 65.999 287.652 65.999H287.67C288.936 65.999 290.214 66.0639 291.468 66.1909L291.22 68.6567C290.048 68.5374 288.854 68.4769 287.669 68.4769H287.653C286.405 68.4769 285.148 68.5441 283.916 68.6766Z" fill="#001D35"/>
<path d="M57.224 531.12C59.648 531.12 61.088 529.536 61.088 526.98C61.088 524.436 59.648 522.84 57.224 522.84C54.8 522.84 53.36 524.436 53.36 526.98C53.36 529.536 54.8 531.12 57.224 531.12ZM57.224 529.872C55.508 529.872 54.728 528.984 54.728 526.98C54.728 524.976 55.508 524.088 57.224 524.088C58.94 524.088 59.708 524.976 59.708 526.98C59.708 528.984 58.94 529.872 57.224 529.872ZM67.2332 531V522.96H66.0932C65.7452 523.728 65.2412 523.956 64.3532 523.956H63.9692V524.88H65.9372V531H67.2332Z" fill="#5FDDF9"/>
<path d="M220.224 159.12C222.648 159.12 224.088 157.536 224.088 154.98C224.088 152.436 222.648 150.84 220.224 150.84C217.8 150.84 216.36 152.436 216.36 154.98C216.36 157.536 217.8 159.12 220.224 159.12ZM220.224 157.872C218.508 157.872 217.728 156.984 217.728 154.98C217.728 152.976 218.508 152.088 220.224 152.088C221.94 152.088 222.708 152.976 222.708 154.98C222.708 156.984 221.94 157.872 220.224 157.872ZM230.833 159.12C233.029 159.12 234.361 158.28 234.361 156.756C234.361 155.64 233.665 154.992 232.501 154.788V154.692C233.533 154.524 234.073 153.876 234.073 152.964C234.073 151.596 232.909 150.84 230.857 150.84C228.361 150.84 227.209 152.016 227.209 153.588V153.696H228.577V153.612C228.577 152.556 229.105 152.064 230.749 152.064C232.309 152.064 232.789 152.436 232.789 153.216C232.789 153.936 232.285 154.296 231.313 154.296H229.249V155.376H231.493C232.501 155.376 233.053 155.748 233.053 156.564C233.053 157.512 232.453 157.896 230.785 157.896C229.009 157.896 228.577 157.404 228.577 156.348V156.18H227.209V156.372C227.209 158.004 228.313 159.12 230.833 159.12Z" fill="#5FDDF9"/>
<defs>
<linearGradient id="paint0_linear_3753_3605" x1="71.3001" y1="461.496" x2="187.879" y2="461.496" gradientUnits="userSpaceOnUse">
<stop stop-color="#72DAFF"/>
<stop offset="1" stop-color="white"/>
</linearGradient>
<linearGradient id="paint1_linear_3753_3605" x1="233.516" y1="90.4961" x2="350.093" y2="90.4961" gradientUnits="userSpaceOnUse">
<stop stop-color="#72DAFF"/>
<stop offset="1" stop-color="white"/>
</linearGradient>
</defs>
</svg>
