<svg width="550" height="550" viewBox="0 0 550 550" fill="none" xmlns="http://www.w3.org/2000/svg">
<mask id="mask0_3753_3731" style="mask-type:luminance" maskUnits="userSpaceOnUse" x="27" y="156" width="118" height="133">
<path d="M93.3922 159.763C98.2265 161.276 102.87 163.323 107.232 165.845C111.587 168.374 115.73 171.294 119.443 174.659C123.167 178.013 126.411 181.867 129.312 185.959C132.187 190.06 134.651 194.423 136.464 199.058C137.37 201.361 138.213 203.782 138.888 206.127C139.545 208.512 140.055 210.941 140.404 213.396C140.758 215.85 140.971 218.328 141.063 220.816C141.162 223.354 141.186 225.76 140.969 228.225C140.569 233.163 139.571 237.972 137.996 242.684C136.496 247.406 134.449 251.815 131.772 255.944C130.236 258.328 128.558 260.619 126.74 262.765C131.789 254.577 134.708 244.937 134.708 234.612C134.708 204.945 110.659 180.896 80.9928 180.896C51.3265 180.896 27.2773 204.945 27.2773 234.612C27.2773 264.278 51.3265 288.327 80.9928 288.327C81.8558 288.327 82.713 288.303 83.5663 288.262C88.6222 288.269 93.633 287.487 98.4187 286.286C108.829 283.742 118.233 277.994 125.795 270.745C129.639 267.013 132.83 262.784 135.57 258.32C138.321 253.851 140.519 248.922 141.922 243.898C148.097 223.759 143.638 201.116 131.108 184.65C128.004 180.546 124.539 176.678 120.598 173.343C116.665 170.004 112.369 167.15 107.844 164.737C103.301 162.355 98.5005 160.477 93.5711 159.155C88.6481 157.809 83.5952 156.955 78.5182 156.673C83.5796 157.165 88.5681 158.225 93.3922 159.763Z" fill="white"/>
</mask>
<g mask="url(#mask0_3753_3731)">
<path d="M50.0695 109.405L199.604 181.509L125.305 335.596L-24.2295 263.492L50.0695 109.405Z" fill="url(#paint0_linear_3753_3731)"/>
</g>
<path d="M16.9441 244.843L17.4009 247.871L19.3349 248.32L19.5564 249.788L10.0928 247.424L18.4402 242.387L18.6598 243.844L16.9441 244.843ZM15.8239 245.504L13.3859 246.928L16.1349 247.57L15.8239 245.504Z" fill="#F8F8F9"/>
<path d="M13.0584 237.944L12.9428 234.8L14.1605 234.756L14.276 237.899L16.9438 237.801L16.8035 233.985L18.0213 233.941L18.1615 237.768L18.2105 239.102L9.60541 239.417L9.55636 238.084L9.41602 234.257L10.6224 234.212L10.762 238.028L13.0584 237.944Z" fill="#F8F8F9"/>
<path d="M18.5658 224.236L18.4448 225.752L15.3675 227.683L15.289 228.666L18.1925 228.899L18.085 230.24L9.50098 229.553L9.59176 228.419L9.70483 227.008C9.79562 225.874 10.3109 225.251 10.7319 224.936C11.2655 224.525 11.9794 224.337 12.7772 224.401C13.5643 224.464 14.2388 224.763 14.7004 225.254C14.915 225.481 15.1553 225.826 15.2798 226.302L18.5658 224.236ZM14.1819 227.366C14.2261 226.811 14.0978 226.382 13.8182 226.092C13.4972 225.74 13.0156 225.643 12.6804 225.616C12.3332 225.589 11.8427 225.607 11.4694 225.904C11.1475 226.146 10.9637 226.55 10.9195 227.105L10.8227 228.309L14.0856 228.57L14.1819 227.366Z" fill="#F8F8F9"/>
<path d="M19.127 218.983C18.7947 219.442 18.3882 219.813 17.9151 220.11C17.4421 220.406 16.9304 220.61 16.3721 220.708C15.8137 220.806 15.2329 220.792 14.6674 220.662C14.1017 220.532 13.5736 220.291 13.1024 219.956C12.6541 219.628 12.2826 219.22 11.9753 218.745C11.679 218.272 11.486 217.763 11.388 217.205C11.2901 216.646 11.3045 216.066 11.4339 215.5C11.5641 214.934 11.8047 214.406 12.1393 213.935C12.4685 213.486 12.8639 213.113 13.3395 212.805C13.824 212.512 14.3328 212.319 14.8802 212.218C15.45 212.123 16.0302 212.137 16.5959 212.267C17.1621 212.397 17.6902 212.637 18.1499 212.969C18.6097 213.301 18.9835 213.697 19.28 214.17C19.5733 214.654 19.7778 215.166 19.8782 215.713C19.9738 216.283 19.9592 216.863 19.8292 217.428C19.6991 217.994 19.459 218.523 19.127 218.983ZM13.1271 218.033C13.5458 218.701 14.1998 219.173 14.9692 219.349C15.738 219.526 16.5324 219.387 17.2001 218.969C17.8681 218.551 18.3398 217.897 18.5171 217.127C18.6938 216.358 18.5546 215.563 18.136 214.896C17.7179 214.228 17.0641 213.756 16.2946 213.579C15.525 213.403 14.7309 213.542 14.0629 213.96C13.3952 214.378 12.9233 215.032 12.7467 215.801C12.5699 216.571 12.7091 217.365 13.1271 218.033Z" fill="#F8F8F9"/>
<path d="M14.516 205.559L15.064 204.253C15.5038 203.205 16.1874 202.774 16.6756 202.602C17.3259 202.371 18.0471 202.422 18.785 202.732C19.5236 203.042 20.0759 203.525 20.356 204.146C20.5853 204.62 20.7571 205.409 20.3173 206.458L19.8502 207.571L22.5361 208.698L22.0153 209.938L14.0762 206.607L14.516 205.559ZM18.3186 203.845C18.0083 203.714 17.5316 203.59 17.0893 203.744C16.7035 203.884 16.3919 204.207 16.1766 204.72L15.7095 205.833L18.727 207.099L19.1939 205.986C19.4094 205.473 19.4317 205.029 19.2618 204.655C19.0616 204.232 18.6392 203.979 18.3186 203.845Z" fill="#F8F8F9"/>
<path d="M26.4903 200.057C26.0173 200.37 25.5055 200.572 24.9581 200.682C24.4105 200.791 23.8601 200.802 23.3029 200.695C22.7464 200.589 22.2087 200.37 21.7253 200.048C21.2426 199.727 20.8337 199.315 20.5111 198.835C20.2086 198.368 20.0055 197.856 19.8862 197.303C19.7768 196.755 19.7768 196.211 19.8826 195.654C19.9892 195.097 20.2075 194.559 20.5294 194.076C20.8511 193.594 21.2637 193.184 21.7427 192.862C22.2098 192.56 22.712 192.35 23.266 192.231C23.8226 192.128 24.367 192.128 24.9138 192.227C25.4807 192.34 26.0184 192.559 26.5018 192.881C26.9845 193.202 27.3934 193.614 27.7057 194.088C28.0184 194.561 28.2276 195.063 28.3372 195.611C28.4406 196.167 28.4503 196.718 28.3505 197.265C28.2379 197.832 28.0189 198.37 27.6972 198.852C27.3753 199.336 26.9634 199.745 26.4903 200.057ZM21.216 197.045C21.3708 197.817 21.8154 198.49 22.4717 198.928C23.1287 199.365 23.9212 199.517 24.6937 199.362C25.4662 199.208 26.1388 198.763 26.5768 198.106C27.0143 197.449 27.1654 196.657 27.0111 195.885C26.8563 195.111 26.4117 194.439 25.7547 194.001C25.0978 193.563 24.3059 193.412 23.5334 193.567C22.761 193.722 22.0876 194.166 21.6503 194.823C21.2123 195.48 21.061 196.272 21.216 197.045Z" fill="#F8F8F9"/>
<path d="M36.6928 188.464L35.6105 189.532L32.0183 188.984L31.3161 189.677L33.3632 191.751L32.4049 192.697L26.3525 186.567L27.162 185.768L28.1698 184.773C28.9792 183.974 29.7766 183.839 30.3015 183.875C30.9749 183.912 31.6379 184.237 32.2004 184.807C32.7551 185.368 33.071 186.036 33.1 186.709C33.1139 187.021 33.0704 187.439 32.8544 187.881L36.6928 188.464ZM31.3269 187.97C31.7232 187.578 31.9064 187.169 31.8841 186.767C31.8708 186.29 31.5695 185.903 31.3331 185.663C31.0887 185.416 30.7046 185.11 30.2285 185.09C29.8261 185.062 29.4232 185.249 29.0265 185.641L28.1675 186.489L30.4674 188.818L31.3269 187.97Z" fill="#F8F8F9"/>
<path d="M39.2223 177.349L37.2956 178.726L41.6014 184.75L40.4968 185.54L36.191 179.516L34.2649 180.893L33.5625 179.91L38.5199 176.367L39.2223 177.349Z" fill="#F8F8F9"/>
<path d="M48.5907 178.453L45.8837 179.885L46.1002 181.858L44.7874 182.552L43.8896 172.841L51.4025 179.053L50.1 179.742L48.5907 178.453ZM47.5962 177.614L45.4469 175.785L45.7498 178.591L47.5962 177.614Z" fill="#F8F8F9"/>
<path d="M56.3415 169.586L54.0778 170.276L56.2371 177.356L54.9383 177.752L52.7798 170.673L50.5161 171.363L50.1641 170.209L55.9895 168.432L56.3415 169.586Z" fill="#F8F8F9"/>
<path d="M63.1361 175.652L61.3477 167.229L60.0308 167.509L61.8193 175.932L63.1361 175.652Z" fill="#F8F8F9"/>
<path d="M69.2896 174.263C68.7457 174.103 68.26 173.843 67.8231 173.496C67.3863 173.148 67.024 172.734 66.7457 172.241C66.4675 171.746 66.2877 171.195 66.2225 170.618C66.1565 170.041 66.2072 169.463 66.3659 168.907C66.5273 168.375 66.7876 167.89 67.1334 167.442C67.4814 167.005 67.8963 166.654 68.3905 166.376C68.8847 166.097 69.4364 165.918 70.013 165.852C70.5894 165.786 71.1677 165.837 71.7231 165.996C72.2555 166.157 72.7393 166.406 73.1876 166.752C73.6256 167.111 73.9771 167.526 74.2535 168.009C74.533 168.515 74.7126 169.066 74.7786 169.643C74.8446 170.219 74.7931 170.798 74.6334 171.342C74.4731 171.885 74.2251 172.369 73.8772 172.806C73.5185 173.244 73.1042 173.606 72.6221 173.883C72.1163 174.163 71.5646 174.342 70.9881 174.408C70.4109 174.474 69.8335 174.423 69.2896 174.263ZM68.1885 168.291C67.6979 168.908 67.4705 169.681 67.5599 170.465C67.6495 171.25 68.0445 171.952 68.6609 172.443C69.2779 172.933 70.0511 173.16 70.8356 173.071C71.6196 172.981 72.322 172.586 72.8127 171.969C73.3032 171.353 73.53 170.579 73.441 169.795C73.3516 169.011 72.956 168.308 72.3394 167.818C71.7231 167.328 70.9494 167.1 70.1653 167.19C69.3813 167.279 68.6785 167.674 68.1885 168.291Z" fill="#F8F8F9"/>
<path d="M80.3151 168.3L80.1839 173.838L78.8379 173.805L79.0507 164.787L84.3198 170.846L84.4498 165.321L85.808 165.353L85.5956 174.36L80.3151 168.3Z" fill="#F8F8F9"/>
<path d="M83.4154 232.752C83.2092 231.722 83.1557 230.725 82.8053 229.846C81.8087 227.346 78.9053 225.852 75.8703 226.099C72.1892 226.399 69.4355 228.291 67.4586 231.251C64.1457 236.211 63.8932 241.573 66.2639 246.922C69.6911 254.655 75.9242 258.916 84.1525 260.186C91.301 261.289 97.9439 259.59 103.982 255.681C110.547 251.431 114.767 245.367 117.183 237.999C117.604 236.714 117.867 235.375 118.174 234.054C118.353 233.282 117.982 232.644 117.32 232.48C116.61 232.304 116.025 232.703 115.803 233.52C115.747 233.726 115.708 233.937 115.661 234.147C113.858 242.255 109.776 248.879 102.791 253.513C97.7377 256.866 92.1381 258.458 86.0544 257.938C79.0024 257.336 73.3588 254.234 69.6043 248.111C67.4704 244.631 66.6362 240.835 67.6222 236.803C68.492 233.246 70.4302 230.452 73.928 229.006C75.522 228.347 77.1731 228.316 78.7902 229.031C80.0519 229.589 80.8717 230.846 80.72 231.846C79.8027 231.986 78.862 231.967 78.0527 232.284C75.8594 233.142 74.6059 234.879 74.1932 237.153C73.504 240.952 74.9194 244.089 77.6786 246.568C81.9425 250.399 87.0089 251.331 92.4281 249.823C99.447 247.87 103.995 243.066 106.779 236.504C108.633 232.132 108.895 227.574 108.114 222.9C107.076 216.695 104.448 211.291 100.094 206.783C95.1173 201.629 89.0248 198.457 82.0047 197.057C81.1843 196.894 80.5566 197.233 80.3768 197.935C80.2036 198.61 80.6346 199.22 81.455 199.428C82.4465 199.68 83.4533 199.878 84.434 200.165C89.9482 201.781 94.7437 204.611 98.6642 208.825C102.534 212.985 104.848 217.913 105.752 223.53C106.661 229.179 105.756 234.465 102.593 239.254C99.303 244.233 94.8421 247.567 88.7109 247.939C84.0014 248.225 80.0217 246.593 77.4766 242.386C76.2478 240.354 76.0173 238.158 77.2341 236.001C77.8106 234.979 78.708 234.37 79.8602 234.396C79.9751 235.306 79.9398 236.169 80.2062 236.926C81.1081 239.487 83.4754 241.087 86.3067 241.197C90.0233 241.341 92.9384 239.704 95.1437 236.891C98.7788 232.253 99.3845 226.996 97.4376 221.555C94.948 214.597 89.8075 210.256 82.9389 207.88C78.9563 206.502 74.8672 206.431 70.7313 207.142C65.4762 208.047 60.7549 210.126 56.6355 213.501C51.6772 217.562 48.2773 222.719 46.2419 228.774C45.7429 230.259 45.4055 231.8 45.0377 233.326C44.8614 234.057 45.3067 234.703 45.9852 234.849C46.5911 234.979 47.1809 234.598 47.397 233.924C47.4624 233.721 47.5059 233.51 47.5488 233.3C48.6353 227.989 50.9075 223.244 54.4099 219.111C59.6141 212.971 66.3083 209.714 74.295 209.187C79.5552 208.84 84.3462 210.331 88.537 213.543C92.81 216.817 95.6381 221.016 95.9429 226.519C96.2039 231.239 94.5922 235.206 90.3923 237.757C88.3358 239.006 86.1243 239.216 83.9433 237.979C82.8268 237.345 82.2656 236.199 82.4901 235.237C84.6924 235.241 85.8191 234.935 86.9768 233.816C89.0348 231.827 89.4956 229.323 88.9661 226.638C88.2767 223.144 86.1567 220.603 83.1211 218.904C77.3984 215.7 71.6172 216.104 66.1226 219.358C58.6611 223.776 55.1568 230.658 54.7765 239.17C54.5337 244.601 55.9335 249.697 58.5979 254.429C61.9132 260.316 66.7976 264.515 72.8164 267.452C75.4604 268.742 78.2528 269.612 81.1412 270.173C81.9497 270.33 82.6124 269.97 82.7558 269.282C82.9083 268.55 82.5207 268.011 81.6826 267.793C81.5212 267.75 81.3599 267.708 81.1962 267.676C78.1369 267.075 75.2253 266.05 72.5003 264.537C63.4897 259.534 58.1456 252.027 57.2881 241.655C56.7617 235.288 58.5751 229.568 63.0308 224.865C66.1352 221.589 69.9152 219.494 74.5017 219.286C79.229 219.072 83.1746 220.678 85.7295 224.871C86.8346 226.684 87.0714 228.669 86.2422 230.692C85.6856 232.051 84.6216 232.779 83.4154 232.752Z" fill="#001D35"/>
<path d="M83.4149 232.752C84.6211 232.779 85.685 232.052 86.2422 230.693C87.0714 228.669 86.8346 226.685 85.7295 224.871C83.1746 220.679 79.2288 219.073 74.5017 219.287C69.9152 219.495 66.1352 221.589 63.0308 224.866C58.5751 229.568 56.7617 235.288 57.2881 241.656C58.1456 252.028 63.4897 259.535 72.5004 264.537C75.2253 266.05 78.1367 267.075 81.1963 267.676C81.3597 267.708 81.5212 267.751 81.6826 267.793C82.5207 268.011 82.9083 268.55 82.7558 269.283C82.6124 269.971 81.9497 270.33 81.1412 270.173C78.2528 269.612 75.4603 268.742 72.8165 267.452C66.7976 264.516 61.9132 260.317 58.5979 254.43C55.9335 249.698 54.5337 244.602 54.7765 239.17C55.1568 230.659 58.6611 223.776 66.1226 219.358C71.6172 216.105 77.3984 215.7 83.1211 218.904C86.1569 220.603 88.2767 223.145 88.9661 226.639C89.4957 229.324 89.0348 231.828 86.9768 233.816C85.8191 234.935 84.6924 235.242 82.4901 235.237C82.2656 236.2 82.8268 237.346 83.9433 237.979C86.1243 239.217 88.3358 239.007 90.3923 237.758C94.5922 235.206 96.2039 231.24 95.9429 226.52C95.6381 221.016 92.81 216.817 88.537 213.543C84.3462 210.331 79.5551 208.84 74.295 209.188C66.3083 209.715 59.6141 212.971 54.4099 219.112C50.9075 223.244 48.6353 227.99 47.5488 233.3C47.5059 233.51 47.4624 233.721 47.397 233.925C47.1809 234.598 46.5911 234.98 45.9852 234.85C45.3067 234.704 44.8614 234.057 45.0377 233.326C45.4055 231.801 45.7429 230.26 46.2419 228.775C48.2773 222.72 51.6772 217.562 56.6355 213.501C60.7549 210.127 65.4762 208.047 70.7313 207.143C74.8672 206.431 78.9563 206.503 82.9389 207.881C89.8077 210.257 94.9482 214.598 97.4376 221.555C99.3845 226.997 98.7788 232.254 95.1437 236.891C92.9384 239.705 90.0233 241.342 86.3067 241.198C83.4754 241.088 81.108 239.488 80.2062 236.926C79.9398 236.169 79.9751 235.306 79.8602 234.397C78.7079 234.371 77.8106 234.98 77.2342 236.001C76.0173 238.159 76.2478 240.355 77.4766 242.386C80.0217 246.594 84.0014 248.226 88.7109 247.94C94.8421 247.567 99.303 244.233 102.593 239.254C105.756 234.465 106.661 229.179 105.752 223.53C104.848 217.914 102.534 212.985 98.6642 208.826C94.7437 204.611 89.9482 201.781 84.434 200.166C83.4533 199.878 82.4465 199.68 81.455 199.428C80.6344 199.22 80.2036 198.611 80.3768 197.935C80.5566 197.233 81.1843 196.894 82.0047 197.058C89.0248 198.458 95.1173 201.629 100.094 206.783C104.448 211.292 107.076 216.696 108.114 222.9C108.895 227.574 108.633 232.132 106.779 236.504C103.996 243.067 99.447 247.871 92.4281 249.824C87.0089 251.332 81.9423 250.399 77.6786 246.569C74.9194 244.089 73.504 240.953 74.1932 237.154C74.6059 234.879 75.8594 233.142 78.0527 232.284C78.862 231.968 79.8027 231.987 80.72 231.846C80.8715 230.847 80.0518 229.59 78.7902 229.032C77.1731 228.317 75.522 228.348 73.928 229.007C70.4302 230.453 68.492 233.246 67.6222 236.803C66.6362 240.835 67.4704 244.632 69.6043 248.111C73.3588 254.235 79.0024 257.336 86.0544 257.939C92.1381 258.458 97.7379 256.867 102.791 253.514C109.776 248.879 113.859 242.256 115.661 234.147C115.708 233.938 115.747 233.727 115.803 233.52C116.025 232.703 116.61 232.304 117.32 232.48C117.982 232.645 118.353 233.282 118.174 234.055C117.867 235.375 117.604 236.714 117.183 237.999C114.767 245.367 110.547 251.432 103.982 255.681C97.944 259.59 91.301 261.29 84.1525 260.186C75.9242 258.916 69.6911 254.655 66.2639 246.922C63.8932 241.573 64.1457 236.212 67.4586 231.251C69.4355 228.291 72.1892 226.399 75.8703 226.1C78.9051 225.853 81.8085 227.346 82.8053 229.846C83.1554 230.725 83.2087 231.723 83.4149 232.752Z" fill="#001D35"/>
<path d="M97.0844 274.527C94.644 274.397 92.413 273.518 90.6361 271.609C89.4793 270.365 88.8037 270.371 86.9758 271.283C86.0653 270.623 85.7322 270.156 86.0082 269.664C86.7101 268.413 87.7339 267.655 89.1792 267.44C90.684 267.217 91.9855 267.665 93.2126 268.481C94.3721 269.251 95.6245 269.713 97.0508 269.628C98.1431 269.563 99.2366 268.828 99.5271 267.901C99.7896 267.063 99.2821 266.218 98.4251 265.995C97.846 265.843 97.3074 265.945 96.7624 266.119C96.0582 266.344 95.6019 266.139 95.259 265.503C95.0444 265.105 95.174 264.771 95.3885 264.451C96.3182 263.062 97.6513 262.585 99.288 262.557C101.556 262.519 103.589 264.243 104.132 266.164C104.762 268.396 104.296 270.437 102.704 272.158C101.231 273.749 99.3555 274.446 97.0844 274.527Z" fill="#001D35"/>
<path d="M54.4511 257.646L51.7305 261.832L54.6603 265.809L57.3811 261.832L54.4511 257.646Z" fill="#001D35"/>
<path d="M116.609 218.697L113.889 222.883L116.819 226.859L119.539 222.883L116.609 218.697Z" fill="#001D35"/>
<path d="M73.2685 192.455L70.2178 197.149L73.5031 201.607L76.5538 197.149L73.2685 192.455Z" fill="#001D35"/>
<mask id="mask1_3753_3731" style="mask-type:luminance" maskUnits="userSpaceOnUse" x="427" y="138" width="118" height="133">
<path d="M493.234 141.763C498.068 143.276 502.712 145.323 507.074 147.845C511.429 150.374 515.572 153.294 519.285 156.659C523.009 160.013 526.253 163.867 529.154 167.959C532.029 172.06 534.493 176.423 536.306 181.058C537.212 183.361 538.055 185.782 538.73 188.127C539.387 190.512 539.897 192.941 540.246 195.396C540.6 197.85 540.813 200.328 540.905 202.816C541.003 205.354 541.028 207.76 540.812 210.225C540.411 215.163 539.413 219.972 537.838 224.684C536.338 229.406 534.291 233.815 531.614 237.944C530.078 240.328 528.4 242.619 526.582 244.765C531.631 236.577 534.55 226.937 534.55 216.612C534.55 186.945 510.501 162.896 480.835 162.896C451.168 162.896 427.119 186.945 427.119 216.612C427.119 246.278 451.168 270.327 480.835 270.327C481.698 270.327 482.555 270.303 483.408 270.262C488.464 270.269 493.475 269.487 498.261 268.286C508.671 265.742 518.075 259.994 525.637 252.745C529.481 249.013 532.672 244.784 535.412 240.32C538.163 235.851 540.361 230.922 541.763 225.898C547.94 205.759 543.48 183.116 530.95 166.65C527.846 162.546 524.381 158.678 520.44 155.343C516.507 152.004 512.211 149.15 507.686 146.737C503.143 144.355 498.343 142.477 493.413 141.155C488.49 139.809 483.437 138.955 478.36 138.673C483.422 139.165 488.41 140.225 493.234 141.763Z" fill="white"/>
</mask>
<g mask="url(#mask1_3753_3731)">
<path d="M547.94 138.673H427.12V270.328H547.94V138.673Z" fill="url(#paint1_linear_3753_3731)"/>
</g>
<path d="M453.998 236.802C455.699 235.858 457.406 234.924 459.092 233.955C459.252 233.863 459.319 233.561 459.371 233.343C459.744 231.779 459.991 230.176 460.491 228.656C461.237 226.385 462.645 224.506 464.461 222.957C466.637 221.101 467.856 218.761 468.196 215.93C468.624 212.38 469.082 208.834 469.531 205.254C472.696 205.184 475.462 206.047 477.585 208.49C479.374 210.548 480.107 212.955 479.836 215.664C479.551 218.511 479.239 221.355 478.976 224.203C478.941 224.585 479.051 225.024 479.224 225.372C479.646 226.223 480.146 227.035 480.64 227.908C481.857 226.833 483.045 225.788 484.228 224.738C485.742 223.394 487.258 222.053 488.756 220.693C488.963 220.505 489.139 220.234 489.223 219.968C489.712 218.414 490.168 216.848 490.638 215.288C492.115 210.393 497.125 207.97 501.885 209.85C502.31 210.017 502.731 210.195 503.191 210.384C503.125 210.769 503.059 211.147 502.998 211.492C503.944 211.391 504.857 211.24 505.775 211.208C507.134 211.16 508.398 211.581 509.617 212.154C509.863 212.27 510.13 212.342 510.387 212.434C510.407 212.468 510.426 212.503 510.446 212.538C510.402 212.668 510.351 212.797 510.313 212.929C508.884 217.915 507.45 222.899 506.04 227.89C505.902 228.378 505.653 228.723 505.271 229.037C501.488 232.153 497.702 235.266 493.945 238.414C492.099 239.961 490.179 241.365 488.065 242.544C480.481 246.773 472.94 251.079 465.381 255.354C465.158 255.48 464.922 255.585 464.692 255.7C461.127 249.401 457.563 243.101 453.998 236.802ZM506.001 214.838C504.404 214.486 502.148 215.662 501.561 217.234C500.755 219.394 500.023 221.581 499.244 223.751C499.154 224.001 499.017 224.274 498.82 224.44C495.686 227.098 492.541 229.744 489.387 232.378C489.174 232.556 488.871 232.69 488.596 232.719C485.794 233.012 482.987 233.273 480.184 233.562C479.795 233.602 479.582 233.515 479.386 233.154C478.101 230.775 476.78 228.416 475.498 226.035C475.341 225.744 475.26 225.358 475.291 225.03C475.597 221.825 475.928 218.623 476.265 215.422C476.389 214.246 476.25 213.117 475.708 212.062C475.043 210.767 474.055 209.82 472.637 209.277C472.311 211.844 472.017 214.35 471.671 216.849C471.191 220.316 469.623 223.213 466.972 225.5C464.933 227.257 463.672 229.435 463.236 232.094C463.056 233.192 462.816 234.281 462.66 235.383C462.58 235.948 462.346 236.297 461.828 236.56C460.842 237.061 459.894 237.638 458.932 238.182C461.339 242.434 463.704 246.615 466.094 250.839C466.295 250.725 466.465 250.629 466.635 250.533C473.902 246.421 481.169 242.31 488.435 238.195C488.676 238.059 488.919 237.915 489.132 237.739C493.525 234.11 497.917 230.48 502.294 226.832C502.546 226.622 502.747 226.28 502.841 225.961C503.716 222.986 504.564 220.003 505.414 217.02C505.62 216.296 505.807 215.566 506.001 214.838ZM484.344 229.414C484.362 229.457 484.38 229.5 484.398 229.542C485.302 229.456 486.21 229.393 487.11 229.271C487.404 229.231 487.726 229.097 487.953 228.908C490.511 226.772 493.058 224.623 495.591 222.457C495.844 222.241 496.057 221.921 496.169 221.607C496.835 219.736 497.476 217.857 498.104 215.973C498.445 214.947 498.744 213.905 499.079 212.816C498.811 212.798 498.677 212.779 498.544 212.782C496.496 212.819 494.745 214.154 494.1 216.218C493.507 218.114 492.963 220.025 492.373 221.921C492.284 222.207 492.11 222.502 491.894 222.706C491.142 223.412 490.354 224.078 489.582 224.762C487.836 226.312 486.09 227.863 484.344 229.414Z" fill="#001D35"/>
<path d="M419.308 227.462L419.764 230.491L421.698 230.939L421.92 232.408L412.456 230.044L420.803 225.006L421.023 226.464L419.308 227.462ZM418.187 228.124L415.749 229.547L418.498 230.189L418.187 228.124Z" fill="#F8F8F9"/>
<path d="M415.421 220.563L415.306 217.42L416.524 217.376L416.639 220.518L419.307 220.42L419.167 216.605L420.385 216.56L420.525 220.388L420.574 221.721L411.968 222.037L411.919 220.703L411.779 216.876L412.986 216.832L413.125 220.647L415.421 220.563Z" fill="#F8F8F9"/>
<path d="M420.929 206.855L420.808 208.371L417.731 210.302L417.652 211.285L420.556 211.518L420.448 212.86L411.864 212.173L411.955 211.039L412.068 209.628C412.159 208.494 412.674 207.871 413.095 207.556C413.629 207.144 414.343 206.957 415.141 207.021C415.927 207.084 416.602 207.382 417.063 207.873C417.278 208.1 417.519 208.446 417.643 208.921L420.929 206.855ZM416.545 209.986C416.589 209.431 416.461 209.001 416.181 208.711C415.86 208.359 415.379 208.263 415.044 208.236C414.696 208.208 414.206 208.227 413.833 208.523C413.511 208.765 413.327 209.17 413.283 209.725L413.186 210.928L416.449 211.189L416.545 209.986Z" fill="#F8F8F9"/>
<path d="M421.49 201.602C421.158 202.062 420.752 202.433 420.279 202.729C419.806 203.026 419.294 203.23 418.735 203.328C418.177 203.426 417.596 203.412 417.031 203.282C416.465 203.151 415.937 202.911 415.466 202.576C415.017 202.247 414.646 201.84 414.339 201.364C414.042 200.892 413.849 200.383 413.751 199.824C413.653 199.265 413.668 198.685 413.797 198.12C413.927 197.554 414.168 197.025 414.503 196.555C414.832 196.106 415.227 195.733 415.703 195.425C416.187 195.131 416.696 194.938 417.244 194.838C417.813 194.742 418.394 194.756 418.959 194.886C419.526 195.016 420.053 195.257 420.513 195.589C420.973 195.921 421.347 196.316 421.643 196.789C421.937 197.274 422.141 197.785 422.242 198.333C422.337 198.903 422.323 199.483 422.193 200.048C422.062 200.614 421.822 201.142 421.49 201.602ZM415.491 200.653C415.909 201.32 416.563 201.792 417.332 201.969C418.101 202.146 418.896 202.007 419.563 201.588C420.231 201.17 420.703 200.516 420.88 199.747C421.057 198.978 420.918 198.183 420.499 197.515C420.081 196.847 419.427 196.376 418.658 196.199C417.888 196.022 417.094 196.161 416.426 196.58C415.758 196.998 415.287 197.652 415.11 198.421C414.933 199.19 415.072 199.985 415.491 200.653Z" fill="#F8F8F9"/>
<path d="M422.32 187.788L421.245 187.35L419.877 190.703L420.952 191.141L422.32 187.788Z" fill="#F8F8F9"/>
<path d="M423.919 177.19L422.704 179.222L429.06 183.021L428.363 184.187L422.007 180.388L420.792 182.42L419.757 181.801L422.883 176.571L423.919 177.19Z" fill="#F8F8F9"/>
<path d="M429.204 174.045L431.252 171.657L432.176 172.45L430.13 174.838L432.156 176.575L434.64 173.677L435.565 174.47L433.073 177.376L432.205 178.39L425.668 172.786L426.537 171.773L429.029 168.866L429.945 169.651L427.46 172.55L429.204 174.045Z" fill="#F8F8F9"/>
<path d="M441.922 168.77L439.171 171.108L438.154 171.972L432.578 165.407L433.604 164.535L438.391 170.171L441.134 167.842L441.922 168.77Z" fill="#F8F8F9"/>
<path d="M442.827 161.972L445.493 160.304L446.14 161.337L443.473 163.005L444.888 165.268L448.125 163.243L448.772 164.276L445.524 166.307L444.393 167.015L439.827 159.714L440.959 159.006L444.206 156.976L444.846 157.999L441.609 160.023L442.827 161.972Z" fill="#F8F8F9"/>
<path d="M456.352 160.62L451.638 158.463L453.239 162.02L452.011 162.573L448.477 154.718L449.704 154.165L451.162 157.405L452.224 153.031L453.77 152.336L452.591 157.411L457.887 159.929L456.352 160.62Z" fill="#F8F8F9"/>
<path d="M462.547 158.924L460.471 150.564L459.163 150.889L461.239 159.248L462.547 158.924Z" fill="#F8F8F9"/>
<path d="M466.862 152.358L467.714 157.828L466.384 158.035L464.996 149.126L471.252 154.153L470.401 148.695L471.743 148.486L473.129 157.383L466.862 152.358Z" fill="#F8F8F9"/>
<path d="M478.096 151.498L481.238 151.367L481.289 152.585L478.146 152.716L478.257 155.383L482.072 155.224L482.123 156.442L478.296 156.601L476.962 156.657L476.604 148.051L477.938 147.996L481.766 147.837L481.815 149.043L478 149.202L478.096 151.498Z" fill="#F8F8F9"/>
<path d="M490.49 155.101C490.189 155.917 489.391 156.525 488.44 156.645C488.264 156.668 488.09 156.667 487.915 156.655C487.568 156.631 487.225 156.549 486.909 156.399C486.381 156.142 485.93 155.75 485.562 155.2L486.685 154.441C486.906 154.782 487.179 155.034 487.484 155.171C487.731 155.293 488.007 155.335 488.266 155.295C488.712 155.245 489.091 154.98 489.219 154.64C489.362 154.254 489.12 153.888 488.893 153.64C488.535 153.254 487.953 152.597 487.91 152.548L486.925 151.479C486.623 151.144 486.427 150.781 486.337 150.403C486.246 150.035 486.261 149.653 486.389 149.313C486.519 148.95 486.762 148.64 487.092 148.395C487.399 148.173 487.77 148.024 488.156 147.981C488.58 147.917 489.017 147.982 489.424 148.162C489.852 148.366 490.225 148.683 490.533 149.112L489.421 149.884C489.018 149.32 488.566 149.289 488.32 149.319C488.015 149.355 487.746 149.535 487.66 149.773C487.602 149.932 487.596 150.199 487.93 150.571L489.271 152.049C489.464 152.272 489.702 152.533 489.876 152.719C490.223 153.081 490.451 153.481 490.551 153.894C490.65 154.297 490.633 154.715 490.49 155.101Z" fill="#F8F8F9"/>
<path d="M495.176 157.533L496.6 149.041L495.272 148.818L493.848 157.311L495.176 157.533Z" fill="#F8F8F9"/>
<path d="M503.816 157.867C503.355 158.605 502.45 159.038 501.494 158.962C501.317 158.948 501.146 158.912 500.978 158.865C500.643 158.771 500.324 158.62 500.046 158.409C499.58 158.049 499.22 157.573 498.971 156.961L500.225 156.446C500.372 156.825 500.588 157.126 500.858 157.324C501.076 157.493 501.338 157.591 501.599 157.604C502.046 157.646 502.471 157.464 502.666 157.157C502.885 156.809 502.722 156.401 502.55 156.112C502.279 155.662 501.842 154.9 501.81 154.842L501.064 153.595C500.837 153.205 500.719 152.81 500.708 152.421C500.694 152.043 500.786 151.672 500.982 151.365C501.182 151.035 501.483 150.783 501.857 150.611C502.202 150.455 502.596 150.384 502.984 150.421C503.411 150.446 503.826 150.599 504.188 150.857C504.565 151.144 504.866 151.531 505.08 152.013L503.833 152.542C503.554 151.908 503.118 151.785 502.871 151.764C502.565 151.738 502.265 151.859 502.132 152.075C502.043 152.219 501.982 152.479 502.234 152.911L503.245 154.631C503.389 154.889 503.569 155.193 503.7 155.411C503.967 155.835 504.108 156.273 504.121 156.699C504.137 157.114 504.035 157.519 503.816 157.867Z" fill="#F8F8F9"/>
<path d="M494.661 201.037C494.67 202.313 494.347 203.486 493.594 204.527C493.509 204.644 493.417 204.756 493.322 204.865C493.004 205.229 492.631 205.47 492.133 205.269C491.631 205.066 491.613 204.617 491.644 204.168C491.704 203.291 491.792 202.42 491.457 201.564C490.736 199.723 488.544 198.769 486.949 199.628C486.635 199.797 486.36 200.022 486.108 200.272C483.856 202.506 481.117 203.502 477.987 203.268C475.891 203.111 474.012 202.284 472.374 200.922C471.528 200.219 470.923 199.279 470.025 198.632C469.052 197.932 467.999 197.525 466.794 197.356C465.471 197.171 464.265 197.501 463.068 197.904C461.264 198.512 459.436 198.989 457.545 199.212C457.226 199.25 456.9 199.24 456.578 199.232C456.096 199.221 455.776 198.921 455.739 198.47C455.701 198.021 456 197.548 456.447 197.514C458.823 197.33 460.959 196.393 463.1 195.457C464.414 194.883 465.809 194.585 467.229 194.612C469.452 194.653 471.496 195.314 473.287 196.682C474.261 197.426 475.261 198.116 476.505 198.378C478.822 198.865 480.841 198.315 482.575 196.723C483.608 195.774 484.698 194.915 486.112 194.651C488.87 194.136 491.195 194.974 493.058 197.048C494.067 198.172 494.638 199.502 494.661 201.037Z" fill="#001D35"/>
<path d="M478.118 194.491C477.752 194.458 477.382 194.524 477.016 194.401C476.64 194.274 476.414 194.04 476.358 193.655C476.298 193.236 476.433 192.885 476.807 192.664C476.971 192.566 477.158 192.505 477.339 192.437C478.957 191.819 480.048 190.714 480.189 188.949C480.314 187.39 479.219 185.773 477.399 185.585C476.087 185.45 475.114 186.005 474.564 187.224C473.922 188.645 473.053 189.874 471.732 190.752C469.448 192.268 466.434 192.094 464.314 190.353C463.833 189.957 463.458 189.488 463.07 189.019C462.613 188.465 461.998 188.16 461.345 187.913C460.772 187.695 460.623 187.468 460.672 186.85C460.709 186.373 461.034 186.15 461.455 186.062C462.96 185.748 464.289 186.19 465.492 187.068C466.523 187.819 467.862 187.902 468.821 187.213C469.342 186.839 469.614 186.29 469.808 185.702C470.562 183.419 472.063 181.82 474.291 180.957C476.823 179.977 479.23 180.314 481.424 181.904C483.149 183.154 484.201 184.882 484.452 186.985C484.686 188.943 484.16 190.759 482.854 192.285C481.881 193.42 480.662 194.155 479.177 194.435C478.822 194.502 478.471 194.459 478.118 194.491Z" fill="#001D35"/>
<path d="M497.722 194.603C495.444 194.482 493.361 193.661 491.702 191.878C490.622 190.718 489.991 190.723 488.284 191.574C487.434 190.958 487.123 190.522 487.381 190.063C488.036 188.895 488.992 188.187 490.341 187.987C491.746 187.778 492.962 188.196 494.107 188.958C495.19 189.678 496.359 190.109 497.691 190.03C498.711 189.969 499.731 189.283 500.003 188.417C500.248 187.635 499.774 186.846 498.974 186.637C498.433 186.496 497.93 186.591 497.421 186.753C496.764 186.963 496.338 186.772 496.018 186.178C495.817 185.807 495.938 185.495 496.139 185.196C497.007 183.899 498.251 183.454 499.779 183.428C501.897 183.392 503.795 185.001 504.302 186.795C504.89 188.879 504.455 190.785 502.969 192.391C501.594 193.877 499.842 194.528 497.722 194.603Z" fill="#001D35"/>
<path d="M500.294 198.053L498.896 200.204L500.402 202.248L501.8 200.204L500.294 198.053Z" fill="#001D35"/>
<path d="M486.931 177.074L485.477 179.312L487.043 181.438L488.498 179.312L486.931 177.074Z" fill="#001D35"/>
<path d="M14.224 287.12C16.648 287.12 18.088 285.536 18.088 282.98C18.088 280.436 16.648 278.84 14.224 278.84C11.8 278.84 10.36 280.436 10.36 282.98C10.36 285.536 11.8 287.12 14.224 287.12ZM14.224 285.872C12.508 285.872 11.728 284.984 11.728 282.98C11.728 280.976 12.508 280.088 14.224 280.088C15.94 280.088 16.708 280.976 16.708 282.98C16.708 284.984 15.94 285.872 14.224 285.872ZM27.9892 287V285.836H24.5452L22.6012 285.968C22.6012 285.056 22.9732 284.672 24.0532 284.3L25.7452 283.784C27.1612 283.352 28.0132 282.656 28.0132 281.336C28.0132 279.92 27.0532 278.84 24.7732 278.84C22.2652 278.84 21.2452 280.184 21.2452 281.672V281.792H22.5172V281.648C22.5172 280.592 23.1172 280.028 24.7252 280.028C26.1652 280.028 26.7172 280.46 26.7172 281.312C26.7172 282.02 26.3812 282.344 25.4212 282.692L23.5012 283.352C21.8452 283.916 21.2572 284.66 21.2572 286.148V287H27.9892Z" fill="#5FDDF9"/>
<path d="M417.224 276.12C419.648 276.12 421.088 274.536 421.088 271.98C421.088 269.436 419.648 267.84 417.224 267.84C414.8 267.84 413.36 269.436 413.36 271.98C413.36 274.536 414.8 276.12 417.224 276.12ZM417.224 274.872C415.508 274.872 414.728 273.984 414.728 271.98C414.728 269.976 415.508 269.088 417.224 269.088C418.94 269.088 419.708 269.976 419.708 271.98C419.708 273.984 418.94 274.872 417.224 274.872ZM430.509 276V274.368H431.889V273.204H430.509V267.96H429.009L424.089 273.468V274.368H429.225V276H430.509ZM425.877 273.204V273.108L429.129 269.472H429.225V273.204H425.877Z" fill="#5FDDF9"/>
<defs>
<linearGradient id="paint0_linear_3753_3731" x1="38.6211" y1="198.845" x2="140.849" y2="248.139" gradientUnits="userSpaceOnUse">
<stop stop-color="#72DAFF"/>
<stop offset="1" stop-color="white"/>
</linearGradient>
<linearGradient id="paint1_linear_3753_3731" x1="427.064" y1="204.496" x2="544.462" y2="204.496" gradientUnits="userSpaceOnUse">
<stop stop-color="#72DAFF"/>
<stop offset="1" stop-color="white"/>
</linearGradient>
</defs>
</svg>
