<svg width="357" height="121" viewBox="0 0 357 121" fill="none" xmlns="http://www.w3.org/2000/svg">
<path d="M63.7248 57.0298C63.7632 56.3194 63.6288 55.5946 63.3936 54.9274C63.0864 54.0586 62.5776 53.257 61.968 52.633C61.3824 52.0474 60.5472 51.4954 59.7312 51.121C58.3344 50.4634 56.7888 50.1898 55.248 50.2378L63.6961 57.0298H63.7248Z" fill="white"/>
<path d="M42.2017 63.7592C42.3073 62.612 42.5137 61.4936 42.8593 60.3896C42.5137 61.4936 42.3025 62.612 42.2017 63.7592Z" fill="white"/>
<path d="M45.8882 48.3032C46.0562 48.212 46.229 48.1304 46.397 48.0488C46.229 48.1352 46.0562 48.2168 45.8882 48.3032Z" fill="white"/>
<path d="M75.2448 44.8472C74.664 43.7384 73.9488 42.7784 73.176 41.9624C73.944 42.8744 74.64 43.8392 75.2448 44.8472Z" fill="white"/>
<path d="M60.1392 93.7352C63.4176 94.2728 66.7728 94.2968 70.032 93.8504C70.5504 93.7736 71.064 93.6824 71.5728 93.5864C71.0592 93.6872 70.5456 93.7784 70.032 93.8504C66.7728 94.2968 63.4176 94.2728 60.1392 93.7352Z" fill="white"/>
<path d="M58.0466 86.3479C57.149 86.0407 56.2706 85.6711 55.4114 85.2583C56.2658 85.6711 57.149 86.0407 58.0466 86.3479Z" fill="white"/>
<path d="M69.0962 87.855C68.6258 87.8886 68.1554 87.9126 67.6802 87.9222C68.1506 87.9126 68.621 87.8934 69.0962 87.855Z" fill="white"/>
<path d="M55.3682 85.2344C54.8066 84.9656 54.2642 84.668 53.7266 84.3608C54.2642 84.668 54.8114 84.9656 55.3682 85.2344Z" fill="white"/>
<path d="M46.6112 47.9434C46.5398 47.9767 46.4732 48.0148 46.397 48.0481C46.4684 48.0148 46.5398 47.9815 46.6112 47.9481C46.6112 47.9481 46.6112 47.9434 46.6112 47.9434Z" fill="white"/>
<path d="M45.0288 48.7929C45.3072 48.6201 45.6 48.4617 45.888 48.3081C45.5952 48.4617 45.3072 48.6201 45.0288 48.7929Z" fill="white"/>
<path d="M45.6241 87.3943C44.8993 86.8183 44.2033 86.2135 43.5457 85.5703C44.2033 86.2087 44.8993 86.8183 45.6241 87.3943Z" fill="white"/>
<path d="M75.0747 92.7319C75.0658 92.7319 75.057 92.7364 75.0481 92.7408C75.057 92.7364 75.0658 92.7364 75.0747 92.7319Z" fill="white"/>
<path d="M67.6801 87.9273C64.8577 87.9945 62.0401 87.6249 59.3665 86.7993C62.0449 87.6249 64.8577 87.9897 67.6801 87.9273Z" fill="white"/>
<path d="M52.7617 83.7992C51.2017 82.8728 49.8193 81.7592 48.5281 80.5112C49.8241 81.7544 51.2017 82.8728 52.7617 83.7992Z" fill="white"/>
<path d="M48.5288 80.5115C48.5238 80.5065 48.5187 80.5015 48.5137 80.5015C48.5238 80.5065 48.5288 80.5065 48.5288 80.5115Z" fill="white"/>
<path d="M75.3544 45.0519C75.3544 45.0471 75.3544 45.0424 75.3544 45.0376C75.3163 44.9757 75.2782 44.9091 75.2449 44.8472C75.2782 44.9186 75.3211 44.9805 75.3544 45.0519Z" fill="white"/>
<path d="M89.0064 65.7897C88.488 66.9705 87.7872 68.0649 86.8944 68.9961C87.2016 69.9801 87.5136 70.9737 87.8304 71.9673C88.176 71.6025 88.488 71.2377 88.7472 70.9113C89.28 70.2345 89.7408 69.5049 90.1248 68.7321C90.9168 67.1241 91.5744 65.4489 92.0688 63.7257C93.6096 58.5273 93.9024 52.9977 92.9088 47.7081C91.9056 42.4233 89.712 37.3977 86.5104 33.1209C84.9072 30.9849 83.0544 29.0505 81.0288 27.3369C79.0032 25.6233 76.8288 24.0825 74.4864 22.8345C72.1392 21.5961 69.6528 20.6553 67.1088 19.9737C64.5648 19.2825 61.9536 18.8505 59.3328 18.7065C61.944 18.9609 64.5216 19.5033 67.0128 20.2905C69.5088 21.0729 71.9184 22.1001 74.1648 23.4105C76.4112 24.7113 78.504 26.2857 80.4288 28.0185C82.3536 29.7513 84.0912 31.6905 85.5744 33.8025C88.536 38.0217 90.4944 42.9369 91.2864 47.9865C92.0736 53.0409 91.6224 58.2681 90.0288 63.0873C89.736 64.0089 89.3904 64.9113 89.0064 65.7897Z" fill="white"/>
<path d="M50.6785 46.5654L55.2481 50.2374C56.7889 50.1894 58.3345 50.463 59.7313 51.1206C60.5425 51.495 61.3825 52.047 61.9681 52.6326C62.5777 53.2518 63.0817 54.0534 63.3937 54.927C63.6289 55.599 63.7633 56.3238 63.7249 57.0294L64.8817 56.9478L61.5937 48.6486C61.4977 48.5766 61.4065 48.4998 61.3057 48.4326C59.2465 47.0454 56.7553 46.3542 54.3025 46.2678C53.0929 46.215 51.8737 46.3254 50.6785 46.5654Z" fill="white"/>
<path d="M99.7441 41.6168C93.9073 24.6344 77.5249 12.4616 60.2209 11.2808H60.2113C60.0337 11.2712 59.8753 11.396 59.8513 11.5736C59.8225 11.7608 59.9569 11.9336 60.1393 11.9576C68.5825 13.148 76.5745 16.7288 82.9633 22.1576C89.4097 27.5288 94.1857 34.748 96.4897 42.6584C97.6657 46.58 98.2465 50.7368 98.1169 54.7544C97.9537 58.8296 97.1521 62.8712 95.7217 66.6584C95.0209 68.5496 94.1329 70.412 93.1633 72.1448C92.1937 73.82 90.9649 75.4808 89.6785 76.9832C89.6257 77.0456 89.5681 77.0984 89.5153 77.1608C90.1441 79.0616 90.7633 80.8952 91.3393 82.5944C92.0881 81.8072 92.8081 80.9912 93.4849 80.1368C94.9105 78.3272 96.1777 76.4744 97.2769 74.396C98.3233 72.3464 99.2017 70.2872 99.9073 68.1272C101.333 63.8312 102.039 59.3192 102.043 54.8216C102 50.2664 101.189 45.8504 99.7441 41.6168Z" fill="white"/>
<path d="M88.896 77.8472C88.3296 76.1384 87.7536 74.3768 87.1872 72.6104C86.8656 71.612 86.5488 70.6184 86.2416 69.6296C85.7568 68.0792 85.2912 66.5528 84.8592 65.084C84.36 63.3992 83.9328 61.8776 83.568 60.5144C82.92 58.1 82.4832 56.1848 82.248 54.7496L78.4176 69.3704L78.1344 70.46L77.7888 69.9608L74.8512 65.7225L68.256 56.2088L60.84 44.5688L62.8944 49.7576L65.4192 56.1368L65.76 56.9912L65.9568 57.6824L65.1024 57.7448L63.6 57.8504L63.4416 57.86L63.3168 57.7592L54.0864 50.3384L49.6848 46.8008L47.0928 44.7177L48.3504 47.2232L50.4384 51.3752L56.9424 64.316L56.256 63.9176L55.8432 63.6776L55.5456 63.7976L42.4272 69.0248C42.4032 68.8904 42.3744 68.756 42.3552 68.6216C42.336 68.4824 42.3168 68.348 42.3024 68.2088C42.2544 67.8584 42.2112 67.508 42.1824 67.1528C42.1488 66.692 42.1248 66.2312 42.12 65.7656C42.1152 65.084 42.1392 64.412 42.1968 63.7496C42.3024 62.6024 42.5088 61.484 42.8544 60.38C42.9696 59.972 43.1088 59.5688 43.2576 59.1752C43.2624 59.1608 43.2672 59.1464 43.272 59.132C43.4208 58.7432 43.5888 58.364 43.7712 57.9896C43.7808 57.9704 43.7904 57.9512 43.8 57.932C43.9824 57.5624 44.184 57.2024 44.3952 56.8472C44.4048 56.828 44.4192 56.8088 44.4288 56.7896C44.6448 56.4344 44.8752 56.0936 45.12 55.7576C45.1296 55.7432 45.1392 55.7288 45.1536 55.7144C45.4032 55.3784 45.6672 55.052 45.9456 54.74C45.9552 54.7304 45.96 54.7208 45.9696 54.7112C46.2528 54.3944 46.5456 54.092 46.8576 53.7992C46.8624 53.7944 46.8672 53.7896 46.8768 53.7848C47.1888 53.492 47.5152 53.2136 47.856 52.9544C47.8608 52.9496 47.8608 52.9496 47.8656 52.9448C48.2112 52.6808 48.5664 52.436 48.9312 52.2008C49.0368 52.1336 49.1376 52.0664 49.248 52.004C49.4064 51.908 49.5648 51.8216 49.7232 51.7352L47.5968 47.5064C47.4288 47.5736 47.2608 47.6408 47.0928 47.7176C46.9296 47.7848 46.7712 47.8712 46.6128 47.9432C46.5408 47.9768 46.4688 48.0104 46.3968 48.044C46.224 48.1256 46.056 48.212 45.888 48.2984C45.5952 48.452 45.3072 48.6152 45.0288 48.788C44.7744 48.9416 44.5248 49.1048 44.28 49.2728C44.2752 49.2776 44.2752 49.2776 44.2704 49.2824C44.0304 49.4504 43.7904 49.6184 43.5552 49.796C43.5456 49.8008 43.5408 49.8056 43.5312 49.8152C43.3056 49.988 43.08 50.1704 42.8592 50.3576C42.8448 50.3672 42.8304 50.3816 42.8208 50.3912C42.6048 50.5736 42.3984 50.7608 42.192 50.9528C42.1728 50.972 42.1536 50.9912 42.1344 51.0104C41.9376 51.1976 41.7408 51.3848 41.5536 51.5816C41.5296 51.6104 41.5008 51.6392 41.472 51.668C41.2896 51.8552 41.112 52.0424 40.9392 52.2392C40.9056 52.2776 40.872 52.316 40.8336 52.3592C40.6704 52.5464 40.512 52.7336 40.3536 52.9256C40.3104 52.9784 40.272 53.0312 40.2288 53.084C40.0848 53.2664 39.9408 53.4488 39.8016 53.636C39.7536 53.7032 39.7056 53.7752 39.6576 53.8424C39.528 54.02 39.4032 54.1928 39.2832 54.3752C39.2256 54.4616 39.1728 54.548 39.1152 54.6344C39.0048 54.8024 38.8944 54.9704 38.7936 55.1384C38.7312 55.244 38.6688 55.3496 38.6112 55.4552C38.52 55.6136 38.4288 55.7672 38.3376 55.9256C38.2656 56.0552 38.1984 56.1848 38.1312 56.3192C38.0592 56.4584 37.9824 56.5928 37.9152 56.732C37.8336 56.9 37.7568 57.068 37.6752 57.2408C37.6272 57.3464 37.5744 57.452 37.5264 57.5576C37.4016 57.836 37.2864 58.1144 37.1808 58.3976C37.0848 58.6328 36.9984 58.8728 36.912 59.1128C36.6048 59.9768 36.36 60.8696 36.1776 61.7672C36.0912 62.18 36.0192 62.5928 35.9568 63.0056C35.8272 63.8792 35.7408 64.7576 35.6928 65.6216C35.6688 66.0776 35.6592 66.5336 35.6592 66.9896C35.6592 67.4888 35.6736 67.9832 35.7024 68.4776C35.7216 68.852 35.7504 69.2216 35.784 69.596C35.8944 70.7096 36.072 71.8232 36.3264 72.9176C36.4704 73.5176 36.6384 74.108 36.8256 74.6984C37.3872 76.46 38.1312 78.164 39.0432 79.772C40.2672 81.9128 41.808 83.8568 43.5456 85.5704C44.2032 86.2136 44.904 86.8184 45.624 87.3944C46.5744 88.1528 47.5632 88.8536 48.5904 89.4776C48.8496 89.636 49.1088 89.7848 49.368 89.9336C49.8672 90.2168 50.3664 90.4856 50.88 90.74C50.904 90.7496 50.928 90.764 50.952 90.7784C52.3728 91.4888 53.8464 92.084 55.3632 92.5736C55.5504 92.636 55.7376 92.708 55.9296 92.7656C56.2464 92.8664 56.568 92.9432 56.8896 93.0344C57.96 93.3272 59.0448 93.5624 60.1392 93.7448C63.4176 94.2824 66.7776 94.3064 70.0368 93.86C70.5552 93.7832 71.0688 93.692 71.5776 93.596C71.7504 93.5624 71.9232 93.5288 72.096 93.4904C72.4416 93.4184 72.7776 93.3416 73.1232 93.26C73.3152 93.212 73.512 93.1688 73.704 93.1208C74.1552 93.0056 74.6064 92.8808 75.0576 92.7464C75.0672 92.7464 75.0768 92.7416 75.0864 92.7368C75.6864 92.5592 76.2768 92.372 76.8672 92.1608C76.9248 92.1416 76.9824 92.1176 77.0352 92.0936C75.7104 90.4376 74.2368 88.82 72.7344 87.2936C71.6064 87.5384 70.4784 87.7304 69.336 87.8456C69.2592 87.8504 69.1824 87.8504 69.1056 87.86C68.6352 87.8936 68.1648 87.9176 67.6896 87.9272C64.8672 87.9944 62.0496 87.6248 59.376 86.7992C58.9296 86.66 58.488 86.5112 58.0512 86.348C57.1536 86.0408 56.2752 85.6712 55.416 85.2584C55.4016 85.2536 55.392 85.244 55.3776 85.2392C54.816 84.9704 54.2736 84.6728 53.736 84.3656C53.6112 84.2936 53.4816 84.2216 53.3568 84.1496C53.3328 84.1352 53.3088 84.1208 53.28 84.1064C53.1792 84.0488 53.0784 83.9912 52.9776 83.9336L54.8256 82.5176L62.088 76.964L62.3328 77.1512C64.4256 78.74 69.1968 82.5224 73.6464 87.092C75.1056 88.5896 76.5264 90.1736 77.8128 91.796C79.5792 94.0232 81.0768 96.3224 82.0272 98.5544C83.52 97.0376 88.5552 92.3192 93.7584 92.0024C93.3216 90.7688 92.1504 87.4568 90.7152 83.2424C90.1392 81.5576 89.5248 79.7384 88.896 77.8472ZM48.528 80.5112C49.8192 81.7544 51.1968 82.8728 52.7616 83.7944C51.1968 82.8728 49.824 81.7544 48.528 80.5112C48.5232 80.5064 48.5184 80.5016 48.5136 80.5016C48.4176 80.4104 48.3312 80.3096 48.24 80.2136C48.1392 80.1128 48.048 80.012 47.952 79.9112C46.3104 78.1832 44.9568 76.2056 43.9776 74.0552C43.9152 73.9208 43.8528 73.7912 43.7952 73.652C43.7376 73.5224 43.6896 73.3832 43.6368 73.2488L53.0064 73.1864L48.528 80.5112ZM82.9872 82.8824L82.6272 84.4856L81.9504 83.5496L80.0064 80.852L77.2992 72.1832L83.7312 79.6088L82.9872 82.8824Z" fill="white"/>
<path d="M52.0657 34.9879C41.3761 37.7527 32.6065 46.4119 29.5873 56.8615C28.0513 62.0551 27.7537 67.5895 28.7473 72.8791C29.7505 78.1639 31.9441 83.1895 35.1457 87.4663C36.7489 89.6023 38.6017 91.5367 40.6273 93.2551C42.6529 94.9687 44.8273 96.5047 47.1697 97.7575C49.5121 99.0007 52.0033 99.9367 54.5473 100.618C57.0913 101.305 59.6977 101.741 62.3233 101.885C59.7121 101.631 57.1345 101.089 54.6433 100.301C52.1473 99.5191 49.7377 98.4919 47.4913 97.1815C45.2449 95.8807 43.1521 94.3063 41.2273 92.5735C39.2977 90.8407 37.5649 88.9015 36.0817 86.7895C33.1201 82.5703 31.1617 77.6599 30.3697 72.6055C29.5777 67.5463 30.0337 62.3239 31.6273 57.4999C33.1969 52.6663 35.9617 48.2743 39.6769 44.8567C41.5345 43.1479 43.5697 41.6263 45.7729 40.4407C47.9569 39.2503 50.3617 38.3527 52.7665 37.7575C55.1809 37.1767 57.6817 36.9751 60.1777 37.0663C62.7169 37.1479 65.1457 37.5223 67.5025 38.2855C68.9569 38.7607 71.2513 39.9271 73.1809 41.9671C73.9537 42.7831 74.6689 43.7383 75.2497 44.8471C75.2881 44.9095 75.3265 44.9767 75.3601 45.0391C75.7921 45.7735 76.1761 46.5319 76.5073 47.3143C77.9617 50.6215 78.5137 54.3511 78.0433 57.9175C77.8129 59.6887 77.2993 61.4743 76.5505 63.0631C76.2097 63.7303 75.8017 64.3927 75.3553 65.0311L77.7985 68.5495L82.0705 52.2439L82.8577 52.3831C82.7905 53.1511 82.9777 54.9127 83.9809 58.8967C84.9505 54.1927 84.4705 49.2967 82.8481 44.8135C81.9505 42.5527 80.8321 40.4119 79.4017 38.4775C77.9761 36.5431 76.2769 34.8151 74.4241 33.3079C70.6945 30.2887 66.2257 28.3831 61.6561 27.4135C52.4593 25.6039 42.7921 27.6823 35.2609 32.8231C31.4881 35.3479 28.1905 38.5639 25.6369 42.3079C23.1025 45.9799 21.1777 50.0743 19.9489 54.3415C18.7153 58.6135 18.1921 63.0487 18.3025 67.4503C18.4273 71.8999 19.3777 76.2775 20.9905 80.3623C22.6129 84.3511 24.6385 88.2583 27.2593 91.7287C29.8561 95.2087 32.9953 98.2807 36.4609 100.805C39.8929 103.373 43.7041 105.476 47.7121 106.959C51.7297 108.437 55.9249 109.311 60.1345 109.719C60.3121 109.733 60.4801 109.609 60.5089 109.431C60.5377 109.244 60.4081 109.071 60.2257 109.042C51.9553 107.775 44.0689 104.463 37.7569 99.1447C34.5553 96.5479 31.7713 93.5191 29.5105 90.1351C27.2257 86.7559 25.5361 83.0455 24.1873 79.1719C22.8673 75.3799 22.1761 71.3815 22.2289 67.4167C22.2913 63.4087 22.9345 59.4199 24.1873 55.6519C25.4401 51.8839 27.2881 48.3367 29.6641 45.1831C31.9729 42.0679 34.9249 39.4231 38.2177 37.4071C41.5057 35.3815 45.1777 34.0567 48.9361 33.4567C52.6993 32.8663 56.5585 33.0775 60.1729 33.9991C60.2449 34.0183 60.3121 34.0423 60.3841 34.0615C60.3457 34.0615 60.3073 34.0567 60.2689 34.0567C57.5185 33.9847 54.7393 34.2823 52.0657 34.9879Z" fill="white"/>
<path d="M193.095 71.2475V67.8549V53.5976H193.026C192.843 53.6716 192.695 53.7071 192.582 53.7071C192.378 53.8048 191.83 53.8522 190.939 53.8522L190.904 53.8877H190.8C190.344 53.8877 189.915 53.8759 189.518 53.8522C189.119 53.8285 188.749 53.793 188.408 53.7426C188.316 53.719 188.174 53.6894 187.979 53.6538C187.784 53.6183 187.529 53.5739 187.209 53.5265C186.958 53.4792 186.673 53.4229 186.354 53.3637C186.034 53.3015 185.67 53.2364 185.258 53.1624C184.05 52.9197 183.011 52.7983 182.144 52.7983H181.972C181.881 52.822 181.617 52.8338 181.185 52.8338C180.158 52.9552 179.302 53.5117 178.618 54.5064V54.0328C178.618 53.4762 178.822 52.8308 179.234 52.1055C180.397 50.1665 182.188 49.1836 184.604 49.1599L184.776 49.0859C185.528 49.1363 186.759 49.2813 188.47 49.5241L190.35 49.8882C190.466 49.9356 190.629 49.9859 190.848 50.0333C191.064 50.0806 191.342 50.131 191.685 50.1783L192.405 50.2523L193.124 50.3619H193.98L194.015 50.3263H194.495L194.527 50.3619C195.463 50.3619 196.262 50.131 196.922 49.6721L197.13 49.8172C197.061 50.1339 196.928 50.4596 196.736 50.8C196.543 51.1405 196.321 51.4543 196.07 51.7444C195.818 52.0345 195.546 52.295 195.25 52.5259C194.954 52.7568 194.658 52.9345 194.362 53.0529V66.727V71.2445H193.095V71.2475ZM188.968 69.5867C187.938 70.5932 186.851 71.0965 185.708 71.0965H185.457V71.0521H185.081L185.374 70.6969V70.5636L185.457 70.5192C185.457 70.46 185.469 70.4156 185.498 70.386L185.625 70.2528C185.625 70.1344 185.694 70.0012 185.836 69.8531V69.7199L185.877 69.6755V69.5867L185.919 69.5423V58.5267L184.708 59.1483V57.3277L189.72 54.2193H190.596V66.2563C190.596 67.4079 190.054 68.518 188.968 69.5867Z" fill="white"/>
<path d="M206.943 55.5634L206.908 65.608C206.908 66.0195 206.78 66.4399 206.526 66.8633C206.271 67.2866 205.901 67.7543 205.416 68.2635C204.374 69.2345 203.355 69.72 202.361 69.72C202.796 69.1872 203.015 68.7372 203.015 68.3731V63.3167L202.944 58.5505C202.944 57.4107 203.272 56.5019 203.927 55.821C204.436 55.3118 205.223 54.7552 206.292 54.1483C206.487 54.0506 206.65 53.9648 206.783 53.8937C206.917 53.8197 207.079 53.7605 207.275 53.7132C207.269 53.7072 206.997 54.4148 206.943 55.5634ZM215.351 49.1216C216.807 49.8025 217.775 51.0636 218.261 52.905C218.285 53.0263 218.305 53.13 218.317 53.2129C218.329 53.2987 218.347 53.3875 218.373 53.4852C218.373 53.5355 218.379 53.5829 218.391 53.6303C218.403 53.6806 218.409 53.728 218.409 53.7753V54.2845C218.409 55.4746 218.045 56.6854 217.317 57.9229C216.71 59.0152 215.899 59.8767 214.877 60.5073C216.334 61.2119 217.266 62.5707 217.678 64.5838V64.5482L217.716 64.6933C217.74 64.8147 217.764 64.9242 217.787 65.0219C217.811 65.1433 217.829 65.2587 217.841 65.3683C217.852 65.4778 217.882 65.6051 217.932 65.7502C217.932 65.9219 218.066 66.4429 218.332 67.3162C218.575 68.0208 218.782 68.4796 218.951 68.6987C219.244 69.0628 219.655 69.2434 220.188 69.2434C220.235 69.2197 220.286 69.202 220.333 69.1901C220.381 69.1783 220.431 69.1605 220.478 69.1368H220.443C220.54 69.0895 220.68 69.0392 220.86 68.9918C221.041 68.9444 221.23 68.8941 221.426 68.8467L218.806 72.9942H218.696L218.658 73.0298H218.548L218.513 73.0653H218.367C218.003 73.0653 217.627 72.9913 217.24 72.8462C216.852 72.7012 216.464 72.4584 216.076 72.118C215.372 71.5614 214.933 70.9782 214.765 70.3713L214.22 68.7342C214.099 68.4441 214.001 67.9586 213.93 67.2777C213.518 64.0982 212.814 62.4019 211.819 62.1829V64.1486C211.819 65.4097 210.981 66.4162 209.309 67.1682L207.864 67.6507C207.737 67.6922 207.603 67.7159 207.467 67.7159H207.124C207.39 67.4021 207.592 67.1149 207.725 66.8603C207.858 66.6057 207.923 66.3452 207.923 66.0788V55.4894C207.923 55.1993 207.935 55.0276 207.959 54.9802C207.959 54.0832 208.397 53.3313 209.27 52.7244L215.351 49.1216ZM215.022 57.4196C215.129 56.8038 215.135 56.1733 215.028 55.5575C214.901 54.8352 214.768 54.471 214.768 54.471C214.356 53.3076 213.737 52.5053 212.911 52.0701C212.183 52.5793 211.822 52.979 211.822 53.2721V60.8773H211.896C211.991 60.8536 212.083 60.824 212.168 60.7856C212.254 60.7471 212.538 60.6109 213.024 60.3681V60.4037C213.509 60.0632 213.915 59.6458 214.244 59.1485C214.566 58.6511 214.827 58.0738 215.022 57.4196Z" fill="white"/>
<path d="M226.023 59.4207C226.115 56.6616 227.323 54.015 229.649 51.4839C231.245 49.752 232.909 48.8846 234.644 48.8846H234.952C234.952 48.8846 235.079 48.8728 235.156 48.9202L235.191 49.16C232.864 50.3471 231.361 52.3424 230.677 55.1459C230.677 55.1459 230.094 57.156 230.165 60.1401C230.165 61.8956 230.461 63.6866 231.056 65.5102C232.151 68.7726 234.078 70.4008 236.837 70.4008C237.317 70.4008 237.817 70.3446 238.344 70.2291C238.365 70.2291 238.394 70.2232 238.43 70.2114C238.466 70.1995 238.492 70.1936 238.516 70.1936C238.54 70.1936 238.56 70.1818 238.584 70.1581C238.652 70.1344 238.723 70.1226 238.791 70.1226V51.9279V49.906L242.314 48.4731C245.209 50.2523 247.057 52.7036 247.856 55.8268C248.084 56.7149 248.196 57.6415 248.196 58.5977C248.196 61.0845 247.592 63.4439 246.385 65.679C245.177 68.0059 243.466 69.6815 241.254 70.7087C239.863 71.3689 238.335 71.7004 236.672 71.7004C234.46 71.7004 232.477 71.0965 230.718 69.8857C228.918 68.6779 227.616 67.0822 226.819 65.0958C226.272 63.7281 225.999 62.1768 225.999 60.445L226.023 59.4207ZM243.572 56.1021C242.752 54.0505 241.657 52.4194 240.289 51.2115L240.049 51.2796V56.2057C240.322 56.4781 240.869 56.6172 241.692 56.6172H242.136C242.569 56.6142 243.045 56.4425 243.572 56.1021ZM244.256 60.1371C244.256 59.1335 244.152 58.1981 243.948 57.3307C243.904 57.3307 243.833 57.3543 243.744 57.3988C243.424 57.5142 243.14 57.5971 242.888 57.6563C242.637 57.7126 242.421 57.7422 242.24 57.7422H241.417C240.869 57.7422 240.413 57.6741 240.049 57.5379V63.4913C240.094 63.4913 240.159 63.4853 240.236 63.4735C240.316 63.4617 240.482 63.435 240.733 63.3876C241.145 63.3196 241.405 63.284 241.521 63.284H242.376C242.489 63.284 242.776 63.3196 243.232 63.3876C243.347 63.4113 243.424 63.4232 243.472 63.4232H243.679C243.747 63.4232 243.812 63.4291 243.865 63.4409C243.922 63.4528 243.975 63.4587 244.019 63.4587C244.019 63.3669 244.031 63.2751 244.052 63.1863C244.075 63.0946 244.096 63.0146 244.12 62.9465C244.144 62.8785 244.155 62.834 244.155 62.8104C244.223 61.8986 244.259 61.3953 244.259 61.3065V60.1371H244.256ZM243.229 66.3806C243.433 65.9129 243.593 65.4303 243.708 64.927C243.617 64.9034 243.543 64.8826 243.486 64.859C243.43 64.8353 243.368 64.8027 243.3 64.7583C242.956 64.7346 242.696 64.7109 242.512 64.6902C242.329 64.6665 242.216 64.6458 242.172 64.6221H241.521C241.109 64.6221 240.792 64.6577 240.564 64.7257C240.449 64.7731 240.301 64.8057 240.12 64.8294C240.097 64.853 240.073 64.8649 240.052 64.8649V69.6874C240.896 69.3232 241.672 68.6838 242.379 67.772C242.74 67.3102 243.025 66.8483 243.229 66.3806Z" fill="white"/>
<path d="M265.074 49.2368H256.888L260.944 52.7627H264.893C267.318 52.7627 269.011 54.4382 269.011 56.7148C269.011 58.9913 267.318 60.6669 264.893 60.6669H260.42V60.6492H256.705V71.878H260.42V64.1928H265.074C269.482 64.1928 272.791 60.9896 272.791 56.7148C272.791 52.4192 269.458 49.2368 265.074 49.2368Z" fill="white"/>
<path d="M285.009 62.0346H293.408L289.491 58.6302H285.009V52.7182H294.438V49.2368H281.294V71.878H294.796V68.3669H285.009V62.0346Z" fill="white"/>
<path d="M321.049 54.1215H314.11V52.7034H320.747V49.2368H303.757V52.7034H310.395V54.1215H303.66V55.4389H310.395V71.878H314.11V55.4389H321.049V54.1215Z" fill="white"/>
<path d="M338.802 58.5414C338.515 58.4733 338.234 58.4052 337.959 58.3371H345.816V55.7024H345.81C345.745 51.5164 342.849 48.9023 337.994 48.9023C333.172 48.9023 330.075 51.3151 330.075 55.4004C330.075 60.0719 334.048 61.0281 337.515 61.8689C340.244 62.5113 342.669 63.0797 342.669 65.3326C342.669 67.4167 340.608 68.6778 338.202 68.6778C335.546 68.6778 333.465 67.2805 333.465 64.7494H329.696C329.696 69.3765 333.157 72.2273 338.234 72.2273C342.82 72.2273 346.473 69.8205 346.473 65.2911C346.467 60.4213 342.322 59.4147 338.802 58.5414ZM337.908 52.366C340.221 52.366 342.05 53.5383 342.13 55.7024H333.832C333.805 55.5573 333.785 55.4063 333.785 55.2406C333.785 53.3992 335.653 52.366 337.908 52.366Z" fill="white"/>
<path d="M148.025 67.3219C147.478 67.3219 147.022 67.0614 146.658 66.5345C146.59 66.4664 146.43 66.0904 146.178 65.4066L140.568 50.5246C140.346 49.9888 139.958 49.5595 139.408 49.2339L130.704 70.1254C130.731 70.1254 130.76 70.1225 130.787 70.1225C130.879 70.1225 131.163 70.158 131.643 70.2261C132.874 70.4096 133.91 70.8981 134.757 71.6974L138.348 67.6949L137.492 66.9756L136.945 67.6594C136.649 67.4552 136.353 67.2894 136.057 67.165C135.76 67.0407 135.464 66.9312 135.168 66.8394C134.849 66.795 134.541 66.7476 134.245 66.7032C133.949 66.6588 133.65 66.6114 133.354 66.567L134.482 63.7961H141.424C141.812 64.9595 142.128 65.9069 142.38 66.6351C142.632 67.3663 142.8 67.8548 142.892 68.1064L142.928 68.142C142.928 68.3462 143.144 68.7933 143.579 69.4771C144.263 70.6613 145.323 71.4487 146.761 71.8365L149.944 66.8423C148.777 67.1621 148.138 67.3219 148.025 67.3219ZM135.95 60.2051L138.141 54.9031L140.056 60.2051H135.95Z" fill="white"/>
<path d="M136.77 53.9468L136.806 53.9826C136.806 53.9587 136.794 53.9468 136.77 53.9468Z" fill="white"/>
<path d="M170.655 55.895C169.947 55.6671 169.308 55.5546 168.739 55.5546C167.757 55.5309 167.016 55.4984 166.516 55.4539L166.528 55.4391L166.507 55.4184C167.342 54.2698 168.153 53.3017 168.947 52.5083C169.243 52.2123 169.515 51.9725 169.77 51.7919L170.385 51.1762H170.35C170.51 51.0844 170.658 50.9364 170.794 50.7321L169.938 49.9446L168.982 50.7321C167.955 50.0927 166.871 49.616 165.732 49.2963C165.388 49.2282 165.116 49.172 164.912 49.1246C164.704 49.0802 164.547 49.0565 164.432 49.0565H164.364C164.021 49.0565 163.84 49.0447 163.816 49.021H163.132C163.109 49.0447 162.949 49.0565 162.653 49.0565C162.585 49.0802 162.517 49.0891 162.449 49.0891C162.084 49.1128 161.708 49.169 161.321 49.2608C160.933 49.3526 160.521 49.4887 160.089 49.6723C157.33 50.8594 155.95 52.683 155.95 55.1461C155.95 55.8299 156.075 56.4457 156.326 56.9934C156.966 58.3581 158.914 59.0627 162.17 59.11L158.938 63.752C158.938 63.752 159.237 64.0273 159.681 64.4003L163.722 59.116H164.364H164.536C164.604 59.116 164.696 59.1041 164.811 59.0804H167.034C168.905 59.0804 170.157 59.5363 170.797 60.4481C171.185 61.0195 171.38 61.4872 171.38 61.8514C171.38 62.7188 170.98 63.746 170.181 64.9302C170.045 65.1581 169.799 65.4838 169.447 65.9042C169.095 66.3275 168.63 66.89 168.061 67.5975C166.578 67.0972 165.631 66.8337 165.222 66.81C164.926 66.7656 164.669 66.7301 164.453 66.7064C164.237 66.6857 164.035 66.662 163.852 66.6383C163.739 66.6147 163.648 66.5999 163.579 66.588C163.511 66.5762 163.42 66.5702 163.304 66.5702C162.825 66.6176 162.38 66.6502 161.972 66.6739C161.241 66.7212 160.524 66.8219 159.817 66.9817C159.154 67.1653 158.511 67.3814 157.884 67.6301C157.256 67.8817 156.658 68.2014 156.09 68.5892C154.722 69.433 153.786 70.5165 153.286 71.8398C154.722 70.928 156.297 70.324 158.008 70.025C158.76 69.8889 159.18 69.8208 159.272 69.8208C160.299 69.8208 161.448 69.9806 162.727 70.3004C164.003 70.6201 165.418 71.0878 166.969 71.7036L167.105 71.4638C167.173 71.3276 167.233 71.2122 167.277 71.1233C167.301 71.076 167.31 71.0316 167.31 70.9872C167.31 70.9635 167.333 70.8954 167.378 70.7829C167.81 70.2352 168.204 69.7408 168.559 69.2938C168.911 68.8498 169.204 68.4886 169.432 68.2162C169.684 67.8758 169.93 67.5561 170.166 67.26C170.406 66.964 170.64 66.6916 170.868 66.44C171.12 66.1913 171.336 65.9515 171.519 65.7236C171.703 65.4956 171.872 65.2914 172.031 65.1078C172.555 64.4476 172.982 63.8437 173.313 63.296C173.645 62.7484 173.899 62.2125 174.083 61.6886C174.287 61.1172 174.391 60.5044 174.391 59.8413C174.382 57.8696 173.139 56.5582 170.655 55.895ZM164.941 55.1105C164.849 55.2467 164.77 55.374 164.701 55.4865H164.257C164.166 55.5102 164.074 55.522 163.985 55.522H162.274C161.842 55.522 161.303 55.4539 160.666 55.3178C159.094 54.998 158.295 54.3024 158.271 53.2307C158.36 52.1146 159.148 51.3834 160.631 51.043C160.743 51.0193 160.835 51.0074 160.906 51.0074C160.998 51.0074 161.075 50.9956 161.146 50.9749L161.421 50.9068H161.557C162.446 50.9068 163.319 51.1643 164.174 51.6765C165.03 52.1886 165.664 52.8577 166.072 53.6777L165.9 53.8494C165.853 53.9175 165.815 53.9737 165.779 54.0211C165.746 54.0685 165.705 54.1129 165.661 54.1573C165.619 54.2195 165.56 54.3053 165.489 54.406L165.474 54.3912L165.237 54.7286C165.122 54.8589 165.021 54.9892 164.941 55.1105Z" fill="white"/>
<path d="M158.935 63.7487L169.935 49.9443L170.379 51.1759L159.678 64.397L158.935 63.7487Z" fill="white"/>
</svg>
