<svg width="96" height="96" viewBox="0 0 96 96" fill="none" xmlns="http://www.w3.org/2000/svg">
<style>

  path {

    fill: #000000;

  }

  @media (prefers-color-scheme: dark) {

    path { fill: #ffffff; }

  }

</style>
<path d="M50.8454 45.2235C50.8761 44.6552 50.7686 44.0754 50.5804 43.5416C50.3347 42.8466 49.9276 42.2053 49.44 41.7061C48.9715 41.2376 48.3033 40.796 47.6505 40.4965C46.5331 39.9704 45.2966 39.7515 44.064 39.7899L50.8224 45.2235H50.8454Z"/>
<path d="M33.627 50.6073C33.7114 49.6895 33.8766 48.7948 34.153 47.9116C33.8766 48.7948 33.7076 49.6895 33.627 50.6073Z"/>
<path d="M36.5762 38.2426C36.7106 38.1696 36.8488 38.1043 36.9832 38.0391C36.8488 38.1082 36.7106 38.1735 36.5762 38.2426Z"/>
<path d="M60.0615 35.4778C59.5969 34.5907 59.0247 33.8227 58.4065 33.1699C59.0209 33.8995 59.5777 34.6714 60.0615 35.4778Z"/>
<path d="M47.9771 74.5878C50.5998 75.0179 53.2839 75.0371 55.8913 74.68C56.306 74.6185 56.7169 74.5456 57.1239 74.4688C56.713 74.5494 56.3022 74.6224 55.8913 74.68C53.2839 75.0371 50.5998 75.0179 47.9771 74.5878Z"/>
<path d="M46.3027 68.6783C45.5847 68.4326 44.8819 68.1369 44.1946 67.8066C44.8781 68.1369 45.5847 68.4326 46.3027 68.6783Z"/>
<path d="M55.1426 69.8838C54.7663 69.9107 54.3899 69.9299 54.0098 69.9375C54.3861 69.9299 54.7624 69.9145 55.1426 69.8838Z"/>
<path d="M44.16 67.7873C43.7107 67.5722 43.2768 67.3341 42.8467 67.0884C43.2768 67.3341 43.7145 67.5722 44.16 67.7873Z"/>
<path d="M37.1546 37.9546C37.0974 37.9813 37.0441 38.0117 36.9832 38.0384C37.0403 38.0117 37.0974 37.9851 37.1546 37.9584C37.1546 37.9584 37.1546 37.9546 37.1546 37.9546Z"/>
<path d="M35.8887 38.6339C36.1114 38.4957 36.3456 38.369 36.576 38.2461C36.3418 38.369 36.1114 38.4957 35.8887 38.6339Z"/>
<path d="M36.3649 69.5154C35.785 69.0546 35.2282 68.5707 34.7021 68.0562C35.2282 68.5669 35.785 69.0546 36.3649 69.5154Z"/>
<path d="M59.9253 73.7852C59.9182 73.7852 59.9111 73.7887 59.9041 73.7923C59.9111 73.7887 59.9182 73.7887 59.9253 73.7852Z"/>
<path d="M54.0098 69.9415C51.7518 69.9952 49.4978 69.6995 47.3589 69.0391C49.5016 69.6995 51.7518 69.9914 54.0098 69.9415Z"/>
<path d="M42.0749 66.6392C40.8269 65.8981 39.7209 65.0072 38.688 64.0088C39.7248 65.0033 40.8269 65.8981 42.0749 66.6392Z"/>
<path d="M38.6886 64.009C38.6846 64.005 38.6805 64.001 38.6765 64.001C38.6846 64.005 38.6886 64.005 38.6886 64.009Z"/>
<path d="M60.1491 35.6413C60.1491 35.6375 60.1491 35.6337 60.1491 35.6299C60.1187 35.5804 60.0882 35.5271 60.0615 35.4775C60.0882 35.5347 60.1225 35.5842 60.1491 35.6413Z"/>
<path d="M71.0709 52.2315C70.6562 53.1761 70.0955 54.0517 69.3813 54.7966C69.6271 55.5838 69.8767 56.3787 70.1301 57.1736C70.4066 56.8817 70.6562 56.5899 70.8635 56.3288C71.2898 55.7873 71.6584 55.2037 71.9656 54.5854C72.5992 53.299 73.1253 51.9589 73.5208 50.5803C74.7535 46.4216 74.9877 41.9979 74.1928 37.7662C73.3903 33.5384 71.6354 29.5179 69.0741 26.0965C67.7916 24.3877 66.3093 22.8401 64.6888 21.4693C63.0684 20.0984 61.3288 18.8657 59.4549 17.8673C57.5772 16.8766 55.588 16.124 53.5528 15.5787C51.5176 15.0257 49.4287 14.6801 47.332 14.5649C49.421 14.7685 51.4831 15.2024 53.476 15.8321C55.4728 16.4581 57.4005 17.2798 59.1976 18.3281C60.9948 19.3688 62.669 20.6283 64.2088 22.0145C65.7487 23.4008 67.1387 24.9521 68.3253 26.6417C70.6946 30.0171 72.2613 33.9493 72.8949 37.9889C73.5247 42.0325 73.1637 46.2142 71.8888 50.0696C71.6546 50.8069 71.3781 51.5288 71.0709 52.2315Z"/>
<path d="M40.4084 36.8525L44.0641 39.7901C45.2968 39.7517 46.5332 39.9705 47.6507 40.4966C48.2996 40.7961 48.9716 41.2377 49.4401 41.7062C49.9278 42.2016 50.331 42.8429 50.5806 43.5417C50.7688 44.0793 50.8763 44.6592 50.8456 45.2236L51.771 45.1584L49.1406 38.519C49.0638 38.4614 48.9908 38.4 48.9102 38.3462C47.2628 37.2365 45.2699 36.6835 43.3076 36.6144C42.34 36.5721 41.3646 36.6605 40.4084 36.8525Z"/>
<path d="M79.6608 32.8932C74.9913 19.3073 61.8854 9.56908 48.0422 8.62444H48.0345C47.8924 8.61676 47.7657 8.7166 47.7465 8.85868C47.7235 9.00844 47.831 9.14668 47.9769 9.16588C54.7315 10.1182 61.1251 12.9828 66.2361 17.3259C71.3932 21.6228 75.214 27.3982 77.0572 33.7265C77.998 36.8638 78.4627 40.1892 78.359 43.4033C78.2284 46.6635 77.5872 49.8968 76.4428 52.9265C75.8822 54.4395 75.1718 55.9294 74.3961 57.3156C73.6204 58.6558 72.6374 59.9844 71.6083 61.1864C71.566 61.2363 71.52 61.2785 71.4777 61.3284C71.9808 62.8491 72.4761 64.316 72.9369 65.6753C73.536 65.0456 74.112 64.3928 74.6534 63.7092C75.7939 62.2616 76.8076 60.7793 77.687 59.1166C78.5241 57.4769 79.2268 55.8296 79.7913 54.1016C80.9318 50.6648 81.4963 47.0552 81.5001 43.4571C81.4656 39.8129 80.8166 36.2801 79.6608 32.8932Z"/>
<path d="M70.9825 61.8776C70.5294 60.5106 70.0686 59.1013 69.6155 57.6882C69.3582 56.8894 69.1047 56.0946 68.859 55.3035C68.4711 54.0632 68.0987 52.8421 67.7531 51.667C67.3537 50.3192 67.0119 49.1019 66.7201 48.0114C66.2017 46.0798 65.8523 44.5477 65.6641 43.3995L62.5998 55.0962L62.3732 55.9678L62.0967 55.5685L59.7467 52.1778L54.4705 44.5669L48.5377 35.2549L50.1812 39.4059L52.2011 44.5093L52.4737 45.1928L52.6311 45.7458L51.9476 45.7957L50.7457 45.8802L50.619 45.8878L50.5191 45.8072L43.1348 39.8706L39.6135 37.0405L37.5399 35.3739L38.546 37.3784L40.2164 40.7L45.4196 51.0526L44.8705 50.7339L44.5403 50.5419L44.3022 50.6379L33.8075 54.8197C33.7883 54.7122 33.7652 54.6046 33.7499 54.4971C33.7345 54.3858 33.7191 54.2782 33.7076 54.1669C33.6692 53.8866 33.6347 53.6062 33.6116 53.3221C33.5847 52.9534 33.5655 52.5848 33.5617 52.2123C33.5579 51.667 33.5771 51.1294 33.6231 50.5995C33.7076 49.6818 33.8727 48.787 34.1492 47.9038C34.2414 47.5774 34.3527 47.2549 34.4718 46.94C34.4756 46.9285 34.4795 46.917 34.4833 46.9054C34.6023 46.5944 34.7367 46.291 34.8827 45.9915C34.8903 45.9762 34.898 45.9608 34.9057 45.9454C35.0516 45.6498 35.2129 45.3618 35.3819 45.0776C35.3895 45.0622 35.4011 45.0469 35.4087 45.0315C35.5815 44.7474 35.7659 44.4747 35.9617 44.2059C35.9694 44.1944 35.9771 44.1829 35.9886 44.1714C36.1883 43.9026 36.3995 43.6414 36.6222 43.3918C36.6299 43.3842 36.6337 43.3765 36.6414 43.3688C36.8679 43.1154 37.1022 42.8734 37.3518 42.6392C37.3556 42.6354 37.3595 42.6315 37.3671 42.6277C37.6167 42.3934 37.8779 42.1707 38.1505 41.9634C38.1543 41.9595 38.1543 41.9595 38.1582 41.9557C38.4347 41.7445 38.7188 41.5486 39.0107 41.3605C39.0951 41.3067 39.1758 41.253 39.2641 41.203C39.3908 41.1262 39.5175 41.0571 39.6443 40.988L37.9431 37.605C37.8087 37.6587 37.6743 37.7125 37.5399 37.7739C37.4094 37.8277 37.2827 37.8968 37.1559 37.9544C37.0983 37.9813 37.0407 38.0082 36.9831 38.035C36.8449 38.1003 36.7105 38.1694 36.5761 38.2386C36.3419 38.3614 36.1115 38.492 35.8887 38.6302C35.6852 38.7531 35.4855 38.8837 35.2897 39.0181C35.2859 39.0219 35.2859 39.0219 35.282 39.0258C35.09 39.1602 34.898 39.2946 34.7099 39.4366C34.7022 39.4405 34.6983 39.4443 34.6907 39.452C34.5102 39.5902 34.3297 39.7362 34.1531 39.8859C34.1415 39.8936 34.13 39.9051 34.1223 39.9128C33.9495 40.0587 33.7844 40.2085 33.6193 40.3621C33.6039 40.3774 33.5886 40.3928 33.5732 40.4082C33.4158 40.5579 33.2583 40.7077 33.1086 40.8651C33.0894 40.8882 33.0663 40.9112 33.0433 40.9342C32.8974 41.084 32.7553 41.2338 32.6171 41.3912C32.5902 41.4219 32.5633 41.4526 32.5326 41.4872C32.402 41.637 32.2753 41.7867 32.1486 41.9403C32.114 41.9826 32.0833 42.0248 32.0487 42.067C31.9335 42.213 31.8183 42.3589 31.707 42.5086C31.6686 42.5624 31.6302 42.62 31.5918 42.6738C31.4881 42.8158 31.3883 42.9541 31.2923 43.1C31.2462 43.1691 31.2039 43.2382 31.1579 43.3074C31.0695 43.4418 30.9812 43.5762 30.9006 43.7106C30.8507 43.795 30.8007 43.8795 30.7547 43.964C30.6817 44.0907 30.6087 44.2136 30.5358 44.3403C30.4782 44.444 30.4244 44.5477 30.3707 44.6552C30.3131 44.7666 30.2516 44.8741 30.1979 44.9854C30.1326 45.1198 30.0711 45.2542 30.0059 45.3925C29.9675 45.477 29.9252 45.5614 29.8868 45.6459C29.787 45.8686 29.6948 46.0914 29.6103 46.3179C29.5335 46.5061 29.4644 46.6981 29.3953 46.8901C29.1495 47.5813 28.9537 48.2955 28.8078 49.0136C28.7387 49.3438 28.6811 49.6741 28.6311 50.0043C28.5275 50.7032 28.4583 51.4059 28.4199 52.0971C28.4007 52.4619 28.3931 52.8267 28.3931 53.1915C28.3931 53.5909 28.4046 53.9864 28.4276 54.3819C28.443 54.6814 28.466 54.9771 28.4929 55.2766C28.5812 56.1675 28.7233 57.0584 28.9268 57.9339C29.042 58.4139 29.1764 58.8862 29.3262 59.3586C29.7755 60.7678 30.3707 62.131 31.1003 63.4174C32.0795 65.1301 33.3121 66.6853 34.7022 68.0562C35.2283 68.5707 35.7889 69.0546 36.3649 69.5154C37.1252 70.1221 37.9163 70.6827 38.738 71.1819C38.9454 71.3086 39.1527 71.4277 39.3601 71.5467C39.7595 71.7733 40.1588 71.9883 40.5697 72.1918C40.5889 72.1995 40.6081 72.211 40.6273 72.2226C41.7639 72.7909 42.9428 73.267 44.1563 73.6587C44.306 73.7086 44.4558 73.7662 44.6094 73.8123C44.8628 73.893 45.1201 73.9544 45.3774 74.0274C46.2337 74.2616 47.1015 74.4498 47.9771 74.5957C50.5998 75.0258 53.2878 75.045 55.8951 74.6878C56.3099 74.6264 56.7207 74.5534 57.1278 74.4766C57.266 74.4498 57.4043 74.4229 57.5425 74.3922C57.819 74.3346 58.0878 74.2731 58.3643 74.2078C58.5179 74.1694 58.6753 74.1349 58.8289 74.0965C59.1899 74.0043 59.5508 73.9045 59.9118 73.797C59.9195 73.797 59.9271 73.7931 59.9348 73.7893C60.4148 73.6472 60.8871 73.4974 61.3595 73.3285C61.4055 73.3131 61.4516 73.2939 61.4939 73.2747C60.434 71.9499 59.2551 70.6558 58.0532 69.4347C57.1508 69.6306 56.2484 69.7842 55.3345 69.8763C55.2731 69.8802 55.2116 69.8802 55.1502 69.8878C54.7739 69.9147 54.3975 69.9339 54.0174 69.9416C51.7595 69.9954 49.5054 69.6997 47.3665 69.0392C47.0094 68.9278 46.6561 68.8088 46.3067 68.6782C45.5886 68.4325 44.8859 68.1368 44.1985 67.8066C44.187 67.8027 44.1793 67.795 44.1678 67.7912C43.7185 67.5762 43.2846 67.3381 42.8545 67.0923C42.7547 67.0347 42.651 66.9771 42.5511 66.9195C42.5319 66.908 42.5127 66.8965 42.4897 66.885C42.4091 66.8389 42.3284 66.7928 42.2478 66.7467L43.7262 65.6139L49.5361 61.171L49.7319 61.3208C51.4062 62.5918 55.2231 65.6178 58.7828 69.2734C59.9502 70.4715 61.0868 71.7387 62.1159 73.0366C63.5291 74.8184 64.7271 76.6578 65.4875 78.4434C66.6817 77.2299 70.7099 73.4552 74.8724 73.2018C74.523 72.2149 73.586 69.5653 72.4379 66.1938C71.9771 64.8459 71.4855 63.3906 70.9825 61.8776ZM38.6881 64.0088C39.7211 65.0034 40.8231 65.8981 42.075 66.6354C40.8231 65.8981 39.7249 65.0034 38.6881 64.0088C38.6843 64.005 38.6804 64.0011 38.6766 64.0011C38.5998 63.9282 38.5307 63.8475 38.4577 63.7707C38.3771 63.6901 38.3041 63.6094 38.2273 63.5288C36.914 62.1464 35.8311 60.5643 35.0478 58.844C34.9979 58.7365 34.9479 58.6328 34.9019 58.5214C34.8558 58.4178 34.8174 58.3064 34.7751 58.1989L42.2708 58.149L38.6881 64.0088ZM66.2555 65.9058L65.9675 67.1883L65.426 66.4395L63.8708 64.2814L61.7051 57.3464L66.8507 63.2869L66.2555 65.9058Z"/>
<path d="M41.5182 27.5901C32.9665 29.802 25.9508 36.7293 23.5354 45.089C22.3066 49.2439 22.0686 53.6714 22.8634 57.9031C23.666 62.1309 25.4209 66.1514 27.9822 69.5728C29.2647 71.2816 30.747 72.8292 32.3674 74.2039C33.9879 75.5748 35.7274 76.8036 37.6014 77.8058C39.4753 78.8004 41.4682 79.5492 43.5034 80.0944C45.5386 80.6436 47.6238 80.993 49.7242 81.1082C47.6353 80.9047 45.5732 80.4708 43.5802 79.841C41.5834 79.2151 39.6558 78.3933 37.8586 77.345C36.0615 76.3044 34.3873 75.0448 32.8474 73.6586C31.3038 72.2724 29.9175 70.721 28.731 69.0314C26.3617 65.656 24.795 61.7277 24.1614 57.6842C23.5278 53.6368 23.8926 49.4589 25.1674 45.5997C26.4231 41.7328 28.635 38.2192 31.6071 35.4852C33.0932 34.1181 34.7214 32.9008 36.4839 31.9524C38.2311 31 40.155 30.282 42.0788 29.8058C44.0103 29.3412 46.011 29.1799 48.0078 29.2528C50.0391 29.3181 51.9822 29.6176 53.8676 30.2282C55.0311 30.6084 56.8666 31.5415 58.4103 33.1735C59.0286 33.8263 59.6007 34.5904 60.0654 35.4775C60.0961 35.5274 60.1268 35.5812 60.1537 35.6311C60.4993 36.2186 60.8065 36.8253 61.0714 37.4512C62.235 40.097 62.6766 43.0807 62.3002 45.9338C62.1159 47.3508 61.705 48.7792 61.106 50.0503C60.8334 50.584 60.507 51.114 60.1498 51.6247L62.1044 54.4394L65.522 41.3949L66.1518 41.5063C66.098 42.1207 66.2478 43.53 67.0503 46.7172C67.826 42.954 67.442 39.0372 66.1441 35.4506C65.426 33.642 64.5313 31.9293 63.387 30.3818C62.2465 28.8343 60.8871 27.4519 59.4049 26.2461C56.4212 23.8308 52.8462 22.3063 49.1905 21.5306C41.833 20.0829 34.0993 21.7456 28.0743 25.8583C25.0561 27.8781 22.418 30.4509 20.3751 33.4461C18.3476 36.3837 16.8078 39.6592 15.8247 43.073C14.8378 46.4906 14.4193 50.0388 14.5076 53.56C14.6074 57.1197 15.3678 60.6218 16.658 63.8896C17.9559 67.0807 19.5764 70.2064 21.673 72.9828C23.7505 75.7668 26.2618 78.2244 29.0343 80.2442C31.7799 82.2986 34.8289 83.9805 38.0353 85.1671C41.2494 86.3498 44.6055 87.0487 47.9732 87.3751C48.1153 87.3866 48.2497 87.2868 48.2727 87.1447C48.2958 86.9949 48.1921 86.8567 48.0462 86.8336C41.4298 85.8199 35.1207 83.1703 30.0711 78.9156C27.5098 76.8381 25.2826 74.4151 23.474 71.7079C21.6462 69.0045 20.2945 66.0362 19.2154 62.9373C18.1594 59.9037 17.6065 56.705 17.6487 53.5332C17.6986 50.3268 18.2132 47.1357 19.2154 44.1213C20.2177 41.1069 21.6961 38.2692 23.5969 35.7463C25.4439 33.2541 27.8055 31.1383 30.4398 29.5255C33.0702 27.905 36.0078 26.8452 39.0145 26.3652C42.025 25.8928 45.1124 26.0618 48.0039 26.7991C48.0615 26.8144 48.1153 26.8336 48.1729 26.849C48.1422 26.849 48.1114 26.8452 48.0807 26.8452C45.8804 26.7876 43.657 27.0256 41.5182 27.5901Z"/>
</svg>
