<svg width="178" height="53" viewBox="0 0 178 53" fill="none" xmlns="http://www.w3.org/2000/svg">
<path d="M41.805 35.4208C40.4953 37.2743 38.7862 38.8896 36.8614 40.0955L36.6679 40.2171V35.2223H41.9439L41.805 35.4208ZM36.2239 40.4726L36.1594 40.5099C35.5541 40.8498 34.9216 41.155 34.2792 41.418L34.1055 41.49V35.2223H36.2239V40.4726ZM31.5779 42.2666L31.4787 42.289C30.2707 42.552 29.0453 42.686 27.8299 42.686C27.376 42.686 26.9047 42.6636 26.3887 42.6215L26.3639 42.6165C23.5659 41.7753 22.0305 39.5397 21.3806 35.3687L21.3583 35.2223H31.5779V42.2666V42.2666ZM21.326 16.248C21.9958 11.3499 23.7842 8.96296 27.123 8.50392C28.5988 8.44437 30.0598 8.57092 31.4787 8.88356L31.5779 8.90586V16.3919H21.3062L21.326 16.248ZM34.1055 9.68251L34.2792 9.75448C34.9216 10.0175 35.5566 10.3227 36.1594 10.6626L36.2239 10.6998V16.3944H34.1055V9.68251ZM36.6704 10.9554L36.8639 11.077C38.9425 12.3772 40.7557 14.1488 42.1076 16.1959L42.2366 16.3919H36.6704V10.9554ZM43.9035 31.4061L43.8291 31.6046C43.457 32.5921 42.9906 33.5499 42.4425 34.4481L42.4053 34.5101H21.2615L21.2491 34.3985C20.9862 32.148 20.9589 29.5228 20.9515 27.24V26.4783L20.9788 21.3445L20.9961 20.7267C21.0358 19.3744 21.1053 18.2256 21.2095 17.2157L21.2219 17.1015H24.8409L27.5421 16.9502L30.1318 17.1015H42.6632L42.7004 17.1661C44.1565 19.7267 44.9255 22.6397 44.9255 25.585C44.9255 26.1036 44.8981 26.6445 44.846 27.1879L44.8088 27.5725L44.6625 28.4286L45.367 28.6394C45.5456 27.6172 45.6349 26.5899 45.6349 25.585C45.6349 22.4164 44.7865 19.2975 43.1792 16.5705L43.1618 16.5408L43.075 16.3919L43.0378 16.3298C39.8156 11.0522 33.9865 7.77441 27.8299 7.77441C18.0121 7.77441 10.0249 15.7641 10.0249 25.585C10.0249 35.4059 18.0121 43.3956 27.8299 43.3956C35.4425 43.3956 42.2118 38.5472 44.6774 31.3317L43.9035 31.4061Z" fill="#C99212"/>
<path d="M31.4678 23.2812L31.7729 23.1869C34.9232 22.2068 37.6988 22.3234 40.0231 23.5368C42.5308 24.8444 44.0315 27.1793 44.8501 28.9062C44.9816 29.1841 45.1056 29.467 45.2197 29.7499C45.247 29.8194 45.2718 29.8839 45.2966 29.9484L45.4132 30.2561L31.4678 23.2812ZM44.7434 30.6828C44.6392 30.7027 44.5326 30.7226 44.4284 30.7424C43.4933 30.9111 42.5929 30.993 41.7296 30.993C38.701 30.993 36.1336 29.9608 34.0723 27.9063C32.7205 26.5614 31.897 25.0553 31.4406 24.0281L31.2967 23.703L45.1105 30.6134L44.7434 30.6828ZM38.4529 31.4719C36.3668 33.385 34.1443 34.3849 31.8474 34.4519L31.644 34.4569L34.1393 28.9162L34.2683 29.0278C35.4912 30.07 36.8828 30.8193 38.4008 31.2535L38.6216 31.318L38.4529 31.4719ZM31.2744 34.1765L27.2212 21.4947H30.1333L30.1085 21.6436C29.9597 22.5542 30.369 23.2638 30.3739 23.2688L30.3864 23.2961C30.436 23.4499 30.8949 24.8469 31.964 26.4299C32.4849 27.2041 33.0777 27.9137 33.7226 28.5341L33.7871 28.5961L31.2744 34.1765ZM30.6865 34.4072C29.9523 34.3303 29.2131 34.1641 28.4912 33.9135C27.5933 33.6033 26.7276 33.1592 25.919 32.5909L25.8644 32.5537V21.4972H26.7499L30.8824 34.4296L30.6865 34.4072ZM25.4105 32.2188L25.1996 32.0426C23.5129 30.6307 22.233 28.6656 21.6004 26.5069C21.0622 24.6682 21.0473 23.0107 21.5583 21.5815L21.5881 21.4972H25.408V32.2188H25.4105ZM21.8758 20.8545C22.233 20.1573 22.7291 19.5146 23.3517 18.9439C24.8821 17.542 26.4374 16.9142 27.9753 17.0854C28.0125 17.0904 28.0497 17.0954 28.0844 17.1028L28.33 17.14L27.762 18.0383C27.891 18.0804 28.01 18.1474 28.1068 18.2417L28.7393 17.2393L28.8335 17.2666C30.2648 17.7058 31.3364 18.7405 31.8449 19.3186L31.9515 19.4377L31.8126 19.5146C31.1007 19.9091 30.5997 20.398 30.3268 20.9662L30.2921 21.0381H26.3407L27.1344 19.7801C27.0104 19.7355 26.8938 19.666 26.7971 19.5667C26.7971 19.5667 26.7971 19.5667 26.7946 19.5642L25.8644 21.0356H21.779L21.8758 20.8545ZM46.3062 30.6903C46.2838 30.6059 46.0804 29.8442 45.6091 28.7996L45.5917 28.7623C45.3065 28.0924 45.0312 27.6433 45.0312 27.6433L44.8303 27.3058C44.0117 25.9337 42.573 24.0554 40.3579 22.8991C37.7385 21.5294 34.5759 21.4525 31.0412 22.6683L30.9122 22.713L30.875 22.5815C30.8006 22.3209 30.7435 21.9215 30.8824 21.4996C31.0933 20.857 31.6911 20.321 32.6585 19.9067L33.0653 19.733L32.8148 19.3707C32.78 19.3211 31.9466 18.1326 30.5327 17.2616C30.235 17.078 29.9225 16.9118 29.5926 16.7902C26.8566 15.7753 24.7829 17.0234 24.7829 17.0234L24.386 17.2616C23.875 17.5693 23.3616 17.9589 22.8655 18.4129C22.1114 19.1027 21.5285 19.8918 21.1291 20.7577C20.8637 21.3309 20.6752 21.9363 20.5884 22.5591C20.4594 23.4847 20.4172 24.8742 20.8364 26.5317L21.0895 27.2612C22.2305 30.5786 24.6812 33.1889 27.8116 34.4296L28.4367 34.6777C28.4367 34.6777 31.128 35.8786 34.6329 34.6777L35.2332 34.4296C36.6893 33.8316 38.1007 32.8614 39.4278 31.5488L39.4749 31.5017L39.5394 31.5141C40.9161 31.7597 42.3423 31.7746 43.9001 31.5587L44.1134 31.529L44.9245 31.385L44.9965 31.3702C45.3586 31.2957 45.7183 31.2138 46.078 31.1196L46.4004 31.0352L46.3062 30.6903Z" fill="#222222"/>
<path d="M28.161 18.324C28.4809 18.7061 28.4462 19.2669 28.0717 19.6043C27.9427 19.7209 27.774 19.7904 27.6053 19.8252C27.4838 19.85 27.3771 19.8475 27.2258 19.8078L27.1365 19.7855L27.134 19.7879C27.2382 19.8252 27.3474 19.8475 27.4565 19.8475C27.6971 19.8475 27.9352 19.7557 28.1188 19.5746C28.2949 19.3984 28.3892 19.1627 28.3892 18.9145C28.3892 18.6639 28.2924 18.4307 28.1163 18.2545C28.1138 18.252 28.1089 18.2496 28.1064 18.2471L28.1014 18.257L28.161 18.324Z" fill="#222222"/>
<path d="M26.7963 18.2506C26.6202 18.4268 26.5234 18.66 26.5234 18.9106C26.5234 19.1612 26.6202 19.3945 26.7938 19.5707L26.7988 19.5632L26.7418 19.4913C26.4441 19.1215 26.4689 18.593 26.8013 18.2581C27.0295 18.0323 27.3544 17.9405 27.6719 18.0174L27.7612 18.0397C27.4313 17.9305 27.0468 18 26.7963 18.2506Z" fill="#222222"/>
<path d="M27.9286 18.9131C27.9286 19.0397 27.879 19.1588 27.7922 19.2481C27.7004 19.3399 27.5789 19.3871 27.4574 19.3871C27.3358 19.3871 27.2143 19.3424 27.1225 19.2481C27.0332 19.1588 26.9836 19.0397 26.9836 18.9131C26.9836 18.7866 27.0332 18.6675 27.1225 18.5782C27.3011 18.3995 27.6136 18.3995 27.7922 18.5782C27.8815 18.6675 27.9286 18.7866 27.9286 18.9131ZM27.6732 18.0174C27.3557 17.943 27.0307 18.0323 26.8025 18.2581C26.4701 18.5931 26.4428 19.1216 26.743 19.4913L26.8 19.5632L26.7951 19.5707C26.7951 19.5707 26.7951 19.5707 26.7951 19.5732C26.8943 19.6724 27.0084 19.7419 27.1324 19.7866L27.1349 19.7841L27.2267 19.8064C27.378 19.8436 27.4847 19.8486 27.6062 19.8238C27.7774 19.789 27.9435 19.7196 28.075 19.6029C28.4471 19.268 28.4843 18.7072 28.1643 18.3251L28.1048 18.2531L28.1097 18.2457C28.0105 18.1489 27.8914 18.0844 27.7649 18.0422L27.6732 18.0174Z" fill="#222222"/>
<path d="M72.011 39.7738H73.1693V42.9201H73.5885V39.7738H74.7668V39.4165H72.011V39.7738Z" fill="#1E1E1C"/>
<path d="M79.7078 42.9215H81.7566V42.5518H80.1269V41.2913H81.6301V40.929H80.1269V39.7752H81.7566V39.4204H79.7078V42.9215Z" fill="#1E1E1C"/>
<path d="M88.7442 42.5904C88.4465 42.5904 88.186 42.5284 87.9603 42.4068C87.7569 42.2877 87.5957 42.1214 87.4767 41.9056C87.3576 41.6922 87.298 41.4416 87.298 41.1562C87.298 40.8634 87.3502 40.6103 87.4544 40.3945C87.5585 40.1811 87.7074 40.0148 87.9033 39.9007C88.0894 39.799 88.3498 39.7469 88.6797 39.7469C88.8459 39.7469 88.9872 39.7593 89.1038 39.7816C89.2204 39.8039 89.3544 39.8412 89.5082 39.8933L89.6297 39.5484C89.4089 39.4764 89.2477 39.4293 89.146 39.4094C88.9947 39.3796 88.7987 39.3647 88.5606 39.3647C88.3274 39.3647 88.0868 39.4144 87.8412 39.5111C87.6279 39.5955 87.4469 39.7171 87.2931 39.8734C87.1492 40.0173 87.0351 40.1985 86.9557 40.4193C86.8763 40.6376 86.8342 40.8858 86.8342 41.1612C86.8342 41.6996 86.993 42.1363 87.3129 42.4663C87.4643 42.6202 87.6552 42.7418 87.8785 42.8361C88.1042 42.9303 88.3498 42.975 88.6177 42.975C89.0096 42.975 89.3593 42.8981 89.6694 42.7467L89.5677 42.4142C89.2626 42.5309 88.9897 42.5904 88.7442 42.5904Z" fill="#1E1E1C"/>
<path d="M97.1045 40.9643H95.1573V39.4185H94.738V42.9195H95.1573V41.3489H97.1045V42.922H97.5237V39.4209H97.1045V40.9643Z" fill="#1E1E1C"/>
<path d="M105.252 42.3543L103.347 39.4189H102.813V42.9225H103.233V39.9747L105.143 42.9225H105.683V39.4189H105.249V42.3543H105.252Z" fill="#1E1E1C"/>
<path d="M113.486 41.8949C113.389 42.1108 113.257 42.282 113.094 42.4085C112.93 42.5326 112.714 42.5971 112.449 42.5971C112.186 42.5971 111.972 42.5351 111.811 42.4085C111.65 42.2845 111.519 42.1133 111.417 41.8949C111.32 41.7039 111.27 41.4632 111.27 41.1704C111.27 40.8826 111.318 40.6394 111.417 40.4434C111.519 40.2325 111.65 40.0637 111.811 39.9372C111.972 39.8106 112.183 39.7486 112.449 39.7486C112.922 39.7486 113.27 39.9794 113.486 40.4434C113.587 40.6592 113.639 40.9024 113.639 41.1704C113.637 41.4408 113.587 41.684 113.486 41.8949ZM113.329 39.6047C113.086 39.4558 112.791 39.3789 112.449 39.3789C112.104 39.3789 111.814 39.4558 111.573 39.6047C111.332 39.7561 111.146 39.9595 111.01 40.2201C110.874 40.4781 110.807 40.7957 110.807 41.1704C110.807 41.5525 110.874 41.8676 111.01 42.1133C111.146 42.3763 111.332 42.5847 111.573 42.7361C111.814 42.8899 112.104 42.9668 112.449 42.9668C112.793 42.9668 113.086 42.8899 113.329 42.7361C113.572 42.5847 113.763 42.3763 113.9 42.1133C114.036 41.8279 114.103 41.5153 114.103 41.1704C114.103 40.8354 114.036 40.5178 113.9 40.2201C113.763 39.962 113.572 39.7561 113.329 39.6047Z" fill="#1E1E1C"/>
<path d="M119.686 39.417H119.266V42.9205H121.258V42.5508H119.686V39.417Z" fill="#1E1E1C"/>
<path d="M128.802 41.8949C128.706 42.1108 128.574 42.282 128.41 42.4085C128.247 42.5326 128.031 42.5971 127.763 42.5971C127.5 42.5971 127.287 42.5351 127.125 42.4085C126.964 42.2845 126.833 42.1133 126.731 41.8949C126.634 41.7039 126.585 41.4632 126.585 41.1704C126.585 40.8826 126.634 40.6394 126.731 40.4434C126.833 40.2325 126.964 40.0637 127.125 39.9372C127.287 39.8106 127.5 39.7486 127.763 39.7486C128.237 39.7486 128.584 39.9794 128.8 40.4434C128.902 40.6592 128.951 40.9024 128.951 41.1704C128.956 41.4408 128.904 41.684 128.802 41.8949ZM128.646 39.6047C128.403 39.4558 128.108 39.3789 127.765 39.3789C127.421 39.3789 127.13 39.4558 126.89 39.6047C126.649 39.7561 126.463 39.9595 126.327 40.2201C126.19 40.4781 126.123 40.7957 126.123 41.1704C126.123 41.5525 126.19 41.8676 126.327 42.1133C126.463 42.3763 126.652 42.5847 126.89 42.7361C127.13 42.8899 127.421 42.9668 127.765 42.9668C128.11 42.9668 128.403 42.8899 128.646 42.7361C128.892 42.5847 129.08 42.3763 129.216 42.1133C129.353 41.8279 129.42 41.5153 129.42 41.1704C129.42 40.8354 129.353 40.5178 129.216 40.2201C129.08 39.962 128.892 39.7561 128.646 39.6047Z" fill="#1E1E1C"/>
<path d="M136.067 41.4122H137.074V42.3427C136.977 42.4246 136.853 42.4866 136.707 42.5337C136.56 42.5809 136.417 42.6032 136.278 42.6032C136.141 42.6032 136.02 42.5859 135.908 42.5561C135.799 42.5238 135.682 42.4742 135.558 42.4072C135.36 42.2931 135.199 42.1268 135.082 41.9134C134.963 41.7 134.903 41.4494 134.903 41.1666C134.903 40.9036 134.953 40.6678 135.05 40.4594C135.146 40.251 135.3 40.0798 135.511 39.9433C135.722 39.8068 135.95 39.7398 136.201 39.7398C136.35 39.7398 136.511 39.7622 136.687 39.8093C136.863 39.8565 137.017 39.9135 137.148 39.9805L137.314 39.6753C137.141 39.5736 136.96 39.4967 136.776 39.447C136.59 39.3974 136.387 39.3701 136.161 39.3701C135.834 39.3701 135.541 39.4495 135.283 39.6058C135.028 39.7547 134.824 39.9656 134.668 40.241C134.514 40.519 134.435 40.8366 134.435 41.1963C134.435 41.5189 134.509 41.8191 134.658 42.0946C134.797 42.3625 134.998 42.5759 135.256 42.7347C135.516 42.8935 135.804 42.9729 136.121 42.9729C136.436 42.9729 136.717 42.9159 136.967 42.8017C137.163 42.7174 137.324 42.6082 137.458 42.4767V41.0698H136.064V41.4122H136.067Z" fill="#1E1E1C"/>
<path d="M143.096 39.4185H142.682V42.9217H143.096V39.4185Z" fill="#1E1E1C"/>
<path d="M148.465 42.9215H150.514V42.5518H148.884V41.2913H150.388V40.929H148.884V39.7752H150.514V39.4204H148.465V42.9215Z" fill="#1E1E1C"/>
<path d="M157.527 41.235C157.401 41.1656 157.23 41.0862 157.009 40.9968C156.954 40.9795 156.892 40.9571 156.825 40.9274C156.659 40.8604 156.53 40.8033 156.441 40.7586C156.349 40.714 156.267 40.652 156.193 40.5701C156.118 40.4907 156.081 40.3914 156.081 40.2773C156.081 40.111 156.153 39.982 156.294 39.8927C156.436 39.8009 156.632 39.7562 156.877 39.7562C157.063 39.7562 157.326 39.8232 157.666 39.9597L157.788 39.5825C157.406 39.4212 157.086 39.3394 156.828 39.3394C156.644 39.3394 156.486 39.3592 156.349 39.4014C156.213 39.4411 156.084 39.5081 155.96 39.6024C155.751 39.7637 155.647 40.0043 155.647 40.3219C155.647 40.5651 155.726 40.7537 155.883 40.8877C156.039 41.0241 156.277 41.1557 156.597 41.2822L156.743 41.3393C156.999 41.4336 157.192 41.5254 157.329 41.6196C157.465 41.7115 157.532 41.838 157.532 41.9943C157.532 42.173 157.448 42.307 157.277 42.3988C157.108 42.4906 156.895 42.5352 156.639 42.5352C156.394 42.5352 156.084 42.4658 155.709 42.3243L155.563 42.7313C155.821 42.8206 156.014 42.8826 156.141 42.9174C156.27 42.9521 156.431 42.9695 156.624 42.9695C157.001 42.9695 157.321 42.8851 157.587 42.7139C157.85 42.5427 157.981 42.2946 157.981 41.9695C157.981 41.7884 157.937 41.637 157.847 41.5179C157.761 41.4013 157.654 41.307 157.527 41.235Z" fill="#1E1E1C"/>
<path d="M73.0632 10.3633C73.8594 10.3633 74.1942 10.805 73.8594 11.7255L70.7042 20.0998L66.5047 9.9043H61.7893V10.3658C62.5657 10.4303 62.9204 10.8497 63.2355 11.604L68.7049 24.581H69.8782L74.7176 11.604C75.0103 10.8273 75.3874 10.4303 76.1638 10.3658V9.9043H73.0632V10.3633V10.3633Z" fill="#1E1E1C"/>
<path d="M159.622 17.6781H158.808V10.6983H159.622C161.844 10.6983 163.288 12.0406 163.288 14.1994C163.29 16.3581 161.844 17.6781 159.622 17.6781ZM165.764 22.859L162.598 18.0801C164.379 17.4697 165.617 16.234 165.617 14.2019C165.617 11.202 162.913 9.9043 159.833 9.9043H154.093V10.3658C154.869 10.4303 155.053 10.9216 155.053 11.604V24.2833H154.346V24.581H159.522V24.2833H158.811V18.5019H159.835C160.043 18.5019 160.274 18.4821 160.485 18.4821L164.342 24.5835H167.802V24.2808C167.234 24.1493 166.225 23.5711 165.764 22.859Z" fill="#1E1E1C"/>
<path d="M106.773 9.9873H102.05V16.6743H96.6722V10.9674V9.9873H91.9568V10.4488C92.7332 10.5133 92.9168 11.0046 92.9168 11.687V24.2819H92.2073V24.5797H97.3842V24.2819H96.6747V17.4708H102.052V24.2819H101.343V24.5797H106.52V24.2819H105.81V11.6895H105.818C105.818 11.0096 106.001 10.5158 106.778 10.4513V9.9873H106.773Z" fill="#1E1E1C"/>
<path d="M130.448 24.2202C127.506 24.2202 125.854 21.7836 125.794 17.4687H135.059C134.999 21.7836 133.389 24.2202 130.448 24.2202ZM130.448 10.2581C133.31 10.2581 134.905 12.5558 135.041 16.6722H125.809C125.95 12.5583 127.583 10.2581 130.448 10.2581ZM130.448 9.69238C126.025 9.69238 122.629 12.8361 122.629 17.2404C122.629 21.6223 126.025 24.7885 130.448 24.7885C134.87 24.7885 138.244 21.6223 138.244 17.2404C138.244 12.8361 134.87 9.69238 130.448 9.69238Z" fill="#C08F37"/>
</svg>
