<svg width="267" height="193" viewBox="0 0 267 193" fill="none" xmlns="http://www.w3.org/2000/svg">
<g clip-path="url(#clip0_3611_902)">
<path d="M35.3647 176.239H38.0482V183.522H39.0219V176.239H41.7496V175.413H35.3647V176.239Z" fill="#EFEBE6"/>
<path d="M53.1914 183.522H57.9393V182.667H54.1647V179.748H57.6443V178.907H54.1647V176.239H57.9393V175.413H53.1914V183.522Z" fill="#EFEBE6"/>
<path d="M74.1143 182.755C73.4267 182.755 72.822 182.613 72.3006 182.327C71.8292 182.052 71.4553 181.667 71.1802 181.17C70.9051 180.673 70.7673 180.096 70.7673 179.438C70.7673 178.759 70.8876 178.173 71.1286 177.676C71.3696 177.18 71.7158 176.798 72.1689 176.533C72.6005 176.298 73.2008 176.18 73.9668 176.18C74.3509 176.18 74.6772 176.206 74.9479 176.261C75.2185 176.315 75.5302 176.401 75.8842 176.519L76.1646 175.722C75.6525 175.555 75.2795 175.447 75.0434 175.398C74.6898 175.329 74.2375 175.294 73.6872 175.294C73.1463 175.294 72.5912 175.407 72.021 175.635C71.5289 175.83 71.1066 176.112 70.7527 176.474C70.4182 176.808 70.1577 177.228 69.9708 177.736C69.7834 178.241 69.6912 178.813 69.6912 179.452C69.6912 180.7 70.0594 181.708 70.7974 182.474C71.1505 182.828 71.5878 183.113 72.1092 183.329C72.6306 183.545 73.2012 183.654 73.8201 183.654C74.7243 183.654 75.5355 183.478 76.2528 183.123L76.0171 182.356C75.3185 182.622 74.6845 182.755 74.1143 182.755Z" fill="#EFEBE6"/>
<path d="M93.4752 178.996H88.9635V175.414H87.9897V183.522H88.9635V179.881H93.4752V183.522H94.4481V175.414H93.4752V178.996Z" fill="#EFEBE6"/>
<path d="M112.348 182.21L107.939 175.414H106.701V183.522H107.674V176.696L112.098 183.522H113.351V175.414H112.348V182.21Z" fill="#EFEBE6"/>
<path d="M131.414 181.149C131.188 181.65 130.886 182.046 130.508 182.336C130.129 182.626 129.63 182.77 129.01 182.77C128.401 182.77 127.91 182.626 127.536 182.336C127.163 182.046 126.858 181.65 126.622 181.149C126.396 180.707 126.283 180.146 126.283 179.468C126.283 178.8 126.396 178.24 126.622 177.787C126.858 177.296 127.163 176.906 127.536 176.615C127.91 176.325 128.401 176.181 129.01 176.181C130.112 176.181 130.913 176.716 131.414 177.787C131.65 178.287 131.768 178.849 131.768 179.468C131.768 180.097 131.65 180.657 131.414 181.149ZM131.053 175.849C130.487 175.5 129.807 175.326 129.01 175.326C128.215 175.326 127.539 175.5 126.983 175.849C126.429 176.198 125.993 176.672 125.678 177.271C125.365 177.871 125.207 178.603 125.207 179.468C125.207 180.352 125.365 181.08 125.678 181.65C125.993 182.259 126.429 182.741 126.983 183.094C127.539 183.449 128.215 183.625 129.01 183.625C129.807 183.625 130.488 183.449 131.053 183.094C131.618 182.741 132.058 182.259 132.373 181.65C132.687 180.991 132.845 180.264 132.845 179.468C132.845 178.692 132.687 177.959 132.373 177.271C132.058 176.672 131.618 176.198 131.053 175.849Z" fill="#EFEBE6"/>
<path d="M145.776 175.414H144.803V183.522H149.418V182.667H145.776V175.414Z" fill="#EFEBE6"/>
<path d="M166.891 181.149C166.664 181.65 166.362 182.046 165.984 182.336C165.605 182.626 165.107 182.77 164.487 182.77C163.878 182.77 163.386 182.626 163.013 182.336C162.639 182.046 162.334 181.65 162.099 181.149C161.873 180.707 161.76 180.146 161.76 179.468C161.76 178.8 161.873 178.24 162.099 177.787C162.334 177.296 162.639 176.906 163.013 176.615C163.386 176.325 163.878 176.181 164.487 176.181C165.588 176.181 166.39 176.716 166.891 177.787C167.127 178.287 167.245 178.849 167.245 179.468C167.245 180.097 167.127 180.657 166.891 181.149ZM166.529 175.849C165.963 175.5 165.284 175.326 164.487 175.326C163.691 175.326 163.015 175.5 162.46 175.849C161.905 176.198 161.469 176.672 161.155 177.271C160.84 177.871 160.683 178.603 160.683 179.468C160.683 180.352 160.84 181.08 161.155 181.65C161.469 182.259 161.905 182.741 162.46 183.094C163.015 183.449 163.691 183.625 164.487 183.625C165.284 183.625 165.964 183.449 166.529 183.094C167.095 182.741 167.534 182.259 167.849 181.65C168.163 180.991 168.321 180.264 168.321 179.468C168.321 178.692 168.163 177.959 167.849 177.271C167.534 176.672 167.095 176.198 166.529 175.849Z" fill="#EFEBE6"/>
<path d="M183.715 180.028H186.044V182.181C185.819 182.367 185.536 182.514 185.197 182.622C184.858 182.732 184.526 182.785 184.202 182.785C183.887 182.785 183.602 182.748 183.346 182.674C183.09 182.601 182.82 182.485 182.536 182.328C182.073 182.062 181.705 181.682 181.429 181.185C181.154 180.689 181.017 180.111 181.017 179.453C181.017 178.844 181.13 178.299 181.356 177.816C181.581 177.334 181.938 176.937 182.425 176.623C182.912 176.308 183.445 176.15 184.025 176.15C184.369 176.15 184.744 176.204 185.153 176.312C185.561 176.421 185.917 176.554 186.222 176.71L186.605 176.003C186.202 175.766 185.786 175.59 185.359 175.472C184.932 175.354 184.457 175.294 183.936 175.294C183.179 175.294 182.502 175.476 181.902 175.841C181.312 176.185 180.837 176.675 180.478 177.315C180.12 177.953 179.94 178.691 179.94 179.525C179.94 180.273 180.112 180.965 180.457 181.604C180.782 182.224 181.243 182.717 181.843 183.086C182.442 183.454 183.11 183.638 183.848 183.638C184.575 183.638 185.229 183.506 185.81 183.24C186.261 183.044 186.64 182.793 186.945 182.489V179.23H183.715V180.028H183.715Z" fill="#EFEBE6"/>
<path d="M199.993 175.413H199.035V183.522H199.993V175.413Z" fill="#EFEBE6"/>
<path d="M212.424 183.522H217.172V182.667H213.398V179.748H216.877V178.907H213.398V176.239H217.172V175.413H212.424V183.522Z" fill="#EFEBE6"/>
<path d="M233.414 179.622C233.123 179.46 232.723 179.276 232.212 179.07C232.084 179.031 231.941 178.976 231.784 178.908C231.401 178.751 231.103 178.62 230.892 178.517C230.68 178.414 230.489 178.27 230.317 178.082C230.145 177.896 230.059 177.67 230.059 177.404C230.059 177.021 230.223 176.723 230.553 176.512C230.883 176.301 231.332 176.195 231.902 176.195C232.334 176.195 232.944 176.353 233.73 176.667L234.01 175.797C233.125 175.423 232.383 175.237 231.784 175.237C231.361 175.237 230.993 175.283 230.678 175.377C230.363 175.471 230.063 175.625 229.778 175.842C229.296 176.216 229.055 176.77 229.055 177.508C229.055 178.068 229.237 178.506 229.601 178.819C229.965 179.134 230.516 179.439 231.253 179.734L231.592 179.867C232.182 180.083 232.634 180.299 232.948 180.515C233.263 180.731 233.421 181.022 233.421 181.386C233.421 181.798 233.223 182.11 232.83 182.322C232.437 182.533 231.946 182.639 231.356 182.639C230.786 182.639 230.068 182.477 229.203 182.152L228.864 183.095C229.463 183.302 229.91 183.445 230.206 183.523C230.501 183.602 230.874 183.641 231.326 183.641C232.201 183.641 232.943 183.445 233.553 183.051C234.163 182.658 234.467 182.083 234.467 181.327C234.467 180.904 234.364 180.556 234.158 180.28C233.952 180.003 233.703 179.786 233.414 179.622Z" fill="#EFEBE6"/>
<path d="M33.9646 108.156C35.8084 108.156 36.5855 109.176 35.8085 111.31L28.5007 130.691L18.7725 107.089H7.84985V108.156C9.64611 108.303 10.4723 109.275 11.1997 111.021L23.8682 141.061H26.5878L37.7982 111.021C38.478 109.223 39.3514 108.303 41.148 108.156V107.089H33.9646V108.156Z" fill="#EFEBE6"/>
<path d="M243.057 125.092H241.171V108.935H243.057C248.203 108.935 251.551 112.041 251.551 117.04C251.551 122.038 248.203 125.092 243.057 125.092ZM257.28 137.082L249.95 126.018C254.076 124.607 256.939 121.746 256.939 117.04C256.939 110.097 250.677 107.09 243.543 107.09H242.046H241.171H234.256H232.47H232.331H230.248V108.157C232.045 108.303 232.47 109.444 232.47 111.021H232.47V140.37H230.831V141.061H232.47H236.007H241.017H241.171H242.821V140.37H241.171V126.986H243.543C244.027 126.986 244.561 126.939 245.047 126.939L253.979 141.061H256.997H260.062H261.994V140.363C260.683 140.07 258.347 138.73 257.28 137.082Z" fill="#EFEBE6"/>
<path d="M113.157 107.287H111.083H104.471H104.457V107.78V122.765H92.0045V109.554L92.0057 107.287H81.0835V108.354C82.8798 108.499 83.3052 109.64 83.3052 111.218V140.37H81.6602V141.061H83.3052H85.5896H91.7062H92.0049H93.65V140.37H92.0049V124.606H104.458V140.37H102.813V141.061H104.458H104.472H111.083H113.158H114.804V140.37H113.158V111.22L113.173 111.218C113.173 109.64 113.597 108.499 115.394 108.354V107.287H114.804H113.157Z" fill="#EFEBE6"/>
<path d="M172.305 140.235C165.489 140.235 161.664 134.594 161.526 124.606H182.984C182.849 134.594 179.119 140.235 172.305 140.235ZM172.305 107.915C178.936 107.915 182.627 113.237 182.946 122.765H161.565C161.891 113.237 165.671 107.915 172.305 107.915ZM172.305 106.603C162.063 106.603 154.199 113.882 154.199 124.073C154.199 134.217 162.063 141.547 172.305 141.547C182.547 141.547 190.361 134.217 190.361 124.073C190.361 113.882 182.547 106.603 172.305 106.603Z" fill="#C7932C"/>
<path d="M160.413 57.5797C157.935 61.0866 154.697 64.1453 151.053 66.4252L150.687 66.6539V57.2022H160.68L160.413 57.5797ZM149.843 67.1419L149.722 67.2106C148.574 67.8534 147.376 68.4307 146.16 68.9281L145.83 69.0634V57.2026H149.843V67.1419H149.843ZM141.047 70.535L140.859 70.5765C138.573 71.075 136.249 71.3278 133.951 71.3278C133.093 71.3278 132.2 71.2875 131.223 71.2042L131.174 71.1953C125.878 69.6042 122.969 65.3736 121.739 57.4793L121.696 57.2026H141.047V70.535ZM121.635 21.2953C122.905 12.028 126.29 7.50856 132.613 6.64067C135.406 6.52812 138.173 6.76988 140.859 7.357L141.048 7.39804V21.5675H121.598L121.635 21.2953ZM145.831 8.87012L146.161 9.00502C147.38 9.50357 148.578 10.0818 149.722 10.7225L149.844 10.7916V21.5675H145.831V8.87012H145.831ZM150.687 11.2792L151.053 11.5083C154.989 13.969 158.422 17.3195 160.981 21.1957L161.227 21.5675H150.687V11.2792ZM164.383 49.9824L164.241 50.3594C163.536 52.2285 162.653 54.039 161.617 55.7411L161.547 55.8561H146.681H135.114H121.515L121.49 55.6444C120.993 51.3866 120.94 46.4198 120.929 42.0982L120.926 40.657L120.979 30.944L121.014 29.7734C121.089 27.2153 121.22 25.0419 121.417 23.1286L121.439 22.9136H128.292L133.407 22.6276L138.31 22.9136H162.038L162.107 23.0347C164.863 27.8829 166.319 33.3921 166.319 38.9676C166.319 39.95 166.269 40.9707 166.17 42.0015L166.1 42.7288L165.826 44.3472L167.157 44.7462C167.494 42.8137 167.664 40.8687 167.664 38.9676C167.664 32.9691 166.055 27.0698 163.013 21.9076L162.979 21.8511L162.814 21.5675L162.743 21.4525C156.641 11.464 145.608 5.25879 133.95 5.25879C115.361 5.25879 100.236 20.3802 100.236 38.9676C100.236 57.5533 115.361 72.6747 133.95 72.6747C148.363 72.6747 161.184 63.5001 165.852 49.8454L164.383 49.9824Z" fill="#C7932C"/>
<path d="M140.84 34.6064L141.416 34.4272C147.38 32.5699 152.634 32.7926 157.035 35.0875C161.782 37.5632 164.627 41.9814 166.178 45.2515C166.426 45.7781 166.661 46.3148 166.874 46.8483C166.927 46.9775 166.975 47.103 167.021 47.2229L167.244 47.8064L140.84 34.6064ZM165.976 48.6141C165.776 48.6535 165.577 48.6913 165.379 48.7259C163.607 49.0436 161.903 49.2021 160.271 49.2021C154.535 49.2021 149.674 47.2465 145.773 43.3597C143.214 40.8121 141.651 37.9618 140.791 36.0183L140.518 35.4007L166.674 48.4772L165.976 48.6141ZM141.171 55.7572L145.894 45.273L146.141 45.4827C148.457 47.4557 151.091 48.873 153.968 49.6945L154.385 49.814L154.066 50.1073C150.113 53.7252 145.905 55.6227 141.559 55.7458L141.171 55.7572ZM167.61 45.0471L167.58 44.9792C167.039 43.7136 166.52 42.8595 166.52 42.8595L166.14 42.2228C164.592 39.6252 161.867 36.0695 157.674 33.8811C152.713 31.2909 146.728 31.1438 140.032 33.4447L139.788 33.5284L139.719 33.2814C139.58 32.7889 139.469 32.0336 139.73 31.236C140.128 30.0207 141.259 29.0066 143.091 28.2211L143.859 27.8924L143.383 27.2049C143.318 27.1103 141.74 24.8642 139.064 23.2133C138.498 22.8639 137.908 22.5518 137.285 22.3202C132.106 20.3979 128.175 22.7635 128.175 22.7635L127.426 23.2149C126.457 23.7988 125.487 24.5318 124.546 25.3944C123.12 26.7015 122.014 28.1935 121.258 29.8297L121.257 29.8314C120.757 30.9142 120.398 32.0604 120.234 33.2416C119.992 34.9924 119.91 37.6213 120.705 40.7584L121.181 42.1403C123.344 48.4167 127.984 53.3599 133.908 55.7043L135.093 56.1724C135.093 56.1724 140.188 58.4441 146.824 56.1724L147.962 55.7047C150.721 54.5711 153.393 52.737 155.903 50.2544L155.993 50.1654L156.117 50.1878C158.723 50.653 161.424 50.6798 164.372 50.2715L164.777 50.2154L166.313 49.9444L166.449 49.9168C167.135 49.7778 167.818 49.6202 168.495 49.445L169.103 49.2874L168.931 48.6263C168.891 48.467 168.504 47.023 167.61 45.0471ZM132.8 31.2242H138.314L138.268 31.5058C137.989 33.2306 138.763 34.5702 138.771 34.5832L138.794 34.6336C138.886 34.9245 139.758 37.5668 141.779 40.5654C142.767 42.0326 143.887 43.3739 145.107 44.5502L145.23 44.6688L140.474 55.2249L132.8 31.2242ZM130.225 31.2242H131.902L139.727 55.6991L139.357 55.6605C137.969 55.5146 136.569 55.2001 135.199 54.7255C133.498 54.1384 131.86 53.2961 130.329 52.2226L130.225 52.1495V31.2242H130.225ZM132.347 26.3391C132.347 26.099 132.44 25.8743 132.609 25.7056C132.945 25.368 133.538 25.3676 133.877 25.7052C134.046 25.8743 134.139 26.099 134.139 26.3391C134.139 26.5784 134.046 26.8039 133.879 26.9729C133.702 27.1477 133.472 27.2346 133.243 27.2346C133.013 27.2346 132.784 27.1481 132.609 26.9733C132.44 26.8043 132.347 26.5788 132.347 26.3391ZM132.636 27.9843L132.807 28.0277C133.094 28.1009 133.297 28.1058 133.526 28.0598C133.849 27.9956 134.166 27.864 134.412 27.6434C135.119 27.0083 135.185 25.9486 134.579 25.2229L134.466 25.0868L135.674 23.1747L135.851 23.2287C138.561 24.0597 140.587 26.0173 141.555 27.1107L141.755 27.3374L141.49 27.4845C140.142 28.2313 139.195 29.1557 138.675 30.232L138.609 30.3689H131.13L132.636 27.9843ZM129.37 31.2242V51.5189L128.972 51.1861C125.776 48.515 123.356 44.7935 122.157 40.7076C121.137 37.2288 121.111 34.092 122.08 31.3851L122.138 31.2242H129.37ZM122.495 30.3689L122.676 30.0158C123.351 28.6961 124.292 27.48 125.469 26.4C128.366 23.7452 131.309 22.5612 134.221 22.8842C134.292 22.8923 134.361 22.9029 134.431 22.9147L134.895 22.9845L133.821 24.6842L133.651 24.6439C133.049 24.5005 132.434 24.6716 132.004 25.101C131.373 25.7325 131.324 26.7357 131.889 27.4341L131.999 27.5698L130.23 30.3689H122.495Z" fill="#EFEBE6"/>
<path d="M131.477 26.3346C131.477 25.8612 131.659 25.4179 131.992 25.0852C132.655 24.4196 133.824 24.4184 134.493 25.0844C134.826 25.4179 135.009 25.8612 135.009 26.3346C135.009 26.8071 134.827 27.2516 134.496 27.5848C134.149 27.9298 133.695 28.1013 133.241 28.1013C132.789 28.1013 132.336 27.9306 131.993 27.586C131.659 27.2525 131.477 26.8079 131.477 26.3346Z" fill="#EFEBE6"/>
<path d="M132.347 26.339C132.347 26.0989 132.44 25.8742 132.609 25.7056C132.945 25.3679 133.538 25.3675 133.877 25.7052C134.046 25.8742 134.138 26.0989 134.138 26.339C134.138 26.5784 134.046 26.8039 133.879 26.9729C133.702 27.1476 133.472 27.2346 133.243 27.2346C133.013 27.2346 132.783 27.1484 132.61 26.9733C132.44 26.8043 132.347 26.5792 132.347 26.339Z" fill="white"/>
</g>
<defs>
<clipPath id="clip0_3611_902">
<rect width="267" height="193" fill="white"/>
</clipPath>
</defs>
</svg>
