<svg width="70" height="70" viewBox="0 0 70 70" fill="none" xmlns="http://www.w3.org/2000/svg">
<path d="M37.0749 32.9755C37.0973 32.5611 37.0189 32.1383 36.8817 31.7491C36.7025 31.2423 36.4057 30.7747 36.0501 30.4107C35.7085 30.0691 35.2213 29.7471 34.7453 29.5287C33.9305 29.1451 33.0289 28.9855 32.1301 29.0135L37.0581 32.9755H37.0749Z" fill="white"/>
<path d="M24.5198 36.9011C24.5814 36.2319 24.7018 35.5795 24.9034 34.9355C24.7018 35.5795 24.5786 36.2319 24.5198 36.9011Z" fill="white"/>
<path d="M26.6702 27.8851C26.7682 27.8319 26.869 27.7843 26.967 27.7367C26.869 27.7871 26.7682 27.8347 26.6702 27.8851Z" fill="white"/>
<path d="M43.7949 25.8692C43.4561 25.2224 43.0389 24.6624 42.5881 24.1864C43.0361 24.7184 43.4421 25.2812 43.7949 25.8692Z" fill="white"/>
<path d="M34.9832 54.3872C36.8956 54.7008 38.8528 54.7148 40.754 54.4544C41.0564 54.4096 41.356 54.3564 41.6528 54.3004C41.3532 54.3592 41.0536 54.4124 40.754 54.4544C38.8528 54.7148 36.8956 54.7008 34.9832 54.3872Z" fill="white"/>
<path d="M33.7625 50.078C33.2389 49.8988 32.7265 49.6832 32.2253 49.4424C32.7237 49.6832 33.2389 49.8988 33.7625 50.078Z" fill="white"/>
<path d="M40.2081 50.9572C39.9337 50.9768 39.6593 50.9908 39.3821 50.9964C39.6565 50.9908 39.9309 50.9796 40.2081 50.9572Z" fill="white"/>
<path d="M32.2 49.4283C31.8724 49.2715 31.556 49.0979 31.2424 48.9187C31.556 49.0979 31.8752 49.2715 32.2 49.4283Z" fill="white"/>
<path d="M27.0925 27.6752C27.0506 27.6947 27.0115 27.7171 26.9668 27.7366C27.0087 27.7171 27.0506 27.6975 27.0925 27.678C27.0925 27.678 27.0925 27.6752 27.0925 27.6752Z" fill="white"/>
<path d="M26.1689 28.1707C26.3313 28.0699 26.5021 27.9775 26.6701 27.8879C26.4993 27.9775 26.3313 28.0699 26.1689 28.1707Z" fill="white"/>
<path d="M26.5161 50.6884C26.0933 50.3524 25.6873 49.9996 25.3037 49.6244C25.6873 49.9968 26.0933 50.3524 26.5161 50.6884Z" fill="white"/>
<path d="M43.6954 53.802C43.6903 53.802 43.6853 53.8045 43.6802 53.8071C43.6853 53.8045 43.6903 53.8045 43.6954 53.802Z" fill="white"/>
<path d="M39.3821 50.9992C37.7357 51.0384 36.0921 50.8228 34.5325 50.3412C36.0949 50.8228 37.7357 51.0356 39.3821 50.9992Z" fill="white"/>
<path d="M30.6796 48.5911C29.7696 48.0507 28.9632 47.4011 28.21 46.6731C28.966 47.3983 29.7696 48.0507 30.6796 48.5911Z" fill="white"/>
<path d="M28.2108 46.6737C28.2077 46.6706 28.2047 46.6676 28.2017 46.6676C28.2077 46.6706 28.2108 46.6706 28.2108 46.6737Z" fill="white"/>
<path d="M43.8592 25.9893C43.8592 25.9865 43.8592 25.9837 43.8592 25.9809C43.8368 25.9446 43.8145 25.9055 43.7949 25.8691C43.8145 25.911 43.8396 25.9474 43.8592 25.9893Z" fill="white"/>
<path d="M51.8225 38.0856C51.5201 38.7744 51.1113 39.4128 50.5905 39.956C50.7697 40.53 50.9517 41.1096 51.1365 41.6892C51.3381 41.4764 51.5201 41.2636 51.6713 41.0732C51.9821 40.6784 52.2509 40.2528 52.4749 39.802C52.9369 38.864 53.3205 37.8868 53.6089 36.8816C54.5077 33.8492 54.6785 30.6236 54.0989 27.538C53.5137 24.4552 52.2341 21.5236 50.3665 19.0288C49.4313 17.7828 48.3505 16.6544 47.1689 15.6548C45.9873 14.6552 44.7189 13.7564 43.3525 13.0284C41.9833 12.306 40.5329 11.7572 39.0489 11.3596C37.5649 10.9564 36.0417 10.7044 34.5129 10.6204C36.0361 10.7688 37.5397 11.0852 38.9929 11.5444C40.4489 12.0008 41.8545 12.6 43.1649 13.3644C44.4753 14.1232 45.6961 15.0416 46.8189 16.0524C47.9417 17.0632 48.9553 18.1944 49.8205 19.4264C51.5481 21.8876 52.6905 24.7548 53.1525 27.7004C53.6117 30.6488 53.3485 33.698 52.4189 36.5092C52.2481 37.0468 52.0465 37.5732 51.8225 38.0856Z" fill="white"/>
<path d="M29.4644 26.8716L32.13 29.0136C33.0288 28.9856 33.9304 29.1452 34.7452 29.5288C35.2184 29.7472 35.7084 30.0692 36.05 30.4108C36.4056 30.772 36.6996 31.2396 36.8816 31.7492C37.0188 32.1412 37.0972 32.564 37.0748 32.9756L37.7496 32.928L35.8316 28.0868C35.7756 28.0448 35.7224 28 35.6636 27.9608C34.4624 27.1516 33.0092 26.7484 31.5784 26.698C30.8728 26.6672 30.1616 26.7316 29.4644 26.8716Z" fill="white"/>
<path d="M58.0861 23.9848C54.6813 14.0784 45.1249 6.97755 35.0309 6.28875H35.0253C34.9217 6.28315 34.8293 6.35595 34.8153 6.45955C34.7985 6.56875 34.8769 6.66955 34.9833 6.68355C39.9085 7.37795 44.5705 9.46675 48.2973 12.6336C52.0577 15.7668 54.8437 19.978 56.1877 24.5924C56.8737 26.88 57.2125 29.3048 57.1369 31.6484C57.0417 34.0256 56.5741 36.3832 55.7397 38.5924C55.3309 39.6956 54.8129 40.782 54.2473 41.7928C53.6817 42.77 52.9649 43.7388 52.2145 44.6152C52.1837 44.6516 52.1501 44.6824 52.1193 44.7188C52.4861 45.8276 52.8473 46.8972 53.1833 47.8884C53.6201 47.4292 54.0401 46.9532 54.4349 46.4548C55.2665 45.3992 56.0057 44.3184 56.6469 43.106C57.2573 41.9104 57.7697 40.7092 58.1813 39.4492C59.0129 36.9432 59.4245 34.3112 59.4273 31.6876C59.4021 29.0304 58.9289 26.4544 58.0861 23.9848Z" fill="white"/>
<path d="M51.7582 45.1192C51.4278 44.1224 51.0918 43.0948 50.7614 42.0644C50.5738 41.482 50.389 40.9024 50.2098 40.3256C49.927 39.4212 49.6554 38.5308 49.4034 37.674C49.1122 36.6912 48.863 35.8036 48.6502 35.0084C48.2722 33.6 48.0174 32.4828 47.8802 31.6456L45.6458 40.1744L45.4806 40.81L45.279 40.5188L43.5654 38.0464L39.7182 32.4968L35.3922 25.7068L36.5906 28.7336L38.0634 32.4548L38.2622 32.9532L38.377 33.3564L37.8786 33.3928L37.0022 33.4544L36.9098 33.46L36.837 33.4012L31.4526 29.0724L28.885 27.0088L27.373 25.7936L28.1066 27.2552L29.3246 29.6772L33.1186 37.226L32.7182 36.9936L32.4774 36.8536L32.3038 36.9236L24.6514 39.9728C24.6374 39.8944 24.6206 39.816 24.6094 39.7376C24.5982 39.6564 24.587 39.578 24.5786 39.4968C24.5506 39.2924 24.5254 39.088 24.5086 38.8808C24.489 38.612 24.475 38.3432 24.4722 38.0716C24.4694 37.674 24.4834 37.282 24.517 36.8956C24.5786 36.2264 24.699 35.574 24.9006 34.93C24.9678 34.692 25.049 34.4568 25.1358 34.2272C25.1386 34.2188 25.1414 34.2104 25.1442 34.202C25.231 33.9752 25.329 33.754 25.4354 33.5356C25.441 33.5244 25.4466 33.5132 25.4522 33.502C25.5586 33.2864 25.6762 33.0764 25.7994 32.8692C25.805 32.858 25.8134 32.8468 25.819 32.8356C25.945 32.6284 26.0794 32.4296 26.2222 32.2336C26.2278 32.2252 26.2334 32.2168 26.2418 32.2084C26.3874 32.0124 26.5414 31.822 26.7038 31.64C26.7094 31.6344 26.7122 31.6288 26.7178 31.6232C26.883 31.4384 27.0538 31.262 27.2358 31.0912C27.2386 31.0884 27.2414 31.0856 27.247 31.0828C27.429 30.912 27.6194 30.7496 27.8182 30.5984C27.821 30.5956 27.821 30.5956 27.8238 30.5928C28.0254 30.4388 28.2326 30.296 28.4454 30.1588C28.507 30.1196 28.5658 30.0804 28.6302 30.044C28.7226 29.988 28.815 29.9376 28.9074 29.8872L27.667 27.4204C27.569 27.4596 27.471 27.4988 27.373 27.5436C27.2778 27.5828 27.1854 27.6332 27.093 27.6752C27.051 27.6948 27.009 27.7144 26.967 27.734C26.8662 27.7816 26.7682 27.832 26.6702 27.8824C26.4994 27.972 26.3314 28.0672 26.169 28.168C26.0206 28.2576 25.875 28.3528 25.7322 28.4508C25.7294 28.4536 25.7294 28.4536 25.7266 28.4564C25.5866 28.5544 25.4466 28.6524 25.3094 28.756C25.3038 28.7588 25.301 28.7616 25.2954 28.7672C25.1638 28.868 25.0322 28.9744 24.9034 29.0836C24.895 29.0892 24.8866 29.0976 24.881 29.1032C24.755 29.2096 24.6346 29.3188 24.5142 29.4308C24.503 29.442 24.4918 29.4532 24.4806 29.4644C24.3658 29.5736 24.251 29.6828 24.1418 29.7976C24.1278 29.8144 24.111 29.8312 24.0942 29.848C23.9878 29.9572 23.8842 30.0664 23.7834 30.1812C23.7638 30.2036 23.7442 30.226 23.7218 30.2512C23.6266 30.3604 23.5342 30.4696 23.4418 30.5816C23.4166 30.6124 23.3942 30.6432 23.369 30.674C23.285 30.7804 23.201 30.8868 23.1198 30.996C23.0918 31.0352 23.0638 31.0772 23.0358 31.1164C22.9602 31.22 22.8874 31.3208 22.8174 31.4272C22.7838 31.4776 22.753 31.528 22.7194 31.5784C22.655 31.6764 22.5906 31.7744 22.5318 31.8724C22.4954 31.934 22.459 31.9956 22.4254 32.0572C22.3722 32.1496 22.319 32.2392 22.2658 32.3316C22.2238 32.4072 22.1846 32.4828 22.1454 32.5612C22.1034 32.6424 22.0586 32.7208 22.0194 32.802C21.9718 32.9 21.927 32.998 21.8794 33.0988C21.8514 33.1604 21.8206 33.222 21.7926 33.2836C21.7198 33.446 21.6526 33.6084 21.591 33.7736C21.535 33.9108 21.4846 34.0508 21.4342 34.1908C21.255 34.6948 21.1122 35.2156 21.0058 35.7392C20.9554 35.98 20.9134 36.2208 20.877 36.4616C20.8014 36.9712 20.751 37.4836 20.723 37.9876C20.709 38.2536 20.7034 38.5196 20.7034 38.7856C20.7034 39.0768 20.7118 39.3652 20.7286 39.6536C20.7398 39.872 20.7566 40.0876 20.7762 40.306C20.8406 40.9556 20.9442 41.6052 21.0926 42.2436C21.1766 42.5936 21.2746 42.938 21.3838 43.2824C21.7114 44.31 22.1454 45.304 22.6774 46.242C23.3914 47.4908 24.2902 48.6248 25.3038 49.6244C25.6874 49.9996 26.0962 50.3524 26.5162 50.6884C27.0706 51.1308 27.6474 51.5396 28.2466 51.9036C28.3978 51.996 28.549 52.0828 28.7002 52.1696C28.9914 52.3348 29.2826 52.4916 29.5822 52.64C29.5962 52.6456 29.6102 52.654 29.6242 52.6624C30.453 53.0768 31.3126 53.424 32.1974 53.7096C32.3066 53.746 32.4158 53.788 32.5278 53.8216C32.7126 53.8804 32.9002 53.9252 33.0878 53.9784C33.7122 54.1492 34.345 54.2864 34.9834 54.3928C36.8958 54.7064 38.8558 54.7204 40.757 54.46C41.0594 54.4152 41.359 54.362 41.6558 54.306C41.7566 54.2864 41.8574 54.2668 41.9582 54.2444C42.1598 54.2024 42.3558 54.1576 42.5574 54.11C42.6694 54.082 42.7842 54.0568 42.8962 54.0288C43.1594 53.9616 43.4226 53.8888 43.6858 53.8104C43.6914 53.8104 43.697 53.8076 43.7026 53.8048C44.0526 53.7012 44.397 53.592 44.7414 53.4688C44.775 53.4576 44.8086 53.4436 44.8394 53.4296C44.0666 52.4636 43.207 51.52 42.3306 50.6296C41.6726 50.7724 41.0146 50.8844 40.3482 50.9516C40.3034 50.9544 40.2586 50.9544 40.2138 50.96C39.9394 50.9796 39.665 50.9936 39.3878 50.9992C37.7414 51.0384 36.0978 50.8228 34.5382 50.3412C34.2778 50.26 34.0202 50.1732 33.7654 50.078C33.2418 49.8988 32.7294 49.6832 32.2282 49.4424C32.2198 49.4396 32.2142 49.434 32.2058 49.4312C31.8782 49.2744 31.5618 49.1008 31.2482 48.9216C31.1754 48.8796 31.0998 48.8376 31.027 48.7956C31.013 48.7872 30.999 48.7788 30.9822 48.7704C30.9234 48.7368 30.8646 48.7032 30.8058 48.6696L31.8838 47.8436L36.1202 44.604L36.263 44.7132C37.4838 45.64 40.267 47.8464 42.8626 50.512C43.7138 51.3856 44.5426 52.3096 45.293 53.256C46.3234 54.5552 47.197 55.8964 47.7514 57.1984C48.6222 56.3136 51.5594 53.5612 54.5946 53.3764C54.3398 52.6568 53.6566 50.7248 52.8194 48.2664C52.4834 47.2836 52.125 46.2224 51.7582 45.1192ZM28.2102 46.6732C28.9634 47.3984 29.767 48.0508 30.6798 48.5884C29.767 48.0508 28.9662 47.3984 28.2102 46.6732C28.2074 46.6704 28.2046 46.6676 28.2018 46.6676C28.1458 46.6144 28.0954 46.5556 28.0422 46.4996C27.9834 46.4408 27.9302 46.382 27.8742 46.3232C26.9166 45.3152 26.127 44.1616 25.5558 42.9072C25.5194 42.8288 25.483 42.7532 25.4494 42.672C25.4158 42.5964 25.3878 42.5152 25.357 42.4368L30.8226 42.4004L28.2102 46.6732ZM48.3114 48.0564L48.1014 48.9916L47.7066 48.4456L46.5726 46.872L44.9934 41.8152L48.7454 46.1468L48.3114 48.0564Z" fill="white"/>
<path d="M30.2737 20.1179C24.0381 21.7307 18.9225 26.7819 17.1613 32.8775C16.2653 35.9071 16.0917 39.1355 16.6713 42.2211C17.2565 45.3039 18.5361 48.2355 20.4037 50.7303C21.3389 51.9763 22.4197 53.1047 23.6013 54.1071C24.7829 55.1067 26.0513 56.0027 27.4177 56.7335C28.7841 57.4587 30.2373 58.0047 31.7213 58.4023C33.2053 58.8027 34.7257 59.0575 36.2573 59.1415C34.7341 58.9931 33.2305 58.6767 31.7773 58.2175C30.3213 57.7611 28.9157 57.1619 27.6053 56.3975C26.2949 55.6387 25.0741 54.7203 23.9513 53.7095C22.8257 52.6987 21.8149 51.5675 20.9497 50.3355C19.2221 47.8743 18.0797 45.0099 17.6177 42.0615C17.1557 39.1103 17.4217 36.0639 18.3513 33.2499C19.2669 30.4303 20.8797 27.8683 23.0469 25.8747C24.1305 24.8779 25.3177 23.9903 26.6029 23.2987C27.8769 22.6043 29.2797 22.0807 30.6825 21.7335C32.0909 21.3947 33.5497 21.2771 35.0057 21.3303C36.4869 21.3779 37.9037 21.5963 39.2785 22.0415C40.1269 22.3187 41.4653 22.9991 42.5909 24.1891C43.0417 24.6651 43.4589 25.2223 43.7977 25.8691C43.8201 25.9055 43.8425 25.9447 43.8621 25.9811C44.1141 26.4095 44.3381 26.8519 44.5313 27.3083C45.3797 29.2375 45.7017 31.4131 45.4273 33.4935C45.2929 34.5267 44.9933 35.5683 44.5565 36.4951C44.3577 36.8843 44.1197 37.2707 43.8593 37.6431L45.2845 39.6955L47.7765 30.1839L48.2357 30.2651C48.1965 30.7131 48.3057 31.7407 48.8909 34.0647C49.4565 31.3207 49.1765 28.4647 48.2301 25.8495C47.7065 24.5307 47.0541 23.2819 46.2197 22.1535C45.3881 21.0251 44.3969 20.0171 43.3161 19.1379C41.1405 17.3767 38.5337 16.2651 35.8681 15.6995C30.5033 14.6439 24.8641 15.8563 20.4709 18.8551C18.2701 20.3279 16.3465 22.2039 14.8569 24.3879C13.3785 26.5299 12.2557 28.9183 11.5389 31.4075C10.8193 33.8995 10.5141 36.4867 10.5785 39.0543C10.6513 41.6499 11.2057 44.2035 12.1465 46.5863C13.0929 48.9131 14.2745 51.1923 15.8033 53.2167C17.3181 55.2467 19.1493 57.0387 21.1709 58.5115C23.1729 60.0095 25.3961 61.2359 27.7341 62.1011C30.0777 62.9635 32.5249 63.4731 34.9805 63.7111C35.0841 63.7195 35.1821 63.6467 35.1989 63.5431C35.2157 63.4339 35.1401 63.3331 35.0337 63.3163C30.2093 62.5771 25.6089 60.6451 21.9269 57.5427C20.0593 56.0279 18.4353 54.2611 17.1165 52.2871C15.7837 50.3159 14.7981 48.1515 14.0113 45.8919C13.2413 43.6799 12.8381 41.3475 12.8689 39.0347C12.9053 36.6967 13.2805 34.3699 14.0113 32.1719C14.7421 29.9739 15.8201 27.9047 17.2061 26.0651C18.5529 24.2479 20.2749 22.7051 22.1957 21.5291C24.1137 20.3475 26.2557 19.5747 28.4481 19.2247C30.6433 18.8803 32.8945 19.0035 35.0029 19.5411C35.0449 19.5523 35.0841 19.5663 35.1261 19.5775C35.1037 19.5775 35.0813 19.5747 35.0589 19.5747C33.4545 19.5327 31.8333 19.7063 30.2737 20.1179Z" fill="white"/>
</svg>
